<?xml version="1.0"?>
<!-- Generated by SVGo and Plotinum VG -->
<svg width="300pt" height="300pt" viewBox="0 0 300 300"
	xmlns="http://www.w3.org/2000/svg"
	xmlns:xlink="http://www.w3.org/1999/xlink">
<g transform="scale(1, -1) translate(0, -300)">
<path d="M0,0L300,0L300,300L0,300Z" style="fill:#FFFFFF" />
<text x="49.161" y="-291.04" transform="scale(1, -1)"
	style="font-family:Times;font-weight:normal;font-style:normal;font-size:12px">S</text>
<text x="55.835" y="-291.04" transform="scale(1, -1)"
	style="font-family:Times;font-weight:normal;font-style:normal;font-size:12px">c</text>
<text x="61.161" y="-291.04" transform="scale(1, -1)"
	style="font-family:Times;font-weight:normal;font-style:normal;font-size:12px">a</text>
<text x="66.487" y="-291.04" transform="scale(1, -1)"
	style="font-family:Times;font-weight:normal;font-style:normal;font-size:12px">t</text>
<text x="69.821" y="-291.04" transform="scale(1, -1)"
	style="font-family:Times;font-weight:normal;font-style:normal;font-size:12px">t</text>
<text x="73.155" y="-291.04" transform="scale(1, -1)"
	style="font-family:Times;font-weight:normal;font-style:normal;font-size:12px">e</text>
<text x="78.481" y="-291.04" transform="scale(1, -1)"
	style="font-family:Times;font-weight:normal;font-style:normal;font-size:12px">r</text>
<text x="82.478" y="-291.04" transform="scale(1, -1)"
	style="font-family:Times;font-weight:normal;font-style:normal;font-size:12px"> </text>
<text x="85.478" y="-291.04" transform="scale(1, -1)"
	style="font-family:Times;font-weight:normal;font-style:normal;font-size:12px">P</text>
<text x="92.151" y="-291.04" transform="scale(1, -1)"
	style="font-family:Times;font-weight:normal;font-style:normal;font-size:12px">l</text>
<text x="95.485" y="-291.04" transform="scale(1, -1)"
	style="font-family:Times;font-weight:normal;font-style:normal;font-size:12px">o</text>
<text x="101.49" y="-291.04" transform="scale(1, -1)"
	style="font-family:Times;font-weight:normal;font-style:normal;font-size:12px">t</text>
<text x="104.82" y="-291.04" transform="scale(1, -1)"
	style="font-family:Times;font-weight:normal;font-style:normal;font-size:12px"> </text>
<text x="107.82" y="-291.04" transform="scale(1, -1)"
	style="font-family:Times;font-weight:normal;font-style:normal;font-size:12px">o</text>
<text x="113.82" y="-291.04" transform="scale(1, -1)"
	style="font-family:Times;font-weight:normal;font-style:normal;font-size:12px">f</text>
<text x="117.82" y="-291.04" transform="scale(1, -1)"
	style="font-family:Times;font-weight:normal;font-style:normal;font-size:12px"> </text>
<text x="120.82" y="-291.04" transform="scale(1, -1)"
	style="font-family:Times;font-weight:normal;font-style:normal;font-size:12px">t</text>
<text x="124.15" y="-291.04" transform="scale(1, -1)"
	style="font-family:Times;font-weight:normal;font-style:normal;font-size:12px">h</text>
<text x="130.15" y="-291.04" transform="scale(1, -1)"
	style="font-family:Times;font-weight:normal;font-style:normal;font-size:12px">e</text>
<text x="135.48" y="-291.04" transform="scale(1, -1)"
	style="font-family:Times;font-weight:normal;font-style:normal;font-size:12px"> </text>
<text x="138.48" y="-291.04" transform="scale(1, -1)"
	style="font-family:Times;font-weight:normal;font-style:normal;font-size:12px">L</text>
<text x="145.81" y="-291.04" transform="scale(1, -1)"
	style="font-family:Times;font-weight:normal;font-style:normal;font-size:12px">a</text>
<text x="151.13" y="-291.04" transform="scale(1, -1)"
	style="font-family:Times;font-weight:normal;font-style:normal;font-size:12px">t</text>
<text x="154.47" y="-291.04" transform="scale(1, -1)"
	style="font-family:Times;font-weight:normal;font-style:normal;font-size:12px">e</text>
<text x="159.79" y="-291.04" transform="scale(1, -1)"
	style="font-family:Times;font-weight:normal;font-style:normal;font-size:12px">n</text>
<text x="165.79" y="-291.04" transform="scale(1, -1)"
	style="font-family:Times;font-weight:normal;font-style:normal;font-size:12px">t</text>
<text x="169.13" y="-291.04" transform="scale(1, -1)"
	style="font-family:Times;font-weight:normal;font-style:normal;font-size:12px"> </text>
<text x="172.13" y="-291.04" transform="scale(1, -1)"
	style="font-family:Times;font-weight:normal;font-style:normal;font-size:12px">S</text>
<text x="178.8" y="-291.04" transform="scale(1, -1)"
	style="font-family:Times;font-weight:normal;font-style:normal;font-size:12px">p</text>
<text x="184.8" y="-291.04" transform="scale(1, -1)"
	style="font-family:Times;font-weight:normal;font-style:normal;font-size:12px">a</text>
<text x="190.13" y="-291.04" transform="scale(1, -1)"
	style="font-family:Times;font-weight:normal;font-style:normal;font-size:12px">c</text>
<text x="195.45" y="-291.04" transform="scale(1, -1)"
	style="font-family:Times;font-weight:normal;font-style:normal;font-size:12px">e</text>
<text x="200.78" y="-291.04" transform="scale(1, -1)"
	style="font-family:Times;font-weight:normal;font-style:normal;font-size:12px"> </text>
<text x="203.78" y="-291.04" transform="scale(1, -1)"
	style="font-family:Times;font-weight:normal;font-style:normal;font-size:12px">(</text>
<text x="207.77" y="-291.04" transform="scale(1, -1)"
	style="font-family:Times;font-weight:normal;font-style:normal;font-size:12px">G</text>
<text x="216.44" y="-291.04" transform="scale(1, -1)"
	style="font-family:Times;font-weight:normal;font-style:normal;font-size:12px">P</text>
<text x="223.11" y="-291.04" transform="scale(1, -1)"
	style="font-family:Times;font-weight:normal;font-style:normal;font-size:12px">L</text>
<text x="227.51" y="-291.04" transform="scale(1, -1)"
	style="font-family:Times;font-weight:normal;font-style:normal;font-size:12px">V</text>
<text x="236.17" y="-291.04" transform="scale(1, -1)"
	style="font-family:Times;font-weight:normal;font-style:normal;font-size:12px">M</text>
<text x="246.84" y="-291.04" transform="scale(1, -1)"
	style="font-family:Times;font-weight:normal;font-style:normal;font-size:12px">)</text>
<text x="165.23" y="0.50977" transform="scale(1, -1)"
	style="font-family:Times;font-weight:normal;font-style:normal;font-size:12px">x</text>
<text x="75.83" y="-5.6849" transform="scale(1, -1)"
	style="font-family:Times;font-weight:normal;font-style:normal;font-size:10px">-</text>
<text x="79.16" y="-5.6849" transform="scale(1, -1)"
	style="font-family:Times;font-weight:normal;font-style:normal;font-size:10px">4</text>
<text x="179.05" y="-5.6198" transform="scale(1, -1)"
	style="font-family:Times;font-weight:normal;font-style:normal;font-size:10px">0</text>
<text x="280.61" y="-5.6849" transform="scale(1, -1)"
	style="font-family:Times;font-weight:normal;font-style:normal;font-size:10px">4</text>
<path d="M79.995,12.698L79.995,20.698" style="fill:none;stroke:#000000;stroke-width:0.5" />
<path d="M181.55,12.698L181.55,20.698" style="fill:none;stroke:#000000;stroke-width:0.5" />
<path d="M283.11,12.698L283.11,20.698" style="fill:none;stroke:#000000;stroke-width:0.5" />
<path d="M54.606,16.698L54.606,20.698" style="fill:none;stroke:#000000;stroke-width:0.5" />
<path d="M105.39,16.698L105.39,20.698" style="fill:none;stroke:#000000;stroke-width:0.5" />
<path d="M130.78,16.698L130.78,20.698" style="fill:none;stroke:#000000;stroke-width:0.5" />
<path d="M156.16,16.698L156.16,20.698" style="fill:none;stroke:#000000;stroke-width:0.5" />
<path d="M206.94,16.698L206.94,20.698" style="fill:none;stroke:#000000;stroke-width:0.5" />
<path d="M232.33,16.698L232.33,20.698" style="fill:none;stroke:#000000;stroke-width:0.5" />
<path d="M257.72,16.698L257.72,20.698" style="fill:none;stroke:#000000;stroke-width:0.5" />
<path d="M38.795,20.698L297,20.698" style="fill:none;stroke:#000000;stroke-width:0.5" />
<g transform="rotate(90)">
<text x="155.85" y="6.5352" transform="scale(1, -1)"
	style="font-family:Times;font-weight:normal;font-style:normal;font-size:12px">y</text>
</g>
<text x="11.215" y="-67.526" transform="scale(1, -1)"
	style="font-family:Times;font-weight:normal;font-style:normal;font-size:10px">-</text>
<text x="14.545" y="-67.526" transform="scale(1, -1)"
	style="font-family:Times;font-weight:normal;font-style:normal;font-size:10px">3</text>
<text x="14.545" y="-168.64" transform="scale(1, -1)"
	style="font-family:Times;font-weight:normal;font-style:normal;font-size:10px">0</text>
<text x="14.545" y="-269.77" transform="scale(1, -1)"
	style="font-family:Times;font-weight:normal;font-style:normal;font-size:10px">3</text>
<path d="M22.045,71.212L30.045,71.212" style="fill:none;stroke:#000000;stroke-width:0.5" />
<path d="M22.045,172.34L30.045,172.34" style="fill:none;stroke:#000000;stroke-width:0.5" />
<path d="M22.045,273.46L30.045,273.46" style="fill:none;stroke:#000000;stroke-width:0.5" />
<path d="M26.045,37.504L30.045,37.504" style="fill:none;stroke:#000000;stroke-width:0.5" />
<path d="M26.045,104.92L30.045,104.92" style="fill:none;stroke:#000000;stroke-width:0.5" />
<path d="M26.045,138.63L30.045,138.63" style="fill:none;stroke:#000000;stroke-width:0.5" />
<path d="M26.045,206.04L30.045,206.04" style="fill:none;stroke:#000000;stroke-width:0.5" />
<path d="M26.045,239.75L30.045,239.75" style="fill:none;stroke:#000000;stroke-width:0.5" />
<path d="M30.045,31.544L30.045,285.47" style="fill:none;stroke:#000000;stroke-width:0.5" />
<path d="M189.61,207.63A3,3 0 1 1 183.61,207.63A3,3 0 1 1 189.61,207.63Z"  />
<path d="M197.65,160.25A3,3 0 1 1 191.65,160.25A3,3 0 1 1 197.65,160.25Z" style="fill:#0A010E" />
<path d="M189.65,205.98A3,3 0 1 1 183.65,205.98A3,3 0 1 1 189.65,205.98Z" style="fill:#120317" />
<path d="M197.88,160.53A3,3 0 1 1 191.88,160.53A3,3 0 1 1 197.88,160.53Z" style="fill:#18051F" />
<path d="M300,125.9A3,3 0 1 1 294,125.9A3,3 0 1 1 300,125.9Z" style="fill:#1C0726" />
<path d="M189.84,204.72A3,3 0 1 1 183.84,204.72A3,3 0 1 1 189.84,204.72Z" style="fill:#1F082F" />
<path d="M198.19,159.66A3,3 0 1 1 192.19,159.66A3,3 0 1 1 198.19,159.66Z" style="fill:#230837" />
<path d="M196.72,160.58A3,3 0 1 1 190.72,160.58A3,3 0 1 1 196.72,160.58Z" style="fill:#28063F" />
<path d="M189.32,202.46A3,3 0 1 1 183.32,202.46A3,3 0 1 1 189.32,202.46Z" style="fill:#2C0448" />
<path d="M197.08,161.37A3,3 0 1 1 191.08,161.37A3,3 0 1 1 197.08,161.37Z" style="fill:#2F0450" />
<path d="M98.624,31.544A3,3 0 1 1 92.624,31.544A3,3 0 1 1 98.624,31.544Z" style="fill:#310458" />
<path d="M197.3,157.54A3,3 0 1 1 191.3,157.54A3,3 0 1 1 197.3,157.54Z" style="fill:#330460" />
<path d="M198.21,158.5A3,3 0 1 1 192.21,158.5A3,3 0 1 1 198.21,158.5Z" style="fill:#360568" />
<path d="M198.18,157.71A3,3 0 1 1 192.18,157.71A3,3 0 1 1 198.18,157.71Z" style="fill:#380570" />
<path d="M189.25,208.17A3,3 0 1 1 183.25,208.17A3,3 0 1 1 189.25,208.17Z" style="fill:#3A0579" />
<path d="M189.25,209.03A3,3 0 1 1 183.25,209.03A3,3 0 1 1 189.25,209.03Z" style="fill:#3B0681" />
<path d="M198.7,156.68A3,3 0 1 1 192.7,156.68A3,3 0 1 1 198.7,156.68Z" style="fill:#3D0689" />
<path d="M197.64,156.57A3,3 0 1 1 191.64,156.57A3,3 0 1 1 197.64,156.57Z" style="fill:#3E0991" />
<path d="M189.18,211.5A3,3 0 1 1 183.18,211.5A3,3 0 1 1 189.18,211.5Z" style="fill:#3B1693" />
<path d="M198.48,155.8A3,3 0 1 1 192.48,155.8A3,3 0 1 1 198.48,155.8Z" style="fill:#371E96" />
<path d="M98.521,91.43A3,3 0 1 1 92.521,91.43A3,3 0 1 1 98.521,91.43Z" style="fill:#332698" />
<path d="M198.76,154.61A3,3 0 1 1 192.76,154.61A3,3 0 1 1 198.76,154.61Z" style="fill:#2F2C9B" />
<path d="M300,125.9A3,3 0 1 1 294,125.9A3,3 0 1 1 300,125.9Z" style="fill:#29329D" />
<path d="M202.24,154.85A3,3 0 1 1 196.24,154.85A3,3 0 1 1 202.24,154.85Z" style="fill:#2138A0" />
<path d="M97.595,97.006A3,3 0 1 1 91.595,97.006A3,3 0 1 1 97.595,97.006Z" style="fill:#173DA2" />
<path d="M204.01,152.45A3,3 0 1 1 198.01,152.45A3,3 0 1 1 204.01,152.45Z" style="fill:#0B43A3" />
<path d="M204.05,155.78A3,3 0 1 1 198.05,155.78A3,3 0 1 1 204.05,155.78Z" style="fill:#15489B" />
<path d="M202.04,153.54A3,3 0 1 1 196.04,153.54A3,3 0 1 1 202.04,153.54Z" style="fill:#1A4E93" />
<path d="M204.13,155.43A3,3 0 1 1 198.13,155.43A3,3 0 1 1 204.13,155.43Z" style="fill:#1C548B" />
<path d="M110.3,272.23A3,3 0 1 1 104.3,272.23A3,3 0 1 1 110.3,272.23Z" style="fill:#1C5983" />
<path d="M204.63,156.77A3,3 0 1 1 198.63,156.77A3,3 0 1 1 204.63,156.77Z" style="fill:#195E7B" />
<path d="M205.94,156.13A3,3 0 1 1 199.94,156.13A3,3 0 1 1 205.94,156.13Z" style="fill:#146373" />
<path d="M110.1,272.06A3,3 0 1 1 104.1,272.06A3,3 0 1 1 110.1,272.06Z" style="fill:#08696B" />
<path d="M41.795,241.37A3,3 0 1 1 35.795,241.37A3,3 0 1 1 41.795,241.37Z" style="fill:#066C6F" />
<path d="M206.5,158.18A3,3 0 1 1 200.5,158.18A3,3 0 1 1 206.5,158.18Z" style="fill:#076F75" />
<path d="M206.74,159.92A3,3 0 1 1 200.74,159.92A3,3 0 1 1 206.74,159.92Z" style="fill:#07727B" />
<path d="M204.7,162.79A3,3 0 1 1 198.7,162.79A3,3 0 1 1 204.7,162.79Z" style="fill:#087581" />
<path d="M205.64,164.34A3,3 0 1 1 199.64,164.34A3,3 0 1 1 205.64,164.34Z" style="fill:#097887" />
<path d="M204.49,162.89A3,3 0 1 1 198.49,162.89A3,3 0 1 1 204.49,162.89Z" style="fill:#097B8E" />
<path d="M205.67,165.94A3,3 0 1 1 199.67,165.94A3,3 0 1 1 205.67,165.94Z" style="fill:#097F94" />
<path d="M204.44,165.87A3,3 0 1 1 198.44,165.87A3,3 0 1 1 204.44,165.87Z" style="fill:#08829A" />
<path d="M203.22,169.06A3,3 0 1 1 197.22,169.06A3,3 0 1 1 203.22,169.06Z" style="fill:#0885A1" />
<path d="M203.8,169.27A3,3 0 1 1 197.8,169.27A3,3 0 1 1 203.8,169.27Z" style="fill:#0788A7" />
<path d="M199.97,171.97A3,3 0 1 1 193.97,171.97A3,3 0 1 1 199.97,171.97Z" style="fill:#238D97" />
<path d="M199.3,171.63A3,3 0 1 1 193.3,171.63A3,3 0 1 1 199.3,171.63Z" style="fill:#2E9282" />
<path d="M198.26,173.29A3,3 0 1 1 192.26,173.29A3,3 0 1 1 198.26,173.29Z" style="fill:#31976D" />
<path d="M197.61,172.99A3,3 0 1 1 191.61,172.99A3,3 0 1 1 197.61,172.99Z" style="fill:#2E9D56" />
<path d="M196.06,171.93A3,3 0 1 1 190.06,171.93A3,3 0 1 1 196.06,171.93Z" style="fill:#24A23D" />
<path d="M192.15,174.58A3,3 0 1 1 186.15,174.58A3,3 0 1 1 192.15,174.58Z" style="fill:#08A71A" />
<path d="M192.01,174.56A3,3 0 1 1 186.01,174.56A3,3 0 1 1 192.01,174.56Z" style="fill:#1BAB18" />
<path d="M190.38,173.9A3,3 0 1 1 184.38,173.9A3,3 0 1 1 190.38,173.9Z" style="fill:#27AE17" />
<path d="M190.29,172.29A3,3 0 1 1 184.29,172.29A3,3 0 1 1 190.29,172.29Z" style="fill:#30B115" />
<path d="M188.4,172.67A3,3 0 1 1 182.4,172.67A3,3 0 1 1 188.4,172.67Z" style="fill:#39B513" />
<path d="M290.03,250.84A3,3 0 1 1 284.03,250.84A3,3 0 1 1 290.03,250.84Z" style="fill:#40B811" />
<path d="M186.56,170.53A3,3 0 1 1 180.56,170.53A3,3 0 1 1 186.56,170.53Z" style="fill:#47BB0F" />
<path d="M187.14,170.27A3,3 0 1 1 181.14,170.27A3,3 0 1 1 187.14,170.27Z" style="fill:#4EBF0C" />
<path d="M186.2,169.78A3,3 0 1 1 180.2,169.78A3,3 0 1 1 186.2,169.78Z" style="fill:#56C208" />
<path d="M186.53,167.99A3,3 0 1 1 180.53,167.99A3,3 0 1 1 186.53,167.99Z" style="fill:#68C408" />
<path d="M98.631,31.683A3,3 0 1 1 92.631,31.683A3,3 0 1 1 98.631,31.683Z" style="fill:#78C508" />
<path d="M185.07,165.2A3,3 0 1 1 179.07,165.2A3,3 0 1 1 185.07,165.2Z" style="fill:#87C708" />
<path d="M184.76,162.49A3,3 0 1 1 178.76,162.49A3,3 0 1 1 184.76,162.49Z" style="fill:#95C908" />
<path d="M185.09,157.79A3,3 0 1 1 179.09,157.79A3,3 0 1 1 185.09,157.79Z" style="fill:#A2CA08" />
<path d="M185.06,158.75A3,3 0 1 1 179.06,158.75A3,3 0 1 1 185.06,158.75Z" style="fill:#AFCB09" />
<path d="M185.25,155.14A3,3 0 1 1 179.25,155.14A3,3 0 1 1 185.25,155.14Z" style="fill:#BCCD09" />
<path d="M186.05,153.71A3,3 0 1 1 180.05,153.71A3,3 0 1 1 186.05,153.71Z" style="fill:#C6CE1F" />
<path d="M187.44,150.54A3,3 0 1 1 181.44,150.54A3,3 0 1 1 187.44,150.54Z" style="fill:#CED03E" />
<path d="M188.8,149.24A3,3 0 1 1 182.8,149.24A3,3 0 1 1 188.8,149.24Z" style="fill:#D6D255" />
<path d="M189.05,148.12A3,3 0 1 1 183.05,148.12A3,3 0 1 1 189.05,148.12Z" style="fill:#DDD36A" />
<path d="M126.42,285.47A3,3 0 1 1 120.42,285.47A3,3 0 1 1 126.42,285.47Z" style="fill:#E4D57D" />
<path d="M192.91,144.8A3,3 0 1 1 186.91,144.8A3,3 0 1 1 192.91,144.8Z" style="fill:#EBD790" />
<path d="M123.89,283.4A3,3 0 1 1 117.89,283.4A3,3 0 1 1 123.89,283.4Z" style="fill:#F1D8A3" />
<path d="M196.2,141.01A3,3 0 1 1 190.2,141.01A3,3 0 1 1 196.2,141.01Z" style="fill:#F7DAB5" />
<path d="M198.18,140.35A3,3 0 1 1 192.18,140.35A3,3 0 1 1 198.18,140.35Z" style="fill:#FCDCC5" />
<path d="M96.569,103.07A3,3 0 1 1 90.569,103.07A3,3 0 1 1 96.569,103.07Z" style="fill:#FCE0CD" />
<path d="M201.68,139.9A3,3 0 1 1 195.68,139.9A3,3 0 1 1 201.68,139.9Z" style="fill:#FDE5D4" />
<path d="M202.21,139.93A3,3 0 1 1 196.21,139.93A3,3 0 1 1 202.21,139.93Z" style="fill:#FDE9DB" />
<path d="M203.09,140.54A3,3 0 1 1 197.09,140.54A3,3 0 1 1 203.09,140.54Z" style="fill:#FEEDE2" />
<path d="M204.3,141.31A3,3 0 1 1 198.3,141.31A3,3 0 1 1 204.3,141.31Z" style="fill:#FEF2E9" />
<path d="M96.469,103.66A3,3 0 1 1 90.469,103.66A3,3 0 1 1 96.469,103.66Z" style="fill:#FEF6F0" />
<path d="M115.08,276.16A3,3 0 1 1 109.08,276.16A3,3 0 1 1 115.08,276.16Z" style="fill:#FEFAF7" />
</g>
</svg>
