<?xml version="1.0"?>
<!-- Generated by SVGo and Plotinum VG -->
<svg width="283.46pt" height="283.46pt" viewBox="0 0 283.46 283.46"
	xmlns="http://www.w3.org/2000/svg"
	xmlns:xlink="http://www.w3.org/1999/xlink">
<g transform="scale(1, -1) translate(0, -283.46)">
<path d="M0,0L283.46,0L283.46,283.46L0,283.46Z" style="fill:#FFFFFF" />
<text x="23.222" y="-274.5" transform="scale(1, -1)"
	style="font-family:Times;font-weight:normal;font-style:normal;font-size:12px">S</text>
<text x="29.895" y="-274.5" transform="scale(1, -1)"
	style="font-family:Times;font-weight:normal;font-style:normal;font-size:12px">c</text>
<text x="35.222" y="-274.5" transform="scale(1, -1)"
	style="font-family:Times;font-weight:normal;font-style:normal;font-size:12px">a</text>
<text x="40.548" y="-274.5" transform="scale(1, -1)"
	style="font-family:Times;font-weight:normal;font-style:normal;font-size:12px">t</text>
<text x="43.882" y="-274.5" transform="scale(1, -1)"
	style="font-family:Times;font-weight:normal;font-style:normal;font-size:12px">t</text>
<text x="47.216" y="-274.5" transform="scale(1, -1)"
	style="font-family:Times;font-weight:normal;font-style:normal;font-size:12px">e</text>
<text x="52.542" y="-274.5" transform="scale(1, -1)"
	style="font-family:Times;font-weight:normal;font-style:normal;font-size:12px">r</text>
<text x="56.538" y="-274.5" transform="scale(1, -1)"
	style="font-family:Times;font-weight:normal;font-style:normal;font-size:12px"> </text>
<text x="59.538" y="-274.5" transform="scale(1, -1)"
	style="font-family:Times;font-weight:normal;font-style:normal;font-size:12px">P</text>
<text x="66.212" y="-274.5" transform="scale(1, -1)"
	style="font-family:Times;font-weight:normal;font-style:normal;font-size:12px">l</text>
<text x="69.546" y="-274.5" transform="scale(1, -1)"
	style="font-family:Times;font-weight:normal;font-style:normal;font-size:12px">o</text>
<text x="75.546" y="-274.5" transform="scale(1, -1)"
	style="font-family:Times;font-weight:normal;font-style:normal;font-size:12px">t</text>
<text x="78.88" y="-274.5" transform="scale(1, -1)"
	style="font-family:Times;font-weight:normal;font-style:normal;font-size:12px"> </text>
<text x="81.88" y="-274.5" transform="scale(1, -1)"
	style="font-family:Times;font-weight:normal;font-style:normal;font-size:12px">o</text>
<text x="87.88" y="-274.5" transform="scale(1, -1)"
	style="font-family:Times;font-weight:normal;font-style:normal;font-size:12px">f</text>
<text x="91.876" y="-274.5" transform="scale(1, -1)"
	style="font-family:Times;font-weight:normal;font-style:normal;font-size:12px"> </text>
<text x="94.876" y="-274.5" transform="scale(1, -1)"
	style="font-family:Times;font-weight:normal;font-style:normal;font-size:12px">t</text>
<text x="98.21" y="-274.5" transform="scale(1, -1)"
	style="font-family:Times;font-weight:normal;font-style:normal;font-size:12px">h</text>
<text x="104.21" y="-274.5" transform="scale(1, -1)"
	style="font-family:Times;font-weight:normal;font-style:normal;font-size:12px">e</text>
<text x="109.54" y="-274.5" transform="scale(1, -1)"
	style="font-family:Times;font-weight:normal;font-style:normal;font-size:12px"> </text>
<text x="112.54" y="-274.5" transform="scale(1, -1)"
	style="font-family:Times;font-weight:normal;font-style:normal;font-size:12px">R</text>
<text x="120.54" y="-274.5" transform="scale(1, -1)"
	style="font-family:Times;font-weight:normal;font-style:normal;font-size:12px">e</text>
<text x="125.87" y="-274.5" transform="scale(1, -1)"
	style="font-family:Times;font-weight:normal;font-style:normal;font-size:12px">d</text>
<text x="131.87" y="-274.5" transform="scale(1, -1)"
	style="font-family:Times;font-weight:normal;font-style:normal;font-size:12px">u</text>
<text x="137.87" y="-274.5" transform="scale(1, -1)"
	style="font-family:Times;font-weight:normal;font-style:normal;font-size:12px">c</text>
<text x="143.19" y="-274.5" transform="scale(1, -1)"
	style="font-family:Times;font-weight:normal;font-style:normal;font-size:12px">e</text>
<text x="148.52" y="-274.5" transform="scale(1, -1)"
	style="font-family:Times;font-weight:normal;font-style:normal;font-size:12px">d</text>
<text x="154.52" y="-274.5" transform="scale(1, -1)"
	style="font-family:Times;font-weight:normal;font-style:normal;font-size:12px"> </text>
<text x="157.52" y="-274.5" transform="scale(1, -1)"
	style="font-family:Times;font-weight:normal;font-style:normal;font-size:12px">D</text>
<text x="166.18" y="-274.5" transform="scale(1, -1)"
	style="font-family:Times;font-weight:normal;font-style:normal;font-size:12px">i</text>
<text x="169.52" y="-274.5" transform="scale(1, -1)"
	style="font-family:Times;font-weight:normal;font-style:normal;font-size:12px">m</text>
<text x="178.85" y="-274.5" transform="scale(1, -1)"
	style="font-family:Times;font-weight:normal;font-style:normal;font-size:12px">e</text>
<text x="184.18" y="-274.5" transform="scale(1, -1)"
	style="font-family:Times;font-weight:normal;font-style:normal;font-size:12px">n</text>
<text x="190.18" y="-274.5" transform="scale(1, -1)"
	style="font-family:Times;font-weight:normal;font-style:normal;font-size:12px">s</text>
<text x="194.85" y="-274.5" transform="scale(1, -1)"
	style="font-family:Times;font-weight:normal;font-style:normal;font-size:12px">i</text>
<text x="198.18" y="-274.5" transform="scale(1, -1)"
	style="font-family:Times;font-weight:normal;font-style:normal;font-size:12px">o</text>
<text x="204.18" y="-274.5" transform="scale(1, -1)"
	style="font-family:Times;font-weight:normal;font-style:normal;font-size:12px">n</text>
<text x="210.18" y="-274.5" transform="scale(1, -1)"
	style="font-family:Times;font-weight:normal;font-style:normal;font-size:12px"> </text>
<text x="213.18" y="-274.5" transform="scale(1, -1)"
	style="font-family:Times;font-weight:normal;font-style:normal;font-size:12px">(</text>
<text x="217.18" y="-274.5" transform="scale(1, -1)"
	style="font-family:Times;font-weight:normal;font-style:normal;font-size:12px">G</text>
<text x="225.84" y="-274.5" transform="scale(1, -1)"
	style="font-family:Times;font-weight:normal;font-style:normal;font-size:12px">P</text>
<text x="232.52" y="-274.5" transform="scale(1, -1)"
	style="font-family:Times;font-weight:normal;font-style:normal;font-size:12px">L</text>
<text x="236.91" y="-274.5" transform="scale(1, -1)"
	style="font-family:Times;font-weight:normal;font-style:normal;font-size:12px">V</text>
<text x="245.58" y="-274.5" transform="scale(1, -1)"
	style="font-family:Times;font-weight:normal;font-style:normal;font-size:12px">M</text>
<text x="256.25" y="-274.5" transform="scale(1, -1)"
	style="font-family:Times;font-weight:normal;font-style:normal;font-size:12px">)</text>
<text x="156.63" y="0.50977" transform="scale(1, -1)"
	style="font-family:Times;font-weight:normal;font-style:normal;font-size:12px">x</text>
<text x="73.192" y="-5.6849" transform="scale(1, -1)"
	style="font-family:Times;font-weight:normal;font-style:normal;font-size:10px">-</text>
<text x="76.522" y="-5.6849" transform="scale(1, -1)"
	style="font-family:Times;font-weight:normal;font-style:normal;font-size:10px">4</text>
<text x="169.91" y="-5.6198" transform="scale(1, -1)"
	style="font-family:Times;font-weight:normal;font-style:normal;font-size:10px">0</text>
<text x="264.97" y="-5.6849" transform="scale(1, -1)"
	style="font-family:Times;font-weight:normal;font-style:normal;font-size:10px">4</text>
<path d="M77.357,12.698L77.357,20.698" style="fill:none;stroke:#000000;stroke-width:0.5" />
<path d="M172.41,12.698L172.41,20.698" style="fill:none;stroke:#000000;stroke-width:0.5" />
<path d="M267.47,12.698L267.47,20.698" style="fill:none;stroke:#000000;stroke-width:0.5" />
<path d="M53.593,16.698L53.593,20.698" style="fill:none;stroke:#000000;stroke-width:0.5" />
<path d="M101.12,16.698L101.12,20.698" style="fill:none;stroke:#000000;stroke-width:0.5" />
<path d="M124.88,16.698L124.88,20.698" style="fill:none;stroke:#000000;stroke-width:0.5" />
<path d="M148.65,16.698L148.65,20.698" style="fill:none;stroke:#000000;stroke-width:0.5" />
<path d="M196.18,16.698L196.18,20.698" style="fill:none;stroke:#000000;stroke-width:0.5" />
<path d="M219.94,16.698L219.94,20.698" style="fill:none;stroke:#000000;stroke-width:0.5" />
<path d="M243.7,16.698L243.7,20.698" style="fill:none;stroke:#000000;stroke-width:0.5" />
<path d="M38.795,20.698L280.46,20.698" style="fill:none;stroke:#000000;stroke-width:0.5" />
<g transform="rotate(90)">
<text x="147.24" y="6.5352" transform="scale(1, -1)"
	style="font-family:Times;font-weight:normal;font-style:normal;font-size:12px">y</text>
</g>
<text x="11.215" y="-64.942" transform="scale(1, -1)"
	style="font-family:Times;font-weight:normal;font-style:normal;font-size:10px">-</text>
<text x="14.545" y="-64.942" transform="scale(1, -1)"
	style="font-family:Times;font-weight:normal;font-style:normal;font-size:10px">3</text>
<text x="14.545" y="-159.47" transform="scale(1, -1)"
	style="font-family:Times;font-weight:normal;font-style:normal;font-size:10px">0</text>
<text x="14.545" y="-254.02" transform="scale(1, -1)"
	style="font-family:Times;font-weight:normal;font-style:normal;font-size:10px">3</text>
<path d="M22.045,68.629L30.045,68.629" style="fill:none;stroke:#000000;stroke-width:0.5" />
<path d="M22.045,163.17L30.045,163.17" style="fill:none;stroke:#000000;stroke-width:0.5" />
<path d="M22.045,257.71L30.045,257.71" style="fill:none;stroke:#000000;stroke-width:0.5" />
<path d="M26.045,37.116L30.045,37.116" style="fill:none;stroke:#000000;stroke-width:0.5" />
<path d="M26.045,100.14L30.045,100.14" style="fill:none;stroke:#000000;stroke-width:0.5" />
<path d="M26.045,131.65L30.045,131.65" style="fill:none;stroke:#000000;stroke-width:0.5" />
<path d="M26.045,194.68L30.045,194.68" style="fill:none;stroke:#000000;stroke-width:0.5" />
<path d="M26.045,226.19L30.045,226.19" style="fill:none;stroke:#000000;stroke-width:0.5" />
<path d="M30.045,31.544L30.045,268.94" style="fill:none;stroke:#000000;stroke-width:0.5" />
<path d="M77.357,31.544L77.357,268.94" style="fill:none;stroke:#808080;stroke-width:0.25" />
<path d="M172.41,31.544L172.41,268.94" style="fill:none;stroke:#808080;stroke-width:0.25" />
<path d="M267.47,31.544L267.47,268.94" style="fill:none;stroke:#808080;stroke-width:0.25" />
<path d="M38.795,68.629L280.46,68.629" style="fill:none;stroke:#808080;stroke-width:0.25" />
<path d="M38.795,163.17L280.46,163.17" style="fill:none;stroke:#808080;stroke-width:0.25" />
<path d="M38.795,257.71L280.46,257.71" style="fill:none;stroke:#808080;stroke-width:0.25" />
<path d="M180.14,196.17A3,3 0 1 1 174.14,196.17A3,3 0 1 1 180.14,196.17Z" style="fill:#FFFFFE" />
<path d="M187.67,151.87A3,3 0 1 1 181.67,151.87A3,3 0 1 1 187.67,151.87Z"  />
<path d="M180.18,194.62A3,3 0 1 1 174.18,194.62A3,3 0 1 1 180.18,194.62Z"  />
<path d="M187.88,152.13A3,3 0 1 1 181.88,152.13A3,3 0 1 1 187.88,152.13Z"  />
<path d="M283.46,119.76A3,3 0 1 1 277.46,119.76A3,3 0 1 1 283.46,119.76Z"  />
<path d="M180.36,193.44A3,3 0 1 1 174.36,193.44A3,3 0 1 1 180.36,193.44Z"  />
<path d="M188.18,151.32A3,3 0 1 1 182.18,151.32A3,3 0 1 1 188.18,151.32Z"  />
<path d="M186.79,152.17A3,3 0 1 1 180.79,152.17A3,3 0 1 1 186.79,152.17Z"  />
<path d="M179.87,191.33A3,3 0 1 1 173.87,191.33A3,3 0 1 1 179.87,191.33Z"  />
<path d="M187.14,152.91A3,3 0 1 1 181.14,152.91A3,3 0 1 1 187.14,152.91Z"  />
<path d="M94.984,31.544A3,3 0 1 1 88.984,31.544A3,3 0 1 1 94.984,31.544Z"  />
<path d="M187.34,149.34A3,3 0 1 1 181.34,149.34A3,3 0 1 1 187.34,149.34Z"  />
<path d="M188.19,150.23A3,3 0 1 1 182.19,150.23A3,3 0 1 1 188.19,150.23Z"  />
<path d="M188.16,149.49A3,3 0 1 1 182.16,149.49A3,3 0 1 1 188.16,149.49Z"  />
<path d="M179.81,196.67A3,3 0 1 1 173.81,196.67A3,3 0 1 1 179.81,196.67Z"  />
<path d="M179.81,197.47A3,3 0 1 1 173.81,197.47A3,3 0 1 1 179.81,197.47Z"  />
<path d="M188.65,148.54A3,3 0 1 1 182.65,148.54A3,3 0 1 1 188.65,148.54Z"  />
<path d="M187.66,148.43A3,3 0 1 1 181.66,148.43A3,3 0 1 1 187.66,148.43Z"  />
<path d="M179.74,199.78A3,3 0 1 1 173.74,199.78A3,3 0 1 1 179.74,199.78Z"  />
<path d="M188.44,147.71A3,3 0 1 1 182.44,147.71A3,3 0 1 1 188.44,147.71Z"  />
<path d="M94.888,87.53A3,3 0 1 1 88.888,87.53A3,3 0 1 1 94.888,87.53Z"  />
<path d="M188.71,146.59A3,3 0 1 1 182.71,146.59A3,3 0 1 1 188.71,146.59Z"  />
<path d="M283.46,119.76A3,3 0 1 1 277.46,119.76A3,3 0 1 1 283.46,119.76Z"  />
<path d="M191.96,146.82A3,3 0 1 1 185.96,146.82A3,3 0 1 1 191.96,146.82Z"  />
<path d="M94.021,92.743A3,3 0 1 1 88.021,92.743A3,3 0 1 1 94.021,92.743Z"  />
<path d="M193.62,144.58A3,3 0 1 1 187.62,144.58A3,3 0 1 1 193.62,144.58Z"  />
<path d="M193.66,147.69A3,3 0 1 1 187.66,147.69A3,3 0 1 1 193.66,147.69Z"  />
<path d="M191.78,145.6A3,3 0 1 1 185.78,145.6A3,3 0 1 1 191.78,145.6Z"  />
<path d="M193.74,147.37A3,3 0 1 1 187.74,147.37A3,3 0 1 1 193.74,147.37Z"  />
<path d="M105.91,256.55A3,3 0 1 1 99.912,256.55A3,3 0 1 1 105.91,256.55Z"  />
<path d="M194.2,148.62A3,3 0 1 1 188.2,148.62A3,3 0 1 1 194.2,148.62Z"  />
<path d="M195.43,148.02A3,3 0 1 1 189.43,148.02A3,3 0 1 1 195.43,148.02Z"  />
<path d="M105.72,256.4A3,3 0 1 1 99.724,256.4A3,3 0 1 1 105.72,256.4Z"  />
<path d="M41.795,227.7A3,3 0 1 1 35.795,227.7A3,3 0 1 1 41.795,227.7Z"  />
<path d="M195.95,149.93A3,3 0 1 1 189.95,149.93A3,3 0 1 1 195.95,149.93Z"  />
<path d="M196.18,151.56A3,3 0 1 1 190.18,151.56A3,3 0 1 1 196.18,151.56Z"  />
<path d="M194.27,154.25A3,3 0 1 1 188.27,154.25A3,3 0 1 1 194.27,154.25Z"  />
<path d="M195.15,155.69A3,3 0 1 1 189.15,155.69A3,3 0 1 1 195.15,155.69Z"  />
<path d="M194.07,154.34A3,3 0 1 1 188.07,154.34A3,3 0 1 1 194.07,154.34Z"  />
<path d="M195.17,157.19A3,3 0 1 1 189.17,157.19A3,3 0 1 1 195.17,157.19Z"  />
<path d="M194.02,157.12A3,3 0 1 1 188.02,157.12A3,3 0 1 1 194.02,157.12Z"  />
<path d="M192.88,160.11A3,3 0 1 1 186.88,160.11A3,3 0 1 1 192.88,160.11Z"  />
<path d="M193.42,160.31A3,3 0 1 1 187.42,160.31A3,3 0 1 1 193.42,160.31Z"  />
<path d="M189.84,162.83A3,3 0 1 1 183.84,162.83A3,3 0 1 1 189.84,162.83Z"  />
<path d="M189.21,162.51A3,3 0 1 1 183.21,162.51A3,3 0 1 1 189.21,162.51Z"  />
<path d="M188.24,164.06A3,3 0 1 1 182.24,164.06A3,3 0 1 1 188.24,164.06Z"  />
<path d="M187.63,163.78A3,3 0 1 1 181.63,163.78A3,3 0 1 1 187.63,163.78Z"  />
<path d="M186.18,162.79A3,3 0 1 1 180.18,162.79A3,3 0 1 1 186.18,162.79Z"  />
<path d="M182.52,165.26A3,3 0 1 1 176.52,165.26A3,3 0 1 1 182.52,165.26Z"  />
<path d="M182.39,165.25A3,3 0 1 1 176.39,165.25A3,3 0 1 1 182.39,165.25Z"  />
<path d="M180.86,164.63A3,3 0 1 1 174.86,164.63A3,3 0 1 1 180.86,164.63Z"  />
<path d="M180.78,163.12A3,3 0 1 1 174.78,163.12A3,3 0 1 1 180.78,163.12Z"  />
<path d="M179.01,163.48A3,3 0 1 1 173.01,163.48A3,3 0 1 1 179.01,163.48Z"  />
<path d="M274.13,236.56A3,3 0 1 1 268.13,236.56A3,3 0 1 1 274.13,236.56Z"  />
<path d="M177.29,161.48A3,3 0 1 1 171.29,161.48A3,3 0 1 1 177.29,161.48Z"  />
<path d="M177.83,161.23A3,3 0 1 1 171.83,161.23A3,3 0 1 1 177.83,161.23Z"  />
<path d="M176.95,160.78A3,3 0 1 1 170.95,160.78A3,3 0 1 1 176.95,160.78Z"  />
<path d="M177.26,159.11A3,3 0 1 1 171.26,159.11A3,3 0 1 1 177.26,159.11Z"  />
<path d="M94.991,31.674A3,3 0 1 1 88.991,31.674A3,3 0 1 1 94.991,31.674Z"  />
<path d="M175.89,156.49A3,3 0 1 1 169.89,156.49A3,3 0 1 1 175.89,156.49Z"  />
<path d="M175.6,153.96A3,3 0 1 1 169.6,153.96A3,3 0 1 1 175.6,153.96Z"  />
<path d="M175.92,149.57A3,3 0 1 1 169.92,149.57A3,3 0 1 1 175.92,149.57Z"  />
<path d="M175.88,150.47A3,3 0 1 1 169.88,150.47A3,3 0 1 1 175.88,150.47Z"  />
<path d="M176.07,147.09A3,3 0 1 1 170.07,147.09A3,3 0 1 1 176.07,147.09Z"  />
<path d="M176.81,145.76A3,3 0 1 1 170.81,145.76A3,3 0 1 1 176.81,145.76Z"  />
<path d="M178.12,142.79A3,3 0 1 1 172.12,142.79A3,3 0 1 1 178.12,142.79Z"  />
<path d="M179.38,141.58A3,3 0 1 1 173.38,141.58A3,3 0 1 1 179.38,141.58Z"  />
<path d="M179.62,140.53A3,3 0 1 1 173.62,140.53A3,3 0 1 1 179.62,140.53Z"  />
<path d="M121,268.94A3,3 0 1 1 115,268.94A3,3 0 1 1 121,268.94Z"  />
<path d="M183.24,137.43A3,3 0 1 1 177.24,137.43A3,3 0 1 1 183.24,137.43Z"  />
<path d="M118.63,267A3,3 0 1 1 112.63,267A3,3 0 1 1 118.63,267Z"  />
<path d="M186.32,133.88A3,3 0 1 1 180.32,133.88A3,3 0 1 1 186.32,133.88Z"  />
<path d="M188.16,133.27A3,3 0 1 1 182.16,133.27A3,3 0 1 1 188.16,133.27Z"  />
<path d="M93.061,98.411A3,3 0 1 1 87.061,98.411A3,3 0 1 1 93.061,98.411Z"  />
<path d="M191.44,132.85A3,3 0 1 1 185.44,132.85A3,3 0 1 1 191.44,132.85Z"  />
<path d="M191.94,132.87A3,3 0 1 1 185.94,132.87A3,3 0 1 1 191.94,132.87Z"  />
<path d="M192.76,133.44A3,3 0 1 1 186.76,133.44A3,3 0 1 1 192.76,133.44Z"  />
<path d="M193.89,134.16A3,3 0 1 1 187.89,134.16A3,3 0 1 1 193.89,134.16Z"  />
<path d="M92.968,98.968A3,3 0 1 1 86.968,98.968A3,3 0 1 1 92.968,98.968Z"  />
<path d="M110.39,260.23A3,3 0 1 1 104.39,260.23A3,3 0 1 1 110.39,260.23Z"  />
</g>
</svg>
