<?xml version="1.0"?>
<!-- Generated by SVGo and Plotinum VG -->
<svg width="283.46pt" height="198.43pt" viewBox="0 0 283.46 198.43"
	xmlns="http://www.w3.org/2000/svg"
	xmlns:xlink="http://www.w3.org/1999/xlink">
<g transform="scale(1, -1) translate(0, -198.43)">
<path d="M0,0L283.46,0L283.46,198.43L0,198.43Z" style="fill:#FFFFFF" />
<text x="92.742" y="-189.04" transform="scale(1, -1)"
	style="font-family:Times;font-weight:normal;font-style:normal;font-size:12px">Kmeans Scatter Plot</text>
<text x="162.14" y="-3.9023" transform="scale(1, -1)"
	style="font-family:Times;font-weight:normal;font-style:normal;font-size:12px">x</text>
<text x="90" y="-16.541" transform="scale(1, -1)"
	style="font-family:Times;font-weight:normal;font-style:normal;font-size:10px">50</text>
<text x="177.98" y="-16.541" transform="scale(1, -1)"
	style="font-family:Times;font-weight:normal;font-style:normal;font-size:10px">150</text>
<text x="268.46" y="-16.541" transform="scale(1, -1)"
	style="font-family:Times;font-weight:normal;font-style:normal;font-size:10px">250</text>
<path d="M95,24.363L95,32.363" style="fill:none;stroke:#000000;stroke-width:0.5" />
<path d="M185.48,24.363L185.48,32.363" style="fill:none;stroke:#000000;stroke-width:0.5" />
<path d="M275.96,24.363L275.96,32.363" style="fill:none;stroke:#000000;stroke-width:0.5" />
<path d="M140.24,28.363L140.24,32.363" style="fill:none;stroke:#000000;stroke-width:0.5" />
<path d="M230.72,28.363L230.72,32.363" style="fill:none;stroke:#000000;stroke-width:0.5" />
<path d="M50.135,32.363L280.14,32.363" style="fill:none;stroke:#000000;stroke-width:0.5" />
<g transform="rotate(90)">
<text x="109.67" y="9.3867" transform="scale(1, -1)"
	style="font-family:Times;font-weight:normal;font-style:normal;font-size:12px">y</text>
</g>
<text x="20.885" y="-68.042" transform="scale(1, -1)"
	style="font-family:Times;font-weight:normal;font-style:normal;font-size:10px">50</text>
<text x="15.885" y="-123.1" transform="scale(1, -1)"
	style="font-family:Times;font-weight:normal;font-style:normal;font-size:10px">150</text>
<text x="15.885" y="-178.16" transform="scale(1, -1)"
	style="font-family:Times;font-weight:normal;font-style:normal;font-size:10px">250</text>
<path d="M33.385,70.327L41.385,70.327" style="fill:none;stroke:#000000;stroke-width:0.5" />
<path d="M33.385,125.39L41.385,125.39" style="fill:none;stroke:#000000;stroke-width:0.5" />
<path d="M33.385,180.45L41.385,180.45" style="fill:none;stroke:#000000;stroke-width:0.5" />
<path d="M37.385,97.857L41.385,97.857" style="fill:none;stroke:#000000;stroke-width:0.5" />
<path d="M37.385,152.92L41.385,152.92" style="fill:none;stroke:#000000;stroke-width:0.5" />
<path d="M41.385,43.209L41.385,182.14" style="fill:none;stroke:#000000;stroke-width:0.5" />
<path d="M95,43.209L95,182.14" style="fill:none;stroke:#808080;stroke-width:0.25" />
<path d="M185.48,43.209L185.48,182.14" style="fill:none;stroke:#808080;stroke-width:0.25" />
<path d="M275.96,43.209L275.96,182.14" style="fill:none;stroke:#808080;stroke-width:0.25" />
<path d="M50.135,70.327L280.14,70.327" style="fill:none;stroke:#808080;stroke-width:0.25" />
<path d="M50.135,125.39L280.14,125.39" style="fill:none;stroke:#808080;stroke-width:0.25" />
<path d="M50.135,180.45L280.14,180.45" style="fill:none;stroke:#808080;stroke-width:0.25" />
<path d="M265.36,49.853A3,3 0 1 1 259.36,49.853A3,3 0 1 1 265.36,49.853Z" style="fill:#27AE17" />
<path d="M216.44,111.08A3,3 0 1 1 210.44,111.08A3,3 0 1 1 216.44,111.08Z" style="fill:#310458" />
<path d="M227.16,83.429A3,3 0 1 1 221.16,83.429A3,3 0 1 1 227.16,83.429Z" style="fill:#27AE17" />
<path d="M270.18,76.953A3,3 0 1 1 264.18,76.953A3,3 0 1 1 270.18,76.953Z" style="fill:#27AE17" />
<path d="M99.496,175.68A3,3 0 1 1 93.496,175.68A3,3 0 1 1 99.496,175.68Z"  />
<path d="M278.81,153.47A3,3 0 1 1 272.81,153.47A3,3 0 1 1 278.81,153.47Z" style="fill:#08829A" />
<path d="M259.01,172.16A3,3 0 1 1 253.01,172.16A3,3 0 1 1 259.01,172.16Z" style="fill:#08829A" />
<path d="M233.42,58.397A3,3 0 1 1 227.42,58.397A3,3 0 1 1 233.42,58.397Z" style="fill:#27AE17" />
<path d="M98.833,96.365A3,3 0 1 1 92.833,96.365A3,3 0 1 1 98.833,96.365Z" style="fill:#95C908" />
<path d="M119.11,123.31A3,3 0 1 1 113.11,123.31A3,3 0 1 1 119.11,123.31Z" style="fill:#95C908" />
<path d="M280.75,180.53A3,3 0 1 1 274.75,180.53A3,3 0 1 1 280.75,180.53Z" style="fill:#08829A" />
<path d="M141.97,147.25A3,3 0 1 1 135.97,147.25A3,3 0 1 1 141.97,147.25Z" style="fill:#FFFFFE" />
<path d="M212.78,131.01A3,3 0 1 1 206.78,131.01A3,3 0 1 1 212.78,131.01Z" style="fill:#310458" />
<path d="M233.76,179.2A3,3 0 1 1 227.76,179.2A3,3 0 1 1 233.76,179.2Z" style="fill:#08829A" />
<path d="M67.707,46.435A3,3 0 1 1 61.707,46.435A3,3 0 1 1 67.707,46.435Z" style="fill:#F1D8A3" />
<path d="M54.016,105.5A3,3 0 1 1 48.016,105.5A3,3 0 1 1 54.016,105.5Z" style="fill:#95C908" />
<path d="M184.27,169.74A3,3 0 1 1 178.27,169.74A3,3 0 1 1 184.27,169.74Z" style="fill:#08829A" />
<path d="M204.36,75.287A3,3 0 1 1 198.36,75.287A3,3 0 1 1 204.36,75.287Z" style="fill:#195E7B" />
<path d="M145.62,88.129A3,3 0 1 1 139.62,88.129A3,3 0 1 1 145.62,88.129Z" style="fill:#195E7B" />
<path d="M185.35,176.98A3,3 0 1 1 179.35,176.98A3,3 0 1 1 185.35,176.98Z" style="fill:#08829A" />
<path d="M206.91,118.54A3,3 0 1 1 200.91,118.54A3,3 0 1 1 206.91,118.54Z" style="fill:#310458" />
<path d="M166.21,53.271A3,3 0 1 1 160.21,53.271A3,3 0 1 1 166.21,53.271Z" style="fill:#195E7B" />
<path d="M75.407,179.3A3,3 0 1 1 69.407,179.3A3,3 0 1 1 75.407,179.3Z"  />
<path d="M243.15,59.666A3,3 0 1 1 237.15,59.666A3,3 0 1 1 243.15,59.666Z" style="fill:#27AE17" />
<path d="M251.44,106.48A3,3 0 1 1 245.44,106.48A3,3 0 1 1 251.44,106.48Z" style="fill:#310458" />
<path d="M220.83,156.38A3,3 0 1 1 214.83,156.38A3,3 0 1 1 220.83,156.38Z" style="fill:#08829A" />
<path d="M274.81,62.706A3,3 0 1 1 268.81,62.706A3,3 0 1 1 274.81,62.706Z" style="fill:#27AE17" />
<path d="M248.83,133.73A3,3 0 1 1 242.83,133.73A3,3 0 1 1 248.83,133.73Z" style="fill:#310458" />
<path d="M122.2,168.47A3,3 0 1 1 116.2,168.47A3,3 0 1 1 122.2,168.47Z"  />
<path d="M87.573,168.35A3,3 0 1 1 81.573,168.35A3,3 0 1 1 87.573,168.35Z"  />
<path d="M174.59,49.466A3,3 0 1 1 168.59,49.466A3,3 0 1 1 174.59,49.466Z" style="fill:#195E7B" />
<path d="M163.77,129.18A3,3 0 1 1 157.77,129.18A3,3 0 1 1 163.77,129.18Z" style="fill:#FFFFFE" />
<path d="M222.23,69.008A3,3 0 1 1 216.23,69.008A3,3 0 1 1 222.23,69.008Z" style="fill:#27AE17" />
<path d="M248.78,56.63A3,3 0 1 1 242.78,56.63A3,3 0 1 1 248.78,56.63Z" style="fill:#27AE17" />
<path d="M170.74,111.4A3,3 0 1 1 164.74,111.4A3,3 0 1 1 170.74,111.4Z" style="fill:#FFFFFE" />
<path d="M144.29,44.784A3,3 0 1 1 138.29,44.784A3,3 0 1 1 144.29,44.784Z" style="fill:#195E7B" />
<path d="M98.08,53.72A3,3 0 1 1 92.08,53.72A3,3 0 1 1 98.08,53.72Z" style="fill:#F1D8A3" />
<path d="M221.26,163.23A3,3 0 1 1 215.26,163.23A3,3 0 1 1 221.26,163.23Z" style="fill:#08829A" />
<path d="M169.42,94.362A3,3 0 1 1 163.42,94.362A3,3 0 1 1 169.42,94.362Z" style="fill:#195E7B" />
<path d="M210.62,93.052A3,3 0 1 1 204.62,93.052A3,3 0 1 1 210.62,93.052Z" style="fill:#195E7B" />
<path d="M122.71,163.46A3,3 0 1 1 116.71,163.46A3,3 0 1 1 122.71,163.46Z"  />
<path d="M102.83,56.733A3,3 0 1 1 96.826,56.733A3,3 0 1 1 102.83,56.733Z" style="fill:#F1D8A3" />
<path d="M242.31,178.41A3,3 0 1 1 236.31,178.41A3,3 0 1 1 242.31,178.41Z" style="fill:#08829A" />
<path d="M122.66,115.21A3,3 0 1 1 116.66,115.21A3,3 0 1 1 122.66,115.21Z" style="fill:#95C908" />
<path d="M224.5,157.06A3,3 0 1 1 218.5,157.06A3,3 0 1 1 224.5,157.06Z" style="fill:#08829A" />
<path d="M125.38,71.476A3,3 0 1 1 119.38,71.476A3,3 0 1 1 125.38,71.476Z" style="fill:#F1D8A3" />
<path d="M152.2,83.562A3,3 0 1 1 146.2,83.562A3,3 0 1 1 152.2,83.562Z" style="fill:#195E7B" />
<path d="M251.58,159.68A3,3 0 1 1 245.58,159.68A3,3 0 1 1 251.58,159.68Z" style="fill:#08829A" />
<path d="M183.95,84.125A3,3 0 1 1 177.95,84.125A3,3 0 1 1 183.95,84.125Z" style="fill:#195E7B" />
<path d="M275.8,98.934A3,3 0 1 1 269.8,98.934A3,3 0 1 1 275.8,98.934Z" style="fill:#310458" />
<path d="M263.92,71.101A3,3 0 1 1 257.92,71.101A3,3 0 1 1 263.92,71.101Z" style="fill:#27AE17" />
<path d="M188.91,44.574A3,3 0 1 1 182.91,44.574A3,3 0 1 1 188.91,44.574Z" style="fill:#195E7B" />
<path d="M275.69,89.303A3,3 0 1 1 269.69,89.303A3,3 0 1 1 275.69,89.303Z" style="fill:#27AE17" />
<path d="M233.1,55.368A3,3 0 1 1 227.1,55.368A3,3 0 1 1 233.1,55.368Z" style="fill:#27AE17" />
<path d="M182.01,142.3A3,3 0 1 1 176.01,142.3A3,3 0 1 1 182.01,142.3Z" style="fill:#FFFFFE" />
<path d="M149.34,109.02A3,3 0 1 1 143.34,109.02A3,3 0 1 1 149.34,109.02Z" style="fill:#FFFFFE" />
<path d="M131.08,155.46A3,3 0 1 1 125.08,155.46A3,3 0 1 1 131.08,155.46Z"  />
<path d="M203.59,53.21A3,3 0 1 1 197.59,53.21A3,3 0 1 1 203.59,53.21Z" style="fill:#195E7B" />
<path d="M235.2,126.19A3,3 0 1 1 229.2,126.19A3,3 0 1 1 235.2,126.19Z" style="fill:#310458" />
<path d="M283.14,72.834A3,3 0 1 1 277.14,72.834A3,3 0 1 1 283.14,72.834Z" style="fill:#27AE17" />
<path d="M90.177,98.885A3,3 0 1 1 84.177,98.885A3,3 0 1 1 90.177,98.885Z" style="fill:#95C908" />
<path d="M219.51,105.99A3,3 0 1 1 213.51,105.99A3,3 0 1 1 219.51,105.99Z" style="fill:#310458" />
<path d="M91.477,102.94A3,3 0 1 1 85.477,102.94A3,3 0 1 1 91.477,102.94Z" style="fill:#95C908" />
<path d="M167.97,96.015A3,3 0 1 1 161.97,96.015A3,3 0 1 1 167.97,96.015Z" style="fill:#195E7B" />
<path d="M182.55,67.939A3,3 0 1 1 176.55,67.939A3,3 0 1 1 182.55,67.939Z" style="fill:#195E7B" />
<path d="M78.184,90.52A3,3 0 1 1 72.184,90.52A3,3 0 1 1 78.184,90.52Z" style="fill:#F1D8A3" />
<path d="M238.33,62.52A3,3 0 1 1 232.33,62.52A3,3 0 1 1 238.33,62.52Z" style="fill:#27AE17" />
<path d="M214.36,180.93A3,3 0 1 1 208.36,180.93A3,3 0 1 1 214.36,180.93Z" style="fill:#08829A" />
<path d="M212.46,54.313A3,3 0 1 1 206.46,54.313A3,3 0 1 1 212.46,54.313Z" style="fill:#195E7B" />
<path d="M163.02,125.14A3,3 0 1 1 157.02,125.14A3,3 0 1 1 163.02,125.14Z" style="fill:#FFFFFE" />
<path d="M227.59,46.324A3,3 0 1 1 221.59,46.324A3,3 0 1 1 227.59,46.324Z" style="fill:#27AE17" />
<path d="M154.78,151.87A3,3 0 1 1 148.78,151.87A3,3 0 1 1 154.78,151.87Z" style="fill:#FFFFFE" />
<path d="M119.75,107.46A3,3 0 1 1 113.75,107.46A3,3 0 1 1 119.75,107.46Z" style="fill:#95C908" />
<path d="M233.77,45.311A3,3 0 1 1 227.77,45.311A3,3 0 1 1 233.77,45.311Z" style="fill:#27AE17" />
<path d="M58.048,79.946A3,3 0 1 1 52.048,79.946A3,3 0 1 1 58.048,79.946Z" style="fill:#F1D8A3" />
<path d="M90.809,106.27A3,3 0 1 1 84.809,106.27A3,3 0 1 1 90.809,106.27Z" style="fill:#95C908" />
<path d="M224.16,148.58A3,3 0 1 1 218.16,148.58A3,3 0 1 1 224.16,148.58Z" style="fill:#08829A" />
<path d="M154.35,49.488A3,3 0 1 1 148.35,49.488A3,3 0 1 1 154.35,49.488Z" style="fill:#195E7B" />
<path d="M163.78,125.78A3,3 0 1 1 157.78,125.78A3,3 0 1 1 163.78,125.78Z" style="fill:#FFFFFE" />
<path d="M102.52,161.4A3,3 0 1 1 96.52,161.4A3,3 0 1 1 102.52,161.4Z"  />
<path d="M64.977,86.401A3,3 0 1 1 58.977,86.401A3,3 0 1 1 64.977,86.401Z" style="fill:#F1D8A3" />
<path d="M238.27,76.353A3,3 0 1 1 232.27,76.353A3,3 0 1 1 238.27,76.353Z" style="fill:#27AE17" />
<path d="M220.78,148.97A3,3 0 1 1 214.78,148.97A3,3 0 1 1 220.78,148.97Z" style="fill:#08829A" />
<path d="M279.65,115A3,3 0 1 1 273.65,115A3,3 0 1 1 279.65,115Z" style="fill:#310458" />
<path d="M220.83,113.86A3,3 0 1 1 214.83,113.86A3,3 0 1 1 220.83,113.86Z" style="fill:#310458" />
<path d="M177.83,137.2A3,3 0 1 1 171.83,137.2A3,3 0 1 1 177.83,137.2Z" style="fill:#FFFFFE" />
<path d="M158.81,95.793A3,3 0 1 1 152.81,95.793A3,3 0 1 1 158.81,95.793Z" style="fill:#195E7B" />
<path d="M265.22,54.567A3,3 0 1 1 259.22,54.567A3,3 0 1 1 265.22,54.567Z" style="fill:#27AE17" />
<path d="M162.53,166.49A3,3 0 1 1 156.53,166.49A3,3 0 1 1 162.53,166.49Z" style="fill:#FFFFFE" />
<path d="M116.4,157.12A3,3 0 1 1 110.4,157.12A3,3 0 1 1 116.4,157.12Z"  />
<path d="M279.95,179.2A3,3 0 1 1 273.95,179.2A3,3 0 1 1 279.95,179.2Z" style="fill:#08829A" />
<path d="M97.554,81.153A3,3 0 1 1 91.554,81.153A3,3 0 1 1 97.554,81.153Z" style="fill:#F1D8A3" />
<path d="M76.787,96.285A3,3 0 1 1 70.787,96.285A3,3 0 1 1 76.787,96.285Z" style="fill:#95C908" />
<path d="M78.045,61.8A3,3 0 1 1 72.045,61.8A3,3 0 1 1 78.045,61.8Z" style="fill:#F1D8A3" />
<path d="M106.49,135.9A3,3 0 1 1 100.49,135.9A3,3 0 1 1 106.49,135.9Z" style="fill:#95C908" />
<path d="M221.34,165.82A3,3 0 1 1 215.34,165.82A3,3 0 1 1 221.34,165.82Z" style="fill:#08829A" />
<path d="M278.33,65.531A3,3 0 1 1 272.33,65.531A3,3 0 1 1 278.33,65.531Z" style="fill:#27AE17" />
<path d="M96.465,65.45A3,3 0 1 1 90.465,65.45A3,3 0 1 1 96.465,65.45Z" style="fill:#F1D8A3" />
<path d="M83.233,154.02A3,3 0 1 1 77.233,154.02A3,3 0 1 1 83.233,154.02Z"  />
<path d="M182.54,171.47A3,3 0 1 1 176.54,171.47A3,3 0 1 1 182.54,171.47Z" style="fill:#08829A" />
<path d="M112.73,73.146A3,3 0 1 1 106.73,73.146A3,3 0 1 1 112.73,73.146Z" style="fill:#F1D8A3" />
<path d="M251.32,76.162A3,3 0 1 1 245.32,76.162A3,3 0 1 1 251.32,76.162Z" style="fill:#27AE17" />
<path d="M240.69,84.156A3,3 0 1 1 234.69,84.156A3,3 0 1 1 240.69,84.156Z" style="fill:#27AE17" />
<path d="M245.25,169.58A3,3 0 1 1 239.25,169.58A3,3 0 1 1 245.25,169.58Z" style="fill:#08829A" />
<path d="M264.14,123.32A3,3 0 1 1 258.14,123.32A3,3 0 1 1 264.14,123.32Z" style="fill:#310458" />
<path d="M185.92,72.222A3,3 0 1 1 179.92,72.222A3,3 0 1 1 185.92,72.222Z" style="fill:#195E7B" />
<path d="M70.035,125.06A3,3 0 1 1 64.035,125.06A3,3 0 1 1 70.035,125.06Z" style="fill:#95C908" />
<path d="M70.926,163.42A3,3 0 1 1 64.926,163.42A3,3 0 1 1 70.926,163.42Z"  />
<path d="M101.02,126.86A3,3 0 1 1 95.022,126.86A3,3 0 1 1 101.02,126.86Z" style="fill:#95C908" />
<path d="M193.33,159.55A3,3 0 1 1 187.33,159.55A3,3 0 1 1 193.33,159.55Z" style="fill:#FFFFFE" />
<path d="M262.61,88.202A3,3 0 1 1 256.61,88.202A3,3 0 1 1 262.61,88.202Z" style="fill:#27AE17" />
<path d="M220.53,172.01A3,3 0 1 1 214.53,172.01A3,3 0 1 1 220.53,172.01Z" style="fill:#08829A" />
<path d="M187.83,46.513A3,3 0 1 1 181.83,46.513A3,3 0 1 1 187.83,46.513Z" style="fill:#195E7B" />
<path d="M225.68,81.677A3,3 0 1 1 219.68,81.677A3,3 0 1 1 225.68,81.677Z" style="fill:#27AE17" />
<path d="M250.66,172.99A3,3 0 1 1 244.66,172.99A3,3 0 1 1 250.66,172.99Z" style="fill:#08829A" />
<path d="M128.89,133.17A3,3 0 1 1 122.89,133.17A3,3 0 1 1 128.89,133.17Z" style="fill:#FFFFFE" />
<path d="M141.77,159.94A3,3 0 1 1 135.77,159.94A3,3 0 1 1 141.77,159.94Z"  />
<path d="M214.07,82.019A3,3 0 1 1 208.07,82.019A3,3 0 1 1 214.07,82.019Z" style="fill:#195E7B" />
<path d="M175.3,114.25A3,3 0 1 1 169.3,114.25A3,3 0 1 1 175.3,114.25Z" style="fill:#FFFFFE" />
<path d="M168.24,154.15A3,3 0 1 1 162.24,154.15A3,3 0 1 1 168.24,154.15Z" style="fill:#FFFFFE" />
<path d="M60.781,143.02A3,3 0 1 1 54.781,143.02A3,3 0 1 1 60.781,143.02Z" style="fill:#95C908" />
<path d="M202.36,80.809A3,3 0 1 1 196.36,80.809A3,3 0 1 1 202.36,80.809Z" style="fill:#195E7B" />
<path d="M66.237,155.93A3,3 0 1 1 60.237,155.93A3,3 0 1 1 66.237,155.93Z"  />
<path d="M61.976,126.29A3,3 0 1 1 55.976,126.29A3,3 0 1 1 61.976,126.29Z" style="fill:#95C908" />
<path d="M166.3,175.11A3,3 0 1 1 160.3,175.11A3,3 0 1 1 166.3,175.11Z"  />
<path d="M116.15,89.172A3,3 0 1 1 110.15,89.172A3,3 0 1 1 116.15,89.172Z" style="fill:#95C908" />
<path d="M108.18,61.232A3,3 0 1 1 102.18,61.232A3,3 0 1 1 108.18,61.232Z" style="fill:#F1D8A3" />
<path d="M121.64,88.924A3,3 0 1 1 115.64,88.924A3,3 0 1 1 121.64,88.924Z" style="fill:#95C908" />
<path d="M93.26,128.87A3,3 0 1 1 87.26,128.87A3,3 0 1 1 93.26,128.87Z" style="fill:#95C908" />
<path d="M271.65,182.14A3,3 0 1 1 265.65,182.14A3,3 0 1 1 271.65,182.14Z" style="fill:#08829A" />
<path d="M212.79,152.92A3,3 0 1 1 206.79,152.92A3,3 0 1 1 212.79,152.92Z" style="fill:#08829A" />
<path d="M214.1,114.29A3,3 0 1 1 208.1,114.29A3,3 0 1 1 214.1,114.29Z" style="fill:#310458" />
<path d="M111.26,165.89A3,3 0 1 1 105.26,165.89A3,3 0 1 1 111.26,165.89Z"  />
<path d="M245.22,149.16A3,3 0 1 1 239.22,149.16A3,3 0 1 1 245.22,149.16Z" style="fill:#08829A" />
<path d="M158.66,95.085A3,3 0 1 1 152.66,95.085A3,3 0 1 1 158.66,95.085Z" style="fill:#195E7B" />
<path d="M86.901,95.638A3,3 0 1 1 80.901,95.638A3,3 0 1 1 86.901,95.638Z" style="fill:#95C908" />
<path d="M71.12,74.565A3,3 0 1 1 65.12,74.565A3,3 0 1 1 71.12,74.565Z" style="fill:#F1D8A3" />
<path d="M187.96,96.973A3,3 0 1 1 181.96,96.973A3,3 0 1 1 187.96,96.973Z" style="fill:#195E7B" />
<path d="M157.1,128.94A3,3 0 1 1 151.1,128.94A3,3 0 1 1 157.1,128.94Z" style="fill:#FFFFFE" />
<path d="M118.66,123.54A3,3 0 1 1 112.66,123.54A3,3 0 1 1 118.66,123.54Z" style="fill:#95C908" />
<path d="M228.26,147.04A3,3 0 1 1 222.26,147.04A3,3 0 1 1 228.26,147.04Z" style="fill:#08829A" />
<path d="M250.6,126.9A3,3 0 1 1 244.6,126.9A3,3 0 1 1 250.6,126.9Z" style="fill:#310458" />
<path d="M137.88,111.33A3,3 0 1 1 131.88,111.33A3,3 0 1 1 137.88,111.33Z" style="fill:#95C908" />
<path d="M142.69,45.471A3,3 0 1 1 136.69,45.471A3,3 0 1 1 142.69,45.471Z" style="fill:#195E7B" />
<path d="M273.94,44.268A3,3 0 1 1 267.94,44.268A3,3 0 1 1 273.94,44.268Z" style="fill:#27AE17" />
<path d="M180.55,127.27A3,3 0 1 1 174.55,127.27A3,3 0 1 1 180.55,127.27Z" style="fill:#FFFFFE" />
<path d="M249.98,135.93A3,3 0 1 1 243.98,135.93A3,3 0 1 1 249.98,135.93Z" style="fill:#310458" />
<path d="M259.17,104.8A3,3 0 1 1 253.17,104.8A3,3 0 1 1 259.17,104.8Z" style="fill:#310458" />
<path d="M154.49,70.649A3,3 0 1 1 148.49,70.649A3,3 0 1 1 154.49,70.649Z" style="fill:#195E7B" />
<path d="M86.244,150.02A3,3 0 1 1 80.244,150.02A3,3 0 1 1 86.244,150.02Z"  />
<path d="M212.66,170.9A3,3 0 1 1 206.66,170.9A3,3 0 1 1 212.66,170.9Z" style="fill:#08829A" />
<path d="M247.73,131.84A3,3 0 1 1 241.73,131.84A3,3 0 1 1 247.73,131.84Z" style="fill:#310458" />
<path d="M72.637,150.8A3,3 0 1 1 66.637,150.8A3,3 0 1 1 72.637,150.8Z"  />
<path d="M269.05,153.74A3,3 0 1 1 263.05,153.74A3,3 0 1 1 269.05,153.74Z" style="fill:#08829A" />
<path d="M277.46,113.28A3,3 0 1 1 271.46,113.28A3,3 0 1 1 277.46,113.28Z" style="fill:#310458" />
<path d="M243.92,49.363A3,3 0 1 1 237.92,49.363A3,3 0 1 1 243.92,49.363Z" style="fill:#27AE17" />
<path d="M130.05,126.16A3,3 0 1 1 124.05,126.16A3,3 0 1 1 130.05,126.16Z" style="fill:#95C908" />
<path d="M103.05,163.32A3,3 0 1 1 97.053,163.32A3,3 0 1 1 103.05,163.32Z"  />
<path d="M71.255,50.585A3,3 0 1 1 65.255,50.585A3,3 0 1 1 71.255,50.585Z" style="fill:#F1D8A3" />
<path d="M81.355,76.288A3,3 0 1 1 75.355,76.288A3,3 0 1 1 81.355,76.288Z" style="fill:#F1D8A3" />
<path d="M81.169,174.87A3,3 0 1 1 75.169,174.87A3,3 0 1 1 81.169,174.87Z"  />
<path d="M264.83,172.4A3,3 0 1 1 258.83,172.4A3,3 0 1 1 264.83,172.4Z" style="fill:#08829A" />
<path d="M239.32,135.01A3,3 0 1 1 233.32,135.01A3,3 0 1 1 239.32,135.01Z" style="fill:#310458" />
<path d="M214.17,72.083A3,3 0 1 1 208.17,72.083A3,3 0 1 1 214.17,72.083Z" style="fill:#195E7B" />
<path d="M80.721,124.9A3,3 0 1 1 74.721,124.9A3,3 0 1 1 80.721,124.9Z" style="fill:#95C908" />
<path d="M246.55,74.526A3,3 0 1 1 240.55,74.526A3,3 0 1 1 246.55,74.526Z" style="fill:#27AE17" />
<path d="M109.06,176.53A3,3 0 1 1 103.06,176.53A3,3 0 1 1 109.06,176.53Z"  />
<path d="M160.64,115.64A3,3 0 1 1 154.64,115.64A3,3 0 1 1 160.64,115.64Z" style="fill:#FFFFFE" />
<path d="M198.82,144.04A3,3 0 1 1 192.82,144.04A3,3 0 1 1 198.82,144.04Z" style="fill:#FFFFFE" />
<path d="M218.29,47.312A3,3 0 1 1 212.29,47.312A3,3 0 1 1 218.29,47.312Z" style="fill:#27AE17" />
<path d="M279.59,95.451A3,3 0 1 1 273.59,95.451A3,3 0 1 1 279.59,95.451Z" style="fill:#27AE17" />
<path d="M55.177,94.281A3,3 0 1 1 49.177,94.281A3,3 0 1 1 55.177,94.281Z" style="fill:#95C908" />
<path d="M166.16,116.26A3,3 0 1 1 160.16,116.26A3,3 0 1 1 166.16,116.26Z" style="fill:#FFFFFE" />
<path d="M166.61,153.17A3,3 0 1 1 160.61,153.17A3,3 0 1 1 166.61,153.17Z" style="fill:#FFFFFE" />
<path d="M62.719,165.03A3,3 0 1 1 56.719,165.03A3,3 0 1 1 62.719,165.03Z"  />
<path d="M215.05,179.76A3,3 0 1 1 209.05,179.76A3,3 0 1 1 215.05,179.76Z" style="fill:#08829A" />
<path d="M84.665,154.9A3,3 0 1 1 78.665,154.9A3,3 0 1 1 84.665,154.9Z"  />
<path d="M157.62,69.172A3,3 0 1 1 151.62,69.172A3,3 0 1 1 157.62,69.172Z" style="fill:#195E7B" />
<path d="M115.69,111.64A3,3 0 1 1 109.69,111.64A3,3 0 1 1 115.69,111.64Z" style="fill:#95C908" />
<path d="M171.36,64.372A3,3 0 1 1 165.36,64.372A3,3 0 1 1 171.36,64.372Z" style="fill:#195E7B" />
<path d="M76.033,143.62A3,3 0 1 1 70.033,143.62A3,3 0 1 1 76.033,143.62Z" style="fill:#95C908" />
<path d="M56.028,136.02A3,3 0 1 1 50.028,136.02A3,3 0 1 1 56.028,136.02Z" style="fill:#95C908" />
<path d="M252.78,122.03A3,3 0 1 1 246.78,122.03A3,3 0 1 1 252.78,122.03Z" style="fill:#310458" />
<path d="M248.72,141.49A3,3 0 1 1 242.72,141.49A3,3 0 1 1 248.72,141.49Z" style="fill:#310458" />
<path d="M83.555,177.68A3,3 0 1 1 77.555,177.68A3,3 0 1 1 83.555,177.68Z"  />
<path d="M185.13,57.058A3,3 0 1 1 179.13,57.058A3,3 0 1 1 185.13,57.058Z" style="fill:#195E7B" />
<path d="M233.75,88.192A3,3 0 1 1 227.75,88.192A3,3 0 1 1 233.75,88.192Z" style="fill:#27AE17" />
<path d="M85.6,108.7A3,3 0 1 1 79.6,108.7A3,3 0 1 1 85.6,108.7Z" style="fill:#95C908" />
<path d="M191.16,80.03A3,3 0 1 1 185.16,80.03A3,3 0 1 1 191.16,80.03Z" style="fill:#195E7B" />
<path d="M186.62,180.75A3,3 0 1 1 180.62,180.75A3,3 0 1 1 186.62,180.75Z" style="fill:#08829A" />
<path d="M250.08,55.696A3,3 0 1 1 244.08,55.696A3,3 0 1 1 250.08,55.696Z" style="fill:#27AE17" />
<path d="M256.52,108.6A3,3 0 1 1 250.52,108.6A3,3 0 1 1 256.52,108.6Z" style="fill:#310458" />
<path d="M161.67,133.27A3,3 0 1 1 155.67,133.27A3,3 0 1 1 161.67,133.27Z" style="fill:#FFFFFE" />
<path d="M83.052,59.187A3,3 0 1 1 77.052,59.187A3,3 0 1 1 83.052,59.187Z" style="fill:#F1D8A3" />
<path d="M134.15,168.37A3,3 0 1 1 128.15,168.37A3,3 0 1 1 134.15,168.37Z"  />
<path d="M235.16,151.68A3,3 0 1 1 229.16,151.68A3,3 0 1 1 235.16,151.68Z" style="fill:#08829A" />
<path d="M140.97,134.4A3,3 0 1 1 134.97,134.4A3,3 0 1 1 140.97,134.4Z" style="fill:#FFFFFE" />
<path d="M99.441,178.13A3,3 0 1 1 93.441,178.13A3,3 0 1 1 99.441,178.13Z"  />
<path d="M127.97,93.768A3,3 0 1 1 121.97,93.768A3,3 0 1 1 127.97,93.768Z" style="fill:#95C908" />
<path d="M229.27,151.49A3,3 0 1 1 223.27,151.49A3,3 0 1 1 229.27,151.49Z" style="fill:#08829A" />
<path d="M204.48,150.3A3,3 0 1 1 198.48,150.3A3,3 0 1 1 204.48,150.3Z" style="fill:#FFFFFE" />
<path d="M269.07,121.87A3,3 0 1 1 263.07,121.87A3,3 0 1 1 269.07,121.87Z" style="fill:#310458" />
<path d="M149.42,62.757A3,3 0 1 1 143.42,62.757A3,3 0 1 1 149.42,62.757Z" style="fill:#195E7B" />
<path d="M240.52,182.04A3,3 0 1 1 234.52,182.04A3,3 0 1 1 240.52,182.04Z" style="fill:#08829A" />
<path d="M177.27,139.46A3,3 0 1 1 171.27,139.46A3,3 0 1 1 177.27,139.46Z" style="fill:#FFFFFE" />
<path d="M261.17,66.738A3,3 0 1 1 255.17,66.738A3,3 0 1 1 261.17,66.738Z" style="fill:#27AE17" />
<path d="M170.87,78.591A3,3 0 1 1 164.87,78.591A3,3 0 1 1 170.87,78.591Z" style="fill:#195E7B" />
<path d="M125.07,79.915A3,3 0 1 1 119.07,79.915A3,3 0 1 1 125.07,79.915Z" style="fill:#F1D8A3" />
<path d="M263.74,75.682A3,3 0 1 1 257.74,75.682A3,3 0 1 1 263.74,75.682Z" style="fill:#27AE17" />
<path d="M129.65,126.32A3,3 0 1 1 123.65,126.32A3,3 0 1 1 129.65,126.32Z" style="fill:#95C908" />
<path d="M72.278,47.542A3,3 0 1 1 66.278,47.542A3,3 0 1 1 72.278,47.542Z" style="fill:#F1D8A3" />
<path d="M106.89,61.61A3,3 0 1 1 100.89,61.61A3,3 0 1 1 106.89,61.61Z" style="fill:#F1D8A3" />
<path d="M140.76,56.501A3,3 0 1 1 134.76,56.501A3,3 0 1 1 140.76,56.501Z" style="fill:#195E7B" />
<path d="M232.22,94.862A3,3 0 1 1 226.22,94.862A3,3 0 1 1 232.22,94.862Z" style="fill:#310458" />
<path d="M246.95,45.421A3,3 0 1 1 240.95,45.421A3,3 0 1 1 246.95,45.421Z" style="fill:#27AE17" />
<path d="M53.519,45.077A3,3 0 1 1 47.519,45.077A3,3 0 1 1 53.519,45.077Z" style="fill:#F1D8A3" />
<path d="M153.73,173.01A3,3 0 1 1 147.73,173.01A3,3 0 1 1 153.73,173.01Z"  />
<path d="M172.59,131.1A3,3 0 1 1 166.59,131.1A3,3 0 1 1 172.59,131.1Z" style="fill:#FFFFFE" />
<path d="M280.83,68.375A3,3 0 1 1 274.83,68.375A3,3 0 1 1 280.83,68.375Z" style="fill:#27AE17" />
<path d="M263.21,85.836A3,3 0 1 1 257.21,85.836A3,3 0 1 1 263.21,85.836Z" style="fill:#27AE17" />
<path d="M274.35,43.209A3,3 0 1 1 268.35,43.209A3,3 0 1 1 274.35,43.209Z" style="fill:#27AE17" />
<path d="M62.035,61.353A3,3 0 1 1 56.035,61.353A3,3 0 1 1 62.035,61.353Z" style="fill:#F1D8A3" />
<path d="M206.49,72.364A3,3 0 1 1 200.49,72.364A3,3 0 1 1 206.49,72.364Z" style="fill:#195E7B" />
<path d="M210.73,164.64A3,3 0 1 1 204.73,164.64A3,3 0 1 1 210.73,164.64Z" style="fill:#08829A" />
<path d="M224.65,73.749A3,3 0 1 1 218.65,73.749A3,3 0 1 1 224.65,73.749Z" style="fill:#27AE17" />
<path d="M74.721,93.939A3,3 0 1 1 68.721,93.939A3,3 0 1 1 74.721,93.939Z" style="fill:#95C908" />
<path d="M256.16,143.42A3,3 0 1 1 250.16,143.42A3,3 0 1 1 256.16,143.42Z" style="fill:#310458" />
<path d="M138.32,179.91A3,3 0 1 1 132.32,179.91A3,3 0 1 1 138.32,179.91Z"  />
<path d="M60.788,89.382A3,3 0 1 1 54.788,89.382A3,3 0 1 1 60.788,89.382Z" style="fill:#F1D8A3" />
<path d="M253.38,118.59A3,3 0 1 1 247.38,118.59A3,3 0 1 1 253.38,118.59Z" style="fill:#310458" />
<path d="M129.05,143.13A3,3 0 1 1 123.05,143.13A3,3 0 1 1 129.05,143.13Z" style="fill:#FFFFFE" />
<path d="M186.14,159.96A3,3 0 1 1 180.14,159.96A3,3 0 1 1 186.14,159.96Z" style="fill:#FFFFFE" />
<path d="M70.885,180.39A3,3 0 1 1 64.885,180.39A3,3 0 1 1 70.885,180.39Z"  />
<path d="M105.21,178.75A3,3 0 1 1 99.206,178.75A3,3 0 1 1 105.21,178.75Z"  />
<path d="M154.51,121.16A3,3 0 1 1 148.51,121.16A3,3 0 1 1 154.51,121.16Z" style="fill:#FFFFFE" />
<path d="M67.85,50.499A3,3 0 1 1 61.85,50.499A3,3 0 1 1 67.85,50.499Z" style="fill:#F1D8A3" />
<path d="M240.19,143.78A3,3 0 1 1 234.19,143.78A3,3 0 1 1 240.19,143.78Z" style="fill:#310458" />
<path d="M198,70.66A3,3 0 1 1 192,70.66A3,3 0 1 1 198,70.66Z" style="fill:#195E7B" />
<path d="M275,51.05A3,3 0 1 1 269,51.05A3,3 0 1 1 275,51.05Z" style="fill:#27AE17" />
<path d="M156.68,84.011A3,3 0 1 1 150.68,84.011A3,3 0 1 1 156.68,84.011Z" style="fill:#195E7B" />
<path d="M236.51,112.49A3,3 0 1 1 230.51,112.49A3,3 0 1 1 236.51,112.49Z" style="fill:#310458" />
<path d="M54.608,49.143A3,3 0 1 1 48.608,49.143A3,3 0 1 1 54.608,49.143Z" style="fill:#F1D8A3" />
<path d="M54.181,66.712A3,3 0 1 1 48.181,66.712A3,3 0 1 1 54.181,66.712Z" style="fill:#F1D8A3" />
<path d="M161.11,110.08A3,3 0 1 1 155.11,110.08A3,3 0 1 1 161.11,110.08Z" style="fill:#FFFFFE" />
<path d="M78.828,50.088A3,3 0 1 1 72.828,50.088A3,3 0 1 1 78.828,50.088Z" style="fill:#F1D8A3" />
<path d="M125.35,179.24A3,3 0 1 1 119.35,179.24A3,3 0 1 1 125.35,179.24Z"  />
<path d="M242.37,112.28A3,3 0 1 1 236.37,112.28A3,3 0 1 1 242.37,112.28Z" style="fill:#310458" />
<path d="M233.79,113.01A3,3 0 1 1 227.79,113.01A3,3 0 1 1 233.79,113.01Z" style="fill:#310458" />
<path d="M166.69,146.89A3,3 0 1 1 160.69,146.89A3,3 0 1 1 166.69,146.89Z" style="fill:#FFFFFE" />
<path d="M219.99,136.14A3,3 0 1 1 213.99,136.14A3,3 0 1 1 219.99,136.14Z" style="fill:#310458" />
<path d="M177.68,83.04A3,3 0 1 1 171.68,83.04A3,3 0 1 1 177.68,83.04Z" style="fill:#195E7B" />
<path d="M53.135,83.976A3,3 0 1 1 47.135,83.976A3,3 0 1 1 53.135,83.976Z" style="fill:#F1D8A3" />
<path d="M167.37,158.3A3,3 0 1 1 161.37,158.3A3,3 0 1 1 167.37,158.3Z" style="fill:#FFFFFE" />
<path d="M199.77,112.11A3,3 0 1 1 193.77,112.11A3,3 0 1 1 199.77,112.11Z" style="fill:#FFFFFE" />
<path d="M135.91,167.98A3,3 0 1 1 129.91,167.98A3,3 0 1 1 135.91,167.98Z"  />
<path d="M123.38,105.57A3,3 0 1 1 117.38,105.57A3,3 0 1 1 123.38,105.57Z" style="fill:#95C908" />
<path d="M207.11,100.97A3,3 0 1 1 201.11,100.97A3,3 0 1 1 207.11,100.97Z" style="fill:#195E7B" />
<path d="M90.546,78.437A3,3 0 1 1 84.546,78.437A3,3 0 1 1 90.546,78.437Z" style="fill:#F1D8A3" />
<path d="M267.59,55.961A3,3 0 1 1 261.59,55.961A3,3 0 1 1 267.59,55.961Z" style="fill:#27AE17" />
<path d="M106.16,169.88A3,3 0 1 1 100.16,169.88A3,3 0 1 1 106.16,169.88Z"  />
<path d="M236.21,43.442A3,3 0 1 1 230.21,43.442A3,3 0 1 1 236.21,43.442Z" style="fill:#27AE17" />
<path d="M72.437,180.49A3,3 0 1 1 66.437,180.49A3,3 0 1 1 72.437,180.49Z"  />
<path d="M268.86,141.77A3,3 0 1 1 262.86,141.77A3,3 0 1 1 268.86,141.77Z" style="fill:#310458" />
<path d="M89.028,44.248A3,3 0 1 1 83.028,44.248A3,3 0 1 1 89.028,44.248Z" style="fill:#F1D8A3" />
<path d="M207.86,109.61A3,3 0 1 1 201.86,109.61A3,3 0 1 1 207.86,109.61Z" style="fill:#310458" />
<path d="M63.937,179.03A3,3 0 1 1 57.937,179.03A3,3 0 1 1 63.937,179.03Z"  />
<path d="M187.02,79.754A3,3 0 1 1 181.02,79.754A3,3 0 1 1 187.02,79.754Z" style="fill:#195E7B" />
<path d="M249.84,130.7A3,3 0 1 1 243.84,130.7A3,3 0 1 1 249.84,130.7Z" style="fill:#310458" />
<path d="M163.29,110.9A3,3 0 1 1 157.29,110.9A3,3 0 1 1 163.29,110.9Z" style="fill:#FFFFFE" />
<path d="M153.4,102A3,3 0 1 1 147.4,102A3,3 0 1 1 153.4,102Z" style="fill:#195E7B" />
<path d="M123.89,164.95A3,3 0 1 1 117.89,164.95A3,3 0 1 1 123.89,164.95Z"  />
<path d="M229.48,168.05A3,3 0 1 1 223.48,168.05A3,3 0 1 1 229.48,168.05Z" style="fill:#08829A" />
<path d="M272.6,104.01A3,3 0 1 1 266.6,104.01A3,3 0 1 1 272.6,104.01Z" style="fill:#310458" />
<path d="M235.4,150.98A3,3 0 1 1 229.4,150.98A3,3 0 1 1 235.4,150.98Z" style="fill:#08829A" />
<path d="M61.766,112.38A3,3 0 1 1 55.766,112.38A3,3 0 1 1 61.766,112.38Z" style="fill:#95C908" />
<path d="M277.55,51.44A3,3 0 1 1 271.55,51.44A3,3 0 1 1 277.55,51.44Z" style="fill:#27AE17" />
<path d="M150.01,180.43A3,3 0 1 1 144.01,180.43A3,3 0 1 1 150.01,180.43Z"  />
<path d="M236.67,90.911A3,3 0 1 1 230.67,90.911A3,3 0 1 1 236.67,90.911Z" style="fill:#27AE17" />
<path d="M170.27,98.202A3,3 0 1 1 164.27,98.202A3,3 0 1 1 170.27,98.202Z" style="fill:#195E7B" />
<path d="M144.26,90.375A3,3 0 1 1 138.26,90.375A3,3 0 1 1 144.26,90.375Z" style="fill:#195E7B" />
<path d="M93.668,139.44A3,3 0 1 1 87.668,139.44A3,3 0 1 1 93.668,139.44Z" style="fill:#95C908" />
<path d="M258.26,181.34A3,3 0 1 1 252.26,181.34A3,3 0 1 1 258.26,181.34Z" style="fill:#08829A" />
<path d="M133.96,111.82A3,3 0 1 1 127.96,111.82A3,3 0 1 1 133.96,111.82Z" style="fill:#95C908" />
<path d="M203.74,56.984A3,3 0 1 1 197.74,56.984A3,3 0 1 1 203.74,56.984Z" style="fill:#195E7B" />
<path d="M149.64,87.018A3,3 0 1 1 143.64,87.018A3,3 0 1 1 149.64,87.018Z" style="fill:#195E7B" />
<path d="M243.78,138.26A3,3 0 1 1 237.78,138.26A3,3 0 1 1 243.78,138.26Z" style="fill:#310458" />
<path d="M258.08,132.57A3,3 0 1 1 252.08,132.57A3,3 0 1 1 258.08,132.57Z" style="fill:#310458" />
<path d="M124.7,105.14A3,3 0 1 1 118.7,105.14A3,3 0 1 1 124.7,105.14Z" style="fill:#95C908" />
<path d="M109.44,47.896A3,3 0 1 1 103.44,47.896A3,3 0 1 1 109.44,47.896Z" style="fill:#F1D8A3" />
<path d="M226.18,116.07A3,3 0 1 1 220.18,116.07A3,3 0 1 1 226.18,116.07Z" style="fill:#310458" />
<path d="M116.1,84.574A3,3 0 1 1 110.1,84.574A3,3 0 1 1 116.1,84.574Z" style="fill:#F1D8A3" />
<path d="M162.08,51.365A3,3 0 1 1 156.08,51.365A3,3 0 1 1 162.08,51.365Z" style="fill:#195E7B" />
<path d="M145.99,96.744A3,3 0 1 1 139.99,96.744A3,3 0 1 1 145.99,96.744Z" style="fill:#195E7B" />
<path d="M73.228,94.846A3,3 0 1 1 67.228,94.846A3,3 0 1 1 73.228,94.846Z" style="fill:#95C908" />
<path d="M135.85,67.573A3,3 0 1 1 129.85,67.573A3,3 0 1 1 135.85,67.573Z" style="fill:#195E7B" />
<path d="M65.784,64.217A3,3 0 1 1 59.784,64.217A3,3 0 1 1 65.784,64.217Z" style="fill:#F1D8A3" />
<path d="M231.4,172.67A3,3 0 1 1 225.4,172.67A3,3 0 1 1 231.4,172.67Z" style="fill:#08829A" />
<path d="M97.694,70.088A3,3 0 1 1 91.694,70.088A3,3 0 1 1 97.694,70.088Z" style="fill:#F1D8A3" />
<path d="M57.294,120.51A3,3 0 1 1 51.294,120.51A3,3 0 1 1 57.294,120.51Z" style="fill:#95C908" />
<path d="M142.16,157.29A3,3 0 1 1 136.16,157.29A3,3 0 1 1 142.16,157.29Z"  />
</g>
</svg>
