<?xml version="1.0"?>
<!-- Generated by SVGo and Plotinum VG -->
<svg width="300pt" height="200pt" viewBox="0 0 300 200"
	xmlns="http://www.w3.org/2000/svg"
	xmlns:xlink="http://www.w3.org/1999/xlink">
<g transform="scale(1, -1) translate(0, -200)">
<path d="M0,0L300,0L300,200L0,200Z" style="fill:#FFFFFF" />
<text x="101.01" y="-190.61" transform="scale(1, -1)"
	style="font-family:Times;font-weight:normal;font-style:normal;font-size:12px">Kmeans Scatter Plot</text>
<text x="170.57" y="-3.9023" transform="scale(1, -1)"
	style="font-family:Times;font-weight:normal;font-style:normal;font-size:12px">x</text>
<text x="93.899" y="-16.541" transform="scale(1, -1)"
	style="font-family:Times;font-weight:normal;font-style:normal;font-size:10px">50</text>
<text x="187.73" y="-16.541" transform="scale(1, -1)"
	style="font-family:Times;font-weight:normal;font-style:normal;font-size:10px">150</text>
<text x="284.06" y="-16.541" transform="scale(1, -1)"
	style="font-family:Times;font-weight:normal;font-style:normal;font-size:10px">250</text>
<path d="M98.899,24.363L98.899,32.363" style="fill:none;stroke:#000000;stroke-width:0.5" />
<path d="M195.23,24.363L195.23,32.363" style="fill:none;stroke:#000000;stroke-width:0.5" />
<path d="M291.56,24.363L291.56,32.363" style="fill:none;stroke:#000000;stroke-width:0.5" />
<path d="M147.06,28.363L147.06,32.363" style="fill:none;stroke:#000000;stroke-width:0.5" />
<path d="M243.39,28.363L243.39,32.363" style="fill:none;stroke:#000000;stroke-width:0.5" />
<path d="M51.135,32.363L296,32.363" style="fill:none;stroke:#000000;stroke-width:0.5" />
<g transform="rotate(90)">
<text x="109.13" y="9.3867" transform="scale(1, -1)"
	style="font-family:Times;font-weight:normal;font-style:normal;font-size:12px">Y</text>
</g>
<text x="20.885" y="-68.959" transform="scale(1, -1)"
	style="font-family:Times;font-weight:normal;font-style:normal;font-size:10px">50</text>
<text x="15.885" y="-123.85" transform="scale(1, -1)"
	style="font-family:Times;font-weight:normal;font-style:normal;font-size:10px">150</text>
<text x="15.885" y="-178.74" transform="scale(1, -1)"
	style="font-family:Times;font-weight:normal;font-style:normal;font-size:10px">250</text>
<path d="M33.385,71.244L41.385,71.244" style="fill:none;stroke:#000000;stroke-width:0.5" />
<path d="M33.385,126.13L41.385,126.13" style="fill:none;stroke:#000000;stroke-width:0.5" />
<path d="M33.385,181.03L41.385,181.03" style="fill:none;stroke:#000000;stroke-width:0.5" />
<path d="M37.385,98.689L41.385,98.689" style="fill:none;stroke:#000000;stroke-width:0.5" />
<path d="M37.385,153.58L41.385,153.58" style="fill:none;stroke:#000000;stroke-width:0.5" />
<path d="M41.385,44.209L41.385,182.71" style="fill:none;stroke:#000000;stroke-width:0.5" />
<path d="M281.07,50.833A4,4 0 1 1 273.07,50.833A4,4 0 1 1 281.07,50.833Z" style="fill:#689CC6" />
<path d="M229,111.88A4,4 0 1 1 221,111.88A4,4 0 1 1 229,111.88Z" style="fill:#DF96AD" />
<path d="M240.41,84.306A4,4 0 1 1 232.41,84.306A4,4 0 1 1 240.41,84.306Z" style="fill:#689CC6" />
<path d="M286.2,77.85A4,4 0 1 1 278.2,77.85A4,4 0 1 1 286.2,77.85Z" style="fill:#689CC6" />
<path d="M104.49,176.28A4,4 0 1 1 96.492,176.28A4,4 0 1 1 104.49,176.28Z" style="fill:#AE823D" />
<path d="M295.39,154.13A4,4 0 1 1 287.39,154.13A4,4 0 1 1 295.39,154.13Z" style="fill:#0041C9" />
<path d="M274.32,172.76A4,4 0 1 1 266.32,172.76A4,4 0 1 1 274.32,172.76Z" style="fill:#0041C9" />
<path d="M247.07,59.351A4,4 0 1 1 239.07,59.351A4,4 0 1 1 247.07,59.351Z" style="fill:#689CC6" />
<path d="M103.79,97.203A4,4 0 1 1 95.785,97.203A4,4 0 1 1 103.79,97.203Z" style="fill:#70E9A9" />
<path d="M125.37,124.07A4,4 0 1 1 117.37,124.07A4,4 0 1 1 125.37,124.07Z" style="fill:#70E9A9" />
<path d="M297.45,181.11A4,4 0 1 1 289.45,181.11A4,4 0 1 1 297.45,181.11Z" style="fill:#0041C9" />
<path d="M149.71,147.93A4,4 0 1 1 141.71,147.93A4,4 0 1 1 149.71,147.93Z" style="fill:#9F66D5" />
<path d="M225.09,131.74A4,4 0 1 1 217.09,131.74A4,4 0 1 1 225.09,131.74Z" style="fill:#DF96AD" />
<path d="M247.43,179.78A4,4 0 1 1 239.43,179.78A4,4 0 1 1 247.43,179.78Z" style="fill:#0041C9" />
<path d="M70.649,47.425A4,4 0 1 1 62.649,47.425A4,4 0 1 1 70.649,47.425Z" style="fill:#A7D8D6" />
<path d="M56.073,106.31A4,4 0 1 1 48.073,106.31A4,4 0 1 1 56.073,106.31Z" style="fill:#70E9A9" />
<path d="M194.74,170.36A4,4 0 1 1 186.74,170.36A4,4 0 1 1 194.74,170.36Z" style="fill:#0041C9" />
<path d="M216.13,76.189A4,4 0 1 1 208.13,76.189A4,4 0 1 1 216.13,76.189Z" style="fill:#4776FA" />
<path d="M153.59,88.992A4,4 0 1 1 145.59,88.992A4,4 0 1 1 153.59,88.992Z" style="fill:#4776FA" />
<path d="M195.89,177.57A4,4 0 1 1 187.89,177.57A4,4 0 1 1 195.89,177.57Z" style="fill:#0041C9" />
<path d="M218.85,119.31A4,4 0 1 1 210.85,119.31A4,4 0 1 1 218.85,119.31Z" style="fill:#DF96AD" />
<path d="M175.52,54.24A4,4 0 1 1 167.52,54.24A4,4 0 1 1 175.52,54.24Z" style="fill:#4776FA" />
<path d="M78.846,179.89A4,4 0 1 1 70.846,179.89A4,4 0 1 1 78.846,179.89Z" style="fill:#AE823D" />
<path d="M257.43,60.616A4,4 0 1 1 249.43,60.616A4,4 0 1 1 257.43,60.616Z" style="fill:#689CC6" />
<path d="M266.25,107.29A4,4 0 1 1 258.25,107.29A4,4 0 1 1 266.25,107.29Z" style="fill:#DF96AD" />
<path d="M233.66,157.03A4,4 0 1 1 225.66,157.03A4,4 0 1 1 233.66,157.03Z" style="fill:#0041C9" />
<path d="M291.14,63.647A4,4 0 1 1 283.14,63.647A4,4 0 1 1 291.14,63.647Z" style="fill:#689CC6" />
<path d="M263.47,134.45A4,4 0 1 1 255.47,134.45A4,4 0 1 1 263.47,134.45Z" style="fill:#DF96AD" />
<path d="M128.66,169.09A4,4 0 1 1 120.66,169.09A4,4 0 1 1 128.66,169.09Z" style="fill:#AE823D" />
<path d="M91.798,168.97A4,4 0 1 1 83.798,168.97A4,4 0 1 1 91.798,168.97Z" style="fill:#AE823D" />
<path d="M184.44,50.446A4,4 0 1 1 176.44,50.446A4,4 0 1 1 184.44,50.446Z" style="fill:#4776FA" />
<path d="M172.92,129.91A4,4 0 1 1 164.92,129.91A4,4 0 1 1 172.92,129.91Z" style="fill:#9F66D5" />
<path d="M235.15,69.929A4,4 0 1 1 227.15,69.929A4,4 0 1 1 235.15,69.929Z" style="fill:#689CC6" />
<path d="M263.42,57.589A4,4 0 1 1 255.42,57.589A4,4 0 1 1 263.42,57.589Z" style="fill:#689CC6" />
<path d="M180.34,112.19A4,4 0 1 1 172.34,112.19A4,4 0 1 1 180.34,112.19Z" style="fill:#9F66D5" />
<path d="M152.17,45.779A4,4 0 1 1 144.17,45.779A4,4 0 1 1 152.17,45.779Z" style="fill:#4776FA" />
<path d="M102.98,54.688A4,4 0 1 1 94.984,54.688A4,4 0 1 1 102.98,54.688Z" style="fill:#A7D8D6" />
<path d="M234.13,163.86A4,4 0 1 1 226.13,163.86A4,4 0 1 1 234.13,163.86Z" style="fill:#0041C9" />
<path d="M178.94,95.205A4,4 0 1 1 170.94,95.205A4,4 0 1 1 178.94,95.205Z" style="fill:#4776FA" />
<path d="M222.79,93.9A4,4 0 1 1 214.79,93.9A4,4 0 1 1 222.79,93.9Z" style="fill:#4776FA" />
<path d="M129.21,164.09A4,4 0 1 1 121.21,164.09A4,4 0 1 1 129.21,164.09Z" style="fill:#AE823D" />
<path d="M108.04,57.691A4,4 0 1 1 100.04,57.691A4,4 0 1 1 108.04,57.691Z" style="fill:#A7D8D6" />
<path d="M256.53,178.99A4,4 0 1 1 248.53,178.99A4,4 0 1 1 256.53,178.99Z" style="fill:#0041C9" />
<path d="M129.16,115.99A4,4 0 1 1 121.16,115.99A4,4 0 1 1 129.16,115.99Z" style="fill:#70E9A9" />
<path d="M237.57,157.71A4,4 0 1 1 229.57,157.71A4,4 0 1 1 237.57,157.71Z" style="fill:#0041C9" />
<path d="M132.04,72.39A4,4 0 1 1 124.04,72.39A4,4 0 1 1 132.04,72.39Z" style="fill:#A7D8D6" />
<path d="M160.6,84.439A4,4 0 1 1 152.6,84.439A4,4 0 1 1 160.6,84.439Z" style="fill:#4776FA" />
<path d="M266.4,160.33A4,4 0 1 1 258.4,160.33A4,4 0 1 1 266.4,160.33Z" style="fill:#0041C9" />
<path d="M194.4,84.999A4,4 0 1 1 186.4,84.999A4,4 0 1 1 194.4,84.999Z" style="fill:#4776FA" />
<path d="M292.19,99.764A4,4 0 1 1 284.19,99.764A4,4 0 1 1 292.19,99.764Z" style="fill:#DF96AD" />
<path d="M279.54,72.016A4,4 0 1 1 271.54,72.016A4,4 0 1 1 279.54,72.016Z" style="fill:#689CC6" />
<path d="M199.68,45.57A4,4 0 1 1 191.68,45.57A4,4 0 1 1 199.68,45.57Z" style="fill:#4776FA" />
<path d="M292.07,90.162A4,4 0 1 1 284.07,90.162A4,4 0 1 1 292.07,90.162Z" style="fill:#689CC6" />
<path d="M246.73,56.331A4,4 0 1 1 238.73,56.331A4,4 0 1 1 246.73,56.331Z" style="fill:#689CC6" />
<path d="M192.33,142.99A4,4 0 1 1 184.33,142.99A4,4 0 1 1 192.33,142.99Z" style="fill:#9F66D5" />
<path d="M157.56,109.81A4,4 0 1 1 149.56,109.81A4,4 0 1 1 157.56,109.81Z" style="fill:#9F66D5" />
<path d="M138.12,156.12A4,4 0 1 1 130.12,156.12A4,4 0 1 1 138.12,156.12Z" style="fill:#AE823D" />
<path d="M215.31,54.18A4,4 0 1 1 207.31,54.18A4,4 0 1 1 215.31,54.18Z" style="fill:#4776FA" />
<path d="M248.96,126.94A4,4 0 1 1 240.96,126.94A4,4 0 1 1 248.96,126.94Z" style="fill:#DF96AD" />
<path d="M300,73.743A4,4 0 1 1 292,73.743A4,4 0 1 1 300,73.743Z" style="fill:#689CC6" />
<path d="M94.571,99.714A4,4 0 1 1 86.571,99.714A4,4 0 1 1 94.571,99.714Z" style="fill:#70E9A9" />
<path d="M232.26,106.8A4,4 0 1 1 224.26,106.8A4,4 0 1 1 232.26,106.8Z" style="fill:#DF96AD" />
<path d="M95.954,103.75A4,4 0 1 1 87.954,103.75A4,4 0 1 1 95.954,103.75Z" style="fill:#70E9A9" />
<path d="M177.39,96.853A4,4 0 1 1 169.39,96.853A4,4 0 1 1 177.39,96.853Z" style="fill:#4776FA" />
<path d="M192.91,68.863A4,4 0 1 1 184.91,68.863A4,4 0 1 1 192.91,68.863Z" style="fill:#4776FA" />
<path d="M81.802,91.375A4,4 0 1 1 73.802,91.375A4,4 0 1 1 81.802,91.375Z" style="fill:#A7D8D6" />
<path d="M252.29,63.461A4,4 0 1 1 244.29,63.461A4,4 0 1 1 252.29,63.461Z" style="fill:#689CC6" />
<path d="M226.77,181.5A4,4 0 1 1 218.77,181.5A4,4 0 1 1 226.77,181.5Z" style="fill:#0041C9" />
<path d="M224.76,55.279A4,4 0 1 1 216.76,55.279A4,4 0 1 1 224.76,55.279Z" style="fill:#4776FA" />
<path d="M172.12,125.89A4,4 0 1 1 164.12,125.89A4,4 0 1 1 172.12,125.89Z" style="fill:#9F66D5" />
<path d="M240.86,47.314A4,4 0 1 1 232.86,47.314A4,4 0 1 1 240.86,47.314Z" style="fill:#689CC6" />
<path d="M163.35,152.54A4,4 0 1 1 155.35,152.54A4,4 0 1 1 163.35,152.54Z" style="fill:#9F66D5" />
<path d="M126.05,108.26A4,4 0 1 1 118.05,108.26A4,4 0 1 1 126.05,108.26Z" style="fill:#70E9A9" />
<path d="M247.44,46.304A4,4 0 1 1 239.44,46.304A4,4 0 1 1 247.44,46.304Z" style="fill:#689CC6" />
<path d="M60.365,80.833A4,4 0 1 1 52.365,80.833A4,4 0 1 1 60.365,80.833Z" style="fill:#A7D8D6" />
<path d="M95.243,107.07A4,4 0 1 1 87.243,107.07A4,4 0 1 1 95.243,107.07Z" style="fill:#70E9A9" />
<path d="M237.21,149.26A4,4 0 1 1 229.21,149.26A4,4 0 1 1 237.21,149.26Z" style="fill:#0041C9" />
<path d="M162.89,50.469A4,4 0 1 1 154.89,50.469A4,4 0 1 1 162.89,50.469Z" style="fill:#4776FA" />
<path d="M172.92,126.53A4,4 0 1 1 164.92,126.53A4,4 0 1 1 172.92,126.53Z" style="fill:#9F66D5" />
<path d="M107.71,162.04A4,4 0 1 1 99.711,162.04A4,4 0 1 1 107.71,162.04Z" style="fill:#AE823D" />
<path d="M67.742,87.268A4,4 0 1 1 59.742,87.268A4,4 0 1 1 67.742,87.268Z" style="fill:#A7D8D6" />
<path d="M252.23,77.251A4,4 0 1 1 244.23,77.251A4,4 0 1 1 252.23,77.251Z" style="fill:#689CC6" />
<path d="M233.61,149.64A4,4 0 1 1 225.61,149.64A4,4 0 1 1 233.61,149.64Z" style="fill:#0041C9" />
<path d="M296.29,115.78A4,4 0 1 1 288.29,115.78A4,4 0 1 1 296.29,115.78Z" style="fill:#DF96AD" />
<path d="M233.66,114.65A4,4 0 1 1 225.66,114.65A4,4 0 1 1 233.66,114.65Z" style="fill:#DF96AD" />
<path d="M187.89,137.91A4,4 0 1 1 179.89,137.91A4,4 0 1 1 187.89,137.91Z" style="fill:#9F66D5" />
<path d="M167.64,96.632A4,4 0 1 1 159.64,96.632A4,4 0 1 1 167.64,96.632Z" style="fill:#4776FA" />
<path d="M280.92,55.533A4,4 0 1 1 272.92,55.533A4,4 0 1 1 280.92,55.533Z" style="fill:#689CC6" />
<path d="M171.6,167.11A4,4 0 1 1 163.6,167.11A4,4 0 1 1 171.6,167.11Z" style="fill:#9F66D5" />
<path d="M122.49,157.77A4,4 0 1 1 114.49,157.77A4,4 0 1 1 122.49,157.77Z" style="fill:#AE823D" />
<path d="M296.61,179.78A4,4 0 1 1 288.61,179.78A4,4 0 1 1 296.61,179.78Z" style="fill:#0041C9" />
<path d="M102.42,82.037A4,4 0 1 1 94.424,82.037A4,4 0 1 1 102.42,82.037Z" style="fill:#A7D8D6" />
<path d="M80.315,97.123A4,4 0 1 1 72.315,97.123A4,4 0 1 1 80.315,97.123Z" style="fill:#70E9A9" />
<path d="M81.655,62.743A4,4 0 1 1 73.655,62.743A4,4 0 1 1 81.655,62.743Z" style="fill:#A7D8D6" />
<path d="M111.94,136.61A4,4 0 1 1 103.94,136.61A4,4 0 1 1 111.94,136.61Z" style="fill:#70E9A9" />
<path d="M234.2,166.45A4,4 0 1 1 226.2,166.45A4,4 0 1 1 234.2,166.45Z" style="fill:#0041C9" />
<path d="M294.88,66.462A4,4 0 1 1 286.88,66.462A4,4 0 1 1 294.88,66.462Z" style="fill:#689CC6" />
<path d="M101.26,66.382A4,4 0 1 1 93.264,66.382A4,4 0 1 1 101.26,66.382Z" style="fill:#A7D8D6" />
<path d="M87.177,154.68A4,4 0 1 1 79.177,154.68A4,4 0 1 1 87.177,154.68Z" style="fill:#AE823D" />
<path d="M192.9,172.07A4,4 0 1 1 184.9,172.07A4,4 0 1 1 192.9,172.07Z" style="fill:#0041C9" />
<path d="M118.58,74.055A4,4 0 1 1 110.58,74.055A4,4 0 1 1 118.58,74.055Z" style="fill:#A7D8D6" />
<path d="M266.12,77.062A4,4 0 1 1 258.12,77.062A4,4 0 1 1 266.12,77.062Z" style="fill:#689CC6" />
<path d="M254.81,85.03A4,4 0 1 1 246.81,85.03A4,4 0 1 1 254.81,85.03Z" style="fill:#689CC6" />
<path d="M259.66,170.2A4,4 0 1 1 251.66,170.2A4,4 0 1 1 259.66,170.2Z" style="fill:#0041C9" />
<path d="M279.77,124.08A4,4 0 1 1 271.77,124.08A4,4 0 1 1 279.77,124.08Z" style="fill:#DF96AD" />
<path d="M196.5,73.134A4,4 0 1 1 188.5,73.134A4,4 0 1 1 196.5,73.134Z" style="fill:#4776FA" />
<path d="M73.126,125.81A4,4 0 1 1 65.126,125.81A4,4 0 1 1 73.126,125.81Z" style="fill:#70E9A9" />
<path d="M74.075,164.05A4,4 0 1 1 66.075,164.05A4,4 0 1 1 74.075,164.05Z" style="fill:#AE823D" />
<path d="M106.12,127.6A4,4 0 1 1 98.116,127.6A4,4 0 1 1 106.12,127.6Z" style="fill:#70E9A9" />
<path d="M204.39,160.19A4,4 0 1 1 196.39,160.19A4,4 0 1 1 204.39,160.19Z" style="fill:#9F66D5" />
<path d="M278.15,89.064A4,4 0 1 1 270.15,89.064A4,4 0 1 1 278.15,89.064Z" style="fill:#689CC6" />
<path d="M233.34,172.62A4,4 0 1 1 225.34,172.62A4,4 0 1 1 233.34,172.62Z" style="fill:#0041C9" />
<path d="M198.53,47.503A4,4 0 1 1 190.53,47.503A4,4 0 1 1 198.53,47.503Z" style="fill:#4776FA" />
<path d="M238.83,82.559A4,4 0 1 1 230.83,82.559A4,4 0 1 1 238.83,82.559Z" style="fill:#689CC6" />
<path d="M265.43,173.6A4,4 0 1 1 257.43,173.6A4,4 0 1 1 265.43,173.6Z" style="fill:#0041C9" />
<path d="M135.79,133.89A4,4 0 1 1 127.79,133.89A4,4 0 1 1 135.79,133.89Z" style="fill:#9F66D5" />
<path d="M149.5,160.59A4,4 0 1 1 141.5,160.59A4,4 0 1 1 149.5,160.59Z" style="fill:#AE823D" />
<path d="M226.47,82.9A4,4 0 1 1 218.47,82.9A4,4 0 1 1 226.47,82.9Z" style="fill:#4776FA" />
<path d="M185.19,115.04A4,4 0 1 1 177.19,115.04A4,4 0 1 1 185.19,115.04Z" style="fill:#9F66D5" />
<path d="M177.67,154.81A4,4 0 1 1 169.67,154.81A4,4 0 1 1 177.67,154.81Z" style="fill:#9F66D5" />
<path d="M63.275,143.71A4,4 0 1 1 55.275,143.71A4,4 0 1 1 63.275,143.71Z" style="fill:#70E9A9" />
<path d="M214,81.694A4,4 0 1 1 206,81.694A4,4 0 1 1 214,81.694Z" style="fill:#4776FA" />
<path d="M69.084,156.58A4,4 0 1 1 61.084,156.58A4,4 0 1 1 69.084,156.58Z" style="fill:#AE823D" />
<path d="M64.547,127.04A4,4 0 1 1 56.547,127.04A4,4 0 1 1 64.547,127.04Z" style="fill:#70E9A9" />
<path d="M175.61,175.7A4,4 0 1 1 167.61,175.7A4,4 0 1 1 175.61,175.7Z" style="fill:#AE823D" />
<path d="M122.23,90.031A4,4 0 1 1 114.23,90.031A4,4 0 1 1 122.23,90.031Z" style="fill:#70E9A9" />
<path d="M113.73,62.177A4,4 0 1 1 105.73,62.177A4,4 0 1 1 113.73,62.177Z" style="fill:#A7D8D6" />
<path d="M128.06,89.784A4,4 0 1 1 120.06,89.784A4,4 0 1 1 128.06,89.784Z" style="fill:#70E9A9" />
<path d="M97.853,129.6A4,4 0 1 1 89.853,129.6A4,4 0 1 1 97.853,129.6Z" style="fill:#70E9A9" />
<path d="M287.76,182.71A4,4 0 1 1 279.76,182.71A4,4 0 1 1 287.76,182.71Z" style="fill:#0041C9" />
<path d="M225.1,153.59A4,4 0 1 1 217.1,153.59A4,4 0 1 1 225.1,153.59Z" style="fill:#0041C9" />
<path d="M226.5,115.07A4,4 0 1 1 218.5,115.07A4,4 0 1 1 226.5,115.07Z" style="fill:#DF96AD" />
<path d="M117.02,166.51A4,4 0 1 1 109.02,166.51A4,4 0 1 1 117.02,166.51Z" style="fill:#AE823D" />
<path d="M259.63,149.83A4,4 0 1 1 251.63,149.83A4,4 0 1 1 259.63,149.83Z" style="fill:#0041C9" />
<path d="M167.48,95.926A4,4 0 1 1 159.48,95.926A4,4 0 1 1 167.48,95.926Z" style="fill:#4776FA" />
<path d="M91.083,96.478A4,4 0 1 1 83.083,96.478A4,4 0 1 1 91.083,96.478Z" style="fill:#70E9A9" />
<path d="M74.282,75.469A4,4 0 1 1 66.282,75.469A4,4 0 1 1 74.282,75.469Z" style="fill:#A7D8D6" />
<path d="M198.67,97.808A4,4 0 1 1 190.67,97.808A4,4 0 1 1 198.67,97.808Z" style="fill:#4776FA" />
<path d="M165.81,129.68A4,4 0 1 1 157.81,129.68A4,4 0 1 1 165.81,129.68Z" style="fill:#9F66D5" />
<path d="M124.89,124.29A4,4 0 1 1 116.89,124.29A4,4 0 1 1 124.89,124.29Z" style="fill:#70E9A9" />
<path d="M241.58,147.73A4,4 0 1 1 233.58,147.73A4,4 0 1 1 241.58,147.73Z" style="fill:#0041C9" />
<path d="M265.36,127.64A4,4 0 1 1 257.36,127.64A4,4 0 1 1 265.36,127.64Z" style="fill:#DF96AD" />
<path d="M145.35,112.12A4,4 0 1 1 137.35,112.12A4,4 0 1 1 145.35,112.12Z" style="fill:#70E9A9" />
<path d="M150.48,46.464A4,4 0 1 1 142.48,46.464A4,4 0 1 1 150.48,46.464Z" style="fill:#4776FA" />
<path d="M290.21,45.265A4,4 0 1 1 282.21,45.265A4,4 0 1 1 290.21,45.265Z" style="fill:#689CC6" />
<path d="M190.79,128.02A4,4 0 1 1 182.79,128.02A4,4 0 1 1 190.79,128.02Z" style="fill:#9F66D5" />
<path d="M264.7,136.64A4,4 0 1 1 256.7,136.64A4,4 0 1 1 264.7,136.64Z" style="fill:#DF96AD" />
<path d="M274.48,105.61A4,4 0 1 1 266.48,105.61A4,4 0 1 1 274.48,105.61Z" style="fill:#DF96AD" />
<path d="M163.04,71.565A4,4 0 1 1 155.04,71.565A4,4 0 1 1 163.04,71.565Z" style="fill:#4776FA" />
<path d="M90.383,150.7A4,4 0 1 1 82.383,150.7A4,4 0 1 1 90.383,150.7Z" style="fill:#AE823D" />
<path d="M224.96,171.51A4,4 0 1 1 216.96,171.51A4,4 0 1 1 224.96,171.51Z" style="fill:#0041C9" />
<path d="M262.3,132.57A4,4 0 1 1 254.3,132.57A4,4 0 1 1 262.3,132.57Z" style="fill:#DF96AD" />
<path d="M75.896,151.47A4,4 0 1 1 67.896,151.47A4,4 0 1 1 75.896,151.47Z" style="fill:#AE823D" />
<path d="M285,154.4A4,4 0 1 1 277,154.4A4,4 0 1 1 285,154.4Z" style="fill:#0041C9" />
<path d="M293.96,114.06A4,4 0 1 1 285.96,114.06A4,4 0 1 1 293.96,114.06Z" style="fill:#DF96AD" />
<path d="M258.25,50.344A4,4 0 1 1 250.25,50.344A4,4 0 1 1 258.25,50.344Z" style="fill:#689CC6" />
<path d="M137.01,126.91A4,4 0 1 1 129.01,126.91A4,4 0 1 1 137.01,126.91Z" style="fill:#70E9A9" />
<path d="M108.28,163.95A4,4 0 1 1 100.28,163.95A4,4 0 1 1 108.28,163.95Z" style="fill:#AE823D" />
<path d="M74.426,51.563A4,4 0 1 1 66.426,51.563A4,4 0 1 1 74.426,51.563Z" style="fill:#A7D8D6" />
<path d="M85.178,77.187A4,4 0 1 1 77.178,77.187A4,4 0 1 1 85.178,77.187Z" style="fill:#A7D8D6" />
<path d="M84.98,175.47A4,4 0 1 1 76.98,175.47A4,4 0 1 1 84.98,175.47Z" style="fill:#AE823D" />
<path d="M280.51,173A4,4 0 1 1 272.51,173A4,4 0 1 1 280.51,173Z" style="fill:#0041C9" />
<path d="M253.35,135.73A4,4 0 1 1 245.35,135.73A4,4 0 1 1 253.35,135.73Z" style="fill:#DF96AD" />
<path d="M226.57,72.995A4,4 0 1 1 218.57,72.995A4,4 0 1 1 226.57,72.995Z" style="fill:#4776FA" />
<path d="M84.504,125.65A4,4 0 1 1 76.504,125.65A4,4 0 1 1 84.504,125.65Z" style="fill:#70E9A9" />
<path d="M261.05,75.43A4,4 0 1 1 253.05,75.43A4,4 0 1 1 261.05,75.43Z" style="fill:#689CC6" />
<path d="M114.67,177.12A4,4 0 1 1 106.67,177.12A4,4 0 1 1 114.67,177.12Z" style="fill:#AE823D" />
<path d="M169.58,116.42A4,4 0 1 1 161.58,116.42A4,4 0 1 1 169.58,116.42Z" style="fill:#9F66D5" />
<path d="M210.24,144.73A4,4 0 1 1 202.24,144.73A4,4 0 1 1 210.24,144.73Z" style="fill:#9F66D5" />
<path d="M230.96,48.3A4,4 0 1 1 222.96,48.3A4,4 0 1 1 230.96,48.3Z" style="fill:#689CC6" />
<path d="M296.22,96.292A4,4 0 1 1 288.22,96.292A4,4 0 1 1 296.22,96.292Z" style="fill:#689CC6" />
<path d="M57.309,95.124A4,4 0 1 1 49.309,95.124A4,4 0 1 1 57.309,95.124Z" style="fill:#70E9A9" />
<path d="M175.46,117.04A4,4 0 1 1 167.46,117.04A4,4 0 1 1 175.46,117.04Z" style="fill:#9F66D5" />
<path d="M175.94,153.84A4,4 0 1 1 167.94,153.84A4,4 0 1 1 175.94,153.84Z" style="fill:#9F66D5" />
<path d="M65.338,165.65A4,4 0 1 1 57.338,165.65A4,4 0 1 1 65.338,165.65Z" style="fill:#AE823D" />
<path d="M227.51,180.34A4,4 0 1 1 219.51,180.34A4,4 0 1 1 227.51,180.34Z" style="fill:#0041C9" />
<path d="M88.702,155.56A4,4 0 1 1 80.702,155.56A4,4 0 1 1 88.702,155.56Z" style="fill:#AE823D" />
<path d="M166.37,70.092A4,4 0 1 1 158.37,70.092A4,4 0 1 1 166.37,70.092Z" style="fill:#4776FA" />
<path d="M121.73,112.43A4,4 0 1 1 113.73,112.43A4,4 0 1 1 121.73,112.43Z" style="fill:#70E9A9" />
<path d="M181,65.307A4,4 0 1 1 173,65.307A4,4 0 1 1 181,65.307Z" style="fill:#4776FA" />
<path d="M79.512,144.32A4,4 0 1 1 71.512,144.32A4,4 0 1 1 79.512,144.32Z" style="fill:#70E9A9" />
<path d="M58.215,136.74A4,4 0 1 1 50.215,136.74A4,4 0 1 1 58.215,136.74Z" style="fill:#70E9A9" />
<path d="M267.68,122.79A4,4 0 1 1 259.68,122.79A4,4 0 1 1 267.68,122.79Z" style="fill:#DF96AD" />
<path d="M263.36,142.19A4,4 0 1 1 255.36,142.19A4,4 0 1 1 263.36,142.19Z" style="fill:#DF96AD" />
<path d="M87.521,178.27A4,4 0 1 1 79.521,178.27A4,4 0 1 1 87.521,178.27Z" style="fill:#AE823D" />
<path d="M195.66,58.015A4,4 0 1 1 187.66,58.015A4,4 0 1 1 195.66,58.015Z" style="fill:#4776FA" />
<path d="M247.42,89.054A4,4 0 1 1 239.42,89.054A4,4 0 1 1 247.42,89.054Z" style="fill:#689CC6" />
<path d="M89.697,109.5A4,4 0 1 1 81.697,109.5A4,4 0 1 1 89.697,109.5Z" style="fill:#70E9A9" />
<path d="M202.08,80.918A4,4 0 1 1 194.08,80.918A4,4 0 1 1 202.08,80.918Z" style="fill:#4776FA" />
<path d="M197.25,181.33A4,4 0 1 1 189.25,181.33A4,4 0 1 1 197.25,181.33Z" style="fill:#0041C9" />
<path d="M264.81,56.658A4,4 0 1 1 256.81,56.658A4,4 0 1 1 264.81,56.658Z" style="fill:#689CC6" />
<path d="M271.66,109.4A4,4 0 1 1 263.66,109.4A4,4 0 1 1 271.66,109.4Z" style="fill:#DF96AD" />
<path d="M170.68,133.99A4,4 0 1 1 162.68,133.99A4,4 0 1 1 170.68,133.99Z" style="fill:#9F66D5" />
<path d="M86.985,60.138A4,4 0 1 1 78.985,60.138A4,4 0 1 1 86.985,60.138Z" style="fill:#A7D8D6" />
<path d="M141.38,168.99A4,4 0 1 1 133.38,168.99A4,4 0 1 1 141.38,168.99Z" style="fill:#AE823D" />
<path d="M248.92,152.34A4,4 0 1 1 240.92,152.34A4,4 0 1 1 248.92,152.34Z" style="fill:#0041C9" />
<path d="M148.64,135.12A4,4 0 1 1 140.64,135.12A4,4 0 1 1 148.64,135.12Z" style="fill:#9F66D5" />
<path d="M104.43,178.72A4,4 0 1 1 96.433,178.72A4,4 0 1 1 104.43,178.72Z" style="fill:#AE823D" />
<path d="M134.81,94.613A4,4 0 1 1 126.81,94.613A4,4 0 1 1 134.81,94.613Z" style="fill:#70E9A9" />
<path d="M242.65,152.15A4,4 0 1 1 234.65,152.15A4,4 0 1 1 242.65,152.15Z" style="fill:#0041C9" />
<path d="M216.26,150.97A4,4 0 1 1 208.26,150.97A4,4 0 1 1 216.26,150.97Z" style="fill:#9F66D5" />
<path d="M285.02,122.63A4,4 0 1 1 277.02,122.63A4,4 0 1 1 285.02,122.63Z" style="fill:#DF96AD" />
<path d="M157.64,63.698A4,4 0 1 1 149.64,63.698A4,4 0 1 1 157.64,63.698Z" style="fill:#4776FA" />
<path d="M254.62,182.61A4,4 0 1 1 246.62,182.61A4,4 0 1 1 254.62,182.61Z" style="fill:#0041C9" />
<path d="M187.28,140.16A4,4 0 1 1 179.28,140.16A4,4 0 1 1 187.28,140.16Z" style="fill:#9F66D5" />
<path d="M276.61,67.666A4,4 0 1 1 268.61,67.666A4,4 0 1 1 276.61,67.666Z" style="fill:#689CC6" />
<path d="M180.48,79.483A4,4 0 1 1 172.48,79.483A4,4 0 1 1 180.48,79.483Z" style="fill:#4776FA" />
<path d="M131.71,80.803A4,4 0 1 1 123.71,80.803A4,4 0 1 1 131.71,80.803Z" style="fill:#A7D8D6" />
<path d="M279.35,76.583A4,4 0 1 1 271.35,76.583A4,4 0 1 1 279.35,76.583Z" style="fill:#689CC6" />
<path d="M136.6,127.06A4,4 0 1 1 128.6,127.06A4,4 0 1 1 136.6,127.06Z" style="fill:#70E9A9" />
<path d="M75.515,48.528A4,4 0 1 1 67.515,48.528A4,4 0 1 1 75.515,48.528Z" style="fill:#A7D8D6" />
<path d="M112.37,62.553A4,4 0 1 1 104.37,62.553A4,4 0 1 1 112.37,62.553Z" style="fill:#A7D8D6" />
<path d="M148.42,57.46A4,4 0 1 1 140.42,57.46A4,4 0 1 1 148.42,57.46Z" style="fill:#4776FA" />
<path d="M245.79,95.704A4,4 0 1 1 237.79,95.704A4,4 0 1 1 245.79,95.704Z" style="fill:#DF96AD" />
<path d="M261.47,46.415A4,4 0 1 1 253.47,46.415A4,4 0 1 1 261.47,46.415Z" style="fill:#689CC6" />
<path d="M55.544,46.071A4,4 0 1 1 47.544,46.071A4,4 0 1 1 55.544,46.071Z" style="fill:#A7D8D6" />
<path d="M162.23,173.61A4,4 0 1 1 154.23,173.61A4,4 0 1 1 162.23,173.61Z" style="fill:#AE823D" />
<path d="M182.31,131.83A4,4 0 1 1 174.31,131.83A4,4 0 1 1 182.31,131.83Z" style="fill:#9F66D5" />
<path d="M297.54,69.298A4,4 0 1 1 289.54,69.298A4,4 0 1 1 297.54,69.298Z" style="fill:#689CC6" />
<path d="M278.79,86.705A4,4 0 1 1 270.79,86.705A4,4 0 1 1 278.79,86.705Z" style="fill:#689CC6" />
<path d="M290.64,44.209A4,4 0 1 1 282.64,44.209A4,4 0 1 1 290.64,44.209Z" style="fill:#689CC6" />
<path d="M64.61,62.297A4,4 0 1 1 56.61,62.297A4,4 0 1 1 64.61,62.297Z" style="fill:#A7D8D6" />
<path d="M218.39,73.275A4,4 0 1 1 210.39,73.275A4,4 0 1 1 218.39,73.275Z" style="fill:#4776FA" />
<path d="M222.91,165.26A4,4 0 1 1 214.91,165.26A4,4 0 1 1 222.91,165.26Z" style="fill:#0041C9" />
<path d="M237.73,74.656A4,4 0 1 1 229.73,74.656A4,4 0 1 1 237.73,74.656Z" style="fill:#689CC6" />
<path d="M78.116,94.783A4,4 0 1 1 70.116,94.783A4,4 0 1 1 78.116,94.783Z" style="fill:#70E9A9" />
<path d="M271.28,144.12A4,4 0 1 1 263.28,144.12A4,4 0 1 1 271.28,144.12Z" style="fill:#DF96AD" />
<path d="M145.83,180.5A4,4 0 1 1 137.83,180.5A4,4 0 1 1 145.83,180.5Z" style="fill:#AE823D" />
<path d="M63.283,90.241A4,4 0 1 1 55.283,90.241A4,4 0 1 1 63.283,90.241Z" style="fill:#A7D8D6" />
<path d="M268.32,119.36A4,4 0 1 1 260.32,119.36A4,4 0 1 1 268.32,119.36Z" style="fill:#DF96AD" />
<path d="M135.96,143.82A4,4 0 1 1 127.96,143.82A4,4 0 1 1 135.96,143.82Z" style="fill:#9F66D5" />
<path d="M196.73,160.6A4,4 0 1 1 188.73,160.6A4,4 0 1 1 196.73,160.6Z" style="fill:#9F66D5" />
<path d="M74.031,180.97A4,4 0 1 1 66.031,180.97A4,4 0 1 1 74.031,180.97Z" style="fill:#AE823D" />
<path d="M110.57,179.33A4,4 0 1 1 102.57,179.33A4,4 0 1 1 110.57,179.33Z" style="fill:#AE823D" />
<path d="M163.06,121.92A4,4 0 1 1 155.06,121.92A4,4 0 1 1 163.06,121.92Z" style="fill:#9F66D5" />
<path d="M70.801,51.476A4,4 0 1 1 62.801,51.476A4,4 0 1 1 70.801,51.476Z" style="fill:#A7D8D6" />
<path d="M254.27,144.47A4,4 0 1 1 246.27,144.47A4,4 0 1 1 254.27,144.47Z" style="fill:#DF96AD" />
<path d="M209.36,71.576A4,4 0 1 1 201.36,71.576A4,4 0 1 1 209.36,71.576Z" style="fill:#4776FA" />
<path d="M291.34,52.026A4,4 0 1 1 283.34,52.026A4,4 0 1 1 291.34,52.026Z" style="fill:#689CC6" />
<path d="M165.37,84.886A4,4 0 1 1 157.37,84.886A4,4 0 1 1 165.37,84.886Z" style="fill:#4776FA" />
<path d="M250.36,113.27A4,4 0 1 1 242.36,113.27A4,4 0 1 1 250.36,113.27Z" style="fill:#DF96AD" />
<path d="M56.703,50.125A4,4 0 1 1 48.703,50.125A4,4 0 1 1 56.703,50.125Z" style="fill:#A7D8D6" />
<path d="M56.248,67.64A4,4 0 1 1 48.248,67.64A4,4 0 1 1 56.248,67.64Z" style="fill:#A7D8D6" />
<path d="M170.08,110.88A4,4 0 1 1 162.08,110.88A4,4 0 1 1 170.08,110.88Z" style="fill:#9F66D5" />
<path d="M82.488,51.067A4,4 0 1 1 74.488,51.067A4,4 0 1 1 82.488,51.067Z" style="fill:#A7D8D6" />
<path d="M132.01,179.82A4,4 0 1 1 124.01,179.82A4,4 0 1 1 132.01,179.82Z" style="fill:#AE823D" />
<path d="M256.6,113.07A4,4 0 1 1 248.6,113.07A4,4 0 1 1 256.6,113.07Z" style="fill:#DF96AD" />
<path d="M247.46,113.8A4,4 0 1 1 239.46,113.8A4,4 0 1 1 247.46,113.8Z" style="fill:#DF96AD" />
<path d="M176.02,147.57A4,4 0 1 1 168.02,147.57A4,4 0 1 1 176.02,147.57Z" style="fill:#9F66D5" />
<path d="M232.77,136.86A4,4 0 1 1 224.77,136.86A4,4 0 1 1 232.77,136.86Z" style="fill:#DF96AD" />
<path d="M187.73,83.918A4,4 0 1 1 179.73,83.918A4,4 0 1 1 187.73,83.918Z" style="fill:#4776FA" />
<path d="M55.135,84.851A4,4 0 1 1 47.135,84.851A4,4 0 1 1 55.135,84.851Z" style="fill:#A7D8D6" />
<path d="M176.75,158.94A4,4 0 1 1 168.75,158.94A4,4 0 1 1 176.75,158.94Z" style="fill:#9F66D5" />
<path d="M211.24,112.9A4,4 0 1 1 203.24,112.9A4,4 0 1 1 211.24,112.9Z" style="fill:#9F66D5" />
<path d="M143.26,168.59A4,4 0 1 1 135.26,168.59A4,4 0 1 1 143.26,168.59Z" style="fill:#AE823D" />
<path d="M129.92,106.38A4,4 0 1 1 121.92,106.38A4,4 0 1 1 129.92,106.38Z" style="fill:#70E9A9" />
<path d="M219.05,101.8A4,4 0 1 1 211.05,101.8A4,4 0 1 1 219.05,101.8Z" style="fill:#4776FA" />
<path d="M94.963,79.329A4,4 0 1 1 86.963,79.329A4,4 0 1 1 94.963,79.329Z" style="fill:#A7D8D6" />
<path d="M283.45,56.922A4,4 0 1 1 275.45,56.922A4,4 0 1 1 283.45,56.922Z" style="fill:#689CC6" />
<path d="M111.59,170.49A4,4 0 1 1 103.59,170.49A4,4 0 1 1 111.59,170.49Z" style="fill:#AE823D" />
<path d="M250.04,44.441A4,4 0 1 1 242.04,44.441A4,4 0 1 1 250.04,44.441Z" style="fill:#689CC6" />
<path d="M75.684,181.07A4,4 0 1 1 67.684,181.07A4,4 0 1 1 75.684,181.07Z" style="fill:#AE823D" />
<path d="M284.8,142.47A4,4 0 1 1 276.8,142.47A4,4 0 1 1 284.8,142.47Z" style="fill:#DF96AD" />
<path d="M93.346,45.245A4,4 0 1 1 85.346,45.245A4,4 0 1 1 93.346,45.245Z" style="fill:#A7D8D6" />
<path d="M219.86,110.41A4,4 0 1 1 211.86,110.41A4,4 0 1 1 219.86,110.41Z" style="fill:#DF96AD" />
<path d="M66.635,179.61A4,4 0 1 1 58.635,179.61A4,4 0 1 1 66.635,179.61Z" style="fill:#AE823D" />
<path d="M197.67,80.642A4,4 0 1 1 189.67,80.642A4,4 0 1 1 197.67,80.642Z" style="fill:#4776FA" />
<path d="M264.55,131.43A4,4 0 1 1 256.55,131.43A4,4 0 1 1 264.55,131.43Z" style="fill:#DF96AD" />
<path d="M172.41,111.69A4,4 0 1 1 164.41,111.69A4,4 0 1 1 172.41,111.69Z" style="fill:#9F66D5" />
<path d="M161.87,102.82A4,4 0 1 1 153.87,102.82A4,4 0 1 1 161.87,102.82Z" style="fill:#4776FA" />
<path d="M130.47,165.58A4,4 0 1 1 122.47,165.58A4,4 0 1 1 130.47,165.58Z" style="fill:#AE823D" />
<path d="M242.88,168.67A4,4 0 1 1 234.88,168.67A4,4 0 1 1 242.88,168.67Z" style="fill:#0041C9" />
<path d="M288.78,104.82A4,4 0 1 1 280.78,104.82A4,4 0 1 1 288.78,104.82Z" style="fill:#DF96AD" />
<path d="M249.17,151.65A4,4 0 1 1 241.17,151.65A4,4 0 1 1 249.17,151.65Z" style="fill:#0041C9" />
<path d="M64.324,113.17A4,4 0 1 1 56.324,113.17A4,4 0 1 1 64.324,113.17Z" style="fill:#70E9A9" />
<path d="M294.05,52.415A4,4 0 1 1 286.05,52.415A4,4 0 1 1 294.05,52.415Z" style="fill:#689CC6" />
<path d="M158.27,181.01A4,4 0 1 1 150.27,181.01A4,4 0 1 1 158.27,181.01Z" style="fill:#AE823D" />
<path d="M250.53,91.765A4,4 0 1 1 242.53,91.765A4,4 0 1 1 250.53,91.765Z" style="fill:#689CC6" />
<path d="M179.84,99.034A4,4 0 1 1 171.84,99.034A4,4 0 1 1 179.84,99.034Z" style="fill:#4776FA" />
<path d="M152.15,91.231A4,4 0 1 1 144.15,91.231A4,4 0 1 1 152.15,91.231Z" style="fill:#4776FA" />
<path d="M98.287,140.15A4,4 0 1 1 90.287,140.15A4,4 0 1 1 98.287,140.15Z" style="fill:#70E9A9" />
<path d="M273.51,181.92A4,4 0 1 1 265.51,181.92A4,4 0 1 1 273.51,181.92Z" style="fill:#0041C9" />
<path d="M141.18,112.61A4,4 0 1 1 133.18,112.61A4,4 0 1 1 141.18,112.61Z" style="fill:#70E9A9" />
<path d="M215.47,57.942A4,4 0 1 1 207.47,57.942A4,4 0 1 1 215.47,57.942Z" style="fill:#4776FA" />
<path d="M157.87,87.884A4,4 0 1 1 149.87,87.884A4,4 0 1 1 157.87,87.884Z" style="fill:#4776FA" />
<path d="M258.09,138.97A4,4 0 1 1 250.09,138.97A4,4 0 1 1 258.09,138.97Z" style="fill:#DF96AD" />
<path d="M273.32,133.29A4,4 0 1 1 265.32,133.29A4,4 0 1 1 273.32,133.29Z" style="fill:#DF96AD" />
<path d="M131.33,105.95A4,4 0 1 1 123.33,105.95A4,4 0 1 1 131.33,105.95Z" style="fill:#70E9A9" />
<path d="M115.08,48.882A4,4 0 1 1 107.08,48.882A4,4 0 1 1 115.08,48.882Z" style="fill:#A7D8D6" />
<path d="M239.36,116.84A4,4 0 1 1 231.36,116.84A4,4 0 1 1 239.36,116.84Z" style="fill:#DF96AD" />
<path d="M122.16,85.448A4,4 0 1 1 114.16,85.448A4,4 0 1 1 122.16,85.448Z" style="fill:#A7D8D6" />
<path d="M171.11,52.34A4,4 0 1 1 163.11,52.34A4,4 0 1 1 171.11,52.34Z" style="fill:#4776FA" />
<path d="M153.99,97.58A4,4 0 1 1 145.99,97.58A4,4 0 1 1 153.99,97.58Z" style="fill:#4776FA" />
<path d="M76.526,95.688A4,4 0 1 1 68.526,95.688A4,4 0 1 1 76.526,95.688Z" style="fill:#70E9A9" />
<path d="M143.19,68.499A4,4 0 1 1 135.19,68.499A4,4 0 1 1 143.19,68.499Z" style="fill:#4776FA" />
<path d="M68.601,65.152A4,4 0 1 1 60.601,65.152A4,4 0 1 1 68.601,65.152Z" style="fill:#A7D8D6" />
<path d="M244.91,173.28A4,4 0 1 1 236.91,173.28A4,4 0 1 1 244.91,173.28Z" style="fill:#0041C9" />
<path d="M102.57,71.006A4,4 0 1 1 94.573,71.006A4,4 0 1 1 102.57,71.006Z" style="fill:#A7D8D6" />
<path d="M59.563,121.27A4,4 0 1 1 51.563,121.27A4,4 0 1 1 59.563,121.27Z" style="fill:#70E9A9" />
<path d="M149.91,157.94A4,4 0 1 1 141.91,157.94A4,4 0 1 1 149.91,157.94Z" style="fill:#AE823D" />
</g>
</svg>
