<?xml version="1.0"?>
<!-- Generated by SVGo and Plotinum VG -->
<svg width="300pt" height="200pt" viewBox="0 0 300 200"
	xmlns="http://www.w3.org/2000/svg"
	xmlns:xlink="http://www.w3.org/1999/xlink">
<g transform="scale(1, -1) translate(0, -200)">
<path d="M0,0L300,0L300,200L0,200Z" style="fill:#FFFFFF" />
<text x="75.17" y="-190.61" transform="scale(1, -1)"
	style="font-family:Times;font-weight:normal;font-style:normal;font-size:12px">Radial Basis Function Samples</text>
<text x="167.23" y="-3.9023" transform="scale(1, -1)"
	style="font-family:Times;font-weight:normal;font-style:normal;font-size:12px">x</text>
<text x="58.036" y="-16.541" transform="scale(1, -1)"
	style="font-family:Times;font-weight:normal;font-style:normal;font-size:10px">-5</text>
<text x="168.38" y="-16.541" transform="scale(1, -1)"
	style="font-family:Times;font-weight:normal;font-style:normal;font-size:10px">0</text>
<text x="277.07" y="-16.541" transform="scale(1, -1)"
	style="font-family:Times;font-weight:normal;font-style:normal;font-size:10px">5</text>
<path d="M62.201,24.363L62.201,32.363" style="fill:none;stroke:#000000;stroke-width:0.5" />
<path d="M170.88,24.363L170.88,32.363" style="fill:none;stroke:#000000;stroke-width:0.5" />
<path d="M279.57,24.363L279.57,32.363" style="fill:none;stroke:#000000;stroke-width:0.5" />
<path d="M83.938,28.363L83.938,32.363" style="fill:none;stroke:#000000;stroke-width:0.5" />
<path d="M105.67,28.363L105.67,32.363" style="fill:none;stroke:#000000;stroke-width:0.5" />
<path d="M127.41,28.363L127.41,32.363" style="fill:none;stroke:#000000;stroke-width:0.5" />
<path d="M149.15,28.363L149.15,32.363" style="fill:none;stroke:#000000;stroke-width:0.5" />
<path d="M192.62,28.363L192.62,32.363" style="fill:none;stroke:#000000;stroke-width:0.5" />
<path d="M214.36,28.363L214.36,32.363" style="fill:none;stroke:#000000;stroke-width:0.5" />
<path d="M236.09,28.363L236.09,32.363" style="fill:none;stroke:#000000;stroke-width:0.5" />
<path d="M257.83,28.363L257.83,32.363" style="fill:none;stroke:#000000;stroke-width:0.5" />
<path d="M40.465,32.363L300,32.363" style="fill:none;stroke:#000000;stroke-width:0.5" />
<g transform="rotate(90)">
<text x="110.46" y="9.3867" transform="scale(1, -1)"
	style="font-family:Times;font-weight:normal;font-style:normal;font-size:12px">y</text>
</g>
<text x="15.885" y="-73.902" transform="scale(1, -1)"
	style="font-family:Times;font-weight:normal;font-style:normal;font-size:10px">-2</text>
<text x="19.215" y="-124.41" transform="scale(1, -1)"
	style="font-family:Times;font-weight:normal;font-style:normal;font-size:10px">0</text>
<text x="19.215" y="-174.92" transform="scale(1, -1)"
	style="font-family:Times;font-weight:normal;font-style:normal;font-size:10px">2</text>
<path d="M26.715,76.187L34.715,76.187" style="fill:none;stroke:#000000;stroke-width:0.5" />
<path d="M26.715,126.69L34.715,126.69" style="fill:none;stroke:#000000;stroke-width:0.5" />
<path d="M26.715,177.2L34.715,177.2" style="fill:none;stroke:#000000;stroke-width:0.5" />
<path d="M30.715,50.933L34.715,50.933" style="fill:none;stroke:#000000;stroke-width:0.5" />
<path d="M30.715,101.44L34.715,101.44" style="fill:none;stroke:#000000;stroke-width:0.5" />
<path d="M30.715,151.95L34.715,151.95" style="fill:none;stroke:#000000;stroke-width:0.5" />
<path d="M34.715,40.209L34.715,186.71" style="fill:none;stroke:#000000;stroke-width:0.5" />
<path d="M40.465,108.12L41.769,106.74L43.073,105.3L44.377,103.53L45.682,102.27L46.986,101.15L48.29,99.403L49.594,98.071L50.898,97.041L52.203,95.442L53.507,94.439L54.811,93.555L56.115,92.299L57.419,91.535L58.724,90.927L60.028,89.863L61.332,89.695L62.636,88.603L63.94,88.299L65.245,88.35L66.549,88.16L67.853,88.396L69.157,87.977L70.461,88.389L71.766,89.063L73.07,88.679L74.374,89.574L75.678,90.295L76.982,90.787L78.287,91.261L79.591,91.931L80.895,92.615L82.199,92.863L83.503,93.115L84.808,93.231L86.112,93.568L87.416,94.029L88.72,94.146L90.024,94.064L91.329,94.361L92.633,94.02L93.937,94.137L95.241,94.323L96.545,94.386L97.85,93.6L99.154,94.074L100.46,94.399L101.76,94.624L103.07,95.284L104.37,94.991L105.67,96.147L106.98,96.046L108.28,97.304L109.59,98.092L110.89,99.402L112.2,100.23L113.5,101.9L114.8,103.12L116.11,104.45L117.41,106.04L118.72,107.83L120.02,109.5L121.33,111.34L122.63,113.34L123.93,115.82L125.24,117.68L126.54,119.74L127.85,121.97L129.15,124.22L130.45,125.91L131.76,128.54L133.06,130.79L134.37,132.1L135.67,134.82L136.98,137.14L138.28,138.9L139.58,140.6L140.89,141.86L142.19,143.3L143.5,144.81L144.8,146.4L146.1,146.99L147.41,147.53L148.71,148.12L150.02,148.77L151.32,148.71L152.63,149.12L153.93,148.33L155.23,148.61L156.54,147.54L157.84,146.77L159.15,145.69L160.45,144.62L161.76,143.83L163.06,142.55L164.36,141.55L165.67,140.06L166.97,138.63L168.28,137.33L169.58,136.32L170.88,134.92L172.19,133.38L173.49,132.7L174.8,131.32L176.1,130.05L177.41,128.76L178.71,128.06L180.01,126.9L181.32,125.43L182.62,124.67L183.93,124.1L185.23,122.89L186.53,121.98L187.84,121.01L189.14,120.43L190.45,119.26L191.75,118.64L193.06,116.99L194.36,115.48L195.66,114.81L196.97,113.51L198.27,111.93L199.58,110.19L200.88,107.7L202.19,107.15L203.49,104.9L204.79,103.24L206.1,100.55L207.4,98.649L208.71,96.008L210.01,93.951L211.31,92.02L212.62,88.997L213.92,87.099L215.23,85.086L216.53,82.048L217.84,79.491L219.14,77.396L220.44,75.362L221.75,72.997L223.05,71.139L224.36,70.055L225.66,68.151L226.96,67.293L228.27,66.614L229.57,65.912L230.88,66.008L232.18,65.871L233.49,66.847L234.79,67.956L236.09,69.735L237.4,71.014L238.7,72.608L240.01,75.743L241.31,78.116L242.62,80.818L243.92,84.514L245.22,88.579L246.53,92.342L247.83,96.41L249.14,100.08L250.44,105.04L251.74,109.22L253.05,114.02L254.35,118.56L255.66,122.95L256.96,126.79L258.27,131.07L259.57,134.97L260.87,138.87L262.18,142.86L263.48,146.05L264.79,148.77L266.09,151.26L267.4,153.39L268.7,156.05L270,157.09L271.31,158.19L272.61,159.24L273.92,159.54L275.22,160.5L276.52,160.18L277.83,160.31L279.13,160.28L280.44,159.1L281.74,158.07L283.05,156.83L284.35,156.01L285.65,154.6L286.96,152.73L288.26,150.73L289.57,149.46L290.87,147.8L292.17,145.82L293.48,143.99L294.78,141.81L296.09,140.53L297.39,139.21L298.7,136.63L300,135.21" style="fill:none;stroke:#EF70F1;stroke-width:1.2" />
<path d="M40.465,165.22L41.769,164.89L43.073,164.11L44.377,163.27L45.682,162.38L46.986,161.58L48.29,160.35L49.594,160.01L50.898,159.48L52.203,158.73L53.507,157.59L54.811,157.07L56.115,155.76L57.419,155.3L58.724,154.37L60.028,153.82L61.332,153.23L62.636,152.22L63.94,151.48L65.245,150.72L66.549,150.62L67.853,148.99L69.157,148.27L70.461,147.2L71.766,145.59L73.07,144.49L74.374,142.98L75.678,141.59L76.982,139.88L78.287,137.84L79.591,135.26L80.895,133.11L82.199,130.58L83.503,128.13L84.808,125.01L86.112,122.89L87.416,119.95L88.72,117.16L90.024,114.23L91.329,110.49L92.633,108.27L93.937,105.19L95.241,103.07L96.545,100.77L97.85,98.798L99.154,97.321L100.46,95.395L101.76,93.977L103.07,92.696L104.37,92.105L105.67,92.031L106.98,92.541L108.28,92.862L109.59,93.537L110.89,94.612L112.2,96.301L113.5,98.61L114.8,99.805L116.11,102.78L117.41,105.15L118.72,108.31L120.02,111.59L121.33,114.98L122.63,117.44L123.93,120.87L125.24,123.71L126.54,127.91L127.85,130.4L129.15,134.27L130.45,137.33L131.76,140.87L133.06,143.83L134.37,146.18L135.67,149.29L136.98,152.6L138.28,153.98L139.58,156.16L140.89,158.91L142.19,160.34L143.5,162.1L144.8,163.37L146.1,164.83L147.41,165.93L148.71,166.87L150.02,167.54L151.32,167.42L152.63,168.79L153.93,168.79L155.23,168.04L156.54,168.16L157.84,167.7L159.15,166.62L160.45,166.07L161.76,164.81L163.06,163.72L164.36,162.66L165.67,160.56L166.97,159.78L168.28,157.8L169.58,155.9L170.88,154.02L172.19,152.23L173.49,150.27L174.8,148.4L176.1,146.1L177.41,143.81L178.71,142.01L180.01,139.7L181.32,137.48L182.62,135.31L183.93,133.52L185.23,131.4L186.53,128.82L187.84,126.94L189.14,125.13L190.45,123.23L191.75,121.66L193.06,119.84L194.36,118.2L195.66,117.07L196.97,115.15L198.27,114.04L199.58,113.5L200.88,112.61L202.19,111.73L203.49,111.24L204.79,111.23L206.1,111.51L207.4,111.19L208.71,112.15L210.01,112.67L211.31,113.84L212.62,115.32L213.92,116.49L215.23,118.5L216.53,120.14L217.84,122.25L219.14,124.7L220.44,126.37L221.75,128.21L223.05,130.88L224.36,133.32L225.66,136.21L226.96,137.66L228.27,140L229.57,141.9L230.88,143.81L232.18,145.64L233.49,148.11L234.79,149.52L236.09,149.97L237.4,151.01L238.7,152.32L240.01,153.28L241.31,154.37L242.62,154.48L243.92,155.37L245.22,155.91L246.53,156.5L247.83,156.86L249.14,157.76L250.44,158.21L251.74,158.91L253.05,158.97L254.35,160.27L255.66,159.63L256.96,160.49L258.27,160.57L259.57,160.92L260.87,160.81L262.18,160.95L263.48,160.57L264.79,160.11L266.09,159.64L267.4,159.72L268.7,157.97L270,157.33L271.31,156L272.61,154.19L273.92,152.27L275.22,150.2L276.52,148.14L277.83,146.13L279.13,142.8L280.44,140.17L281.74,136.95L283.05,134.6L284.35,131.27L285.65,127.64L286.96,124.65L288.26,121.3L289.57,117.91L290.87,114.75L292.17,111.76L293.48,108.72L294.78,105.89L296.09,103.42L297.39,100.87L298.7,97.984L300,96.028" style="fill:none;stroke:#93FA5E;stroke-width:1.2" />
<path d="M40.465,123.74L41.769,122.61L43.073,121.34L44.377,119.78L45.682,118.87L46.986,117.32L48.29,115.86L49.594,114.37L50.898,113.49L52.203,111.97L53.507,111.25L54.811,110.54L56.115,109.59L57.419,109.27L58.724,109.25L60.028,109.54L61.332,109.85L62.636,111.19L63.94,111.74L65.245,113.61L66.549,115.1L67.853,116.86L69.157,118.53L70.461,120.98L71.766,123.58L73.07,125.79L74.374,128.59L75.678,130.96L76.982,133.93L78.287,135.88L79.591,138.4L80.895,140.56L82.199,142.71L83.503,144.26L84.808,145.73L86.112,146.86L87.416,149.05L88.72,149.55L90.024,150.24L91.329,150.58L92.633,151.46L93.937,152.11L95.241,151.18L96.545,151.24L97.85,151.05L99.154,151.03L100.46,151.02L101.76,150.91L103.07,150.64L104.37,150.43L105.67,150.23L106.98,149.84L108.28,150.73L109.59,150.29L110.89,150.88L112.2,151.33L113.5,152.47L114.8,152.67L116.11,153.44L117.41,154.61L118.72,154.99L120.02,156.22L121.33,157.04L122.63,157.99L123.93,159.14L125.24,160.48L126.54,161.37L127.85,162.3L129.15,163.45L130.45,164.47L131.76,165.32L133.06,166.05L134.37,166.8L135.67,167.63L136.98,168.12L138.28,168.92L139.58,169.42L140.89,169.25L142.19,169.64L143.5,169.22L144.8,169.65L146.1,169.73L147.41,169.06L148.71,168.77L150.02,168.11L151.32,167.66L152.63,166.33L153.93,165.98L155.23,164.89L156.54,163.84L157.84,162.59L159.15,161.58L160.45,160.04L161.76,158.65L163.06,157.61L164.36,156.31L165.67,154.72L166.97,153.91L168.28,152.71L169.58,150.88L170.88,149.75L172.19,148.33L173.49,147.35L174.8,145.69L176.1,144.85L177.41,143.23L178.71,141.82L180.01,139.79L181.32,138.3L182.62,136.9L183.93,134.88L185.23,132.36L186.53,130.44L187.84,128.78L189.14,126.23L190.45,124.15L191.75,121.53L193.06,119.54L194.36,116.55L195.66,114.49L196.97,111.95L198.27,109.9L199.58,108.18L200.88,105.68L202.19,103.92L203.49,101.69L204.79,100.16L206.1,99.275L207.4,97.488L208.71,96.99L210.01,95.933L211.31,95.668L212.62,95.637L213.92,95.103L215.23,95.787L216.53,95.382L217.84,96.436L219.14,97.545L220.44,98.753L221.75,99.761L223.05,101.1L224.36,102.73L225.66,105.27L226.96,106.94L228.27,108.97L229.57,110.83L230.88,112.82L232.18,114.59L233.49,117.07L234.79,118.34L236.09,120.53L237.4,122.73L238.7,124.65L240.01,126L241.31,127.31L242.62,128.54L243.92,129.25L245.22,130.1L246.53,130.58L247.83,131.16L249.14,131.35L250.44,131.02L251.74,130.78L253.05,129.65L254.35,128.39L255.66,127.65L256.96,126L258.27,124.36L259.57,122.7L260.87,120.19L262.18,118.55L263.48,116.36L264.79,113.69L266.09,111.58L267.4,109.51L268.7,107.13L270,104.99L271.31,103.36L272.61,101.41L273.92,100.36L275.22,99.406L276.52,98.37L277.83,98.607L279.13,98.165L280.44,98.422L281.74,98.882L283.05,100.16L284.35,101.61L285.65,102.76L286.96,104.97L288.26,107.61L289.57,109.82L290.87,112.14L292.17,115.61L293.48,118.38L294.78,121.95L296.09,124.84L297.39,128.26L298.7,131.45L300,134.43" style="fill:none;stroke:#1AA06F;stroke-width:1.2" />
<path d="M40.465,106.29L41.769,106.8L43.073,107.12L44.377,106.95L45.682,107.45L46.986,107.33L48.29,106.94L49.594,106.51L50.898,106.63L52.203,106.49L53.507,105.92L54.811,105.2L56.115,105.58L57.419,105.65L58.724,105.24L60.028,105.44L61.332,105.71L62.636,106.18L63.94,106.59L65.245,107.51L66.549,108.48L67.853,109.91L69.157,110.82L70.461,112.32L71.766,114.27L73.07,116.77L74.374,118.13L75.678,120.32L76.982,122.34L78.287,124.98L79.591,126.98L80.895,129.23L82.199,131.29L83.503,133.22L84.808,135.05L86.112,136.43L87.416,138.46L88.72,140.43L90.024,142.09L91.329,142.81L92.633,143.94L93.937,144.85L95.241,146.25L96.545,147.05L97.85,148.02L99.154,148.47L100.46,149.5L101.76,149.97L103.07,150.46L104.37,151.31L105.67,151.47L106.98,151.57L108.28,152.03L109.59,152.23L110.89,152.65L112.2,152.64L113.5,152.58L114.8,152.6L116.11,152.48L117.41,151.91L118.72,151.5L120.02,150.47L121.33,150.72L122.63,149.99L123.93,149.61L125.24,149.24L126.54,149.31L127.85,149.21L129.15,148.85L130.45,148.82L131.76,149.18L133.06,149.15L134.37,149.7L135.67,150.35L136.98,151.47L138.28,151.94L139.58,153.15L140.89,154.54L142.19,155.91L143.5,156.94L144.8,158.19L146.1,159.18L147.41,159.9L148.71,161.38L150.02,161.9L151.32,162.05L152.63,162.66L153.93,162.8L155.23,162.63L156.54,161.49L157.84,160.99L159.15,159.41L160.45,158.69L161.76,157.14L163.06,155.32L164.36,153.97L165.67,151.72L166.97,149.94L168.28,148.12L169.58,146.52L170.88,144.29L172.19,142.89L173.49,141.63L174.8,140.22L176.1,139.65L177.41,139.83L178.71,139.31L180.01,139.25L181.32,140.52L182.62,140.87L183.93,142.6L185.23,144.15L186.53,146.15L187.84,148.6L189.14,150.66L190.45,153.26L191.75,155.72L193.06,158.11L194.36,161.49L195.66,164.6L196.97,167.05L198.27,168.6L199.58,171.18L200.88,173.19L202.19,175.18L203.49,176.65L204.79,177.95L206.1,179.05L207.4,180.07L208.71,179.58L210.01,180.28L211.31,179.44L212.62,178.85L213.92,177.78L215.23,176.77L216.53,174.31L217.84,172.14L219.14,170.01L220.44,167.84L221.75,164.54L223.05,161.91L224.36,158.85L225.66,155.34L226.96,152.21L228.27,148.8L229.57,145.54L230.88,141.16L232.18,137.95L233.49,134.68L234.79,131.25L236.09,128.22L237.4,124.57L238.7,121.7L240.01,118.66L241.31,115.62L242.62,112.98L243.92,110.11L245.22,107.5L246.53,105.99L247.83,103.98L249.14,102.18L250.44,101.66L251.74,100.89L253.05,99.911L254.35,99.839L255.66,100.27L256.96,100.69L258.27,101.51L259.57,103.07L260.87,103.81L262.18,106.21L263.48,107.6L264.79,109.49L266.09,112.21L267.4,114.8L268.7,117.06L270,119.34L271.31,121.77L272.61,124.43L273.92,126.31L275.22,128.15L276.52,130.05L277.83,132.2L279.13,133.56L280.44,134.83L281.74,135.76L283.05,136.57L284.35,137.25L285.65,137.13L286.96,137.72L288.26,137.52L289.57,137.41L290.87,136.93L292.17,136.4L293.48,134.99L294.78,133.8L296.09,132.96L297.39,131.54L298.7,129.8L300,129.16" style="fill:none;stroke:#DA29E2;stroke-width:1.2" />
<path d="M40.465,130.98L41.769,129.34L43.073,127.76L44.377,126.14L45.682,124.59L46.986,123.25L48.29,121.42L49.594,119.62L50.898,117.48L52.203,115.7L53.507,113.87L54.811,111.92L56.115,109.95L57.419,107.52L58.724,105.5L60.028,104.11L61.332,102.53L62.636,100.87L63.94,98.973L65.245,97.982L66.549,96.33L67.853,95.385L69.157,95.014L70.461,94.012L71.766,93.267L73.07,93.024L74.374,93.345L75.678,92.968L76.982,94.275L78.287,94.54L79.591,95.457L80.895,95.726L82.199,97.503L83.503,98.528L84.808,99.986L86.112,101.58L87.416,103.1L88.72,104.86L90.024,106.98L91.329,108.73L92.633,110.18L93.937,111.05L95.241,113.1L96.545,113.73L97.85,115.42L99.154,116.38L100.46,117.38L101.76,117.38L103.07,117.71L104.37,118.01L105.67,117.71L106.98,117.02L108.28,116.58L109.59,115.74L110.89,114.6L112.2,113.79L113.5,112.51L114.8,110.98L116.11,109.87L117.41,108.8L118.72,106.68L120.02,105.43L121.33,104.63L122.63,103.95L123.93,103.54L125.24,102.63L126.54,102.87L127.85,103.12L129.15,103.4L130.45,103.08L131.76,104.26L133.06,105.36L134.37,106.4L135.67,107.49L136.98,108.92L138.28,110.17L139.58,111.78L140.89,112.88L142.19,114.09L143.5,116.06L144.8,117.35L146.1,118.18L147.41,119.73L148.71,121.07L150.02,121.68L151.32,123.15L152.63,123.24L153.93,124.35L155.23,124.8L156.54,125.36L157.84,125.99L159.15,126.85L160.45,127.23L161.76,127.47L163.06,128.14L164.36,128.32L165.67,128.6L166.97,128.15L168.28,128.98L169.58,128.54L170.88,128.39L172.19,127.79L173.49,126.83L174.8,126.41L176.1,125.52L177.41,124.44L178.71,122.99L180.01,121L181.32,119.16L182.62,118.04L183.93,116.03L185.23,114.05L186.53,111.39L187.84,109.25L189.14,107.87L190.45,105.14L191.75,104.1L193.06,101.28L194.36,99.845L195.66,98.779L196.97,97.615L198.27,96.713L199.58,96.13L200.88,96.477L202.19,95.808L203.49,96.283L204.79,97.503L206.1,98.811L207.4,99.806L208.71,101.79L210.01,104.07L211.31,105.95L212.62,108.45L213.92,110.9L215.23,113.36L216.53,116.15L217.84,118.1L219.14,120.18L220.44,122.59L221.75,125.27L223.05,126.75L224.36,128.02L225.66,130L226.96,130.73L228.27,131.1L229.57,131.54L230.88,132.05L232.18,131.74L233.49,132.2L234.79,131.78L236.09,131.64L237.4,130.89L238.7,130.44L240.01,129.99L241.31,129.95L242.62,129.61L243.92,129.03L245.22,129.56L246.53,129.34L247.83,129.33L249.14,128.9L250.44,129.8L251.74,130.1L253.05,130.51L254.35,131.24L255.66,131.33L256.96,131.17L258.27,131.46L259.57,131.75L260.87,131.72L262.18,131.5L263.48,130.66L264.79,129.96L266.09,129.02L267.4,127.96L268.7,126.19L270,124.22L271.31,122.06L272.61,119.76L273.92,118.27L275.22,115.43L276.52,112.66L277.83,109.89L279.13,106.9L280.44,104.03L281.74,101.56L283.05,98.515L284.35,96.781L285.65,93.816L286.96,92.157L288.26,89.773L289.57,89.023L290.87,87.241L292.17,86.374L293.48,85.546L294.78,85.349L296.09,85.66L297.39,86.001L298.7,86.222L300,86.984" style="fill:none;stroke:#AAA342;stroke-width:1.2" />
<path d="M40.465,153.05L41.769,154.85L43.073,155.64L44.377,157.24L45.682,158.14L46.986,159.21L48.29,159.89L49.594,160.32L50.898,160.57L52.203,160.78L53.507,160.09L54.811,159.53L56.115,158.08L57.419,156.74L58.724,154.67L60.028,152.85L61.332,150.11L62.636,147.6L63.94,144.66L65.245,141.31L66.549,137.84L67.853,133.67L69.157,130.16L70.461,125.77L71.766,122.39L73.07,118.74L74.374,115.02L75.678,112.39L76.982,108.95L78.287,105.95L79.591,103.23L80.895,101.38L82.199,99.813L83.503,98.489L84.808,97.009L86.112,95.686L87.416,95.324L88.72,95.07L90.024,94.84L91.329,95.002L92.633,95.238L93.937,95.445L95.241,96.244L96.545,96.266L97.85,96.298L99.154,96.858L100.46,97.076L101.76,98.102L103.07,97.793L104.37,98.26L105.67,98.311L106.98,98.179L108.28,97.964L109.59,98.042L110.89,97.721L112.2,97.519L113.5,97.522L114.8,97.206L116.11,97.21L117.41,97.045L118.72,96.647L120.02,96.543L121.33,95.979L122.63,95.205L123.93,95.073L125.24,94.68L126.54,93.647L127.85,93.406L129.15,92.387L130.45,91.306L131.76,90.648L133.06,88.781L134.37,88.099L135.67,86.598L136.98,84.948L138.28,83.56L139.58,81.963L140.89,79.902L142.19,78.19L143.5,76.522L144.8,74.444L146.1,73.21L147.41,71.662L148.71,71.145L150.02,69.74L151.32,68.483L152.63,68.418L153.93,67.714L155.23,68.345L156.54,68.326L157.84,69.155L159.15,70.047L160.45,71.716L161.76,73.333L163.06,75.257L164.36,77.309L165.67,79.324L166.97,82.379L168.28,85.103L169.58,87.599L170.88,90.804L172.19,93.559L173.49,96.919L174.8,100.64L176.1,103.5L177.41,106.62L178.71,109.78L180.01,113.04L181.32,116.4L182.62,120.29L183.93,123.78L185.23,126.96L186.53,130.08L187.84,133.25L189.14,136.65L190.45,140.34L191.75,144.08L193.06,147.48L194.36,150.77L195.66,153.77L196.97,156.76L198.27,159.97L199.58,162.54L200.88,165.82L202.19,168.04L203.49,169.8L204.79,171.42L206.1,173.44L207.4,173.9L208.71,174.9L210.01,174.27L211.31,174.13L212.62,173.17L213.92,171.95L215.23,170.55L216.53,168.49L217.84,166.09L219.14,162.92L220.44,160.06L221.75,156.38L223.05,152.38L224.36,148.16L225.66,144.33L226.96,139.48L228.27,134.45L229.57,130.2L230.88,125.8L232.18,121.01L233.49,115.98L234.79,112.17L236.09,107.4L237.4,102.95L238.7,99.43L240.01,95.991L241.31,93.128L242.62,89.895L243.92,87.175L245.22,84.902L246.53,83.345L247.83,81.968L249.14,81.083L250.44,80.511L251.74,80.081L253.05,80.758L254.35,81.626L255.66,82.416L256.96,84.064L258.27,85.369L259.57,88.139L260.87,90.328L262.18,92.963L263.48,96.107L264.79,99.535L266.09,102.59L267.4,106.36L268.7,110.03L270,113.84L271.31,117.75L272.61,121.25L273.92,125.09L275.22,129.17L276.52,131.93L277.83,135.37L279.13,138.32L280.44,141.15L281.74,144.17L283.05,146.4L284.35,148.76L285.65,150.98L286.96,152.06L288.26,152.81L289.57,154.26L290.87,154.78L292.17,154.79L293.48,154.63L294.78,154.38L296.09,153.49L297.39,152.04L298.7,151.36L300,149.93" style="fill:none;stroke:#B4B68A;stroke-width:1.2" />
<path d="M40.465,123.2L41.769,122.47L43.073,120.36L44.377,119.11L45.682,117.64L46.986,116.21L48.29,114.87L49.594,113.71L50.898,113.08L52.203,111.9L53.507,111.36L54.811,110.94L56.115,110.83L57.419,110.57L58.724,110.13L60.028,110.45L61.332,111.58L62.636,111.74L63.94,112.12L65.245,112.36L66.549,112.69L67.853,113.95L69.157,114.66L70.461,114.71L71.766,114.89L73.07,114.8L74.374,114.65L75.678,114.39L76.982,115.2L78.287,115.23L79.591,114.37L80.895,114.14L82.199,113.53L83.503,113.09L84.808,112.78L86.112,112.19L87.416,111.94L88.72,111.78L90.024,111.3L91.329,111.09L92.633,111.16L93.937,111.42L95.241,111.72L96.545,111.35L97.85,111.66L99.154,112.14L100.46,112.97L101.76,112.73L103.07,113.81L104.37,114.14L105.67,114.28L106.98,114.68L108.28,115.12L109.59,115.35L110.89,115.81L112.2,115.63L113.5,115.62L114.8,115.38L116.11,115.62L117.41,115.1L118.72,114.7L120.02,114.57L121.33,113.68L122.63,113.37L123.93,111.89L125.24,111.39L126.54,110.25L127.85,108.63L129.15,108.01L130.45,107.08L131.76,106.25L133.06,104.84L134.37,104.53L135.67,103.17L136.98,103.17L138.28,102.21L139.58,101.55L140.89,101.74L142.19,101.66L143.5,101.65L144.8,102.19L146.1,103.12L147.41,103.57L148.71,103.55L150.02,105.06L151.32,105.7L152.63,106.62L153.93,107.34L155.23,108.2L156.54,109.14L157.84,109.41L159.15,110.82L160.45,110.58L161.76,111.03L163.06,111.32L164.36,111.56L165.67,110.88L166.97,110.87L168.28,110.38L169.58,109.99L170.88,108.9L172.19,109.03L173.49,108.33L174.8,108.18L176.1,107.53L177.41,107.26L178.71,106.89L180.01,106.94L181.32,107.09L182.62,107.84L183.93,107.48L185.23,108.57L186.53,110.24L187.84,110.65L189.14,112L190.45,113.24L191.75,115.01L193.06,115.64L194.36,118.2L195.66,119.23L196.97,120.68L198.27,122.43L199.58,123.26L200.88,125.18L202.19,126.2L203.49,127.17L204.79,127.76L206.1,128.39L207.4,128.95L208.71,128.98L210.01,128.82L211.31,128.99L212.62,128.19L213.92,126.95L215.23,125.78L216.53,125.04L217.84,123.54L219.14,122.16L220.44,120.47L221.75,118.93L223.05,116.8L224.36,115.18L225.66,112.86L226.96,110.75L228.27,108.73L229.57,107.03L230.88,104.83L232.18,103.44L233.49,101.48L234.79,100.25L236.09,98.166L237.4,97L238.7,96.1L240.01,95.267L241.31,94.174L242.62,94.21L243.92,93.417L245.22,94.025L246.53,94.205L247.83,94.736L249.14,96.044L250.44,96.857L251.74,97.447L253.05,99.473L254.35,100.7L255.66,102.83L256.96,104.78L258.27,106.75L259.57,109.5L260.87,111.79L262.18,113.73L263.48,117.05L264.79,119.26L266.09,121.06L267.4,123.93L268.7,126.33L270,129.24L271.31,132.01L272.61,134.53L273.92,136.98L275.22,139.18L276.52,140.9L277.83,143.21L279.13,144.91L280.44,146.89L281.74,148.43L283.05,149.79L284.35,150.23L285.65,151.61L286.96,152.14L288.26,152.28L289.57,152.18L290.87,152.39L292.17,151.49L293.48,150.72L294.78,149.29L296.09,148.49L297.39,146.9L298.7,144.45L300,142.72" style="fill:none;stroke:#AEBA9D;stroke-width:1.2" />
<path d="M40.465,133.54L41.769,133.28L43.073,133.19L44.377,133.29L45.682,133.49L46.986,132.82L48.29,133.5L49.594,133.81L50.898,133.94L52.203,134.03L53.507,134.18L54.811,134.11L56.115,134.15L57.419,133.6L58.724,132.97L60.028,132.31L61.332,131.53L62.636,131.02L63.94,129.41L65.245,128.28L66.549,126.76L67.853,124.79L69.157,122.93L70.461,120.16L71.766,118.15L73.07,115.07L74.374,112.29L75.678,109.3L76.982,105.97L78.287,102.32L79.591,98.675L80.895,95.061L82.199,91.105L83.503,87.541L84.808,83.154L86.112,78.986L87.416,74.769L88.72,70.905L90.024,67.38L91.329,63.352L92.633,59.493L93.937,56.443L95.241,53.443L96.545,50.414L97.85,47.984L99.154,45.731L100.46,43.998L101.76,42.931L103.07,41.89L104.37,40.521L105.67,40.209L106.98,40.601L108.28,40.991L109.59,41.304L110.89,42.663L112.2,43.738L113.5,45.638L114.8,47.035L116.11,48.512L117.41,50.798L118.72,53.14L120.02,56.136L121.33,58.22L122.63,60.988L123.93,63.899L125.24,66.632L126.54,69.995L127.85,73.108L129.15,76.491L130.45,80.085L131.76,83.473L133.06,87.291L134.37,91.065L135.67,94.83L136.98,99.022L138.28,102.93L139.58,107.2L140.89,110.96L142.19,114.75L143.5,118.81L144.8,122.94L146.1,126.8L147.41,130.48L148.71,134.47L150.02,137.26L151.32,139.72L152.63,142.04L153.93,144.04L155.23,145.67L156.54,146.36L157.84,147.49L159.15,147.63L160.45,147.4L161.76,145.85L163.06,144.95L164.36,142.86L165.67,140.63L166.97,137.06L168.28,133.81L169.58,130.47L170.88,126.39L172.19,121.81L173.49,117.87L174.8,113.5L176.1,109.1L177.41,104.85L178.71,100.52L180.01,97.274L181.32,93.08L182.62,90.117L183.93,86.495L185.23,84.264L186.53,82.521L187.84,80.483L189.14,79.006L190.45,78.124L191.75,77.875L193.06,77.312L194.36,77.531L195.66,78.37L196.97,79.192L198.27,80.05L199.58,81.456L200.88,83.551L202.19,85.197L203.49,86.603L204.79,88.956L206.1,89.933L207.4,92.724L208.71,94.695L210.01,96.718L211.31,98.886L212.62,101.13L213.92,102.65L215.23,104.31L216.53,106.63L217.84,108.84L219.14,110.94L220.44,113.08L221.75,114.86L223.05,116.95L224.36,118.76L225.66,120.34L226.96,122.67L228.27,124.12L229.57,126.84L230.88,128.92L232.18,130.74L233.49,132.69L234.79,134.33L236.09,136.5L237.4,137.49L238.7,138.98L240.01,140.36L241.31,141.96L242.62,142.91L243.92,143.81L245.22,144.92L246.53,144.8L247.83,145.2L249.14,145.11L250.44,145.27L251.74,144.91L253.05,144.25L254.35,143.26L255.66,142.35L256.96,140.87L258.27,138.79L259.57,137.56L260.87,136.29L262.18,133.63L263.48,131.7L264.79,129.55L266.09,127.59L267.4,124.93L268.7,123.34L270,121.16L271.31,118.43L272.61,117.05L273.92,115.68L275.22,114.9L276.52,113.59L277.83,113.65L279.13,113.12L280.44,113.27L281.74,113.17L283.05,114.67L284.35,116.29L285.65,118.4L286.96,119.87L288.26,122.37L289.57,125.48L290.87,128.22L292.17,131.84L293.48,134.96L294.78,137.99L296.09,141.11L297.39,144.93L298.7,148.38L300,151.28" style="fill:none;stroke:#44EE71;stroke-width:1.2" />
<path d="M40.465,112.65L41.769,113.44L43.073,113.8L44.377,114.5L45.682,114.5L46.986,115.15L48.29,115.51L49.594,116.2L50.898,116.54L52.203,117.77L53.507,118.69L54.811,119.84L56.115,121.05L57.419,121.26L58.724,123.51L60.028,124.32L61.332,125.43L62.636,126.56L63.94,127.62L65.245,128.49L66.549,128.97L67.853,128.87L69.157,129.66L70.461,129.51L71.766,129.43L73.07,128.7L74.374,128.61L75.678,127.71L76.982,126.86L78.287,125.65L79.591,123.9L80.895,122.78L82.199,120.6L83.503,119.49L84.808,117.4L86.112,115.69L87.416,114.07L88.72,112.19L90.024,110.57L91.329,109.04L92.633,107.54L93.937,106.7L95.241,105.53L96.545,104.51L97.85,104.2L99.154,104.15L100.46,104.19L101.76,104.66L103.07,105.18L104.37,106.13L105.67,106.49L106.98,107.61L108.28,109.03L109.59,110.32L110.89,111.7L112.2,113.74L113.5,115.36L114.8,117L116.11,119.25L117.41,120.78L118.72,123.02L120.02,124.37L121.33,125.95L122.63,127.66L123.93,129.26L125.24,130.81L126.54,132.29L127.85,133.79L129.15,133.77L130.45,134.63L131.76,135.45L133.06,135.76L134.37,135.64L135.67,135.37L136.98,135.31L138.28,134.46L139.58,134.62L140.89,133.75L142.19,132.26L143.5,131.55L144.8,129.92L146.1,129.52L147.41,128.07L148.71,127.17L150.02,125.91L151.32,124.92L152.63,123.75L153.93,123.23L155.23,121.42L156.54,120.92L157.84,119.99L159.15,119.64L160.45,119.17L161.76,118.69L163.06,118.31L164.36,117.23L165.67,117.87L166.97,117.44L168.28,117.12L169.58,117.39L170.88,116.91L172.19,117.1L173.49,117.4L174.8,117.44L176.1,117.87L177.41,117.58L178.71,118.37L180.01,118.7L181.32,118.29L182.62,118.35L183.93,119.03L185.23,118.76L186.53,119.12L187.84,119.15L189.14,118.49L190.45,118.43L191.75,117.96L193.06,117.89L194.36,117.31L195.66,116.68L196.97,115.41L198.27,114.91L199.58,114.2L200.88,113.51L202.19,113.2L203.49,112.03L204.79,111.66L206.1,110.17L207.4,110.03L208.71,109.87L210.01,109.14L211.31,109.15L212.62,108.4L213.92,108.72L215.23,108.12L216.53,108.26L217.84,108.69L219.14,108.2L220.44,108.98L221.75,109.01L223.05,109.65L224.36,109.73L225.66,110.48L226.96,110.68L228.27,110.57L229.57,111.14L230.88,112.23L232.18,112.29L233.49,112.72L234.79,113.02L236.09,113.04L237.4,113.35L238.7,113.97L240.01,113.88L241.31,114.12L242.62,114.4L243.92,114.02L245.22,113.88L246.53,113.97L247.83,114.67L249.14,114.07L250.44,114.27L251.74,114L253.05,114.37L254.35,114.3L255.66,114.94L256.96,114.83L258.27,115.74L259.57,116.52L260.87,117.21L262.18,118.07L263.48,118.68L264.79,120.16L266.09,121.57L267.4,122.4L268.7,123.7L270,125.46L271.31,127.17L272.61,128.37L273.92,129.72L275.22,131.68L276.52,132.98L277.83,134.71L279.13,136.19L280.44,137.74L281.74,139.03L283.05,140.61L284.35,142.07L285.65,143.62L286.96,144.59L288.26,146.3L289.57,147.11L290.87,147.85L292.17,148.97L293.48,149.06L294.78,149.53L296.09,149.81L297.39,149.87L298.7,149.18L300,149.62" style="fill:none;stroke:#C9A5AF;stroke-width:1.2" />
<path d="M40.465,152.54L41.769,151.48L43.073,150.1L44.377,148.64L45.682,146.97L46.986,145.62L48.29,144.51L49.594,142.6L50.898,141.76L52.203,140.22L53.507,138.59L54.811,137.26L56.115,136.2L57.419,134.23L58.724,132.96L60.028,131.71L61.332,130.05L62.636,128.39L63.94,126.92L65.245,125.83L66.549,124.14L67.853,123.54L69.157,121.74L70.461,121.08L71.766,119.46L73.07,118.63L74.374,118.08L75.678,117.62L76.982,116.74L78.287,116.28L79.591,115.97L80.895,115.69L82.199,115.85L83.503,115.53L84.808,115.32L86.112,114.98L87.416,114.81L88.72,114.7L90.024,114.23L91.329,113.85L92.633,113.59L93.937,113.26L95.241,112.88L96.545,111.93L97.85,111.34L99.154,110.91L100.46,109.82L101.76,108.93L103.07,107.67L104.37,106.84L105.67,106.46L106.98,105.99L108.28,105.36L109.59,104.77L110.89,103.89L112.2,103.5L113.5,103.05L114.8,103.21L116.11,103.11L117.41,102.99L118.72,103.45L120.02,104.37L121.33,104.5L122.63,105.4L123.93,106.65L125.24,108.01L126.54,108.94L127.85,110.67L129.15,111.44L130.45,113.36L131.76,115.09L133.06,115.99L134.37,117.97L135.67,119.15L136.98,120.57L138.28,122.27L139.58,123.52L140.89,125.08L142.19,126.44L143.5,127.79L144.8,128.74L146.1,129.16L147.41,130.3L148.71,131.67L150.02,131.8L151.32,133.03L152.63,134.05L153.93,134.23L155.23,135.19L156.54,135.47L157.84,135.18L159.15,135.75L160.45,136.11L161.76,135.96L163.06,136.23L164.36,136.06L165.67,136.04L166.97,136.5L168.28,136.55L169.58,136.68L170.88,136.08L172.19,136.51L173.49,136.05L174.8,136.29L176.1,136.89L177.41,137.31L178.71,137.08L180.01,137.14L181.32,137.38L182.62,137.3L183.93,137.95L185.23,137.86L186.53,137.72L187.84,137.99L189.14,136.87L190.45,136.61L191.75,136.07L193.06,135.1L194.36,134.73L195.66,133.38L196.97,131.62L198.27,130.27L199.58,128.48L200.88,127.35L202.19,125.04L203.49,123.5L204.79,121.05L206.1,118.69L207.4,116.47L208.71,114.08L210.01,112.28L211.31,109.43L212.62,106.99L213.92,104.9L215.23,103.17L216.53,101.2L217.84,98.989L219.14,97.744L220.44,96.078L221.75,94.476L223.05,93.29L224.36,92.362L225.66,91.496L226.96,90.671L228.27,91.148L229.57,90.5L230.88,90.581L232.18,91.732L233.49,91.606L234.79,92.425L236.09,93.559L237.4,95.631L238.7,97.233L240.01,99.444L241.31,102L242.62,104.81L243.92,107.63L245.22,111.22L246.53,114.14L247.83,117.84L249.14,121.36L250.44,125.11L251.74,128.81L253.05,131.98L254.35,135.94L255.66,139.89L256.96,142.98L258.27,145.61L259.57,148.71L260.87,151.33L262.18,154.3L263.48,156.45L264.79,157.81L266.09,159.01L267.4,159.8L268.7,161.01L270,161.37L271.31,161.49L272.61,161.84L273.92,160.92L275.22,159.85L276.52,159.46L277.83,158.04L279.13,156.45L280.44,155.12L281.74,153.7L283.05,151.16L284.35,149.32L285.65,147.38L286.96,145.41L288.26,143.01L289.57,141.4L290.87,138.81L292.17,137.21L293.48,134.87L294.78,132.41L296.09,130.94L297.39,128.6L298.7,126.86L300,124.68" style="fill:none;stroke:#399CF5;stroke-width:1.2" />
<path d="M40.465,103.05L41.769,105.83L43.073,108.75L44.377,112.15L45.682,115.69L46.986,119.17L48.29,122.31L49.594,126.84L50.898,130.3L52.203,134.19L53.507,137.91L54.811,141.51L56.115,144.75L57.419,148.08L58.724,151.72L60.028,154.18L61.332,157L62.636,159.19L63.94,161.25L65.245,163.24L66.549,164.64L67.853,165.87L69.157,167.36L70.461,168.32L71.766,169.21L73.07,169.61L74.374,170.39L75.678,170.93L76.982,170.59L78.287,171.17L79.591,170.69L80.895,171.5L82.199,171.33L83.503,171.12L84.808,171.08L86.112,171.07L87.416,171.11L88.72,170.75L90.024,171.22L91.329,171.01L92.633,170.98L93.937,171.51L95.241,171.15L96.545,171.09L97.85,171.16L99.154,171.41L100.46,171.25L101.76,171.86L103.07,170.94L104.37,171.1L105.67,170.84L106.98,170.66L108.28,170.16L109.59,169.62L110.89,168.87L112.2,168.3L113.5,168.07L114.8,167.01L116.11,166.75L117.41,166.04L118.72,165.22L120.02,164.96L121.33,164.52L122.63,163.67L123.93,162.91L125.24,162.44L126.54,162.4L127.85,162.6L129.15,162.28L130.45,162.13L131.76,162.11L133.06,162.59L134.37,162.6L135.67,162.76L136.98,163.69L138.28,164.34L139.58,165.04L140.89,165.22L142.19,166.43L143.5,167.23L144.8,168.05L146.1,168.78L147.41,169.8L148.71,170.59L150.02,170.86L151.32,171.81L152.63,172.91L153.93,172.85L155.23,172.81L156.54,173.41L157.84,172.91L159.15,172.82L160.45,172.8L161.76,172.03L163.06,171.32L164.36,170.84L165.67,169.21L166.97,168.21L168.28,166.53L169.58,165.52L170.88,163.66L172.19,162.25L173.49,160.26L174.8,159.25L176.1,156.9L177.41,155.1L178.71,152.99L180.01,151.28L181.32,149.39L182.62,147.59L183.93,145.61L185.23,144.58L186.53,142.73L187.84,141.56L189.14,140.46L190.45,139.14L191.75,138.41L193.06,137.69L194.36,137.87L195.66,136.75L196.97,136.29L198.27,137.5L199.58,137.12L200.88,137.34L202.19,137.69L203.49,137.97L204.79,138.26L206.1,138.71L207.4,139.22L208.71,139.05L210.01,140.12L211.31,139.83L212.62,139.96L213.92,139.43L215.23,138.75L216.53,137.89L217.84,137.19L219.14,135.8L220.44,133.99L221.75,132.01L223.05,129.98L224.36,127.74L225.66,124.94L226.96,123.18L228.27,120.29L229.57,117.88L230.88,114.87L232.18,111.8L233.49,109.39L234.79,106.43L236.09,103.71L237.4,101.61L238.7,99.01L240.01,96.409L241.31,94.84L242.62,91.97L243.92,90.154L245.22,88.678L246.53,86.366L247.83,84.674L249.14,82.088L250.44,81.078L251.74,79.234L253.05,77.545L254.35,74.835L255.66,73.896L256.96,71.733L258.27,70.06L259.57,67.449L260.87,66.018L262.18,64.066L263.48,61.911L264.79,60.316L266.09,58.327L267.4,56.962L268.7,55.749L270,55.044L271.31,54.246L272.61,53.48L273.92,53.245L275.22,53.248L276.52,53.981L277.83,54.738L279.13,56.046L280.44,56.944L281.74,58.776L283.05,60.968L284.35,63.725L285.65,66.296L286.96,68.782L288.26,71.513L289.57,74.91L290.87,77.879L292.17,80.953L293.48,84.111L294.78,87.588L296.09,90.993L297.39,93.623L298.7,96.909L300,99.869" style="fill:none;stroke:#1EADDB;stroke-width:1.2" />
<path d="M40.465,104.61L41.769,106.1L43.073,107.52L44.377,108.73L45.682,110.25L46.986,110.57L48.29,112.28L49.594,112.72L50.898,113.83L52.203,114.41L53.507,114.76L54.811,115.12L56.115,115.28L57.419,115.33L58.724,114.88L60.028,114.32L61.332,114.37L62.636,114.2L63.94,113.94L65.245,112.92L66.549,112.98L67.853,112.55L69.157,111.95L70.461,112.04L71.766,112.64L73.07,112.14L74.374,112.98L75.678,113.11L76.982,113.63L78.287,114.77L79.591,116.05L80.895,117.36L82.199,118.94L83.503,120.54L84.808,122.79L86.112,125.01L87.416,126.95L88.72,129.75L90.024,132.01L91.329,134.68L92.633,136.76L93.937,139.59L95.241,141.46L96.545,143.55L97.85,145.93L99.154,147.8L100.46,149.08L101.76,150.41L103.07,151.29L104.37,152.58L105.67,152.97L106.98,152.79L108.28,153.72L109.59,153.97L110.89,153.63L112.2,153.25L113.5,153.01L114.8,152.78L116.11,152.53L117.41,152.17L118.72,151.68L120.02,151.6L121.33,150.92L122.63,150.65L123.93,151.07L125.24,150.83L126.54,150.97L127.85,150.34L129.15,151.55L130.45,151.59L131.76,152.51L133.06,152.76L134.37,153.53L135.67,154.23L136.98,155.79L138.28,156.82L139.58,157.53L140.89,159.42L142.19,160.78L143.5,161.74L144.8,163.2L146.1,164.57L147.41,165L148.71,167.32L150.02,168.55L151.32,169.15L152.63,171.42L153.93,172.49L155.23,173.84L156.54,174.89L157.84,176.25L159.15,177.23L160.45,178.33L161.76,179.35L163.06,180.12L164.36,181.15L165.67,182.32L166.97,183.53L168.28,184.1L169.58,184.77L170.88,185.49L172.19,186.23L173.49,185.91L174.8,186.03L176.1,186.71L177.41,186.39L178.71,185.84L180.01,185.79L181.32,184.56L182.62,183.33L183.93,181.96L185.23,180.71L186.53,177.91L187.84,175.59L189.14,173.04L190.45,170.35L191.75,167.74L193.06,163.38L194.36,159.35L195.66,154.99L196.97,151.29L198.27,147.19L199.58,143.08L200.88,138.52L202.19,133.96L203.49,129.45L204.79,125.18L206.1,121.31L207.4,117.53L208.71,113.67L210.01,109.66L211.31,106.82L212.62,104.43L213.92,101.73L215.23,99.793L216.53,98.761L217.84,96.837L219.14,95.515L220.44,94.852L221.75,94.601L223.05,94.83L224.36,95.525L225.66,95.933L226.96,96.654L228.27,97.788L229.57,99.681L230.88,100.66L232.18,102.52L233.49,104.3L234.79,106.2L236.09,108.15L237.4,109.81L238.7,111.35L240.01,113.73L241.31,115.92L242.62,117.01L243.92,119.15L245.22,120.63L246.53,122.34L247.83,123.99L249.14,125.44L250.44,127.34L251.74,128.02L253.05,129.9L254.35,131.17L255.66,132.6L256.96,133.54L258.27,135.58L259.57,136.82L260.87,138.52L262.18,140.37L263.48,141.47L264.79,143.05L266.09,144.81L267.4,146.55L268.7,148.53L270,150.1L271.31,151.49L272.61,152.61L273.92,153.56L275.22,155.23L276.52,156.12L277.83,156.73L279.13,157.34L280.44,157.81L281.74,157.75L283.05,157.92L284.35,157.3L285.65,156.45L286.96,155.08L288.26,154.29L289.57,153.28L290.87,151.62L292.17,150.03L293.48,148.21L294.78,146.82L296.09,144.77L297.39,143.88L298.7,141.86L300,141.09" style="fill:none;stroke:#ED513D;stroke-width:1.2" />
<path d="M40.465,106.23L41.769,105.98L43.073,105.82L44.377,105.35L45.682,105.41L46.986,105.74L48.29,106.1L49.594,106.63L50.898,107.5L52.203,108.71L53.507,109.56L54.811,111.47L56.115,112.95L57.419,114.86L58.724,116.71L60.028,119.08L61.332,121.65L62.636,123.66L63.94,126.21L65.245,129.21L66.549,132.28L67.853,134.82L69.157,137.25L70.461,140.16L71.766,142.7L73.07,144.27L74.374,146.78L75.678,148.34L76.982,150.16L78.287,151.12L79.591,152.44L80.895,152.67L82.199,152.62L83.503,152.9L84.808,152.01L86.112,150.89L87.416,150.03L88.72,148.03L90.024,146.02L91.329,144.13L92.633,141.42L93.937,138.49L95.241,135.24L96.545,131.59L97.85,128.23L99.154,123.96L100.46,120.89L101.76,116.59L103.07,112.69L104.37,108.95L105.67,105.61L106.98,102.4L108.28,98.733L109.59,95.13L110.89,92.542L112.2,90.539L113.5,88.161L114.8,87.122L116.11,86.27L117.41,85.98L118.72,85.93L120.02,86.775L121.33,87.546L122.63,89.247L123.93,91.736L125.24,94.508L126.54,97.395L127.85,100.42L129.15,104.26L130.45,108.27L131.76,112.82L133.06,116.63L134.37,120.95L135.67,125.73L136.98,129.85L138.28,134.36L139.58,138.99L140.89,142.46L142.19,146.55L143.5,149.94L144.8,153.19L146.1,155.65L147.41,157.95L148.71,160L150.02,161.31L151.32,162.73L152.63,163.26L153.93,163.56L155.23,163.44L156.54,162.68L157.84,161.99L159.15,160.23L160.45,158.99L161.76,156.64L163.06,154.36L164.36,151.68L165.67,149.09L166.97,145.81L168.28,143.09L169.58,139.69L170.88,137.4L172.19,134.48L173.49,131.24L174.8,128.44L176.1,125.31L177.41,122.99L178.71,120.47L180.01,117.97L181.32,115.92L182.62,113.53L183.93,111.58L185.23,109.7L186.53,108.47L187.84,107.03L189.14,105.67L190.45,104.84L191.75,103.73L193.06,103.08L194.36,102.36L195.66,101.55L196.97,101.88L198.27,101.22L199.58,101.53L200.88,101.71L202.19,101.65L203.49,102.99L204.79,103.61L206.1,104.99L207.4,106.02L208.71,107.91L210.01,109.56L211.31,111.38L212.62,113.43L213.92,115.77L215.23,118.65L216.53,121.71L217.84,124.08L219.14,127.56L220.44,130.49L221.75,134.07L223.05,136.52L224.36,140.4L225.66,143.27L226.96,145.92L228.27,148.39L229.57,151.56L230.88,154.12L232.18,155.96L233.49,158.34L234.79,159.5L236.09,161.03L237.4,162.02L238.7,162.77L240.01,163.54L241.31,163.69L242.62,163.63L243.92,163.37L245.22,162.86L246.53,162.1L247.83,161.31L249.14,160.68L250.44,159.5L251.74,158.84L253.05,157.41L254.35,156.83L255.66,155.92L256.96,155.68L258.27,154.5L259.57,154.49L260.87,153.79L262.18,153.97L263.48,153.39L264.79,153.45L266.09,153L267.4,153.43L268.7,153.23L270,153.83L271.31,153.79L272.61,153.7L273.92,154.56L275.22,154.21L276.52,154L277.83,154.58L279.13,153.86L280.44,153.35L281.74,153.64L283.05,151.98L284.35,151.95L285.65,150.53L286.96,149.24L288.26,148.36L289.57,147.18L290.87,145.9L292.17,144.23L293.48,143L294.78,141.37L296.09,139.43L297.39,137.52L298.7,136.69L300,134.47" style="fill:none;stroke:#0CD199;stroke-width:1.2" />
<path d="M40.465,127.92L41.769,128.72L43.073,129.24L44.377,129.18L45.682,129.16L46.986,129.24L48.29,128.77L49.594,129.1L50.898,128L52.203,127.57L53.507,126.73L54.811,126.5L56.115,125.77L57.419,124.92L58.724,124.19L60.028,123.48L61.332,123.08L62.636,122.53L63.94,121.83L65.245,122.11L66.549,121.8L67.853,121.38L69.157,121.84L70.461,121.73L71.766,122.33L73.07,122.05L74.374,122.96L75.678,123.86L76.982,124.34L78.287,124.55L79.591,124.83L80.895,125.36L82.199,125.68L83.503,126.83L84.808,126.08L86.112,127.06L87.416,127.6L88.72,127.42L90.024,127.71L91.329,128.22L92.633,127.8L93.937,128.09L95.241,127.62L96.545,127.78L97.85,127.16L99.154,127.86L100.46,127.42L101.76,127.52L103.07,127.59L104.37,127.74L105.67,127.64L106.98,127.25L108.28,127.24L109.59,127.84L110.89,128.13L112.2,128.55L113.5,127.97L114.8,128.84L116.11,128.72L117.41,128.86L118.72,128.7L120.02,128.8L121.33,128.92L122.63,128.64L123.93,128.38L125.24,128.55L126.54,127.9L127.85,127.31L129.15,126.75L130.45,125.73L131.76,125.24L133.06,124.61L134.37,123.61L135.67,122.93L136.98,122.28L138.28,121.47L139.58,120.54L140.89,120.15L142.19,119.73L143.5,119.78L144.8,119.31L146.1,118.92L147.41,119L148.71,119.7L150.02,119.45L151.32,120.09L152.63,120.46L153.93,121.48L155.23,121.61L156.54,121.88L157.84,122.72L159.15,123.48L160.45,124.17L161.76,125.07L163.06,125.55L164.36,126.13L165.67,125.86L166.97,125.8L168.28,125.57L169.58,125.89L170.88,125.02L172.19,124.5L173.49,123.7L174.8,123.07L176.1,122.46L177.41,121.1L178.71,120.22L180.01,119.15L181.32,117.65L182.62,116.51L183.93,115.21L185.23,113.29L186.53,112.38L187.84,111.25L189.14,109.24L190.45,107.55L191.75,106.19L193.06,105.17L194.36,103.64L195.66,102.81L196.97,101.36L198.27,100.6L199.58,98.754L200.88,97.931L202.19,97.34L203.49,96.265L204.79,95.282L206.1,94.826L207.4,94.512L208.71,93.332L210.01,92.883L211.31,92.299L212.62,91.913L213.92,92.035L215.23,92.575L216.53,92.311L217.84,92.387L219.14,92.612L220.44,93.113L221.75,94.258L223.05,94.936L224.36,95.555L225.66,96.521L226.96,97.296L228.27,97.724L229.57,99.585L230.88,99.773L232.18,101.31L233.49,101.87L234.79,103.19L236.09,103.59L237.4,104.13L238.7,104.87L240.01,105.19L241.31,105.59L242.62,105.13L243.92,105.12L245.22,104.71L246.53,104.6L247.83,103.75L249.14,103.22L250.44,102.41L251.74,101.65L253.05,100.85L254.35,99.769L255.66,98.788L256.96,98.049L258.27,97.777L259.57,97.053L260.87,96.262L262.18,96.158L263.48,96.026L264.79,96.099L266.09,96.396L267.4,96.499L268.7,97.419L270,98.034L271.31,99.581L272.61,99.96L273.92,101.67L275.22,102.76L276.52,104.61L277.83,106.3L279.13,107.94L280.44,110.29L281.74,112.02L283.05,114.23L284.35,116.18L285.65,118.65L286.96,120.25L288.26,121.73L289.57,123.67L290.87,125.44L292.17,127.04L293.48,128.63L294.78,130.06L296.09,131.36L297.39,132.42L298.7,133.32L300,134.71" style="fill:none;stroke:#C7BD40;stroke-width:1.2" />
<path d="M40.465,125.56L41.769,126.8L43.073,127.13L44.377,127.36L45.682,128L46.986,128.33L48.29,128.14L49.594,128.03L50.898,128.34L52.203,127.52L53.507,127.77L54.811,127.71L56.115,127.11L57.419,127.17L58.724,125.81L60.028,125.51L61.332,125.58L62.636,124.18L63.94,123.99L65.245,123.22L66.549,122.2L67.853,122.09L69.157,120.42L70.461,120.44L71.766,119.87L73.07,118.83L74.374,118.63L75.678,117.65L76.982,117.48L78.287,117.58L79.591,117.08L80.895,117.63L82.199,117.4L83.503,118.12L84.808,119.12L86.112,119.73L87.416,120.72L88.72,122.21L90.024,123.61L91.329,124.9L92.633,127.08L93.937,128.98L95.241,130.63L96.545,132.65L97.85,134.48L99.154,136.82L100.46,138.63L101.76,140.33L103.07,142.19L104.37,143.64L105.67,145.69L106.98,146.26L108.28,147.45L109.59,147.83L110.89,148.58L112.2,148.78L113.5,148.11L114.8,148.21L116.11,147.74L117.41,147.16L118.72,146.16L120.02,144.61L121.33,143.19L122.63,141.79L123.93,140.32L125.24,138L126.54,136.67L127.85,134.26L129.15,132.33L130.45,130.41L131.76,128.47L133.06,126.55L134.37,124.08L135.67,122.45L136.98,120.9L138.28,119.32L139.58,118.27L140.89,116.97L142.19,115.55L143.5,114.99L144.8,114.3L146.1,113.34L147.41,112.37L148.71,112.23L150.02,111.31L151.32,110.95L152.63,110.68L153.93,109.71L155.23,109.73L156.54,109.29L157.84,108.22L159.15,107.43L160.45,106.38L161.76,105.57L163.06,104.43L164.36,104.01L165.67,103.26L166.97,101.91L168.28,101.23L169.58,100.4L170.88,100.03L172.19,98.79L173.49,98.727L174.8,98.441L176.1,98.519L177.41,99.274L178.71,99.661L180.01,100.23L181.32,101.46L182.62,102.42L183.93,104.03L185.23,105.44L186.53,107.61L187.84,109.45L189.14,111.92L190.45,113.99L191.75,116.89L193.06,119L194.36,121.42L195.66,124.06L196.97,127.34L198.27,129.38L199.58,132.58L200.88,135.21L202.19,137.64L203.49,140.81L204.79,143.54L206.1,145.64L207.4,148.95L208.71,151.33L210.01,153.97L211.31,157.16L212.62,159.85L213.92,162.6L215.23,164.89L216.53,167.68L217.84,170.04L219.14,172.11L220.44,174.22L221.75,176.24L223.05,177.6L224.36,179.14L225.66,180.12L226.96,180.56L228.27,180.71L229.57,180.95L230.88,180.22L232.18,179.47L233.49,177.87L234.79,176.84L236.09,175.26L237.4,173L238.7,170.75L240.01,168.76L241.31,166.37L242.62,164.06L243.92,161.53L245.22,158.49L246.53,156.76L247.83,155.22L249.14,153.08L250.44,151.84L251.74,150.71L253.05,149.94L254.35,149.83L255.66,149.11L256.96,150.38L258.27,150.63L259.57,152.33L260.87,153.2L262.18,154.78L263.48,157.32L264.79,158.54L266.09,160.92L267.4,162.88L268.7,164.39L270,166.39L271.31,167.94L272.61,169.28L273.92,170.1L275.22,170.4L276.52,170.75L277.83,171.47L279.13,170.45L280.44,169.68L281.74,168.2L283.05,166.82L284.35,164.38L285.65,162.03L286.96,159.54L288.26,157.39L289.57,153.87L290.87,150.44L292.17,146.92L293.48,144.05L294.78,141.38L296.09,137.58L297.39,134.64L298.7,131.01L300,128.17" style="fill:none;stroke:#CB83D1;stroke-width:1.2" />
<path d="M40.465,115.23L41.769,117.89L43.073,120.54L44.377,122.74L45.682,124.47L46.986,125.94L48.29,127.62L49.594,129.07L50.898,129.88L52.203,130.16L53.507,130.52L54.811,130.47L56.115,129.64L57.419,128.92L58.724,127.7L60.028,125.98L61.332,124.26L62.636,122.86L63.94,120.25L65.245,117.93L66.549,115.65L67.853,113.77L69.157,111.09L70.461,109.04L71.766,107.02L73.07,105.43L74.374,103.57L75.678,101.55L76.982,100.51L78.287,99.737L79.591,99.375L80.895,98.194L82.199,98.339L83.503,98.711L84.808,98.985L86.112,99.435L87.416,100.25L88.72,101.27L90.024,102.58L91.329,103.07L92.633,104.58L93.937,106.02L95.241,107.66L96.545,108.98L97.85,110.25L99.154,111.55L100.46,112.76L101.76,113.86L103.07,114.44L104.37,116.05L105.67,116.41L106.98,116.47L108.28,117.45L109.59,117.42L110.89,117.86L112.2,117.55L113.5,116.55L114.8,116.08L116.11,115.04L117.41,114.5L118.72,113.1L120.02,111.81L121.33,110.87L122.63,108.95L123.93,107.64L125.24,106.32L126.54,104.93L127.85,103.75L129.15,102.33L130.45,101.24L131.76,99.759L133.06,99.336L134.37,98.317L135.67,98.162L136.98,97.82L138.28,97.97L139.58,98.46L140.89,98.811L142.19,98.965L143.5,100.34L144.8,101.09L146.1,101.91L147.41,103.06L148.71,104.3L150.02,106.42L151.32,107.89L152.63,108.84L153.93,110.29L155.23,111.49L156.54,113.16L157.84,114.73L159.15,116.12L160.45,117.28L161.76,118.83L163.06,120.3L164.36,121.83L165.67,122.63L166.97,124.78L168.28,125.92L169.58,127.1L170.88,129.24L172.19,130.7L173.49,132.48L174.8,134.75L176.1,136.39L177.41,138.1L178.71,140.89L180.01,142.97L181.32,145.17L182.62,148L183.93,150.21L185.23,151.6L186.53,154.12L187.84,156.28L189.14,157.82L190.45,159.96L191.75,161.42L193.06,163.09L194.36,164.2L195.66,165.26L196.97,166.14L198.27,167.2L199.58,167.13L200.88,166.79L202.19,166.48L203.49,166.48L204.79,165.53L206.1,164.26L207.4,163.85L208.71,162.66L210.01,161.22L211.31,160.26L212.62,158.1L213.92,156.49L215.23,154.51L216.53,152.53L217.84,150.74L219.14,148.48L220.44,146.96L221.75,144.16L223.05,142.43L224.36,140.55L225.66,138.01L226.96,136.18L228.27,134L229.57,131.63L230.88,130L232.18,128.01L233.49,126.7L234.79,125.64L236.09,124.06L237.4,122.61L238.7,121.95L240.01,121.11L241.31,120.38L242.62,120.22L243.92,120.36L245.22,120.79L246.53,120.73L247.83,121.6L249.14,121.81L250.44,122.8L251.74,123.61L253.05,124.53L254.35,125.15L255.66,125.49L256.96,126.52L258.27,126.98L259.57,127.22L260.87,127.88L262.18,128.5L263.48,128.68L264.79,128.83L266.09,128.35L267.4,128.72L268.7,128.31L270,127.93L271.31,128.09L272.61,127.09L273.92,126.7L275.22,126.26L276.52,125.43L277.83,125.06L279.13,124.59L280.44,123.66L281.74,122.86L283.05,122.31L284.35,121.45L285.65,120.77L286.96,120.56L288.26,119.74L289.57,118.67L290.87,118.87L292.17,118.25L293.48,117.51L294.78,117.23L296.09,116.65L297.39,116.62L298.7,116.29L300,115.34" style="fill:none;stroke:#16480D;stroke-width:1.2" />
<path d="M40.465,133.42L41.769,135.51L43.073,136.4L44.377,137.95L45.682,139.83L46.986,141.29L48.29,142.48L49.594,143.29L50.898,143.84L52.203,145.25L53.507,145.5L54.811,145.73L56.115,145L57.419,145.37L58.724,144.2L60.028,143.82L61.332,142.35L62.636,141.41L63.94,140.09L65.245,138.3L66.549,136.87L67.853,135.04L69.157,133.12L70.461,131.03L71.766,129.49L73.07,127.32L74.374,125.45L75.678,123.44L76.982,122.25L78.287,119.84L79.591,118.14L80.895,116.69L82.199,115.53L83.503,114.07L84.808,113.14L86.112,112.09L87.416,112.02L88.72,110.41L90.024,110.77L91.329,110.6L92.633,109.98L93.937,110.9L95.241,111.12L96.545,111.64L97.85,112.43L99.154,113.47L100.46,114.42L101.76,116.31L103.07,116.94L104.37,117.97L105.67,119.02L106.98,119.92L108.28,121.4L109.59,122.4L110.89,123.24L112.2,123.62L113.5,124.36L114.8,124.35L116.11,124.33L117.41,123.84L118.72,123.9L120.02,123.44L121.33,122.39L122.63,121.76L123.93,121.06L125.24,120L126.54,118.43L127.85,117.59L129.15,116.42L130.45,114.83L131.76,114.57L133.06,113.53L134.37,112.58L135.67,111.8L136.98,111.47L138.28,111.07L139.58,110.97L140.89,110.72L142.19,111.27L143.5,111.24L144.8,112.25L146.1,112.83L147.41,114.12L148.71,115.5L150.02,116.57L151.32,118.16L152.63,119.31L153.93,121.48L155.23,123.23L156.54,125.18L157.84,127.36L159.15,129.13L160.45,130.83L161.76,133.69L163.06,135.8L164.36,137.91L165.67,140.1L166.97,142.59L168.28,144.56L169.58,146.67L170.88,149.32L172.19,151.14L173.49,152.93L174.8,155.19L176.1,157.04L177.41,159.15L178.71,161.2L180.01,162.8L181.32,164.35L182.62,166.04L183.93,167.2L185.23,168.65L186.53,169.93L187.84,171.46L189.14,172.16L190.45,173.57L191.75,174.24L193.06,175.17L194.36,175.25L195.66,176.17L196.97,176.85L198.27,177.14L199.58,177.74L200.88,177.72L202.19,177.88L203.49,178.25L204.79,178.76L206.1,178.79L207.4,178.64L208.71,179.1L210.01,178.68L211.31,178.86L212.62,178.68L213.92,178.6L215.23,178.27L216.53,177.7L217.84,177.15L219.14,176.12L220.44,175.41L221.75,174.25L223.05,172.84L224.36,171.23L225.66,168.73L226.96,166.45L228.27,163.61L229.57,160.61L230.88,157.6L232.18,153.85L233.49,149.91L234.79,145.82L236.09,141.44L237.4,136.52L238.7,132.19L240.01,127.43L241.31,121.63L242.62,117.32L243.92,112.37L245.22,107.51L246.53,102.81L247.83,98.316L249.14,93.527L250.44,90.39L251.74,86.164L253.05,82.154L254.35,79.613L255.66,76.464L256.96,73.669L258.27,71.847L259.57,70.095L260.87,67.945L262.18,67.272L263.48,66.379L264.79,65.678L266.09,65.774L267.4,65.472L268.7,65.452L270,66.059L271.31,66.283L272.61,67.289L273.92,68.227L275.22,68.98L276.52,70.029L277.83,71.371L279.13,72.452L280.44,74.325L281.74,75.857L283.05,77.111L284.35,79.152L285.65,80.228L286.96,82.007L288.26,84.299L289.57,86.832L290.87,88.132L292.17,90.439L293.48,92.574L294.78,95.179L296.09,97.437L297.39,99.756L298.7,102.21L300,104.69" style="fill:none;stroke:#44699C;stroke-width:1.2" />
<path d="M40.465,100.61L41.769,100.47L43.073,99.725L44.377,99.952L45.682,100.62L46.986,100.53L48.29,101.19L49.594,101.24L50.898,101.55L52.203,102.17L53.507,103.07L54.811,103.36L56.115,104.59L57.419,105.19L58.724,106.05L60.028,107.22L61.332,108.34L62.636,108.94L63.94,109.7L65.245,110.71L66.549,111.57L67.853,112.53L69.157,113.28L70.461,113.98L71.766,114.76L73.07,115.68L74.374,116.6L75.678,116.24L76.982,116.58L78.287,116.99L79.591,116.63L80.895,116.98L82.199,117.01L83.503,116.29L84.808,115.71L86.112,115.28L87.416,113.81L88.72,113.03L90.024,112.04L91.329,110.36L92.633,108.96L93.937,107.01L95.241,105.71L96.545,103.96L97.85,102.02L99.154,100.5L100.46,98.69L101.76,96.754L103.07,95.744L104.37,93.885L105.67,93.037L106.98,91.456L108.28,89.806L109.59,89.061L110.89,88.405L112.2,87.828L113.5,86.514L114.8,86.168L116.11,86.387L117.41,85.351L118.72,85.519L120.02,85.087L121.33,84.32L122.63,84.353L123.93,83.773L125.24,83.126L126.54,82.872L127.85,81.788L129.15,81.427L130.45,80.123L131.76,79.661L133.06,78.77L134.37,77.148L135.67,76.767L136.98,75.816L138.28,75.057L139.58,74.076L140.89,73.996L142.19,73.371L143.5,73.339L144.8,73.949L146.1,74.584L147.41,75.831L148.71,76.649L150.02,78.614L151.32,81.222L152.63,83.256L153.93,85.956L155.23,89.122L156.54,92.877L157.84,97.138L159.15,100.94L160.45,105.24L161.76,109.23L163.06,113.64L164.36,117.84L165.67,121.87L166.97,126.18L168.28,130.32L169.58,133.76L170.88,136.64L172.19,139.46L173.49,141.27L174.8,143.76L176.1,144.85L177.41,146.76L178.71,147.42L180.01,147.44L181.32,147.41L182.62,146.97L183.93,146.53L185.23,144.42L186.53,144.09L187.84,142.51L189.14,140.98L190.45,139.21L191.75,137.31L193.06,135.53L194.36,133.53L195.66,131.03L196.97,129.48L198.27,127.3L199.58,126.11L200.88,123.97L202.19,122.51L203.49,120.69L204.79,119.3L206.1,118.27L207.4,116.72L208.71,115.57L210.01,115.14L211.31,114.06L212.62,113.1L213.92,113.32L215.23,112.25L216.53,112.37L217.84,111.55L219.14,112.25L220.44,111.85L221.75,112.64L223.05,112.69L224.36,113.26L225.66,113.39L226.96,114.23L228.27,114.59L229.57,114.81L230.88,115.5L232.18,116.04L233.49,116.97L234.79,118.22L236.09,119.06L237.4,119.84L238.7,120.93L240.01,121.87L241.31,123.21L242.62,124.15L243.92,125.45L245.22,126.81L246.53,127.83L247.83,129.26L249.14,131.22L250.44,132.49L251.74,134.82L253.05,136.32L254.35,137.92L255.66,140.09L256.96,141.64L258.27,143.44L259.57,145.54L260.87,147.32L262.18,149.28L263.48,151.04L264.79,152.29L266.09,153.86L267.4,154.88L268.7,155.62L270,156.63L271.31,157.88L272.61,158.21L273.92,158.26L275.22,158.36L276.52,158.12L277.83,157.85L279.13,157.21L280.44,156.34L281.74,155.44L283.05,154.24L284.35,153.31L285.65,151.88L286.96,149.86L288.26,148.2L289.57,146.15L290.87,144.36L292.17,142.59L293.48,140.44L294.78,138.33L296.09,135.82L297.39,134.25L298.7,132.4L300,130.76" style="fill:none;stroke:#87403E;stroke-width:1.2" />
<path d="M40.465,152.03L41.769,151.05L43.073,149.49L44.377,147.81L45.682,145.27L46.986,143L48.29,140.53L49.594,137.76L50.898,134.84L52.203,132.12L53.507,128.35L54.811,125.1L56.115,122.17L57.419,118.83L58.724,115.7L60.028,112.48L61.332,110.32L62.636,107.42L63.94,105.46L65.245,102.38L66.549,100.32L67.853,97.999L69.157,96.439L70.461,94.853L71.766,93.559L73.07,91.866L74.374,91.449L75.678,90.518L76.982,89.402L78.287,89.242L79.591,88.69L80.895,88.555L82.199,88.261L83.503,88.933L84.808,90.095L86.112,90.468L87.416,92.015L88.72,92.816L90.024,94.143L91.329,95.466L92.633,96.963L93.937,99.023L95.241,100.85L96.545,102.62L97.85,104.35L99.154,106.89L100.46,109.59L101.76,111.42L103.07,113.16L104.37,115.95L105.67,116.86L106.98,118.77L108.28,121.2L109.59,122.68L110.89,124.16L112.2,125.6L113.5,126.81L114.8,127.64L116.11,128.84L117.41,128.82L118.72,129.77L120.02,130.49L121.33,130.4L122.63,130.7L123.93,131.12L125.24,131.29L126.54,131.05L127.85,131.51L129.15,131.53L130.45,131.56L131.76,131.86L133.06,132.19L134.37,132.31L135.67,132.27L136.98,132.55L138.28,132.66L139.58,133.14L140.89,133.24L142.19,133.36L143.5,133.81L144.8,134.26L146.1,134.69L147.41,135.16L148.71,134.81L150.02,135.29L151.32,135.47L152.63,135.74L153.93,135.37L155.23,135.46L156.54,135.67L157.84,136.13L159.15,135.91L160.45,135.89L161.76,136.27L163.06,136.15L164.36,136.18L165.67,136.08L166.97,136.61L168.28,137.17L169.58,137.19L170.88,137.82L172.19,138.11L173.49,138.67L174.8,138.75L176.1,139.19L177.41,140.15L178.71,140.49L180.01,141.29L181.32,141.83L182.62,142.19L183.93,142.5L185.23,142.77L186.53,142.84L187.84,143.03L189.14,143.17L190.45,142.81L191.75,143.31L193.06,143L194.36,142.98L195.66,142.41L196.97,142.36L198.27,140.89L199.58,140.52L200.88,139.07L202.19,137.68L203.49,136.53L204.79,135.13L206.1,132.94L207.4,131.29L208.71,128.92L210.01,126.73L211.31,124.73L212.62,122.11L213.92,119.8L215.23,117.13L216.53,114.47L217.84,111.85L219.14,108.93L220.44,105.78L221.75,103.72L223.05,101.25L224.36,98.677L225.66,96.455L226.96,94.7L228.27,93.031L229.57,91.369L230.88,90.36L232.18,89.249L233.49,89.317L234.79,89.598L236.09,89.926L237.4,90.607L238.7,91.822L240.01,93.524L241.31,95.485L242.62,97.604L243.92,100.51L245.22,103.66L246.53,106.67L247.83,110.39L249.14,114.13L250.44,118.34L251.74,122.46L253.05,125.79L254.35,130.26L255.66,134.42L256.96,137.81L258.27,141.88L259.57,145.09L260.87,148.54L262.18,152.04L263.48,154.02L264.79,156.83L266.09,159.01L267.4,159.77L268.7,160.85L270,161.99L271.31,162.5L272.61,162.07L273.92,161.94L275.22,161.41L276.52,160.26L277.83,158.82L279.13,157.15L280.44,154.81L281.74,153.34L283.05,151.62L284.35,150.05L285.65,148.25L286.96,146.49L288.26,144.93L289.57,143.25L290.87,142.19L292.17,141.95L293.48,141.57L294.78,140.69L296.09,141.12L297.39,140.9L298.7,141.33L300,143.09" style="fill:none;stroke:#075F79;stroke-width:1.2" />
<path d="M40.465,130.19L41.769,129.37L43.073,127.6L44.377,126.76L45.682,125.06L46.986,123.86L48.29,122.72L49.594,121.35L50.898,120.26L52.203,119.06L53.507,118.26L54.811,117.2L56.115,117.14L57.419,116.49L58.724,115.78L60.028,116.16L61.332,115.86L62.636,116.65L63.94,116.22L65.245,117.37L66.549,117.97L67.853,118.31L69.157,119.32L70.461,120.74L71.766,121.89L73.07,122.77L74.374,124.73L75.678,126.28L76.982,127.94L78.287,129.18L79.591,131.59L80.895,133.15L82.199,134.88L83.503,136.76L84.808,138.92L86.112,140.93L87.416,142.83L88.72,145.25L90.024,147.22L91.329,149.51L92.633,151.89L93.937,153.92L95.241,156.36L96.545,158.37L97.85,160.67L99.154,162.77L100.46,164.44L101.76,166.76L103.07,168.15L104.37,169.77L105.67,171.52L106.98,173L108.28,173.73L109.59,174.76L110.89,175.11L112.2,175.95L113.5,175.68L114.8,175.77L116.11,175.16L117.41,174.09L118.72,172.74L120.02,171.24L121.33,169.31L122.63,167.48L123.93,165.29L125.24,162.91L126.54,160.45L127.85,157.58L129.15,154.48L130.45,151.43L131.76,149.26L133.06,146.04L134.37,143.63L135.67,140.63L136.98,137.88L138.28,135.15L139.58,132.92L140.89,130.51L142.19,128.2L143.5,126.03L144.8,124.54L146.1,122.3L147.41,121.23L148.71,119.57L150.02,118.91L151.32,117.23L152.63,116.86L153.93,115.73L155.23,116.03L156.54,115.16L157.84,114.59L159.15,114.93L160.45,114.98L161.76,115.49L163.06,115.34L164.36,116.96L165.67,116.49L166.97,117.35L168.28,117.89L169.58,118.83L170.88,119.42L172.19,120.33L173.49,121.3L174.8,121.89L176.1,121.9L177.41,122.29L178.71,122.67L180.01,122.86L181.32,123.47L182.62,123.21L183.93,123.11L185.23,122.66L186.53,122.52L187.84,122.49L189.14,120.96L190.45,121L191.75,119.08L193.06,117.94L194.36,117.25L195.66,115.8L196.97,114.39L198.27,112.7L199.58,111.7L200.88,109.92L202.19,108.67L203.49,107.27L204.79,105.96L206.1,105.04L207.4,104.61L208.71,103.66L210.01,102.58L211.31,102.19L212.62,102.26L213.92,101.84L215.23,102.63L216.53,102.78L217.84,103.09L219.14,103.53L220.44,103.82L221.75,104.7L223.05,105.27L224.36,106.21L225.66,106.89L226.96,106.91L228.27,107.57L229.57,107.52L230.88,107.71L232.18,107.75L233.49,107.74L234.79,107.34L236.09,106.18L237.4,106.02L238.7,105L240.01,103.39L241.31,102.71L242.62,101.3L243.92,99.854L245.22,98.178L246.53,96.598L247.83,95.115L249.14,93.284L250.44,92.409L251.74,90.12L253.05,89.239L254.35,87.576L255.66,86.705L256.96,85.553L258.27,84.357L259.57,83.903L260.87,83.339L262.18,83.426L263.48,83.29L264.79,83.816L266.09,83.826L267.4,84.371L268.7,85.015L270,86.419L271.31,88.034L272.61,89.308L273.92,90.714L275.22,91.815L276.52,92.823L277.83,94.481L279.13,96.084L280.44,97.249L281.74,98.486L283.05,100.05L284.35,100.91L285.65,101.65L286.96,103.01L288.26,104.01L289.57,104.27L290.87,105.59L292.17,105.58L293.48,106.33L294.78,106.99L296.09,107.63L297.39,108.18L298.7,108.52L300,109.01" style="fill:none;stroke:#D30479;stroke-width:1.2" />
</g>
</svg>
