<?xml version="1.0"?>
<!-- Generated by SVGo and Plotinum VG -->
<svg width="283.46pt" height="198.43pt" viewBox="0 0 283.46 198.43"
	xmlns="http://www.w3.org/2000/svg"
	xmlns:xlink="http://www.w3.org/1999/xlink">
<g transform="scale(1, -1) translate(0, -198.43)">
<path d="M0,0L283.46,0L283.46,198.43L0,198.43Z" style="fill:#FFFFFF" />
<text x="66.902" y="-189.04" transform="scale(1, -1)"
	style="font-family:Times;font-weight:normal;font-style:normal;font-size:12px">Radial Basis Function Samples</text>
<text x="158.96" y="-3.9023" transform="scale(1, -1)"
	style="font-family:Times;font-weight:normal;font-style:normal;font-size:12px">x</text>
<text x="56.652" y="-16.541" transform="scale(1, -1)"
	style="font-family:Times;font-weight:normal;font-style:normal;font-size:10px">-5</text>
<text x="160.08" y="-16.541" transform="scale(1, -1)"
	style="font-family:Times;font-weight:normal;font-style:normal;font-size:10px">0</text>
<text x="261.83" y="-16.541" transform="scale(1, -1)"
	style="font-family:Times;font-weight:normal;font-style:normal;font-size:10px">5</text>
<path d="M60.817,24.363L60.817,32.363" style="fill:none;stroke:#000000;stroke-width:0.5" />
<path d="M162.58,24.363L162.58,32.363" style="fill:none;stroke:#000000;stroke-width:0.5" />
<path d="M264.33,24.363L264.33,32.363" style="fill:none;stroke:#000000;stroke-width:0.5" />
<path d="M81.168,28.363L81.168,32.363" style="fill:none;stroke:#000000;stroke-width:0.5" />
<path d="M101.52,28.363L101.52,32.363" style="fill:none;stroke:#000000;stroke-width:0.5" />
<path d="M121.87,28.363L121.87,32.363" style="fill:none;stroke:#000000;stroke-width:0.5" />
<path d="M142.22,28.363L142.22,32.363" style="fill:none;stroke:#000000;stroke-width:0.5" />
<path d="M182.93,28.363L182.93,32.363" style="fill:none;stroke:#000000;stroke-width:0.5" />
<path d="M203.28,28.363L203.28,32.363" style="fill:none;stroke:#000000;stroke-width:0.5" />
<path d="M223.63,28.363L223.63,32.363" style="fill:none;stroke:#000000;stroke-width:0.5" />
<path d="M243.98,28.363L243.98,32.363" style="fill:none;stroke:#000000;stroke-width:0.5" />
<path d="M40.465,32.363L283.46,32.363" style="fill:none;stroke:#000000;stroke-width:0.5" />
<g transform="rotate(90)">
<text x="109.67" y="9.3867" transform="scale(1, -1)"
	style="font-family:Times;font-weight:normal;font-style:normal;font-size:12px">y</text>
</g>
<text x="15.885" y="-73.515" transform="scale(1, -1)"
	style="font-family:Times;font-weight:normal;font-style:normal;font-size:10px">-2</text>
<text x="19.215" y="-123.48" transform="scale(1, -1)"
	style="font-family:Times;font-weight:normal;font-style:normal;font-size:10px">0</text>
<text x="19.215" y="-173.44" transform="scale(1, -1)"
	style="font-family:Times;font-weight:normal;font-style:normal;font-size:10px">2</text>
<path d="M26.715,75.8L34.715,75.8" style="fill:none;stroke:#000000;stroke-width:0.5" />
<path d="M26.715,125.76L34.715,125.76" style="fill:none;stroke:#000000;stroke-width:0.5" />
<path d="M26.715,175.73L34.715,175.73" style="fill:none;stroke:#000000;stroke-width:0.5" />
<path d="M30.715,50.818L34.715,50.818" style="fill:none;stroke:#000000;stroke-width:0.5" />
<path d="M30.715,100.78L34.715,100.78" style="fill:none;stroke:#000000;stroke-width:0.5" />
<path d="M30.715,150.75L34.715,150.75" style="fill:none;stroke:#000000;stroke-width:0.5" />
<path d="M34.715,40.209L34.715,185.14" style="fill:none;stroke:#000000;stroke-width:0.5" />
<path d="M40.465,107.39L41.686,106.03L42.907,104.61L44.128,102.85L45.349,101.6L46.57,100.5L47.791,98.767L49.013,97.449L50.234,96.43L51.455,94.848L52.676,93.856L53.897,92.982L55.118,91.739L56.339,90.983L57.56,90.382L58.781,89.329L60.003,89.163L61.224,88.083L62.445,87.782L63.666,87.832L64.887,87.645L66.108,87.878L67.329,87.463L68.55,87.871L69.771,88.538L70.992,88.157L72.214,89.043L73.435,89.756L74.656,90.243L75.877,90.712L77.098,91.375L78.319,92.052L79.54,92.297L80.761,92.546L81.982,92.661L83.203,92.995L84.425,93.45L85.646,93.566L86.867,93.485L88.088,93.779L89.309,93.442L90.53,93.557L91.751,93.741L92.972,93.803L94.193,93.026L95.415,93.495L96.636,93.816L97.857,94.039L99.078,94.692L100.3,94.402L101.52,95.545L102.74,95.446L103.96,96.69L105.18,97.47L106.4,98.765L107.63,99.589L108.85,101.23L110.07,102.44L111.29,103.76L112.51,105.33L113.73,107.1L114.95,108.75L116.17,110.58L117.39,112.55L118.62,115.01L119.84,116.85L121.06,118.89L122.28,121.1L123.5,123.31L124.72,124.99L125.94,127.59L127.16,129.82L128.38,131.11L129.61,133.81L130.83,136.1L132.05,137.84L133.27,139.52L134.49,140.76L135.71,142.19L136.93,143.69L138.15,145.25L139.37,145.84L140.6,146.37L141.82,146.96L143.04,147.61L144.26,147.55L145.48,147.95L146.7,147.17L147.92,147.44L149.14,146.39L150.36,145.62L151.59,144.56L152.81,143.5L154.03,142.72L155.25,141.45L156.47,140.46L157.69,138.98L158.91,137.57L160.13,136.29L161.35,135.29L162.58,133.9L163.8,132.38L165.02,131.7L166.24,130.34L167.46,129.09L168.68,127.81L169.9,127.12L171.12,125.96L172.34,124.52L173.57,123.76L174.79,123.2L176.01,122L177.23,121.1L178.45,120.14L179.67,119.57L180.89,118.41L182.11,117.8L183.33,116.17L184.56,114.67L185.78,114.01L187,112.73L188.22,111.16L189.44,109.44L190.66,106.98L191.88,106.43L193.1,104.21L194.32,102.56L195.55,99.903L196.77,98.02L197.99,95.408L199.21,93.374L200.43,91.463L201.65,88.473L202.87,86.595L204.09,84.603L205.31,81.598L206.54,79.069L207.76,76.996L208.98,74.984L210.2,72.645L211.42,70.807L212.64,69.734L213.86,67.85L215.08,67.002L216.3,66.33L217.52,65.635L218.75,65.731L219.97,65.595L221.19,66.56L222.41,67.658L223.63,69.417L224.85,70.683L226.07,72.26L227.29,75.361L228.51,77.708L229.74,80.382L230.96,84.037L232.18,88.059L233.4,91.782L234.62,95.806L235.84,99.434L237.06,104.34L238.28,108.48L239.5,113.23L240.73,117.72L241.95,122.06L243.17,125.86L244.39,130.09L245.61,133.95L246.83,137.81L248.05,141.75L249.27,144.91L250.49,147.61L251.72,150.06L252.94,152.17L254.16,154.8L255.38,155.83L256.6,156.92L257.82,157.96L259.04,158.26L260.26,159.21L261.48,158.89L262.71,159.02L263.93,158.99L265.15,157.82L266.37,156.81L267.59,155.57L268.81,154.77L270.03,153.37L271.25,151.52L272.47,149.54L273.7,148.28L274.92,146.64L276.14,144.68L277.36,142.88L278.58,140.72L279.8,139.45L281.02,138.15L282.24,135.59L283.46,134.19" style="fill:none;stroke:#673140" />
<path d="M40.465,163.88L41.686,163.55L42.907,162.78L44.128,161.95L45.349,161.07L46.57,160.27L47.791,159.06L49.013,158.72L50.234,158.2L51.455,157.45L52.676,156.33L53.897,155.81L55.118,154.52L56.339,154.07L57.56,153.14L58.781,152.6L60.003,152.02L61.224,151.01L62.445,150.29L63.666,149.53L64.887,149.44L66.108,147.82L67.329,147.11L68.55,146.05L69.771,144.46L70.992,143.37L72.214,141.88L73.435,140.5L74.656,138.8L75.877,136.79L77.098,134.24L78.319,132.11L79.54,129.6L80.761,127.19L81.982,124.1L83.203,122L84.425,119.1L85.646,116.33L86.867,113.43L88.088,109.74L89.309,107.53L90.53,104.49L91.751,102.4L92.972,100.12L94.193,98.169L95.415,96.707L96.636,94.801L97.857,93.399L99.078,92.132L100.3,91.547L101.52,91.474L102.74,91.979L103.96,92.296L105.18,92.963L106.4,94.028L107.63,95.698L108.85,97.982L110.07,99.164L111.29,102.11L112.51,104.45L113.73,107.58L114.95,110.82L116.17,114.18L117.39,116.61L118.62,120L119.84,122.82L121.06,126.97L122.28,129.43L123.5,133.26L124.72,136.29L125.94,139.79L127.16,142.71L128.38,145.04L129.61,148.12L130.83,151.39L132.05,152.75L133.27,154.92L134.49,157.63L135.71,159.05L136.93,160.79L138.15,162.05L139.37,163.49L140.6,164.58L141.82,165.51L143.04,166.17L144.26,166.05L145.48,167.41L146.7,167.41L147.92,166.67L149.14,166.79L150.36,166.33L151.59,165.26L152.81,164.71L154.03,163.47L155.25,162.39L156.47,161.34L157.69,159.27L158.91,158.49L160.13,156.53L161.35,154.66L162.58,152.79L163.8,151.02L165.02,149.09L166.24,147.23L167.46,144.96L168.68,142.7L169.9,140.91L171.12,138.63L172.34,136.44L173.57,134.29L174.79,132.52L176.01,130.42L177.23,127.87L178.45,126.01L179.67,124.22L180.89,122.33L182.11,120.79L183.33,118.98L184.56,117.37L185.78,116.25L187,114.34L188.22,113.24L189.44,112.71L190.66,111.83L191.88,110.96L193.1,110.47L194.32,110.46L195.55,110.74L196.77,110.43L197.99,111.38L199.21,111.89L200.43,113.05L201.65,114.51L202.87,115.67L204.09,117.66L205.31,119.28L206.54,121.37L207.76,123.79L208.98,125.44L210.2,127.26L211.42,129.9L212.64,132.32L213.86,135.18L215.08,136.61L216.3,138.93L217.52,140.81L218.75,142.7L219.97,144.51L221.19,146.95L222.41,148.35L223.63,148.79L224.85,149.82L226.07,151.11L227.29,152.07L228.51,153.14L229.74,153.25L230.96,154.14L232.18,154.66L233.4,155.25L234.62,155.61L235.84,156.49L237.06,156.94L238.28,157.64L239.5,157.69L240.73,158.98L241.95,158.34L243.17,159.2L244.39,159.27L245.61,159.63L246.83,159.52L248.05,159.66L249.27,159.28L250.49,158.82L251.72,158.35L252.94,158.43L254.16,156.7L255.38,156.07L256.6,154.75L257.82,152.96L259.04,151.07L260.26,149.01L261.48,146.98L262.71,144.99L263.93,141.7L265.15,139.1L266.37,135.91L267.59,133.58L268.81,130.29L270.03,126.7L271.25,123.74L272.47,120.43L273.7,117.07L274.92,113.95L276.14,110.99L277.36,107.98L278.58,105.18L279.8,102.74L281.02,100.21L282.24,97.363L283.46,95.428" style="fill:none;stroke:#995620" />
<path d="M40.465,122.85L41.686,121.72L42.907,120.47L44.128,118.92L45.349,118.03L46.57,116.49L47.791,115.05L49.013,113.57L50.234,112.7L51.455,111.2L52.676,110.49L53.897,109.79L55.118,108.84L56.339,108.53L57.56,108.51L58.781,108.8L60.003,109.1L61.224,110.43L62.445,110.97L63.666,112.82L64.887,114.3L66.108,116.04L67.329,117.69L68.55,120.11L69.771,122.68L70.992,124.87L72.214,127.64L73.435,129.98L74.656,132.92L75.877,134.85L77.098,137.34L78.319,139.48L79.54,141.61L80.761,143.14L81.982,144.59L83.203,145.71L84.425,147.88L85.646,148.38L86.867,149.06L88.088,149.39L89.309,150.26L90.53,150.9L91.751,149.98L92.972,150.05L94.193,149.86L95.415,149.84L96.636,149.82L97.857,149.72L99.078,149.45L100.3,149.25L101.52,149.05L102.74,148.66L103.96,149.55L105.18,149.1L106.4,149.69L107.63,150.14L108.85,151.27L110.07,151.46L111.29,152.22L112.51,153.38L113.73,153.75L114.95,154.97L116.17,155.79L117.39,156.73L118.62,157.87L119.84,159.18L121.06,160.07L122.28,160.99L123.5,162.13L124.72,163.13L125.94,163.97L127.16,164.69L128.38,165.44L129.61,166.26L130.83,166.74L132.05,167.53L133.27,168.03L134.49,167.86L135.71,168.25L136.93,167.84L138.15,168.26L139.37,168.33L140.6,167.68L141.82,167.38L143.04,166.74L144.26,166.29L145.48,164.98L146.7,164.63L147.92,163.55L149.14,162.51L150.36,161.27L151.59,160.28L152.81,158.76L154.03,157.38L155.25,156.34L156.47,155.06L157.69,153.49L158.91,152.68L160.13,151.5L161.35,149.69L162.58,148.57L163.8,147.16L165.02,146.2L166.24,144.55L167.46,143.72L168.68,142.12L169.9,140.73L171.12,138.72L172.34,137.25L173.57,135.86L174.79,133.87L176.01,131.37L177.23,129.47L178.45,127.83L179.67,125.31L180.89,123.24L182.11,120.66L183.33,118.69L184.56,115.73L185.78,113.69L187,111.17L188.22,109.15L189.44,107.45L190.66,104.98L191.88,103.23L193.1,101.03L194.32,99.516L195.55,98.64L196.77,96.873L197.99,96.38L199.21,95.334L200.43,95.072L201.65,95.041L202.87,94.513L204.09,95.189L205.31,94.789L206.54,95.831L207.76,96.929L208.98,98.124L210.2,99.121L211.42,100.45L212.64,102.06L213.86,104.57L215.08,106.22L216.3,108.23L217.52,110.07L218.75,112.04L219.97,113.79L221.19,116.24L222.41,117.5L223.63,119.66L224.85,121.85L226.07,123.74L227.29,125.08L228.51,126.37L229.74,127.59L230.96,128.3L232.18,129.13L233.4,129.61L234.62,130.18L235.84,130.37L237.06,130.04L238.28,129.81L239.5,128.69L240.73,127.44L241.95,126.71L243.17,125.08L244.39,123.45L245.61,121.82L246.83,119.33L248.05,117.7L249.27,115.54L250.49,112.9L251.72,110.81L252.94,108.76L254.16,106.41L255.38,104.29L256.6,102.68L257.82,100.75L259.04,99.714L260.26,98.769L261.48,97.745L262.71,97.979L263.93,97.542L265.15,97.796L266.37,98.252L267.59,99.511L268.81,100.95L270.03,102.09L271.25,104.27L272.47,106.88L273.7,109.07L274.92,111.36L276.14,114.8L277.36,117.54L278.58,121.07L279.8,123.93L281.02,127.31L282.24,130.47L283.46,133.42" style="fill:none;stroke:#6B7A97" />
<path d="M40.465,105.58L41.686,106.08L42.907,106.4L44.128,106.23L45.349,106.73L46.57,106.6L47.791,106.22L49.013,105.8L50.234,105.91L51.455,105.77L52.676,105.22L53.897,104.5L55.118,104.88L56.339,104.95L57.56,104.54L58.781,104.73L60.003,105.01L61.224,105.47L62.445,105.87L63.666,106.79L64.887,107.74L66.108,109.16L67.329,110.07L68.55,111.55L69.771,113.48L70.992,115.95L72.214,117.29L73.435,119.46L74.656,121.45L75.877,124.07L77.098,126.05L78.319,128.27L79.54,130.31L80.761,132.22L81.982,134.03L83.203,135.4L84.425,137.4L85.646,139.35L86.867,140.99L88.088,141.71L89.309,142.83L90.53,143.72L91.751,145.11L92.972,145.9L94.193,146.86L95.415,147.31L96.636,148.32L97.857,148.79L99.078,149.27L100.3,150.11L101.52,150.27L102.74,150.38L103.96,150.83L105.18,151.02L106.4,151.44L107.63,151.43L108.85,151.37L110.07,151.4L111.29,151.27L112.51,150.71L113.73,150.31L114.95,149.29L116.17,149.53L117.39,148.81L118.62,148.44L119.84,148.07L121.06,148.13L122.28,148.04L123.5,147.68L124.72,147.65L125.94,148.01L127.16,147.98L128.38,148.53L129.61,149.17L130.83,150.27L132.05,150.74L133.27,151.94L134.49,153.31L135.71,154.67L136.93,155.69L138.15,156.92L139.37,157.9L140.6,158.61L141.82,160.08L143.04,160.59L144.26,160.74L145.48,161.34L146.7,161.48L147.92,161.31L149.14,160.19L150.36,159.7L151.59,158.13L152.81,157.42L154.03,155.88L155.25,154.08L156.47,152.75L157.69,150.52L158.91,148.76L160.13,146.96L161.35,145.38L162.58,143.17L163.8,141.79L165.02,140.54L166.24,139.14L167.46,138.58L168.68,138.76L169.9,138.25L171.12,138.18L172.34,139.44L173.57,139.79L174.79,141.5L176.01,143.04L177.23,145.02L178.45,147.44L179.67,149.48L180.89,152.05L182.11,154.48L183.33,156.84L184.56,160.18L185.78,163.26L187,165.68L188.22,167.22L189.44,169.77L190.66,171.76L191.88,173.73L193.1,175.19L194.32,176.47L195.55,177.56L196.77,178.57L197.99,178.08L199.21,178.78L200.43,177.94L201.65,177.36L202.87,176.3L204.09,175.3L205.31,172.87L206.54,170.72L207.76,168.61L208.98,166.47L210.2,163.21L211.42,160.6L212.64,157.58L213.86,154.1L215.08,151L216.3,147.63L217.52,144.41L218.75,140.08L219.97,136.9L221.19,133.67L222.41,130.27L223.63,127.28L224.85,123.66L226.07,120.82L227.29,117.82L228.51,114.81L229.74,112.2L230.96,109.36L232.18,106.78L233.4,105.28L234.62,103.29L235.84,101.51L237.06,101L238.28,100.24L239.5,99.269L240.73,99.198L241.95,99.627L243.17,100.04L244.39,100.85L245.61,102.39L246.83,103.13L248.05,105.5L249.27,106.88L250.49,108.75L251.72,111.44L252.94,114L254.16,116.24L255.38,118.49L256.6,120.89L257.82,123.53L259.04,125.38L260.26,127.21L261.48,129.08L262.71,131.21L263.93,132.56L265.15,133.81L266.37,134.73L267.59,135.53L268.81,136.21L270.03,136.09L271.25,136.67L272.47,136.47L273.7,136.37L274.92,135.89L276.14,135.36L277.36,133.97L278.58,132.79L279.8,131.97L281.02,130.56L282.24,128.84L283.46,128.21" style="fill:none;stroke:#A95759" />
<path d="M40.465,130L41.686,128.38L42.907,126.82L44.128,125.22L45.349,123.68L46.57,122.35L47.791,120.55L49.013,118.76L50.234,116.64L51.455,114.89L52.676,113.08L53.897,111.14L55.118,109.2L56.339,106.79L57.56,104.8L58.781,103.42L60.003,101.86L61.224,100.22L62.445,98.341L63.666,97.361L64.887,95.727L66.108,94.792L67.329,94.425L68.55,93.434L69.771,92.697L70.992,92.457L72.214,92.774L73.435,92.401L74.656,93.694L75.877,93.956L77.098,94.863L78.319,95.129L79.54,96.887L80.761,97.901L81.982,99.344L83.203,100.92L84.425,102.42L85.646,104.17L86.867,106.26L88.088,108L89.309,109.43L90.53,110.28L91.751,112.31L92.972,112.94L94.193,114.61L95.415,115.56L96.636,116.55L97.857,116.55L99.078,116.87L100.3,117.18L101.52,116.88L102.74,116.19L103.96,115.76L105.18,114.93L106.4,113.81L107.63,113L108.85,111.73L110.07,110.22L111.29,109.12L112.51,108.07L113.73,105.97L114.95,104.72L116.17,103.94L117.39,103.26L118.62,102.86L119.84,101.96L121.06,102.2L122.28,102.45L123.5,102.72L124.72,102.41L125.94,103.57L127.16,104.66L128.38,105.69L129.61,106.76L130.83,108.18L132.05,109.42L133.27,111.01L134.49,112.1L135.71,113.3L136.93,115.25L138.15,116.52L139.37,117.34L140.6,118.87L141.82,120.2L143.04,120.8L144.26,122.26L145.48,122.35L146.7,123.45L147.92,123.89L149.14,124.44L150.36,125.07L151.59,125.92L152.81,126.3L154.03,126.53L155.25,127.2L156.47,127.37L157.69,127.65L158.91,127.21L160.13,128.03L161.35,127.59L162.58,127.44L163.8,126.85L165.02,125.9L166.24,125.49L167.46,124.61L168.68,123.53L169.9,122.1L171.12,120.13L172.34,118.31L173.57,117.21L174.79,115.22L176.01,113.26L177.23,110.63L178.45,108.51L179.67,107.14L180.89,104.44L182.11,103.41L183.33,100.62L184.56,99.204L185.78,98.15L187,96.998L188.22,96.106L189.44,95.529L190.66,95.872L191.88,95.21L193.1,95.68L194.32,96.887L195.55,98.181L196.77,99.165L197.99,101.13L199.21,103.38L200.43,105.24L201.65,107.72L202.87,110.14L204.09,112.58L205.31,115.34L206.54,117.27L207.76,119.32L208.98,121.7L210.2,124.35L211.42,125.82L212.64,127.08L213.86,129.04L215.08,129.75L216.3,130.13L217.52,130.56L218.75,131.06L219.97,130.76L221.19,131.21L222.41,130.79L223.63,130.66L224.85,129.91L226.07,129.47L227.29,129.02L228.51,128.98L229.74,128.65L230.96,128.07L232.18,128.6L233.4,128.38L234.62,128.38L235.84,127.95L237.06,128.83L238.28,129.13L239.5,129.54L240.73,130.26L241.95,130.35L243.17,130.19L244.39,130.48L245.61,130.76L246.83,130.74L248.05,130.52L249.27,129.69L250.49,128.99L251.72,128.07L252.94,127.02L254.16,125.27L255.38,123.32L256.6,121.19L257.82,118.91L259.04,117.43L260.26,114.62L261.48,111.88L262.71,109.14L263.93,106.19L265.15,103.34L266.37,100.91L267.59,97.888L268.81,96.173L270.03,93.239L271.25,91.599L272.47,89.24L273.7,88.499L274.92,86.735L276.14,85.878L277.36,85.058L278.58,84.864L279.8,85.171L281.02,85.508L282.24,85.727L283.46,86.481" style="fill:none;stroke:#0480F5" />
<path d="M40.465,151.84L41.686,153.62L42.907,154.39L44.128,155.98L45.349,156.87L46.57,157.93L47.791,158.6L49.013,159.03L50.234,159.28L51.455,159.49L52.676,158.8L53.897,158.25L55.118,156.81L56.339,155.49L57.56,153.44L58.781,151.64L60.003,148.93L61.224,146.45L62.445,143.54L63.666,140.22L64.887,136.79L66.108,132.67L67.329,129.2L68.55,124.85L69.771,121.5L70.992,117.89L72.214,114.21L73.435,111.62L74.656,108.22L75.877,105.25L77.098,102.56L78.319,100.72L79.54,99.172L80.761,97.862L81.982,96.399L83.203,95.089L84.425,94.731L85.646,94.48L86.867,94.253L88.088,94.413L89.309,94.646L90.53,94.851L91.751,95.641L92.972,95.663L94.193,95.695L95.415,96.249L96.636,96.465L97.857,97.48L99.078,97.174L100.3,97.636L101.52,97.687L102.74,97.556L103.96,97.343L105.18,97.421L106.4,97.103L107.63,96.903L108.85,96.906L110.07,96.593L111.29,96.597L112.51,96.434L113.73,96.04L114.95,95.938L116.17,95.38L117.39,94.614L118.62,94.483L119.84,94.094L121.06,93.073L122.28,92.834L123.5,91.826L124.72,90.757L125.94,90.106L127.16,88.259L128.38,87.584L129.61,86.099L130.83,84.467L132.05,83.094L133.27,81.514L134.49,79.475L135.71,77.782L136.93,76.131L138.15,74.076L139.37,72.855L140.6,71.324L141.82,70.813L143.04,69.423L144.26,68.179L145.48,68.115L146.7,67.418L147.92,68.042L149.14,68.024L150.36,68.843L151.59,69.726L152.81,71.377L154.03,72.977L155.25,74.881L156.47,76.91L157.69,78.903L158.91,81.925L160.13,84.62L161.35,87.09L162.58,90.26L163.8,92.986L165.02,96.309L166.24,99.992L167.46,102.82L168.68,105.9L169.9,109.03L171.12,112.26L172.34,115.58L173.57,119.43L174.79,122.88L176.01,126.02L177.23,129.11L178.45,132.25L179.67,135.61L180.89,139.26L182.11,142.97L183.33,146.32L184.56,149.58L185.78,152.55L187,155.5L188.22,158.69L189.44,161.22L190.66,164.47L191.88,166.67L193.1,168.4L194.32,170.01L195.55,172L196.77,172.46L197.99,173.45L199.21,172.83L200.43,172.69L201.65,171.74L202.87,170.54L204.09,169.15L205.31,167.11L206.54,164.74L207.76,161.6L208.98,158.77L210.2,155.13L211.42,151.18L212.64,147L213.86,143.21L215.08,138.42L216.3,133.43L217.52,129.23L218.75,124.88L219.97,120.14L221.19,115.17L222.41,111.39L223.63,106.68L224.85,102.27L226.07,98.794L227.29,95.391L228.51,92.559L229.74,89.361L230.96,86.67L232.18,84.422L233.4,82.882L234.62,81.519L235.84,80.644L237.06,80.078L238.28,79.652L239.5,80.322L240.73,81.181L241.95,81.963L243.17,83.592L244.39,84.883L245.61,87.624L246.83,89.789L248.05,92.396L249.27,95.507L250.49,98.897L251.72,101.92L252.94,105.65L254.16,109.28L255.38,113.05L256.6,116.91L257.82,120.38L259.04,124.17L260.26,128.22L261.48,130.94L262.71,134.34L263.93,137.26L265.15,140.07L266.37,143.05L267.59,145.26L268.81,147.59L270.03,149.79L271.25,150.86L272.47,151.6L273.7,153.03L274.92,153.55L276.14,153.56L277.36,153.4L278.58,153.15L279.8,152.28L281.02,150.84L282.24,150.17L283.46,148.75" style="fill:none;stroke:#A01325" />
<path d="M40.465,122.3L41.686,121.58L42.907,119.5L44.128,118.26L45.349,116.81L46.57,115.4L47.791,114.06L49.013,112.92L50.234,112.29L51.455,111.13L52.676,110.59L53.897,110.18L55.118,110.07L56.339,109.82L57.56,109.38L58.781,109.69L60.003,110.81L61.224,110.97L62.445,111.34L63.666,111.58L64.887,111.91L66.108,113.16L67.329,113.86L68.55,113.91L69.771,114.09L70.992,114L72.214,113.85L73.435,113.59L74.656,114.39L75.877,114.42L77.098,113.57L78.319,113.35L79.54,112.75L80.761,112.31L81.982,112L83.203,111.41L84.425,111.16L85.646,111.01L86.867,110.53L88.088,110.33L89.309,110.4L90.53,110.65L91.751,110.95L92.972,110.59L94.193,110.9L95.415,111.37L96.636,112.19L97.857,111.95L99.078,113.02L100.3,113.35L101.52,113.48L102.74,113.88L103.96,114.31L105.18,114.55L106.4,115L107.63,114.82L108.85,114.81L110.07,114.57L111.29,114.81L112.51,114.29L113.73,113.9L114.95,113.77L116.17,112.89L117.39,112.59L118.62,111.12L119.84,110.63L121.06,109.5L122.28,107.9L123.5,107.28L124.72,106.36L125.94,105.54L127.16,104.14L128.38,103.84L129.61,102.49L130.83,102.49L132.05,101.54L133.27,100.89L134.49,101.08L135.71,100.99L136.93,100.99L138.15,101.52L139.37,102.44L140.6,102.89L141.82,102.87L143.04,104.36L144.26,105L145.48,105.91L146.7,106.62L147.92,107.47L149.14,108.4L150.36,108.66L151.59,110.06L152.81,109.82L154.03,110.27L155.25,110.56L156.47,110.8L157.69,110.12L158.91,110.11L160.13,109.63L161.35,109.24L162.58,108.16L163.8,108.29L165.02,107.6L166.24,107.45L167.46,106.81L168.68,106.54L169.9,106.17L171.12,106.22L172.34,106.37L173.57,107.12L174.79,106.76L176.01,107.84L177.23,109.49L178.45,109.89L179.67,111.23L180.89,112.45L182.11,114.2L183.33,114.83L184.56,117.36L185.78,118.38L187,119.82L188.22,121.54L189.44,122.36L190.66,124.27L191.88,125.28L193.1,126.24L194.32,126.82L195.55,127.44L196.77,128L197.99,128.02L199.21,127.87L200.43,128.04L201.65,127.25L202.87,126.02L204.09,124.86L205.31,124.13L206.54,122.65L207.76,121.27L208.98,119.6L210.2,118.09L211.42,115.98L212.64,114.38L213.86,112.08L215.08,109.99L216.3,107.99L217.52,106.31L218.75,104.13L219.97,102.76L221.19,100.82L222.41,99.603L223.63,97.543L224.85,96.39L226.07,95.499L227.29,94.675L228.51,93.593L229.74,93.63L230.96,92.845L232.18,93.446L233.4,93.625L234.62,94.15L235.84,95.443L237.06,96.249L238.28,96.832L239.5,98.836L240.73,100.05L241.95,102.16L243.17,104.08L244.39,106.03L245.61,108.75L246.83,111.02L248.05,112.94L249.27,116.22L250.49,118.41L251.72,120.19L252.94,123.03L254.16,125.4L255.38,128.28L256.6,131.03L257.82,133.52L259.04,135.94L260.26,138.11L261.48,139.82L262.71,142.1L263.93,143.78L265.15,145.75L266.37,147.27L267.59,148.62L268.81,149.05L270.03,150.42L271.25,150.94L272.47,151.07L273.7,150.98L274.92,151.19L276.14,150.3L277.36,149.53L278.58,148.12L279.8,147.32L281.02,145.75L282.24,143.33L283.46,141.62" style="fill:none;stroke:#EBAC4B" />
<path d="M40.465,132.54L41.686,132.28L42.907,132.19L44.128,132.29L45.349,132.49L46.57,131.82L47.791,132.5L49.013,132.8L50.234,132.93L51.455,133.02L52.676,133.17L53.897,133.1L55.118,133.14L56.339,132.6L57.56,131.97L58.781,131.32L60.003,130.54L61.224,130.04L62.445,128.45L63.666,127.33L64.887,125.83L66.108,123.88L67.329,122.05L68.55,119.3L69.771,117.31L70.992,114.27L72.214,111.51L73.435,108.56L74.656,105.26L75.877,101.65L77.098,98.047L78.319,94.471L79.54,90.557L80.761,87.033L81.982,82.692L83.203,78.569L84.425,74.397L85.646,70.575L86.867,67.088L88.088,63.103L89.309,59.286L90.53,56.268L91.751,53.301L92.972,50.304L94.193,47.9L95.415,45.671L96.636,43.958L97.857,42.902L99.078,41.871L100.3,40.517L101.52,40.209L102.74,40.597L103.96,40.982L105.18,41.293L106.4,42.636L107.63,43.7L108.85,45.579L110.07,46.962L111.29,48.423L112.51,50.684L113.73,53.001L114.95,55.965L116.17,58.027L117.39,60.764L118.62,63.645L119.84,66.348L121.06,69.675L122.28,72.755L123.5,76.101L124.72,79.656L125.94,83.008L127.16,86.785L128.38,90.518L129.61,94.243L130.83,98.39L132.05,102.25L133.27,106.48L134.49,110.2L135.71,113.95L136.93,117.96L138.15,122.05L139.37,125.87L140.6,129.51L141.82,133.46L143.04,136.21L144.26,138.65L145.48,140.95L146.7,142.92L147.92,144.54L149.14,145.22L150.36,146.34L151.59,146.47L152.81,146.25L154.03,144.72L155.25,143.83L156.47,141.76L157.69,139.55L158.91,136.02L160.13,132.8L161.35,129.5L162.58,125.46L163.8,120.93L165.02,117.03L166.24,112.71L167.46,108.36L168.68,104.15L169.9,99.876L171.12,96.66L172.34,92.512L173.57,89.581L174.79,85.998L176.01,83.791L177.23,82.066L178.45,80.05L179.67,78.589L180.89,77.717L182.11,77.47L183.33,76.913L184.56,77.13L185.78,77.96L187,78.773L188.22,79.622L189.44,81.013L190.66,83.085L191.88,84.713L193.1,86.104L194.32,88.432L195.55,89.398L196.77,92.16L197.99,94.109L199.21,96.11L200.43,98.255L201.65,100.48L202.87,101.98L204.09,103.63L205.31,105.92L206.54,108.1L207.76,110.18L208.98,112.3L210.2,114.06L211.42,116.12L212.64,117.91L213.86,119.48L215.08,121.78L216.3,123.22L217.52,125.91L218.75,127.96L219.97,129.76L221.19,131.69L222.41,133.32L223.63,135.46L224.85,136.44L226.07,137.92L227.29,139.29L228.51,140.86L229.74,141.81L230.96,142.69L232.18,143.79L233.4,143.67L234.62,144.07L235.84,143.98L237.06,144.14L238.28,143.79L239.5,143.13L240.73,142.15L241.95,141.26L243.17,139.79L244.39,137.73L245.61,136.51L246.83,135.25L248.05,132.63L249.27,130.71L250.49,128.59L251.72,126.65L252.94,124.02L254.16,122.45L255.38,120.29L256.6,117.59L257.82,116.22L259.04,114.87L260.26,114.09L261.48,112.8L262.71,112.86L263.93,112.34L265.15,112.49L266.37,112.39L267.59,113.87L268.81,115.47L270.03,117.56L271.25,119.01L272.47,121.49L273.7,124.57L274.92,127.27L276.14,130.86L277.36,133.95L278.58,136.94L279.8,140.03L281.02,143.8L282.24,147.22L283.46,150.09" style="fill:none;stroke:#310E4C" />
<path d="M40.465,111.88L41.686,112.65L42.907,113.01L44.128,113.7L45.349,113.7L46.57,114.34L47.791,114.7L49.013,115.39L50.234,115.72L51.455,116.93L52.676,117.85L53.897,118.99L55.118,120.18L56.339,120.39L57.56,122.61L58.781,123.42L60.003,124.52L61.224,125.63L62.445,126.68L63.666,127.54L64.887,128.01L66.108,127.92L67.329,128.7L68.55,128.55L69.771,128.47L70.992,127.75L72.214,127.66L73.435,126.77L74.656,125.93L75.877,124.73L77.098,123L78.319,121.89L79.54,119.73L80.761,118.64L81.982,116.57L83.203,114.88L84.425,113.28L85.646,111.41L86.867,109.82L88.088,108.3L89.309,106.81L90.53,105.98L91.751,104.83L92.972,103.81L94.193,103.51L95.415,103.47L96.636,103.5L97.857,103.96L99.078,104.48L100.3,105.43L101.52,105.78L102.74,106.88L103.96,108.29L105.18,109.57L106.4,110.93L107.63,112.95L108.85,114.55L110.07,116.17L111.29,118.4L112.51,119.91L113.73,122.13L114.95,123.46L116.17,125.03L117.39,126.72L118.62,128.3L119.84,129.84L121.06,131.3L122.28,132.78L123.5,132.76L124.72,133.62L125.94,134.43L127.16,134.73L128.38,134.61L129.61,134.34L130.83,134.29L132.05,133.45L133.27,133.61L134.49,132.75L135.71,131.28L136.93,130.57L138.15,128.95L139.37,128.56L140.6,127.13L141.82,126.24L143.04,124.99L144.26,124.01L145.48,122.85L146.7,122.33L147.92,120.55L149.14,120.06L150.36,119.13L151.59,118.78L152.81,118.32L154.03,117.84L155.25,117.47L156.47,116.4L157.69,117.03L158.91,116.61L160.13,116.3L161.35,116.56L162.58,116.08L163.8,116.27L165.02,116.57L166.24,116.61L167.46,117.04L168.68,116.75L169.9,117.53L171.12,117.86L172.34,117.45L173.57,117.51L174.79,118.18L176.01,117.92L177.23,118.28L178.45,118.3L179.67,117.65L180.89,117.59L182.11,117.12L183.33,117.05L184.56,116.48L185.78,115.86L187,114.6L188.22,114.11L189.44,113.4L190.66,112.72L191.88,112.41L193.1,111.26L194.32,110.89L195.55,109.42L196.77,109.28L197.99,109.12L199.21,108.4L200.43,108.41L201.65,107.67L202.87,107.98L204.09,107.39L205.31,107.52L206.54,107.96L207.76,107.47L208.98,108.24L210.2,108.27L211.42,108.91L212.64,108.98L213.86,109.73L215.08,109.93L216.3,109.81L217.52,110.37L218.75,111.46L219.97,111.51L221.19,111.94L222.41,112.23L223.63,112.26L224.85,112.56L226.07,113.18L227.29,113.09L228.51,113.33L229.74,113.6L230.96,113.22L232.18,113.09L233.4,113.18L234.62,113.87L235.84,113.28L237.06,113.47L238.28,113.21L239.5,113.57L240.73,113.51L241.95,114.14L243.17,114.03L244.39,114.93L245.61,115.7L246.83,116.38L248.05,117.23L249.27,117.84L250.49,119.3L251.72,120.69L252.94,121.51L254.16,122.81L255.38,124.54L256.6,126.23L257.82,127.43L259.04,128.76L260.26,130.7L261.48,131.98L262.71,133.69L263.93,135.16L265.15,136.7L266.37,137.97L267.59,139.53L268.81,140.97L270.03,142.5L271.25,143.46L272.47,145.16L273.7,145.96L274.92,146.7L276.14,147.8L277.36,147.89L278.58,148.36L279.8,148.63L281.02,148.69L282.24,148.01L283.46,148.44" style="fill:none;stroke:#49497F" />
<path d="M40.465,151.33L41.686,150.28L42.907,148.92L44.128,147.47L45.349,145.82L46.57,144.48L47.791,143.39L49.013,141.5L50.234,140.67L51.455,139.15L52.676,137.53L53.897,136.22L55.118,135.17L56.339,133.22L57.56,131.96L58.781,130.73L60.003,129.09L61.224,127.44L62.445,125.99L63.666,124.91L64.887,123.24L66.108,122.64L67.329,120.87L68.55,120.21L69.771,118.61L70.992,117.78L72.214,117.24L73.435,116.79L74.656,115.92L75.877,115.46L77.098,115.16L78.319,114.88L79.54,115.03L80.761,114.72L81.982,114.51L83.203,114.18L84.425,114.01L85.646,113.9L86.867,113.44L88.088,113.06L89.309,112.8L90.53,112.47L91.751,112.1L92.972,111.16L94.193,110.58L95.415,110.15L96.636,109.07L97.857,108.19L99.078,106.95L100.3,106.13L101.52,105.75L102.74,105.28L103.96,104.66L105.18,104.07L106.4,103.21L107.63,102.82L108.85,102.37L110.07,102.54L111.29,102.43L112.51,102.32L113.73,102.77L114.95,103.68L116.17,103.81L117.39,104.7L118.62,105.93L119.84,107.28L121.06,108.2L122.28,109.92L123.5,110.67L124.72,112.57L125.94,114.28L127.16,115.18L128.38,117.13L129.61,118.3L130.83,119.7L132.05,121.38L133.27,122.63L134.49,124.16L135.71,125.51L136.93,126.85L138.15,127.78L139.37,128.2L140.6,129.33L141.82,130.69L143.04,130.81L144.26,132.03L145.48,133.04L146.7,133.22L147.92,134.17L149.14,134.44L150.36,134.15L151.59,134.72L152.81,135.08L154.03,134.93L155.25,135.2L156.47,135.03L157.69,135.01L158.91,135.46L160.13,135.51L161.35,135.64L162.58,135.05L163.8,135.48L165.02,135.02L166.24,135.25L167.46,135.85L168.68,136.26L169.9,136.04L171.12,136.1L172.34,136.33L173.57,136.26L174.79,136.89L176.01,136.81L177.23,136.67L178.45,136.94L179.67,135.83L180.89,135.57L182.11,135.04L183.33,134.08L184.56,133.72L185.78,132.38L187,130.64L188.22,129.3L189.44,127.53L190.66,126.42L191.88,124.13L193.1,122.61L194.32,120.18L195.55,117.85L196.77,115.65L197.99,113.29L199.21,111.5L200.43,108.68L201.65,106.27L202.87,104.2L204.09,102.5L205.31,100.54L206.54,98.358L207.76,97.126L208.98,95.478L210.2,93.892L211.42,92.719L212.64,91.801L213.86,90.945L215.08,90.128L216.3,90.601L217.52,89.96L218.75,90.04L219.97,91.178L221.19,91.053L222.41,91.863L223.63,92.986L224.85,95.035L226.07,96.62L227.29,98.808L228.51,101.33L229.74,104.12L230.96,106.9L232.18,110.45L233.4,113.34L234.62,117L235.84,120.49L237.06,124.2L238.28,127.86L239.5,131L240.73,134.91L241.95,138.82L243.17,141.87L244.39,144.48L245.61,147.55L246.83,150.14L248.05,153.07L249.27,155.2L250.49,156.55L251.72,157.74L252.94,158.51L254.16,159.71L255.38,160.06L256.6,160.19L257.82,160.53L259.04,159.62L260.26,158.57L261.48,158.18L262.71,156.77L263.93,155.2L265.15,153.89L266.37,152.48L267.59,149.97L268.81,148.15L270.03,146.22L271.25,144.28L272.47,141.9L273.7,140.31L274.92,137.75L276.14,136.17L277.36,133.85L278.58,131.42L279.8,129.97L281.02,127.65L282.24,125.93L283.46,123.77" style="fill:none;stroke:#D72FEC" />
<path d="M40.465,102.38L41.686,105.13L42.907,108.01L44.128,111.37L45.349,114.88L46.57,118.32L47.791,121.43L49.013,125.91L50.234,129.33L51.455,133.18L52.676,136.86L53.897,140.42L55.118,143.63L56.339,146.92L57.56,150.52L58.781,152.95L60.003,155.74L61.224,157.91L62.445,159.95L63.666,161.91L64.887,163.3L66.108,164.52L67.329,165.99L68.55,166.94L69.771,167.83L70.992,168.22L72.214,168.99L73.435,169.52L74.656,169.19L75.877,169.77L77.098,169.28L78.319,170.09L79.54,169.92L80.761,169.71L81.982,169.67L83.203,169.66L84.425,169.7L85.646,169.35L86.867,169.81L88.088,169.61L89.309,169.57L90.53,170.1L91.751,169.74L92.972,169.69L94.193,169.75L95.415,170L96.636,169.85L97.857,170.44L99.078,169.53L100.3,169.7L101.52,169.44L102.74,169.26L103.96,168.76L105.18,168.23L106.4,167.48L107.63,166.92L108.85,166.69L110.07,165.64L111.29,165.39L112.51,164.68L113.73,163.88L114.95,163.62L116.17,163.19L117.39,162.35L118.62,161.59L119.84,161.13L121.06,161.08L122.28,161.29L123.5,160.97L124.72,160.82L125.94,160.8L127.16,161.27L128.38,161.29L129.61,161.45L130.83,162.36L132.05,163L133.27,163.7L134.49,163.88L135.71,165.07L136.93,165.86L138.15,166.67L139.37,167.4L140.6,168.41L141.82,169.19L143.04,169.46L144.26,170.39L145.48,171.48L146.7,171.42L147.92,171.38L149.14,171.98L150.36,171.48L151.59,171.39L152.81,171.38L154.03,170.61L155.25,169.91L156.47,169.43L157.69,167.82L158.91,166.83L160.13,165.17L161.35,164.17L162.58,162.34L163.8,160.94L165.02,158.97L166.24,157.97L167.46,155.65L168.68,153.87L169.9,151.78L171.12,150.09L172.34,148.22L173.57,146.44L174.79,144.47L176.01,143.46L177.23,141.63L178.45,140.47L179.67,139.38L180.89,138.08L182.11,137.35L183.33,136.64L184.56,136.82L185.78,135.71L187,135.26L188.22,136.46L189.44,136.08L190.66,136.3L191.88,136.64L193.1,136.92L194.32,137.2L195.55,137.65L196.77,138.15L197.99,137.98L199.21,139.05L200.43,138.76L201.65,138.88L202.87,138.37L204.09,137.69L205.31,136.84L206.54,136.15L207.76,134.77L208.98,132.98L210.2,131.03L211.42,129.02L212.64,126.8L213.86,124.03L215.08,122.29L216.3,119.43L217.52,117.05L218.75,114.07L219.97,111.03L221.19,108.65L222.41,105.71L223.63,103.03L224.85,100.95L226.07,98.378L227.29,95.805L228.51,94.253L229.74,91.414L230.96,89.617L232.18,88.157L233.4,85.87L234.62,84.196L235.84,81.638L237.06,80.638L238.28,78.815L239.5,77.144L240.73,74.463L241.95,73.534L243.17,71.394L244.39,69.739L245.61,67.156L246.83,65.741L248.05,63.809L249.27,61.677L250.49,60.1L251.72,58.132L252.94,56.781L254.16,55.582L255.38,54.885L256.6,54.095L257.82,53.337L259.04,53.105L260.26,53.108L261.48,53.833L262.71,54.582L263.93,55.876L265.15,56.764L266.37,58.577L267.59,60.745L268.81,63.473L270.03,66.015L271.25,68.474L272.47,71.176L273.7,74.537L274.92,77.474L276.14,80.515L277.36,83.639L278.58,87.079L279.8,90.447L281.02,93.049L282.24,96.299L283.46,99.227" style="fill:none;stroke:#4E054F" />
<path d="M40.465,103.92L41.686,105.39L42.907,106.8L44.128,107.99L45.349,109.5L46.57,109.82L47.791,111.51L49.013,111.94L50.234,113.04L51.455,113.61L52.676,113.96L53.897,114.32L55.118,114.47L56.339,114.52L57.56,114.07L58.781,113.52L60.003,113.57L61.224,113.4L62.445,113.15L63.666,112.14L64.887,112.2L66.108,111.77L67.329,111.18L68.55,111.26L69.771,111.86L70.992,111.36L72.214,112.19L73.435,112.33L74.656,112.84L75.877,113.96L77.098,115.24L78.319,116.54L79.54,118.09L80.761,119.67L81.982,121.9L83.203,124.1L84.425,126.02L85.646,128.79L86.867,131.03L88.088,133.66L89.309,135.72L90.53,138.53L91.751,140.38L92.972,142.44L94.193,144.79L95.415,146.64L96.636,147.91L97.857,149.22L99.078,150.09L100.3,151.38L101.52,151.76L102.74,151.58L103.96,152.5L105.18,152.74L106.4,152.41L107.63,152.04L108.85,151.8L110.07,151.57L111.29,151.32L112.51,150.97L113.73,150.48L114.95,150.4L116.17,149.73L117.39,149.47L118.62,149.88L119.84,149.64L121.06,149.78L122.28,149.16L123.5,150.35L124.72,150.39L125.94,151.3L127.16,151.55L128.38,152.31L129.61,153L130.83,154.55L132.05,155.57L133.27,156.27L134.49,158.14L135.71,159.48L136.93,160.43L138.15,161.87L139.37,163.23L140.6,163.66L141.82,165.95L143.04,167.18L144.26,167.77L145.48,170.01L146.7,171.07L147.92,172.4L149.14,173.44L150.36,174.79L151.59,175.76L152.81,176.85L154.03,177.86L155.25,178.62L156.47,179.64L157.69,180.79L158.91,181.99L160.13,182.55L161.35,183.22L162.58,183.93L163.8,184.66L165.02,184.35L166.24,184.46L167.46,185.14L168.68,184.82L169.9,184.28L171.12,184.23L172.34,183.01L173.57,181.79L174.79,180.44L176.01,179.2L177.23,176.43L178.45,174.13L179.67,171.61L180.89,168.95L182.11,166.36L183.33,162.06L184.56,158.07L185.78,153.76L187,150.09L188.22,146.04L189.44,141.97L190.66,137.46L191.88,132.95L193.1,128.49L194.32,124.26L195.55,120.43L196.77,116.7L197.99,112.88L199.21,108.91L200.43,106.1L201.65,103.74L202.87,101.07L204.09,99.152L205.31,98.131L206.54,96.229L207.76,94.921L208.98,94.264L210.2,94.016L211.42,94.243L212.64,94.931L213.86,95.334L215.08,96.047L216.3,97.169L217.52,99.042L218.75,100.01L219.97,101.85L221.19,103.61L222.41,105.49L223.63,107.42L224.85,109.06L226.07,110.59L227.29,112.94L228.51,115.11L229.74,116.19L230.96,118.3L232.18,119.76L233.4,121.46L234.62,123.09L235.84,124.52L237.06,126.41L238.28,127.07L239.5,128.94L240.73,130.2L241.95,131.61L243.17,132.54L244.39,134.55L245.61,135.78L246.83,137.46L248.05,139.29L249.27,140.38L250.49,141.94L251.72,143.68L252.94,145.41L254.16,147.36L255.38,148.92L256.6,150.3L257.82,151.4L259.04,152.35L260.26,153.99L261.48,154.87L262.71,155.48L263.93,156.08L265.15,156.55L266.37,156.49L267.59,156.65L268.81,156.04L270.03,155.2L271.25,153.85L272.47,153.07L273.7,152.06L274.92,150.42L276.14,148.85L277.36,147.05L278.58,145.67L279.8,143.65L281.02,142.77L282.24,140.77L283.46,140.01" style="fill:none;stroke:#FE7AF0" />
<path d="M40.465,105.52L41.686,105.28L42.907,105.12L44.128,104.65L45.349,104.71L46.57,105.04L47.791,105.39L49.013,105.92L50.234,106.77L51.455,107.97L52.676,108.81L53.897,110.7L55.118,112.16L56.339,114.05L57.56,115.89L58.781,118.23L60.003,120.78L61.224,122.76L62.445,125.28L63.666,128.25L64.887,131.3L66.108,133.8L67.329,136.2L68.55,139.08L69.771,141.6L70.992,143.15L72.214,145.64L73.435,147.18L74.656,148.98L75.877,149.92L77.098,151.23L78.319,151.46L79.54,151.41L80.761,151.69L81.982,150.81L83.203,149.7L84.425,148.85L85.646,146.87L86.867,144.88L88.088,143.01L89.309,140.33L90.53,137.44L91.751,134.21L92.972,130.61L94.193,127.28L95.415,123.06L96.636,120.03L97.857,115.77L99.078,111.91L100.3,108.21L101.52,104.91L102.74,101.73L103.96,98.104L105.18,94.54L106.4,91.98L107.63,89.998L108.85,87.645L110.07,86.618L111.29,85.775L112.51,85.488L113.73,85.439L114.95,86.275L116.17,87.038L117.39,88.72L118.62,91.182L119.84,93.924L121.06,96.78L122.28,99.769L123.5,103.57L124.72,107.54L125.94,112.04L127.16,115.81L128.38,120.09L129.61,124.81L130.83,128.88L132.05,133.35L133.27,137.93L134.49,141.36L135.71,145.4L136.93,148.76L138.15,151.97L139.37,154.41L140.6,156.69L141.82,158.71L143.04,160.01L144.26,161.41L145.48,161.94L146.7,162.23L147.92,162.12L149.14,161.36L150.36,160.68L151.59,158.94L152.81,157.71L154.03,155.39L155.25,153.13L156.47,150.48L157.69,147.92L158.91,144.67L160.13,141.99L161.35,138.63L162.58,136.35L163.8,133.47L165.02,130.26L166.24,127.49L167.46,124.4L168.68,122.1L169.9,119.6L171.12,117.14L172.34,115.11L173.57,112.74L174.79,110.81L176.01,108.95L177.23,107.74L178.45,106.31L179.67,104.97L180.89,104.14L182.11,103.04L183.33,102.4L184.56,101.69L185.78,100.89L187,101.22L188.22,100.56L189.44,100.88L190.66,101.05L191.88,100.99L193.1,102.31L194.32,102.92L195.55,104.3L196.77,105.31L197.99,107.18L199.21,108.82L200.43,110.61L201.65,112.64L202.87,114.96L204.09,117.81L205.31,120.84L206.54,123.18L207.76,126.62L208.98,129.52L210.2,133.06L211.42,135.49L212.64,139.33L213.86,142.16L215.08,144.78L216.3,147.23L217.52,150.36L218.75,152.9L219.97,154.71L221.19,157.07L222.41,158.22L223.63,159.73L224.85,160.71L226.07,161.45L227.29,162.22L228.51,162.37L229.74,162.3L230.96,162.05L232.18,161.54L233.4,160.79L234.62,160.01L235.84,159.38L237.06,158.22L238.28,157.56L239.5,156.15L240.73,155.58L241.95,154.68L243.17,154.44L244.39,153.27L245.61,153.27L246.83,152.57L248.05,152.75L249.27,152.17L250.49,152.23L251.72,151.79L252.94,152.21L254.16,152.02L255.38,152.61L256.6,152.57L257.82,152.48L259.04,153.33L260.26,152.98L261.48,152.78L262.71,153.35L263.93,152.64L265.15,152.13L266.37,152.42L267.59,150.78L268.81,150.75L270.03,149.35L271.25,148.07L272.47,147.19L273.7,146.03L274.92,144.76L276.14,143.11L277.36,141.9L278.58,140.28L279.8,138.36L281.02,136.47L282.24,135.65L283.46,133.45" style="fill:none;stroke:#C10611" />
<path d="M40.465,126.98L41.686,127.77L42.907,128.28L44.128,128.22L45.349,128.2L46.57,128.29L47.791,127.82L49.013,128.14L50.234,127.06L51.455,126.63L52.676,125.8L53.897,125.57L55.118,124.85L56.339,124.01L57.56,123.28L58.781,122.58L60.003,122.18L61.224,121.64L62.445,120.95L63.666,121.23L64.887,120.92L66.108,120.51L67.329,120.97L68.55,120.85L69.771,121.44L70.992,121.17L72.214,122.07L73.435,122.96L74.656,123.44L75.877,123.64L77.098,123.92L78.319,124.44L79.54,124.76L80.761,125.89L81.982,125.15L83.203,126.13L84.425,126.66L85.646,126.48L86.867,126.77L88.088,127.28L89.309,126.86L90.53,127.15L91.751,126.68L92.972,126.84L94.193,126.23L95.415,126.92L96.636,126.48L97.857,126.58L99.078,126.65L100.3,126.8L101.52,126.7L102.74,126.31L103.96,126.3L105.18,126.9L106.4,127.19L107.63,127.6L108.85,127.03L110.07,127.89L111.29,127.76L112.51,127.91L113.73,127.74L114.95,127.84L116.17,127.96L117.39,127.69L118.62,127.43L119.84,127.6L121.06,126.96L122.28,126.38L123.5,125.82L124.72,124.81L125.94,124.32L127.16,123.7L128.38,122.71L129.61,122.04L130.83,121.4L132.05,120.6L133.27,119.68L134.49,119.29L135.71,118.88L136.93,118.93L138.15,118.46L139.37,118.08L140.6,118.15L141.82,118.84L143.04,118.6L144.26,119.23L145.48,119.59L146.7,120.61L147.92,120.74L149.14,121L150.36,121.84L151.59,122.58L152.81,123.27L154.03,124.16L155.25,124.64L156.47,125.21L157.69,124.94L158.91,124.88L160.13,124.65L161.35,124.97L162.58,124.11L163.8,123.59L165.02,122.81L166.24,122.18L167.46,121.58L168.68,120.23L169.9,119.36L171.12,118.3L172.34,116.81L173.57,115.69L174.79,114.4L176.01,112.51L177.23,111.6L178.45,110.48L179.67,108.5L180.89,106.83L182.11,105.48L183.33,104.47L184.56,102.96L185.78,102.14L187,100.7L188.22,99.949L189.44,98.125L190.66,97.31L191.88,96.726L193.1,95.663L194.32,94.69L195.55,94.239L196.77,93.929L197.99,92.761L199.21,92.317L200.43,91.739L201.65,91.357L202.87,91.478L204.09,92.012L205.31,91.751L206.54,91.826L207.76,92.048L208.98,92.544L210.2,93.677L211.42,94.348L212.64,94.96L213.86,95.915L215.08,96.682L216.3,97.105L217.52,98.947L218.75,99.133L219.97,100.65L221.19,101.2L222.41,102.51L223.63,102.91L224.85,103.44L226.07,104.17L227.29,104.49L228.51,104.89L229.74,104.43L230.96,104.42L232.18,104.02L233.4,103.91L234.62,103.07L235.84,102.54L237.06,101.74L238.28,100.99L239.5,100.2L240.73,99.129L241.95,98.158L243.17,97.428L244.39,97.158L245.61,96.442L246.83,95.66L248.05,95.557L249.27,95.426L250.49,95.499L251.72,95.792L252.94,95.894L254.16,96.805L255.38,97.413L256.6,98.943L257.82,99.318L259.04,101.01L260.26,102.08L261.48,103.92L262.71,105.58L263.93,107.21L265.15,109.54L266.37,111.24L267.59,113.43L268.81,115.36L270.03,117.81L271.25,119.39L272.47,120.86L273.7,122.77L274.92,124.52L276.14,126.11L277.36,127.68L278.58,129.09L279.8,130.38L281.02,131.43L282.24,132.32L283.46,133.7" style="fill:none;stroke:#456CFC" />
<path d="M40.465,124.64L41.686,125.87L42.907,126.19L44.128,126.42L45.349,127.06L46.57,127.38L47.791,127.2L49.013,127.09L50.234,127.39L51.455,126.58L52.676,126.83L53.897,126.77L55.118,126.18L56.339,126.23L57.56,124.89L58.781,124.59L60.003,124.66L61.224,123.28L62.445,123.09L63.666,122.33L64.887,121.32L66.108,121.21L67.329,119.56L68.55,119.57L69.771,119.02L70.992,117.99L72.214,117.79L73.435,116.82L74.656,116.65L75.877,116.75L77.098,116.25L78.319,116.79L79.54,116.57L80.761,117.28L81.982,118.27L83.203,118.88L84.425,119.85L85.646,121.33L86.867,122.71L88.088,123.99L89.309,126.15L90.53,128.03L91.751,129.66L92.972,131.66L94.193,133.46L95.415,135.78L96.636,137.57L97.857,139.25L99.078,141.09L100.3,142.53L101.52,144.55L102.74,145.12L103.96,146.3L105.18,146.67L106.4,147.42L107.63,147.62L108.85,146.95L110.07,147.05L111.29,146.59L112.51,146.01L113.73,145.02L114.95,143.48L116.17,142.09L117.39,140.7L118.62,139.24L119.84,136.95L121.06,135.64L122.28,133.24L123.5,131.34L124.72,129.44L125.94,127.53L127.16,125.62L128.38,123.18L129.61,121.57L130.83,120.03L132.05,118.47L133.27,117.43L134.49,116.14L135.71,114.74L136.93,114.19L138.15,113.5L139.37,112.56L140.6,111.6L141.82,111.45L143.04,110.54L144.26,110.19L145.48,109.93L146.7,108.96L147.92,108.98L149.14,108.55L150.36,107.48L151.59,106.7L152.81,105.67L154.03,104.87L155.25,103.74L156.47,103.32L157.69,102.58L158.91,101.24L160.13,100.57L161.35,99.753L162.58,99.387L163.8,98.16L165.02,98.098L166.24,97.815L167.46,97.892L168.68,98.639L169.9,99.022L171.12,99.581L172.34,100.8L173.57,101.75L174.79,103.34L176.01,104.74L177.23,106.89L178.45,108.7L179.67,111.15L180.89,113.19L182.11,116.06L183.33,118.16L184.56,120.55L185.78,123.16L187,126.4L188.22,128.42L189.44,131.59L190.66,134.19L191.88,136.6L193.1,139.73L194.32,142.43L195.55,144.51L196.77,147.78L197.99,150.14L199.21,152.75L200.43,155.9L201.65,158.57L202.87,161.28L204.09,163.55L205.31,166.31L206.54,168.65L207.76,170.69L208.98,172.78L210.2,174.78L211.42,176.13L212.64,177.65L213.86,178.62L215.08,179.05L216.3,179.2L217.52,179.44L218.75,178.72L219.97,177.97L221.19,176.39L222.41,175.37L223.63,173.81L224.85,171.57L226.07,169.35L227.29,167.38L228.51,165.02L229.74,162.73L230.96,160.23L232.18,157.22L233.4,155.51L234.62,153.98L235.84,151.87L237.06,150.64L238.28,149.52L239.5,148.76L240.73,148.65L241.95,147.94L243.17,149.2L244.39,149.44L245.61,151.12L246.83,151.98L248.05,153.55L249.27,156.06L250.49,157.26L251.72,159.62L252.94,161.56L254.16,163.05L255.38,165.04L256.6,166.56L257.82,167.89L259.04,168.7L260.26,169L261.48,169.35L262.71,170.06L263.93,169.05L265.15,168.29L266.37,166.82L267.59,165.46L268.81,163.05L270.03,160.72L271.25,158.26L272.47,156.13L273.7,152.65L274.92,149.25L276.14,145.78L277.36,142.93L278.58,140.29L279.8,136.53L281.02,133.62L282.24,130.03L283.46,127.23" style="fill:none;stroke:#BD30D6" />
<path d="M40.465,114.42L41.686,117.06L42.907,119.67L44.128,121.85L45.349,123.56L46.57,125.02L47.791,126.68L49.013,128.11L50.234,128.92L51.455,129.2L52.676,129.55L53.897,129.5L55.118,128.68L56.339,127.97L57.56,126.76L58.781,125.05L60.003,123.35L61.224,121.97L62.445,119.39L63.666,117.1L64.887,114.84L66.108,112.98L67.329,110.33L68.55,108.3L69.771,106.3L70.992,104.73L72.214,102.89L73.435,100.89L74.656,99.863L75.877,99.097L77.098,98.739L78.319,97.571L79.54,97.714L80.761,98.083L81.982,98.353L83.203,98.798L84.425,99.605L85.646,100.62L86.867,101.91L88.088,102.39L89.309,103.89L90.53,105.31L91.751,106.94L92.972,108.24L94.193,109.5L95.415,110.78L96.636,111.98L97.857,113.06L99.078,113.64L100.3,115.23L101.52,115.59L102.74,115.65L103.96,116.62L105.18,116.59L106.4,117.03L107.63,116.72L108.85,115.73L110.07,115.26L111.29,114.24L112.51,113.7L113.73,112.32L114.95,111.04L116.17,110.11L117.39,108.21L118.62,106.92L119.84,105.61L121.06,104.23L122.28,103.07L123.5,101.66L124.72,100.58L125.94,99.119L127.16,98.701L128.38,97.692L129.61,97.539L130.83,97.201L132.05,97.349L133.27,97.834L134.49,98.181L135.71,98.333L136.93,99.694L138.15,100.44L139.37,101.25L140.6,102.38L141.82,103.61L143.04,105.71L144.26,107.17L145.48,108.1L146.7,109.54L147.92,110.72L149.14,112.38L150.36,113.93L151.59,115.31L152.81,116.45L154.03,117.98L155.25,119.44L156.47,120.95L157.69,121.75L158.91,123.88L160.13,125L161.35,126.17L162.58,128.28L163.8,129.73L165.02,131.49L166.24,133.73L167.46,135.36L168.68,137.05L169.9,139.81L171.12,141.86L172.34,144.04L173.57,146.84L174.79,149.02L176.01,150.4L177.23,152.89L178.45,155.03L179.67,156.56L180.89,158.68L182.11,160.12L183.33,161.77L184.56,162.87L185.78,163.91L187,164.78L188.22,165.83L189.44,165.76L190.66,165.43L191.88,165.12L193.1,165.13L194.32,164.18L195.55,162.93L196.77,162.53L197.99,161.35L199.21,159.92L200.43,158.97L201.65,156.83L202.87,155.24L204.09,153.28L205.31,151.32L206.54,149.55L207.76,147.32L208.98,145.81L210.2,143.04L211.42,141.33L212.64,139.47L213.86,136.96L215.08,135.15L216.3,132.99L217.52,130.65L218.75,129.04L219.97,127.06L221.19,125.77L222.41,124.72L223.63,123.16L224.85,121.73L226.07,121.07L227.29,120.25L228.51,119.52L229.74,119.36L230.96,119.5L232.18,119.92L233.4,119.86L234.62,120.72L235.84,120.93L237.06,121.91L238.28,122.71L239.5,123.63L240.73,124.23L241.95,124.57L243.17,125.59L244.39,126.04L245.61,126.28L246.83,126.94L248.05,127.55L249.27,127.73L250.49,127.88L251.72,127.4L252.94,127.77L254.16,127.36L255.38,126.99L256.6,127.15L257.82,126.15L259.04,125.77L260.26,125.34L261.48,124.52L262.71,124.14L263.93,123.68L265.15,122.77L266.37,121.97L267.59,121.43L268.81,120.57L270.03,119.91L271.25,119.69L272.47,118.88L273.7,117.82L274.92,118.02L276.14,117.41L277.36,116.68L278.58,116.4L279.8,115.83L281.02,115.8L282.24,115.47L283.46,114.53" style="fill:none;stroke:#7D7AD1" />
<path d="M40.465,132.41L41.686,134.49L42.907,135.37L44.128,136.9L45.349,138.76L46.57,140.2L47.791,141.38L49.013,142.18L50.234,142.73L51.455,144.12L52.676,144.37L53.897,144.6L55.118,143.88L56.339,144.24L57.56,143.09L58.781,142.71L60.003,141.25L61.224,140.32L62.445,139.01L63.666,137.24L64.887,135.83L66.108,134.02L67.329,132.12L68.55,130.05L69.771,128.53L70.992,126.39L72.214,124.54L73.435,122.55L74.656,121.37L75.877,118.98L77.098,117.3L78.319,115.87L79.54,114.72L80.761,113.27L81.982,112.36L83.203,111.32L84.425,111.25L85.646,109.66L86.867,110.01L88.088,109.85L89.309,109.23L90.53,110.14L91.751,110.35L92.972,110.87L94.193,111.65L95.415,112.68L96.636,113.62L97.857,115.49L99.078,116.12L100.3,117.13L101.52,118.17L102.74,119.07L103.96,120.53L105.18,121.51L106.4,122.35L107.63,122.72L108.85,123.45L110.07,123.45L111.29,123.42L112.51,122.94L113.73,123.01L114.95,122.54L116.17,121.51L117.39,120.89L118.62,120.19L119.84,119.14L121.06,117.59L122.28,116.76L123.5,115.6L124.72,114.03L125.94,113.77L127.16,112.74L128.38,111.81L129.61,111.03L130.83,110.7L132.05,110.31L133.27,110.21L134.49,109.96L135.71,110.51L136.93,110.48L138.15,111.47L139.37,112.05L140.6,113.32L141.82,114.69L143.04,115.75L144.26,117.33L145.48,118.46L146.7,120.61L147.92,122.34L149.14,124.26L150.36,126.43L151.59,128.18L152.81,129.86L154.03,132.68L155.25,134.77L156.47,136.86L157.69,139.02L158.91,141.49L160.13,143.44L161.35,145.53L162.58,148.15L163.8,149.95L165.02,151.72L166.24,153.95L167.46,155.79L168.68,157.87L169.9,159.9L171.12,161.48L172.34,163.02L173.57,164.69L174.79,165.83L176.01,167.27L177.23,168.54L178.45,170.04L179.67,170.74L180.89,172.13L182.11,172.8L183.33,173.72L184.56,173.8L185.78,174.71L187,175.38L188.22,175.67L189.44,176.26L190.66,176.24L191.88,176.4L193.1,176.77L194.32,177.27L195.55,177.3L196.77,177.15L197.99,177.6L199.21,177.19L200.43,177.37L201.65,177.19L202.87,177.11L204.09,176.79L205.31,176.22L206.54,175.68L207.76,174.66L208.98,173.95L210.2,172.81L211.42,171.42L212.64,169.82L213.86,167.34L215.08,165.1L216.3,162.28L217.52,159.32L218.75,156.34L219.97,152.63L221.19,148.73L222.41,144.69L223.63,140.36L224.85,135.48L226.07,131.2L227.29,126.49L228.51,120.75L229.74,116.5L230.96,111.59L232.18,106.78L233.4,102.14L234.62,97.692L235.84,92.954L237.06,89.851L238.28,85.67L239.5,81.703L240.73,79.189L241.95,76.074L243.17,73.31L244.39,71.507L245.61,69.774L246.83,67.647L248.05,66.981L249.27,66.097L250.49,65.404L251.72,65.499L252.94,65.2L254.16,65.181L255.38,65.781L256.6,66.003L257.82,66.998L259.04,67.926L260.26,68.671L261.48,69.709L262.71,71.036L263.93,72.105L265.15,73.959L266.37,75.474L267.59,76.714L268.81,78.734L270.03,79.797L271.25,81.557L272.47,83.825L273.7,86.331L274.92,87.617L276.14,89.899L277.36,92.011L278.58,94.588L279.8,96.822L281.02,99.116L282.24,101.55L283.46,104" style="fill:none;stroke:#3BC3B7" />
<path d="M40.465,99.963L41.686,99.826L42.907,99.086L44.128,99.31L45.349,99.97L46.57,99.885L47.791,100.54L49.013,100.58L50.234,100.89L51.455,101.5L52.676,102.39L53.897,102.68L55.118,103.9L56.339,104.49L57.56,105.34L58.781,106.5L60.003,107.61L61.224,108.2L62.445,108.96L63.666,109.95L64.887,110.8L66.108,111.75L67.329,112.49L68.55,113.18L69.771,113.96L70.992,114.87L72.214,115.78L73.435,115.43L74.656,115.76L75.877,116.16L77.098,115.81L78.319,116.16L79.54,116.19L80.761,115.47L81.982,114.9L83.203,114.47L84.425,113.02L85.646,112.24L86.867,111.26L88.088,109.61L89.309,108.22L90.53,106.29L91.751,105.01L92.972,103.27L94.193,101.36L95.415,99.853L96.636,98.062L97.857,96.146L99.078,95.147L100.3,93.308L101.52,92.469L102.74,90.905L103.96,89.272L105.18,88.536L106.4,87.887L107.63,87.316L108.85,86.016L110.07,85.674L111.29,85.891L112.51,84.865L113.73,85.032L114.95,84.605L116.17,83.846L117.39,83.878L118.62,83.305L119.84,82.665L121.06,82.414L122.28,81.341L123.5,80.984L124.72,79.694L125.94,79.237L127.16,78.356L128.38,76.751L129.61,76.374L130.83,75.433L132.05,74.682L133.27,73.712L134.49,73.633L135.71,73.015L136.93,72.983L138.15,73.587L139.37,74.215L140.6,75.448L141.82,76.257L143.04,78.202L144.26,80.781L145.48,82.793L146.7,85.464L147.92,88.596L149.14,92.311L150.36,96.526L151.59,100.29L152.81,104.54L154.03,108.49L155.25,112.85L156.47,117.01L157.69,120.99L158.91,125.26L160.13,129.35L161.35,132.76L162.58,135.6L163.8,138.39L165.02,140.18L166.24,142.65L167.46,143.73L168.68,145.62L169.9,146.26L171.12,146.29L172.34,146.26L173.57,145.82L174.79,145.38L176.01,143.3L177.23,142.97L178.45,141.41L179.67,139.9L180.89,138.14L182.11,136.26L183.33,134.51L184.56,132.53L185.78,130.05L187,128.52L188.22,126.37L189.44,125.19L190.66,123.07L191.88,121.62L193.1,119.83L194.32,118.45L195.55,117.43L196.77,115.9L197.99,114.76L199.21,114.33L200.43,113.27L201.65,112.31L202.87,112.54L204.09,111.47L205.31,111.59L206.54,110.78L207.76,111.47L208.98,111.08L210.2,111.86L211.42,111.91L212.64,112.47L213.86,112.61L215.08,113.43L216.3,113.79L217.52,114.01L218.75,114.69L219.97,115.23L221.19,116.14L222.41,117.38L223.63,118.21L224.85,118.98L226.07,120.07L227.29,120.99L228.51,122.32L229.74,123.25L230.96,124.53L232.18,125.88L233.4,126.89L234.62,128.31L235.84,130.25L237.06,131.5L238.28,133.8L239.5,135.29L240.73,136.87L241.95,139.02L243.17,140.55L244.39,142.33L245.61,144.41L246.83,146.17L248.05,148.11L249.27,149.85L250.49,151.09L251.72,152.64L252.94,153.65L254.16,154.38L255.38,155.38L256.6,156.61L257.82,156.94L259.04,156.99L260.26,157.09L261.48,156.85L262.71,156.58L263.93,155.95L265.15,155.09L266.37,154.2L267.59,153.02L268.81,152.1L270.03,150.68L271.25,148.69L272.47,147.03L273.7,145.01L274.92,143.24L276.14,141.49L277.36,139.37L278.58,137.28L279.8,134.79L281.02,133.24L282.24,131.41L283.46,129.78" style="fill:none;stroke:#A34545" />
<path d="M40.465,150.83L41.686,149.86L42.907,148.31L44.128,146.65L45.349,144.14L46.57,141.89L47.791,139.45L49.013,136.72L50.234,133.82L51.455,131.13L52.676,127.4L53.897,124.19L55.118,121.29L56.339,117.99L57.56,114.89L58.781,111.7L60.003,109.56L61.224,106.69L62.445,104.76L63.666,101.72L64.887,99.675L66.108,97.377L67.329,95.834L68.55,94.265L69.771,92.985L70.992,91.31L72.214,90.898L73.435,89.977L74.656,88.873L75.877,88.715L77.098,88.169L78.319,88.035L79.54,87.744L80.761,88.409L81.982,89.559L83.203,89.928L84.425,91.458L85.646,92.251L86.867,93.563L88.088,94.872L89.309,96.353L90.53,98.391L91.751,100.2L92.972,101.95L94.193,103.66L95.415,106.17L96.636,108.85L97.857,110.65L99.078,112.38L100.3,115.13L101.52,116.04L102.74,117.93L103.96,120.33L105.18,121.8L106.4,123.26L107.63,124.68L108.85,125.87L110.07,126.7L111.29,127.89L112.51,127.87L113.73,128.81L114.95,129.52L116.17,129.43L117.39,129.73L118.62,130.14L119.84,130.31L121.06,130.07L122.28,130.53L123.5,130.55L124.72,130.58L125.94,130.87L127.16,131.2L128.38,131.32L129.61,131.28L130.83,131.56L132.05,131.67L133.27,132.14L134.49,132.24L135.71,132.36L136.93,132.81L138.15,133.25L139.37,133.67L140.6,134.14L141.82,133.79L143.04,134.27L144.26,134.44L145.48,134.72L146.7,134.35L147.92,134.44L149.14,134.65L150.36,135.1L151.59,134.88L152.81,134.86L154.03,135.24L155.25,135.12L156.47,135.15L157.69,135.05L158.91,135.57L160.13,136.13L161.35,136.15L162.58,136.78L163.8,137.06L165.02,137.61L166.24,137.7L167.46,138.12L168.68,139.07L169.9,139.41L171.12,140.21L172.34,140.74L173.57,141.09L174.79,141.4L176.01,141.67L177.23,141.74L178.45,141.92L179.67,142.06L180.89,141.7L182.11,142.2L183.33,141.9L184.56,141.88L185.78,141.31L187,141.26L188.22,139.81L189.44,139.44L190.66,138.01L191.88,136.64L193.1,135.5L194.32,134.11L195.55,131.95L196.77,130.31L197.99,127.96L199.21,125.8L200.43,123.83L201.65,121.23L202.87,118.94L204.09,116.3L205.31,113.68L206.54,111.08L207.76,108.19L208.98,105.07L210.2,103.04L211.42,100.6L212.64,98.048L213.86,95.85L215.08,94.115L216.3,92.463L217.52,90.819L218.75,89.821L219.97,88.722L221.19,88.79L222.41,89.067L223.63,89.392L224.85,90.065L226.07,91.267L227.29,92.951L228.51,94.891L229.74,96.987L230.96,99.86L232.18,102.98L233.4,105.96L234.62,109.63L235.84,113.34L237.06,117.5L238.28,121.57L239.5,124.87L240.73,129.3L241.95,133.41L243.17,136.76L244.39,140.78L245.61,143.96L246.83,147.38L248.05,150.84L249.27,152.79L250.49,155.57L251.72,157.74L252.94,158.49L254.16,159.56L255.38,160.68L256.6,161.19L257.82,160.76L259.04,160.63L260.26,160.1L261.48,158.96L262.71,157.55L263.93,155.89L265.15,153.58L266.37,152.13L267.59,150.42L268.81,148.87L270.03,147.09L271.25,145.34L272.47,143.81L273.7,142.14L274.92,141.1L276.14,140.86L277.36,140.48L278.58,139.61L279.8,140.04L281.02,139.82L282.24,140.24L283.46,141.99" style="fill:none;stroke:#8975B0" />
<path d="M40.465,129.23L41.686,128.41L42.907,126.66L44.128,125.83L45.349,124.14L46.57,122.96L47.791,121.84L49.013,120.48L50.234,119.4L51.455,118.21L52.676,117.42L53.897,116.37L55.118,116.31L56.339,115.67L57.56,114.96L58.781,115.35L60.003,115.05L61.224,115.83L62.445,115.4L63.666,116.54L64.887,117.13L66.108,117.47L67.329,118.47L68.55,119.88L69.771,121.01L70.992,121.88L72.214,123.82L73.435,125.36L74.656,127L75.877,128.22L77.098,130.61L78.319,132.15L79.54,133.86L80.761,135.72L81.982,137.85L83.203,139.85L84.425,141.72L85.646,144.12L86.867,146.07L88.088,148.34L89.309,150.69L90.53,152.7L91.751,155.11L92.972,157.1L94.193,159.38L95.415,161.45L96.636,163.11L97.857,165.4L99.078,166.77L100.3,168.38L101.52,170.11L102.74,171.57L103.96,172.29L105.18,173.31L106.4,173.66L107.63,174.49L108.85,174.22L110.07,174.31L111.29,173.71L112.51,172.65L113.73,171.32L114.95,169.83L116.17,167.92L117.39,166.11L118.62,163.94L119.84,161.59L121.06,159.16L122.28,156.32L123.5,153.26L124.72,150.23L125.94,148.09L127.16,144.9L128.38,142.52L129.61,139.55L130.83,136.83L132.05,134.13L133.27,131.93L134.49,129.53L135.71,127.25L136.93,125.11L138.15,123.63L139.37,121.42L140.6,120.36L141.82,118.72L143.04,118.07L144.26,116.41L145.48,116.04L146.7,114.92L147.92,115.22L149.14,114.36L150.36,113.79L151.59,114.12L152.81,114.17L154.03,114.68L155.25,114.53L156.47,116.14L157.69,115.67L158.91,116.52L160.13,117.05L161.35,117.98L162.58,118.57L163.8,119.47L165.02,120.43L166.24,121.01L167.46,121.02L168.68,121.41L169.9,121.79L171.12,121.97L172.34,122.57L173.57,122.32L174.79,122.22L176.01,121.77L177.23,121.64L178.45,121.6L179.67,120.1L180.89,120.13L182.11,118.23L183.33,117.1L184.56,116.43L185.78,114.98L187,113.59L188.22,111.92L189.44,110.93L190.66,109.17L191.88,107.93L193.1,106.55L194.32,105.25L195.55,104.35L196.77,103.92L197.99,102.98L199.21,101.91L200.43,101.52L201.65,101.59L202.87,101.18L204.09,101.96L205.31,102.11L206.54,102.41L207.76,102.85L208.98,103.14L210.2,104.01L211.42,104.57L212.64,105.5L213.86,106.17L215.08,106.19L216.3,106.84L217.52,106.79L218.75,106.98L219.97,107.02L221.19,107.01L222.41,106.62L223.63,105.48L224.85,105.32L226.07,104.3L227.29,102.71L228.51,102.03L229.74,100.64L230.96,99.213L232.18,97.554L233.4,95.992L234.62,94.525L235.84,92.713L237.06,91.847L238.28,89.583L239.5,88.712L240.73,87.066L241.95,86.205L243.17,85.065L244.39,83.883L245.61,83.433L246.83,82.875L248.05,82.961L249.27,82.827L250.49,83.347L251.72,83.358L252.94,83.896L254.16,84.533L255.38,85.923L256.6,87.52L257.82,88.78L259.04,90.172L260.26,91.26L261.48,92.257L262.71,93.898L263.93,95.484L265.15,96.636L266.37,97.859L267.59,99.403L268.81,100.26L270.03,100.99L271.25,102.34L272.47,103.33L273.7,103.58L274.92,104.88L276.14,104.88L277.36,105.62L278.58,106.27L279.8,106.91L281.02,107.45L282.24,107.78L283.46,108.27" style="fill:none;stroke:#BDA5E1" />
</g>
</svg>
