<?xml version="1.0"?>
<!-- Generated by SVGo and Plotinum VG -->
<svg width="300pt" height="200pt" viewBox="0 0 300 200"
	xmlns="http://www.w3.org/2000/svg"
	xmlns:xlink="http://www.w3.org/1999/xlink">
<g transform="scale(1, -1) translate(0, -200)">
<path d="M0,0L300,0L300,200L0,200Z" style="fill:#FFFFFF" />
<text x="94.688" y="-190.61" transform="scale(1, -1)"
	style="font-family:Times;font-weight:normal;font-style:normal;font-size:12px">Linear Kernel Samples</text>
<text x="167.23" y="-3.9023" transform="scale(1, -1)"
	style="font-family:Times;font-weight:normal;font-style:normal;font-size:12px">x</text>
<text x="58.036" y="-16.541" transform="scale(1, -1)"
	style="font-family:Times;font-weight:normal;font-style:normal;font-size:10px">-5</text>
<text x="168.38" y="-16.541" transform="scale(1, -1)"
	style="font-family:Times;font-weight:normal;font-style:normal;font-size:10px">0</text>
<text x="277.07" y="-16.541" transform="scale(1, -1)"
	style="font-family:Times;font-weight:normal;font-style:normal;font-size:10px">5</text>
<path d="M62.201,24.363L62.201,32.363" style="fill:none;stroke:#000000;stroke-width:0.5" />
<path d="M170.88,24.363L170.88,32.363" style="fill:none;stroke:#000000;stroke-width:0.5" />
<path d="M279.57,24.363L279.57,32.363" style="fill:none;stroke:#000000;stroke-width:0.5" />
<path d="M83.938,28.363L83.938,32.363" style="fill:none;stroke:#000000;stroke-width:0.5" />
<path d="M105.67,28.363L105.67,32.363" style="fill:none;stroke:#000000;stroke-width:0.5" />
<path d="M127.41,28.363L127.41,32.363" style="fill:none;stroke:#000000;stroke-width:0.5" />
<path d="M149.15,28.363L149.15,32.363" style="fill:none;stroke:#000000;stroke-width:0.5" />
<path d="M192.62,28.363L192.62,32.363" style="fill:none;stroke:#000000;stroke-width:0.5" />
<path d="M214.36,28.363L214.36,32.363" style="fill:none;stroke:#000000;stroke-width:0.5" />
<path d="M236.09,28.363L236.09,32.363" style="fill:none;stroke:#000000;stroke-width:0.5" />
<path d="M257.83,28.363L257.83,32.363" style="fill:none;stroke:#000000;stroke-width:0.5" />
<path d="M40.465,32.363L300,32.363" style="fill:none;stroke:#000000;stroke-width:0.5" />
<g transform="rotate(90)">
<text x="110.46" y="9.3867" transform="scale(1, -1)"
	style="font-family:Times;font-weight:normal;font-style:normal;font-size:12px">y</text>
</g>
<text x="15.885" y="-44.329" transform="scale(1, -1)"
	style="font-family:Times;font-weight:normal;font-style:normal;font-size:10px">-8</text>
<text x="19.215" y="-111.46" transform="scale(1, -1)"
	style="font-family:Times;font-weight:normal;font-style:normal;font-size:10px">0</text>
<text x="19.215" y="-178.6" transform="scale(1, -1)"
	style="font-family:Times;font-weight:normal;font-style:normal;font-size:10px">8</text>
<path d="M26.715,46.614L34.715,46.614" style="fill:none;stroke:#000000;stroke-width:0.5" />
<path d="M26.715,113.75L34.715,113.75" style="fill:none;stroke:#000000;stroke-width:0.5" />
<path d="M26.715,180.88L34.715,180.88" style="fill:none;stroke:#000000;stroke-width:0.5" />
<path d="M30.715,80.181L34.715,80.181" style="fill:none;stroke:#000000;stroke-width:0.5" />
<path d="M30.715,147.32L34.715,147.32" style="fill:none;stroke:#000000;stroke-width:0.5" />
<path d="M34.715,40.209L34.715,186.71" style="fill:none;stroke:#000000;stroke-width:0.5" />
<path d="M40.465,47.093L41.769,47.967L43.073,48.576L44.377,49.315L45.682,49.995L46.986,50.608L48.29,51.169L49.594,52.097L50.898,52.588L52.203,53.283L53.507,53.929L54.811,54.576L56.115,55.189L57.419,55.906L58.724,56.705L60.028,57.192L61.332,57.927L62.636,58.544L63.94,59.229L65.245,59.958L66.549,60.579L67.853,61.252L69.157,62.038L70.461,62.665L71.766,63.325L73.07,63.901L74.374,64.644L75.678,65.301L76.982,65.774L78.287,66.606L79.591,67.116L80.895,68.041L82.199,68.582L83.503,69.188L84.808,69.88L86.112,70.574L87.416,71.267L88.72,71.853L90.024,72.68L91.329,73.242L92.633,73.896L93.937,74.679L95.241,75.169L96.545,75.832L97.85,76.534L99.154,77.263L100.46,77.855L101.76,78.664L103.07,79.03L104.37,79.849L105.67,80.504L106.98,81.202L108.28,81.827L109.59,82.494L110.89,83.141L112.2,83.875L113.5,84.665L114.8,85.189L116.11,85.985L117.41,86.583L118.72,87.184L120.02,87.939L121.33,88.571L122.63,89.102L123.93,89.727L125.24,90.448L126.54,91.231L127.85,91.974L129.15,92.504L130.45,93.126L131.76,93.786L133.06,94.55L134.37,95.127L135.67,95.777L136.98,96.603L138.28,97.241L139.58,97.872L140.89,98.383L142.19,99.219L143.5,99.846L144.8,100.48L146.1,101.11L147.41,101.83L148.71,102.46L150.02,103L151.32,103.8L152.63,104.58L153.93,105.02L155.23,105.64L156.54,106.49L157.84,107.01L159.15,107.77L160.45,108.53L161.76,109.09L163.06,109.77L164.36,110.52L165.67,110.99L166.97,111.76L168.28,112.36L169.58,113.18L170.88,113.74L172.19,114.47L173.49,115.05L174.8,115.9L176.1,116.32L177.41,117.01L178.71,117.63L180.01,118.38L181.32,119.05L182.62,119.73L183.93,120.35L185.23,121.21L186.53,121.73L187.84,122.46L189.14,123.13L190.45,123.7L191.75,124.43L193.06,125.08L194.36,125.89L195.66,126.25L196.97,126.92L198.27,127.94L199.58,128.32L200.88,128.97L202.19,129.63L203.49,130.27L204.79,130.93L206.1,131.65L207.4,132.36L208.71,132.9L210.01,133.83L211.31,134.3L212.62,135L213.92,135.57L215.23,136.22L216.53,136.91L217.84,137.68L219.14,138.29L220.44,138.9L221.75,139.58L223.05,140.31L224.36,141.01L225.66,141.61L226.96,142.52L228.27,143.02L229.57,143.72L230.88,144.25L232.18,144.84L233.49,145.63L234.79,146.21L236.09,146.88L237.4,147.67L238.7,148.24L240.01,148.83L241.31,149.68L242.62,150.09L243.92,150.88L245.22,151.66L246.53,152.15L247.83,152.87L249.14,153.36L250.44,154.34L251.74,154.94L253.05,155.6L254.35,156.03L255.66,157.03L256.96,157.55L258.27,158.26L259.57,158.74L260.87,159.61L262.18,160.24L263.48,160.83L264.79,161.59L266.09,162.19L267.4,162.95L268.7,163.64L270,164.37L271.31,164.96L272.61,165.52L273.92,166.19L275.22,166.84L276.52,167.6L277.83,168.22L279.13,168.91L280.44,169.41L281.74,170.17L283.05,170.9L284.35,171.65L285.65,172.23L286.96,172.79L288.26,173.43L289.57,174.23L290.87,174.83L292.17,175.48L293.48,176.17L294.78,176.93L296.09,177.62L297.39,178.11L298.7,178.88L300,179.54" style="fill:none;stroke:#EF70F1;stroke-width:1.2" />
<path d="M40.465,51.489L41.769,52.221L43.073,52.786L44.377,53.348L45.682,54.026L46.986,54.436L48.29,55.34L49.594,55.797L50.898,56.539L52.203,57.106L53.507,57.681L54.811,58.323L56.115,58.942L57.419,59.574L58.724,60.124L60.028,60.743L61.332,61.547L62.636,62.199L63.94,62.803L65.245,63.232L66.549,64.031L67.853,64.595L69.157,65.14L70.461,65.878L71.766,66.627L73.07,66.989L74.374,67.777L75.678,68.261L76.982,68.88L78.287,69.616L79.591,70.272L80.895,70.858L82.199,71.473L83.503,72.052L84.808,72.766L86.112,73.37L87.416,73.876L88.72,74.623L90.024,75.145L91.329,75.801L92.633,76.302L93.937,77.064L95.241,77.542L96.545,78.197L97.85,78.95L99.154,79.55L100.46,80.07L101.76,80.73L103.07,81.336L104.37,82.119L105.67,82.651L106.98,83.166L108.28,84.066L109.59,84.67L110.89,85.16L112.2,85.74L113.5,86.398L114.8,87.048L116.11,87.674L117.41,88.259L118.72,88.821L120.02,89.504L121.33,90L122.63,90.663L123.93,91.454L125.24,91.966L126.54,92.607L127.85,93.051L129.15,94.026L130.45,94.495L131.76,95.224L133.06,95.703L134.37,96.365L135.67,96.969L136.98,97.761L138.28,98.284L139.58,98.757L140.89,99.573L142.19,100.12L143.5,100.59L144.8,101.27L146.1,101.9L147.41,102.33L148.71,103.35L150.02,103.88L151.32,104.32L152.63,105.28L153.93,105.75L155.23,106.36L156.54,106.91L157.84,107.58L159.15,108.15L160.45,108.78L161.76,109.41L163.06,110L164.36,110.68L165.67,111.37L166.97,112.03L168.28,112.5L169.58,113.09L170.88,113.73L172.19,114.39L173.49,114.8L174.8,115.5L176.1,116.34L177.41,116.85L178.71,117.42L180.01,118.18L181.32,118.63L182.62,119.25L183.93,119.92L185.23,120.65L186.53,121.02L187.84,121.75L189.14,122.45L190.45,123.14L191.75,123.85L193.06,124.14L194.36,124.78L195.66,125.42L196.97,126.27L198.27,126.92L199.58,127.55L200.88,128.06L202.19,128.62L203.49,129.23L204.79,129.89L206.1,130.59L207.4,131.22L208.71,131.76L210.01,132.27L211.31,133.07L212.62,133.79L213.92,134.29L215.23,134.95L216.53,135.69L217.84,136.04L219.14,136.62L220.44,137.32L221.75,138.01L223.05,138.71L224.36,139.39L225.66,139.88L226.96,140.46L228.27,141.12L229.57,141.88L230.88,142.29L232.18,143.01L233.49,143.62L234.79,144.24L236.09,144.87L237.4,145.41L238.7,146L240.01,146.82L241.31,147.48L242.62,147.86L243.92,148.65L245.22,149.21L246.53,149.87L247.83,150.52L249.14,151.11L250.44,151.83L251.74,152.21L253.05,153.04L254.35,153.6L255.66,154.24L256.96,154.76L258.27,155.59L259.57,156.1L260.87,156.77L262.18,157.42L263.48,157.85L264.79,158.5L266.09,159.19L267.4,159.83L268.7,160.5L270,161.04L271.31,161.59L272.61,162.14L273.92,162.75L275.22,163.59L276.52,164.17L277.83,164.75L279.13,165.4L280.44,166.06L281.74,166.62L283.05,167.33L284.35,167.85L285.65,168.43L286.96,168.99L288.26,169.8L289.57,170.49L290.87,171.02L292.17,171.64L293.48,172.24L294.78,172.96L296.09,173.47L297.39,174.3L298.7,174.7L300,175.49" style="fill:none;stroke:#93FA5E;stroke-width:1.2" />
<path d="M40.465,56.051L41.769,56.606L43.073,57.192L44.377,57.696L45.682,58.361L46.986,58.997L48.29,59.552L49.594,60.117L50.898,60.721L52.203,61.338L53.507,61.798L54.811,62.528L56.115,63.011L57.419,63.602L58.724,64.133L60.028,64.777L61.332,65.388L62.636,65.815L63.94,66.447L65.245,67.14L66.549,67.754L67.853,68.191L69.157,68.685L70.461,69.359L71.766,69.912L73.07,70.29L74.374,71.075L75.678,71.578L76.982,72.252L78.287,72.738L79.591,73.435L80.895,73.882L82.199,74.429L83.503,75.162L84.808,75.613L86.112,76.173L87.416,76.894L88.72,77.338L90.024,77.934L91.329,78.619L92.633,79.1L93.937,79.641L95.241,80.183L96.545,80.718L97.85,81.403L99.154,81.864L100.46,82.714L101.76,83.126L103.07,83.734L104.37,84.36L105.67,85.025L106.98,85.612L108.28,86.023L109.59,86.496L110.89,87.226L112.2,87.934L113.5,88.382L114.8,89.113L116.11,89.669L117.41,90.226L118.72,90.707L120.02,91.317L121.33,91.761L122.63,92.388L123.93,93.059L125.24,93.623L126.54,94.111L127.85,94.603L129.15,95.282L130.45,95.891L131.76,96.558L133.06,96.96L134.37,97.578L135.67,98.28L136.98,98.758L138.28,99.404L139.58,100.05L140.89,100.41L142.19,101.09L143.5,101.61L144.8,102.19L146.1,102.67L147.41,103.27L148.71,103.91L150.02,104.45L151.32,105.14L152.63,105.65L153.93,106.25L155.23,106.83L156.54,107.35L157.84,108.01L159.15,108.46L160.45,109.18L161.76,109.63L163.06,110.24L164.36,110.81L165.67,111.46L166.97,111.95L168.28,112.66L169.58,113.15L170.88,113.95L172.19,114.43L173.49,114.85L174.8,115.44L176.1,115.92L177.41,116.62L178.71,117.17L180.01,117.71L181.32,118.34L182.62,118.83L183.93,119.45L185.23,120.04L186.53,120.75L187.84,121.29L189.14,121.83L190.45,122.47L191.75,122.97L193.06,123.58L194.36,124.12L195.66,124.63L196.97,125.42L198.27,125.81L199.58,126.5L200.88,127.05L202.19,127.53L203.49,128.35L204.79,128.8L206.1,129.44L207.4,129.89L208.71,130.56L210.01,131.06L211.31,131.59L212.62,132.17L213.92,132.78L215.23,133.47L216.53,134.08L217.84,134.46L219.14,135.19L220.44,135.67L221.75,136.34L223.05,136.68L224.36,137.5L225.66,137.95L226.96,138.45L228.27,139.01L229.57,139.8L230.88,140.36L232.18,140.81L233.49,141.52L234.79,141.92L236.09,142.59L237.4,143.15L238.7,143.74L240.01,144.4L241.31,144.92L242.62,145.48L243.92,146.06L245.22,146.63L246.53,147.2L247.83,147.8L249.14,148.46L250.44,148.95L251.74,149.62L253.05,150.05L254.35,150.76L255.66,151.29L256.96,151.97L258.27,152.33L259.57,153.06L260.87,153.5L262.18,154.19L263.48,154.6L264.79,155.25L266.09,155.73L267.4,156.47L268.7,156.97L270,157.7L271.31,158.18L272.61,158.71L273.92,159.49L275.22,159.86L276.52,160.41L277.83,161.17L279.13,161.54L280.44,162.11L281.74,162.91L283.05,163.15L284.35,164.02L285.65,164.43L286.96,165.01L288.26,165.73L289.57,166.32L290.87,166.89L292.17,167.38L293.48,168.03L294.78,168.55L296.09,169.03L297.39,169.6L298.7,170.43L300,170.78" style="fill:none;stroke:#1AA06F;stroke-width:1.2" />
<path d="M40.465,117.22L41.769,117.24L43.073,117.14L44.377,117L45.682,116.98L46.986,117.03L48.29,116.94L49.594,117.08L50.898,116.81L52.203,116.87L53.507,116.81L54.811,116.92L56.115,116.82L57.419,116.73L58.724,116.7L60.028,116.67L61.332,116.7L62.636,116.63L63.94,116.53L65.245,116.67L66.549,116.53L67.853,116.39L69.157,116.5L70.461,116.36L71.766,116.42L73.07,116.2L74.374,116.36L75.678,116.38L76.982,116.23L78.287,116.08L79.591,116.03L80.895,116.07L82.199,116.05L83.503,116.23L84.808,115.85L86.112,116.11L87.416,116.1L88.72,115.9L90.024,115.92L91.329,115.96L92.633,115.73L93.937,115.8L95.241,115.64L96.545,115.72L97.85,115.57L99.154,115.81L100.46,115.61L101.76,115.62L103.07,115.58L104.37,115.55L105.67,115.44L106.98,115.3L108.28,115.33L109.59,115.48L110.89,115.42L112.2,115.38L113.5,115.1L114.8,115.3L116.11,115.14L117.41,115.12L118.72,115.03L120.02,115.07L121.33,115.09L122.63,115L123.93,114.97L125.24,115.05L126.54,114.88L127.85,114.83L129.15,114.82L130.45,114.72L131.76,114.82L133.06,114.82L134.37,114.72L135.67,114.73L136.98,114.72L138.28,114.64L139.58,114.54L140.89,114.59L142.19,114.56L143.5,114.59L144.8,114.41L146.1,114.3L147.41,114.33L148.71,114.43L150.02,114.2L151.32,114.26L152.63,114.19L153.93,114.27L155.23,114.05L156.54,113.98L157.84,114.09L159.15,114.11L160.45,114.08L161.76,114.09L163.06,113.98L164.36,113.93L165.67,113.71L166.97,113.71L168.28,113.71L169.58,113.87L170.88,113.67L172.19,113.7L173.49,113.67L174.8,113.71L176.1,113.73L177.41,113.55L178.71,113.57L180.01,113.52L181.32,113.39L182.62,113.41L183.93,113.36L185.23,113.19L186.53,113.36L187.84,113.35L189.14,113.12L190.45,113.09L191.75,113.16L193.06,113.26L194.36,113.14L195.66,113.22L196.97,113.05L198.27,113.09L199.58,112.82L200.88,112.92L202.19,112.99L203.49,112.85L204.79,112.78L206.1,112.84L207.4,112.85L208.71,112.6L210.01,112.65L211.31,112.62L212.62,112.62L213.92,112.71L215.23,112.78L216.53,112.55L217.84,112.47L219.14,112.43L220.44,112.43L221.75,112.53L223.05,112.39L224.36,112.26L225.66,112.25L226.96,112.17L228.27,112.04L229.57,112.32L230.88,112.02L232.18,112.2L233.49,112.03L234.79,112.13L236.09,111.95L237.4,111.91L238.7,111.96L240.01,111.89L241.31,111.89L242.62,111.71L243.92,111.77L245.22,111.73L246.53,111.81L247.83,111.68L249.14,111.7L250.44,111.65L251.74,111.64L253.05,111.6L254.35,111.51L255.66,111.47L256.96,111.49L258.27,111.56L259.57,111.42L260.87,111.29L262.18,111.35L263.48,111.31L264.79,111.27L266.09,111.24L267.4,111.12L268.7,111.2L270,111.1L271.31,111.21L272.61,110.92L273.92,111.06L275.22,110.93L276.52,111.02L277.83,110.96L279.13,110.89L280.44,110.98L281.74,110.82L283.05,110.83L284.35,110.74L285.65,110.79L286.96,110.58L288.26,110.47L289.57,110.55L290.87,110.57L292.17,110.55L293.48,110.54L294.78,110.51L296.09,110.47L297.39,110.4L298.7,110.35L300,110.45" style="fill:none;stroke:#DA29E2;stroke-width:1.2" />
<path d="M40.465,110.54L41.769,110.67L43.073,110.52L44.377,110.52L45.682,110.67L46.986,110.69L48.29,110.64L49.594,110.7L50.898,110.86L52.203,110.71L53.507,110.94L54.811,110.97L56.115,110.88L57.419,111L58.724,110.76L60.028,110.96L61.332,111.15L62.636,110.91L63.94,111.12L65.245,111.11L66.549,111.07L67.853,111.29L69.157,111.05L70.461,111.37L71.766,111.38L73.07,111.27L74.374,111.43L75.678,111.32L76.982,111.47L78.287,111.59L79.591,111.47L80.895,111.65L82.199,111.51L83.503,111.65L84.808,111.74L86.112,111.64L87.416,111.66L88.72,111.76L90.024,111.75L91.329,111.7L92.633,111.88L93.937,111.88L95.241,111.81L96.545,111.88L97.85,111.89L99.154,112.04L100.46,112.01L101.76,112L103.07,112.09L104.37,112.08L105.67,112.27L106.98,112.05L108.28,112.18L109.59,112.13L110.89,112.28L112.2,112.3L113.5,112.19L114.8,112.41L116.11,112.45L117.41,112.5L118.72,112.47L120.02,112.39L121.33,112.46L122.63,112.55L123.93,112.62L125.24,112.5L126.54,112.72L127.85,112.59L129.15,112.69L130.45,112.76L131.76,112.8L133.06,112.83L134.37,112.72L135.67,112.89L136.98,112.98L138.28,113L139.58,113.1L140.89,113.04L142.19,112.96L143.5,113.11L144.8,113.11L146.1,113.02L147.41,112.99L148.71,113.18L150.02,113.09L151.32,113.21L152.63,113.31L153.93,113.21L155.23,113.43L156.54,113.44L157.84,113.32L159.15,113.38L160.45,113.41L161.76,113.53L163.06,113.55L164.36,113.76L165.67,113.77L166.97,113.63L168.28,113.73L169.58,113.74L170.88,113.83L172.19,113.65L173.49,113.85L174.8,113.86L176.1,113.92L177.41,114.05L178.71,113.96L180.01,113.92L181.32,114.02L182.62,113.96L183.93,114.07L185.23,114.05L186.53,114.2L187.84,114.17L189.14,114.28L190.45,114.23L191.75,114.39L193.06,114.27L194.36,114.3L195.66,114.39L196.97,114.59L198.27,114.39L199.58,114.59L200.88,114.55L202.19,114.51L203.49,114.68L204.79,114.66L206.1,114.53L207.4,114.78L208.71,114.69L210.01,114.74L211.31,114.9L212.62,114.86L213.92,114.86L215.23,114.78L216.53,114.9L217.84,114.89L219.14,114.86L220.44,114.93L221.75,115.01L223.05,114.96L224.36,115.07L225.66,115.08L226.96,115.05L228.27,115.09L229.57,115.25L230.88,115.19L232.18,115.28L233.49,115.23L234.79,115.45L236.09,115.5L237.4,115.42L238.7,115.46L240.01,115.58L241.31,115.57L242.62,115.6L243.92,115.56L245.22,115.44L246.53,115.71L247.83,115.84L249.14,115.71L250.44,115.81L251.74,115.82L253.05,115.84L254.35,115.93L255.66,115.76L256.96,116.09L258.27,115.91L259.57,116.1L260.87,115.92L262.18,115.97L263.48,116.19L264.79,115.94L266.09,116.11L267.4,116.1L268.7,116.03L270,116.18L271.31,116.21L272.61,116.26L273.92,116.25L275.22,116.23L276.52,116.37L277.83,116.62L279.13,116.41L280.44,116.48L281.74,116.45L283.05,116.57L284.35,116.48L285.65,116.56L286.96,116.66L288.26,116.84L289.57,116.63L290.87,116.62L292.17,116.66L293.48,116.87L294.78,117.01L296.09,116.78L297.39,116.88L298.7,116.77L300,116.91" style="fill:none;stroke:#AAA342;stroke-width:1.2" />
<path d="M40.465,81.424L41.769,81.948L43.073,82.197L44.377,82.423L45.682,82.655L46.986,82.978L48.29,83.426L49.594,83.795L50.898,84.04L52.203,84.279L53.507,84.664L54.811,84.991L56.115,85.214L57.419,85.61L58.724,85.923L60.028,86.207L61.332,86.589L62.636,87.062L63.94,87.196L65.245,87.545L66.549,87.918L67.853,88.36L69.157,88.524L70.461,88.911L71.766,89.234L73.07,89.61L74.374,89.83L75.678,90.026L76.982,90.485L78.287,90.873L79.591,91.243L80.895,91.32L82.199,91.799L83.503,92.179L84.808,92.433L86.112,92.711L87.416,93.056L88.72,93.398L90.024,93.757L91.329,93.88L92.633,94.362L93.937,94.729L95.241,95.105L96.545,95.359L97.85,95.638L99.154,95.959L100.46,96.28L101.76,96.597L103.07,96.832L104.37,97.394L105.67,97.546L106.98,97.768L108.28,98.313L109.59,98.525L110.89,98.946L112.2,99.159L113.5,99.325L114.8,99.773L116.11,100.08L117.41,100.57L118.72,100.8L120.02,101.14L121.33,101.58L122.63,101.73L123.93,102.15L125.24,102.51L126.54,102.81L127.85,103.16L129.15,103.4L130.45,103.73L131.76,103.94L133.06,104.44L134.37,104.66L135.67,105.09L136.98,105.36L138.28,105.72L139.58,106.07L140.89,106.3L142.19,106.5L143.5,107.02L144.8,107.24L146.1,107.51L147.41,107.88L148.71,108.24L150.02,108.77L151.32,108.99L152.63,109.12L153.93,109.5L155.23,109.8L156.54,110.25L157.84,110.61L159.15,110.91L160.45,111.16L161.76,111.56L163.06,111.89L164.36,112.21L165.67,112.37L166.97,112.93L168.28,113.1L169.58,113.36L170.88,113.87L172.19,114.1L173.49,114.43L174.8,114.84L176.1,115.02L177.41,115.29L178.71,115.83L180.01,116.05L181.32,116.33L182.62,116.77L183.93,116.98L185.23,117.07L186.53,117.6L187.84,117.97L189.14,118.2L190.45,118.67L191.75,118.93L193.06,119.32L194.36,119.58L195.66,119.91L196.97,120.24L198.27,120.65L199.58,120.78L200.88,121.03L202.19,121.41L203.49,121.9L204.79,122.12L206.1,122.39L207.4,122.94L208.71,123.2L210.01,123.45L211.31,123.87L212.62,123.96L213.92,124.35L215.23,124.64L216.53,124.98L217.84,125.38L219.14,125.64L220.44,126.12L221.75,126.22L223.05,126.71L224.36,127.06L225.66,127.24L226.96,127.66L228.27,127.94L229.57,128.2L230.88,128.67L232.18,128.95L233.49,129.39L234.79,129.76L236.09,129.92L237.4,130.15L238.7,130.58L240.01,130.86L241.31,131.15L242.62,131.54L243.92,131.91L245.22,132.26L246.53,132.41L247.83,132.84L249.14,133.01L250.44,133.44L251.74,133.74L253.05,134.07L254.35,134.33L255.66,134.58L256.96,135.08L258.27,135.37L259.57,135.67L260.87,136.13L262.18,136.51L263.48,136.77L264.79,137.07L266.09,137.25L267.4,137.74L268.7,137.97L270,138.27L271.31,138.72L272.61,138.83L273.92,139.22L275.22,139.57L276.52,139.83L277.83,140.24L279.13,140.58L280.44,140.81L281.74,141.13L283.05,141.53L284.35,141.82L285.65,142.18L286.96,142.62L288.26,142.84L289.57,143.05L290.87,143.63L292.17,143.84L293.48,144.06L294.78,144.44L296.09,144.71L297.39,145.13L298.7,145.4L300,145.55" style="fill:none;stroke:#B4B68A;stroke-width:1.2" />
<path d="M40.465,132.7L41.769,132.67L43.073,132.23L44.377,132.16L45.682,132.09L46.986,131.83L48.29,131.56L49.594,131.3L50.898,131.08L52.203,131.13L53.507,130.8L54.811,130.59L56.115,130.25L57.419,130.33L58.724,129.95L60.028,129.93L61.332,129.61L62.636,129.55L63.94,129.36L65.245,129.08L66.549,128.97L67.853,128.73L69.157,128.51L70.461,128.29L71.766,128.22L73.07,127.92L74.374,127.75L75.678,127.53L76.982,127.5L78.287,127.07L79.591,126.94L80.895,126.83L82.199,126.72L83.503,126.45L84.808,126.32L86.112,126.09L87.416,126.06L88.72,125.52L90.024,125.62L91.329,125.37L92.633,125.01L93.937,125.07L95.241,124.77L96.545,124.56L97.85,124.38L99.154,124.21L100.46,123.97L101.76,123.94L103.07,123.48L104.37,123.27L105.67,123.1L106.98,122.92L108.28,122.9L109.59,122.69L110.89,122.47L112.2,122.2L113.5,122.11L114.8,121.83L116.11,121.66L117.41,121.44L118.72,121.42L120.02,121.22L121.33,120.92L122.63,120.82L123.93,120.67L125.24,120.41L126.54,120.09L127.85,120.03L129.15,119.82L130.45,119.52L131.76,119.58L133.06,119.28L134.37,119.03L135.67,118.82L136.98,118.7L138.28,118.48L139.58,118.31L140.89,118.06L142.19,117.99L143.5,117.68L144.8,117.64L146.1,117.37L147.41,117.26L148.71,117.08L150.02,116.76L151.32,116.61L152.63,116.31L153.93,116.29L155.23,116.05L156.54,115.87L157.84,115.71L159.15,115.42L160.45,115.18L161.76,115.24L163.06,114.96L164.36,114.72L165.67,114.52L166.97,114.4L168.28,114.11L169.58,113.92L170.88,113.87L172.19,113.54L173.49,113.3L174.8,113.23L176.1,113.01L177.41,112.88L178.71,112.71L180.01,112.43L181.32,112.21L182.62,112.06L183.93,111.8L185.23,111.68L186.53,111.51L187.84,111.41L189.14,111.08L190.45,111.01L191.75,110.72L193.06,110.56L194.36,110.21L195.66,110.2L196.97,110.04L198.27,109.79L199.58,109.66L200.88,109.36L202.19,109.19L203.49,109.07L204.79,108.95L206.1,108.67L207.4,108.39L208.71,108.32L210.01,107.98L211.31,107.89L212.62,107.66L213.92,107.5L215.23,107.28L216.53,107.04L217.84,106.88L219.14,106.63L220.44,106.54L221.75,106.33L223.05,106.13L224.36,105.93L225.66,105.6L226.96,105.49L228.27,105.3L229.57,105.16L230.88,105.06L232.18,104.8L233.49,104.6L234.79,104.44L236.09,104.24L237.4,103.97L238.7,103.93L240.01,103.72L241.31,103.29L242.62,103.38L243.92,103.14L245.22,102.93L246.53,102.73L247.83,102.54L249.14,102.24L250.44,102.33L251.74,101.92L253.05,101.62L254.35,101.67L255.66,101.36L256.96,101.12L258.27,101.07L259.57,100.88L260.87,100.51L262.18,100.53L263.48,100.3L264.79,100.06L266.09,99.968L267.4,99.654L268.7,99.427L270,99.328L271.31,99.051L272.61,98.977L273.92,98.785L275.22,98.518L276.52,98.347L277.83,98.217L279.13,97.974L280.44,97.926L281.74,97.682L283.05,97.376L284.35,97.304L285.65,96.922L286.96,96.819L288.26,96.782L289.57,96.677L290.87,96.193L292.17,96.101L293.48,95.903L294.78,95.803L296.09,95.546L297.39,95.325L298.7,95.146L300,94.962" style="fill:none;stroke:#AEBA9D;stroke-width:1.2" />
<path d="M40.465,40.209L41.769,40.93L43.073,41.554L44.377,42.455L45.682,43.283L46.986,43.821L48.29,44.622L49.594,45.224L50.898,45.974L52.203,46.787L53.507,47.607L54.811,48.221L56.115,49.113L57.419,49.743L58.724,50.483L60.028,51.278L61.332,52.008L62.636,52.604L63.94,53.333L65.245,54.139L66.549,54.885L67.853,55.656L69.157,56.364L70.461,57.088L71.766,57.853L73.07,58.637L74.374,59.391L75.678,59.843L76.982,60.665L78.287,61.5L79.591,62.136L80.895,63.038L82.199,63.788L83.503,64.372L84.808,65.116L86.112,65.929L87.416,66.495L88.72,67.371L90.024,68.156L91.329,68.784L92.633,69.575L93.937,70.243L95.241,71.134L96.545,71.839L97.85,72.523L99.154,73.334L100.46,74.021L101.76,74.694L103.07,75.6L104.37,76.172L105.67,77.036L106.98,77.61L108.28,78.237L109.59,79.129L110.89,79.925L112.2,80.663L113.5,81.194L114.8,82.062L116.11,82.963L117.41,83.441L118.72,84.337L120.02,84.987L121.33,85.612L122.63,86.508L123.93,87.184L125.24,87.901L126.54,88.747L127.85,89.359L129.15,90.241L130.45,90.841L131.76,91.742L133.06,92.454L134.37,93.017L135.67,93.985L136.98,94.672L138.28,95.406L139.58,96.061L140.89,96.938L142.19,97.554L143.5,98.324L144.8,99.157L146.1,99.851L147.41,100.61L148.71,101.16L150.02,102.01L151.32,102.85L152.63,103.39L153.93,104.12L155.23,104.9L156.54,105.73L157.84,106.55L159.15,107.13L160.45,107.87L161.76,108.5L163.06,109.29L164.36,110.01L165.67,110.73L166.97,111.57L168.28,112.35L169.58,112.98L170.88,113.62L172.19,114.4L173.49,115.04L174.8,116.02L176.1,116.65L177.41,117.63L178.71,118.25L180.01,118.87L181.32,119.63L182.62,120.36L183.93,121.17L185.23,121.62L186.53,122.72L187.84,123.36L189.14,124.08L190.45,124.77L191.75,125.47L193.06,126.23L194.36,126.93L195.66,127.55L196.97,128.48L198.27,129.15L199.58,130.07L200.88,130.64L202.19,131.44L203.49,132.1L204.79,132.88L206.1,133.7L207.4,134.31L208.71,135.07L210.01,135.95L211.31,136.55L212.62,137.23L213.92,138.19L215.23,138.67L216.53,139.55L217.84,140.1L219.14,141.1L220.44,141.65L221.75,142.56L223.05,143.16L224.36,143.93L225.66,144.56L226.96,145.41L228.27,146.07L229.57,146.75L230.88,147.59L232.18,148.34L233.49,149.18L234.79,150.01L236.09,150.65L237.4,151.3L238.7,152.05L240.01,152.74L241.31,153.54L242.62,154.19L243.92,154.96L245.22,155.71L246.53,156.37L247.83,157.17L249.14,158.04L250.44,158.65L251.74,159.55L253.05,160.13L254.35,160.8L255.66,161.64L256.96,162.27L258.27,163.02L259.57,163.85L260.87,164.55L262.18,165.32L263.48,166.03L264.79,166.65L266.09,167.45L267.4,168.13L268.7,168.83L270,169.69L271.31,170.58L272.61,171.19L273.92,171.85L275.22,172.62L276.52,173.34L277.83,174.11L279.13,174.82L280.44,175.54L281.74,176.31L283.05,177.03L284.35,177.85L285.65,178.52L286.96,179.11L288.26,179.91L289.57,180.63L290.87,181.45L292.17,182.24L293.48,182.92L294.78,183.65L296.09,184.3L297.39,185.23L298.7,185.96L300,186.71" style="fill:none;stroke:#44EE71;stroke-width:1.2" />
<path d="M40.465,185.19L41.769,184.41L43.073,183.64L44.377,182.92L45.682,182.07L46.986,181.46L48.29,180.8L49.594,180.07L50.898,179.35L52.203,178.7L53.507,177.79L54.811,177.15L56.115,176.56L57.419,175.79L58.724,175.08L60.028,174.33L61.332,173.81L62.636,172.93L63.94,172.31L65.245,171.31L66.549,170.69L67.853,169.93L69.157,169.35L70.461,168.65L71.766,167.97L73.07,167.13L74.374,166.63L75.678,165.83L76.982,164.99L78.287,164.42L79.591,163.64L80.895,162.96L82.199,162.19L83.503,161.65L84.808,161.05L86.112,160.12L87.416,159.52L88.72,158.61L90.024,157.89L91.329,157.14L92.633,156.43L93.937,155.84L95.241,155.1L96.545,154.35L97.85,153.61L99.154,153.07L100.46,152.45L101.76,151.54L103.07,150.72L104.37,150.22L105.67,149.18L106.98,148.61L108.28,148.13L109.59,147.3L110.89,146.56L112.2,145.85L113.5,145.12L114.8,144.35L116.11,143.74L117.41,142.82L118.72,142.31L120.02,141.66L121.33,140.8L122.63,140.15L123.93,139.51L125.24,138.77L126.54,137.95L127.85,137.37L129.15,136.59L130.45,135.84L131.76,135.17L133.06,134.46L134.37,133.69L135.67,132.9L136.98,132.24L138.28,131.52L139.58,130.89L140.89,130.13L142.19,129.4L143.5,128.77L144.8,128.09L146.1,127.37L147.41,126.66L148.71,125.74L150.02,125.16L151.32,124.44L152.63,123.76L153.93,122.92L155.23,122.29L156.54,121.65L157.84,121.03L159.15,120.17L160.45,119.44L161.76,118.82L163.06,118.01L164.36,117.29L165.67,116.54L166.97,115.96L168.28,115.29L169.58,114.44L170.88,113.8L172.19,113.01L173.49,112.32L174.8,111.5L176.1,110.84L177.41,110.28L178.71,109.47L180.01,108.82L181.32,108.07L182.62,107.29L183.93,106.56L185.23,105.85L186.53,105.13L187.84,104.47L189.14,103.8L190.45,103.01L191.75,102.49L193.06,101.68L194.36,100.99L195.66,100.16L196.97,99.531L198.27,98.541L199.58,98.015L200.88,97.175L202.19,96.484L203.49,95.896L204.79,95.222L206.1,94.384L207.4,93.793L208.71,93.008L210.01,92.351L211.31,91.737L212.62,90.932L213.92,90.262L215.23,89.487L216.53,88.757L217.84,88.047L219.14,87.267L220.44,86.484L221.75,86.008L223.05,85.274L224.36,84.492L225.66,83.8L226.96,83.161L228.27,82.438L229.57,81.655L230.88,80.998L232.18,80.213L233.49,79.667L234.79,78.968L236.09,78.156L237.4,77.378L238.7,76.67L240.01,75.983L241.31,75.253L242.62,74.491L243.92,73.871L245.22,73.182L246.53,72.377L247.83,71.736L249.14,71.012L250.44,70.356L251.74,69.602L253.05,68.67L254.35,68.147L255.66,67.451L256.96,66.586L258.27,66.012L259.57,65.205L260.87,64.571L262.18,63.958L263.48,62.987L264.79,62.446L266.09,61.738L267.4,60.779L268.7,60.158L270,59.612L271.31,58.915L272.61,58.069L273.92,57.461L275.22,56.772L276.52,55.987L277.83,55.241L279.13,54.522L280.44,53.718L281.74,53.231L283.05,52.575L284.35,51.908L285.65,51.122L286.96,50.343L288.26,49.607L289.57,48.81L290.87,48.167L292.17,47.61L293.48,46.84L294.78,45.898L296.09,45.334L297.39,44.47L298.7,43.804L300,43.374" style="fill:none;stroke:#C9A5AF;stroke-width:1.2" />
<path d="M40.465,123.61L41.769,123.45L43.073,123.22L44.377,123.29L45.682,123.07L46.986,123.05L48.29,122.99L49.594,122.84L50.898,122.77L52.203,122.64L53.507,122.61L54.811,122.44L56.115,122.51L57.419,122.28L58.724,122.08L60.028,122.16L61.332,121.93L62.636,121.99L63.94,121.63L65.245,121.77L66.549,121.6L67.853,121.39L69.157,121.39L70.461,121.41L71.766,121.26L73.07,121.05L74.374,121.15L75.678,121L76.982,120.87L78.287,120.63L79.591,120.74L80.895,120.51L82.199,120.38L83.503,120.31L84.808,120.29L86.112,120.18L87.416,120.04L88.72,120.04L90.024,119.87L91.329,119.8L92.633,119.73L93.937,119.55L95.241,119.5L96.545,119.33L97.85,119.27L99.154,119.15L100.46,118.97L101.76,119.02L103.07,118.79L104.37,118.73L105.67,118.73L106.98,118.63L108.28,118.4L109.59,118.36L110.89,118.2L112.2,118.24L113.5,118L114.8,117.99L116.11,117.83L117.41,117.67L118.72,117.56L120.02,117.52L121.33,117.43L122.63,117.43L123.93,117.35L125.24,117.25L126.54,117.16L127.85,116.99L129.15,116.83L130.45,116.74L131.76,116.86L133.06,116.58L134.37,116.57L135.67,116.34L136.98,116.22L138.28,116.1L139.58,116.09L140.89,115.96L142.19,115.84L143.5,115.75L144.8,115.79L146.1,115.53L147.41,115.62L148.71,115.41L150.02,115.46L151.32,115.14L152.63,115.21L153.93,114.97L155.23,115.11L156.54,114.78L157.84,114.62L159.15,114.69L160.45,114.56L161.76,114.51L163.06,114.25L164.36,114.45L165.67,113.95L166.97,113.99L168.28,113.87L169.58,113.86L170.88,113.71L172.19,113.67L173.49,113.61L174.8,113.43L176.1,113.19L177.41,113.16L178.71,113.14L180.01,113.07L181.32,113.1L182.62,112.87L183.93,112.78L185.23,112.62L186.53,112.6L187.84,112.58L189.14,112.17L190.45,112.34L191.75,111.93L193.06,111.94L194.36,112.04L195.66,111.87L196.97,111.77L198.27,111.63L199.58,111.69L200.88,111.47L202.19,111.44L203.49,111.33L204.79,111.22L206.1,111.18L207.4,111.17L208.71,110.92L210.01,110.68L211.31,110.65L212.62,110.65L213.92,110.44L215.23,110.52L216.53,110.29L217.84,110.13L219.14,110.01L220.44,109.87L221.75,109.89L223.05,109.77L224.36,109.76L225.66,109.63L226.96,109.38L228.27,109.41L229.57,109.24L230.88,109.21L232.18,109.16L233.49,109.09L234.79,108.95L236.09,108.69L237.4,108.81L238.7,108.63L240.01,108.39L241.31,108.5L242.62,108.34L243.92,108.22L245.22,108.07L246.53,108L247.83,107.94L249.14,107.78L250.44,107.88L251.74,107.51L253.05,107.62L254.35,107.4L255.66,107.41L256.96,107.26L258.27,107.09L259.57,107.11L260.87,106.99L262.18,106.98L263.48,106.81L264.79,106.76L266.09,106.5L267.4,106.41L268.7,106.31L270,106.35L271.31,106.3L272.61,106.08L273.92,105.92L275.22,105.71L276.52,105.56L277.83,105.62L279.13,105.61L280.44,105.46L281.74,105.39L283.05,105.4L284.35,105.2L285.65,105.06L286.96,105.12L288.26,105.01L289.57,104.74L290.87,104.84L292.17,104.52L293.48,104.52L294.78,104.45L296.09,104.35L297.39,104.22L298.7,104.06L300,103.96" style="fill:none;stroke:#399CF5;stroke-width:1.2" />
</g>
</svg>
