<?xml version="1.0"?>
<!-- Generated by SVGo and Plotinum VG -->
<svg width="300pt" height="200pt" viewBox="0 0 300 200"
	xmlns="http://www.w3.org/2000/svg"
	xmlns:xlink="http://www.w3.org/1999/xlink">
<g transform="scale(1, -1) translate(0, -200)">
<path d="M0,0L300,0L300,200L0,200Z" style="fill:#FFFFFF" />
<text x="90.349" y="-190.61" transform="scale(1, -1)"
	style="font-family:Times;font-weight:normal;font-style:normal;font-size:12px">Periodic Kernel Samples</text>
<text x="173.48" y="-3.9023" transform="scale(1, -1)"
	style="font-family:Times;font-weight:normal;font-style:normal;font-size:12px">x</text>
<text x="69.49" y="-16.541" transform="scale(1, -1)"
	style="font-family:Times;font-weight:normal;font-style:normal;font-size:10px">-5</text>
<text x="174.6" y="-16.541" transform="scale(1, -1)"
	style="font-family:Times;font-weight:normal;font-style:normal;font-size:10px">0</text>
<text x="278.05" y="-16.541" transform="scale(1, -1)"
	style="font-family:Times;font-weight:normal;font-style:normal;font-size:10px">5</text>
<path d="M73.655,24.363L73.655,32.363" style="fill:none;stroke:#000000;stroke-width:0.5" />
<path d="M177.1,24.363L177.1,32.363" style="fill:none;stroke:#000000;stroke-width:0.5" />
<path d="M280.55,24.363L280.55,32.363" style="fill:none;stroke:#000000;stroke-width:0.5" />
<path d="M94.344,28.363L94.344,32.363" style="fill:none;stroke:#000000;stroke-width:0.5" />
<path d="M115.03,28.363L115.03,32.363" style="fill:none;stroke:#000000;stroke-width:0.5" />
<path d="M135.72,28.363L135.72,32.363" style="fill:none;stroke:#000000;stroke-width:0.5" />
<path d="M156.41,28.363L156.41,32.363" style="fill:none;stroke:#000000;stroke-width:0.5" />
<path d="M197.79,28.363L197.79,32.363" style="fill:none;stroke:#000000;stroke-width:0.5" />
<path d="M218.48,28.363L218.48,32.363" style="fill:none;stroke:#000000;stroke-width:0.5" />
<path d="M239.17,28.363L239.17,32.363" style="fill:none;stroke:#000000;stroke-width:0.5" />
<path d="M259.86,28.363L259.86,32.363" style="fill:none;stroke:#000000;stroke-width:0.5" />
<path d="M52.965,32.363L300,32.363" style="fill:none;stroke:#000000;stroke-width:0.5" />
<g transform="rotate(90)">
<text x="110.46" y="9.3867" transform="scale(1, -1)"
	style="font-family:Times;font-weight:normal;font-style:normal;font-size:12px">y</text>
</g>
<text x="15.885" y="-38.4" transform="scale(1, -1)"
	style="font-family:Times;font-weight:normal;font-style:normal;font-size:10px">-2.50</text>
<text x="19.215" y="-103.64" transform="scale(1, -1)"
	style="font-family:Times;font-weight:normal;font-style:normal;font-size:10px">0.00</text>
<text x="19.215" y="-168.89" transform="scale(1, -1)"
	style="font-family:Times;font-weight:normal;font-style:normal;font-size:10px">2.50</text>
<path d="M39.215,40.685L47.215,40.685" style="fill:none;stroke:#000000;stroke-width:0.5" />
<path d="M39.215,105.93L47.215,105.93" style="fill:none;stroke:#000000;stroke-width:0.5" />
<path d="M39.215,171.17L47.215,171.17" style="fill:none;stroke:#000000;stroke-width:0.5" />
<path d="M43.215,53.734L47.215,53.734" style="fill:none;stroke:#000000;stroke-width:0.5" />
<path d="M43.215,66.782L47.215,66.782" style="fill:none;stroke:#000000;stroke-width:0.5" />
<path d="M43.215,79.831L47.215,79.831" style="fill:none;stroke:#000000;stroke-width:0.5" />
<path d="M43.215,92.88L47.215,92.88" style="fill:none;stroke:#000000;stroke-width:0.5" />
<path d="M43.215,118.98L47.215,118.98" style="fill:none;stroke:#000000;stroke-width:0.5" />
<path d="M43.215,132.03L47.215,132.03" style="fill:none;stroke:#000000;stroke-width:0.5" />
<path d="M43.215,145.08L47.215,145.08" style="fill:none;stroke:#000000;stroke-width:0.5" />
<path d="M43.215,158.12L47.215,158.12" style="fill:none;stroke:#000000;stroke-width:0.5" />
<path d="M43.215,184.22L47.215,184.22" style="fill:none;stroke:#000000;stroke-width:0.5" />
<path d="M47.215,40.209L47.215,186.71" style="fill:none;stroke:#000000;stroke-width:0.5" />
<path d="M52.965,149.39L54.206,149.33L55.448,148.13L56.689,146.51L57.93,142.35L59.172,137.62L60.413,131.74L61.655,124.72L62.896,117.26L64.137,109.72L65.379,103.92L66.62,97.404L67.861,92.365L69.103,88.734L70.344,85.691L71.586,83.916L72.827,82.288L74.068,82.592L75.31,83.05L76.551,84.912L77.792,87.08L79.034,89.963L80.275,92.716L81.517,94.88L82.758,97.668L83.999,99.364L85.241,99.34L86.482,99.593L87.724,98.462L88.965,96.666L90.206,94.895L91.448,93.272L92.689,91.649L93.93,90.885L95.172,90.52L96.413,92.401L97.655,93.713L98.896,96.804L100.14,101.2L101.38,106.05L102.62,111.9L103.86,118.48L105.1,124.78L106.34,131.59L107.59,137.81L108.83,143.39L110.07,148.42L111.31,152.58L112.55,155.22L113.79,155.9L115.03,155.95L116.28,154.29L117.52,153.12L118.76,150.7L120,149.53L121.24,148.36L122.48,148.23L123.72,148.8L124.97,149.08L126.21,149.43L127.45,149.32L128.69,146.78L129.93,143.73L131.17,139.45L132.41,134.12L133.65,126.93L134.9,119.92L136.14,112.22L137.38,105.63L138.62,99.166L139.86,94.499L141.1,89.732L142.34,86.366L143.59,84.372L144.83,82.922L146.07,82.661L147.31,83.135L148.55,84.621L149.79,86.64L151.03,88.732L152.28,91.769L153.52,94.483L154.76,97.167L156,98.703L157.24,99.57L158.48,99.525L159.72,98.902L160.97,97.925L162.21,95.59L163.45,93.931L164.69,91.971L165.93,91.335L167.17,90.597L168.41,91.977L169.65,92.907L170.9,95.675L172.14,98.804L173.38,104.56L174.62,110.03L175.86,116.7L177.1,122.78L178.34,129.31L179.59,135.79L180.83,141.66L182.07,146.87L183.31,151.03L184.55,154.02L185.79,155.89L187.03,156.22L188.28,155.37L189.52,153.2L190.76,151.69L192,149.97L193.24,148.89L194.48,148.49L195.72,148.16L196.97,148.9L198.21,149.29L199.45,148.94L200.69,147.93L201.93,144.86L203.17,141.23L204.41,135.28L205.65,129.21L206.9,122.08L208.14,114.76L209.38,107.73L210.62,101.1L211.86,95.746L213.1,91.295L214.34,86.92L215.59,84.811L216.83,82.863L218.07,82.59L219.31,82.628L220.55,84.003L221.79,85.756L223.03,88.386L224.28,90.902L225.52,93.682L226.76,95.657L228,97.907L229.24,99.516L230.48,99.628L231.72,99.597L232.97,97.946L234.21,97.109L235.45,94.561L236.69,92.736L237.93,91.413L239.17,91.357L240.41,91.21L241.66,92.694L242.9,94.825L244.14,98.376L245.38,103.1L246.62,108.08L247.86,114.33L249.1,120.78L250.34,126.92L251.59,134.02L252.83,139.76L254.07,145.05L255.31,150.21L256.55,153.03L257.79,155.49L259.03,156.07L260.28,155.86L261.52,154.1L262.76,152.22L264,150.72L265.24,149.36L266.48,148.63L267.72,148.31L268.97,148.81L270.21,148.93L271.45,149.31L272.69,148.35L273.93,146.38L275.17,142.97L276.41,137.71L277.66,131.5L278.9,124.56L280.14,117.72L281.38,109.93L282.62,103.37L283.86,97.07L285.1,92.233L286.34,88.496L287.59,85.24L288.83,83.198L290.07,82.426L291.31,82.635L292.55,83.65L293.79,85.211L295.03,86.773L296.28,89.928L297.52,92.621L298.76,95.916L300,97.28" style="fill:none;stroke:#EF70F1;stroke-width:1.2" />
<path d="M52.965,82.782L54.206,81.98L55.448,81.524L56.689,81.716L57.93,82.034L59.172,81.394L60.413,80.377L61.655,78.772L62.896,75.82L64.137,72.245L65.379,67.999L66.62,62.762L67.861,57.284L69.103,51.985L70.344,47.561L71.586,43.806L72.827,41.017L74.068,40.273L75.31,41.11L76.551,42.844L77.792,46.271L79.034,50.26L80.275,54.762L81.517,60.926L82.758,66.375L83.999,71.916L85.241,77.3L86.482,84.147L87.724,90.361L88.965,97.076L90.206,103.8L91.448,110.37L92.689,116.53L93.93,121.95L95.172,125.79L96.413,128.03L97.655,130.31L98.896,129.96L100.14,129.03L101.38,128.4L102.62,126.8L103.86,125.06L105.1,123.26L106.34,120.44L107.59,118.25L108.83,115.83L110.07,113.16L111.31,110.07L112.55,106.82L113.79,104.27L115.03,101.96L116.28,99.781L117.52,96.945L118.76,94.421L120,91.728L121.24,89.746L122.48,86.461L123.72,84.925L124.97,83.471L126.21,82.078L127.45,81.983L128.69,81.829L129.93,81.92L131.17,81.628L132.41,80.82L133.65,79.609L134.9,77.196L136.14,73.449L137.38,69.115L138.62,64.831L139.86,59.066L141.1,53.774L142.34,49.302L143.59,44.837L144.83,42.871L146.07,40.729L147.31,40.693L148.55,42.361L149.79,44.957L151.03,48.953L152.28,54.031L153.52,58.776L154.76,63.9L156,70.31L157.24,75.751L158.48,82.158L159.72,88.318L160.97,95.177L162.21,101.84L163.45,108.04L164.69,114.36L165.93,120.07L167.17,123.96L168.41,127.13L169.65,129.26L170.9,129.84L172.14,130.09L173.38,129.39L174.62,127.9L175.86,126.24L177.1,123.84L178.34,121.7L179.59,119.06L180.83,116.36L182.07,113.97L183.31,110.4L184.55,107.82L185.79,104.91L187.03,102.46L188.28,99.954L189.52,97.332L190.76,95.536L192,92.534L193.24,90.319L194.48,87.965L195.72,85.69L196.97,83.232L198.21,82.682L199.45,81.939L200.69,81.195L201.93,81.506L203.17,81.542L204.41,81.455L205.65,79.629L206.9,77.957L208.14,74.972L209.38,71.089L210.62,66.347L211.86,61.131L213.1,55.651L214.34,51.109L215.59,46.213L216.83,42.782L218.07,40.517L219.31,40.506L220.55,41.631L221.79,43.492L223.03,47.374L224.28,51.889L225.52,56.989L226.76,62.192L228,67.793L229.24,73.793L230.48,80.193L231.72,86.158L232.97,92.696L234.21,99.242L235.45,106.27L236.69,112.09L237.93,117.94L239.17,123.07L240.41,126.43L241.66,128.97L242.9,129.69L244.14,130.51L245.38,129.53L246.62,128.3L247.86,126.53L249.1,124.58L250.34,122.85L251.59,119.87L252.83,117.46L254.07,114.8L255.31,111.94L256.55,109.35L257.79,105.99L259.03,103.7L260.28,100.77L261.52,98.494L262.76,96.298L264,93.909L265.24,91.376L266.48,88.887L267.72,86.223L268.97,84.657L270.21,82.686L271.45,82.193L272.69,81.035L273.93,81.594L275.17,81.718L276.41,81.527L277.66,80.387L278.9,78.735L280.14,75.981L281.38,72.197L282.62,67.549L283.86,62.798L285.1,57.652L286.34,52.439L287.59,47.483L288.83,43.975L290.07,41.986L291.31,40.209L292.55,40.914L293.79,42.87L295.03,46.157L296.28,50.212L297.52,55.227L298.76,60.598L300,66.556" style="fill:none;stroke:#93FA5E;stroke-width:1.2" />
<path d="M52.965,72.097L54.206,69.779L55.448,69.879L56.689,71.176L57.93,74.836L59.172,79.11L60.413,85.126L61.655,92.131L62.896,99.756L64.137,107.71L65.379,117.03L66.62,125.49L67.861,134.42L69.103,143.36L70.344,151.58L71.586,159.6L72.827,166.54L74.068,171.95L75.31,176.6L76.551,179.04L77.792,179.24L79.034,177.14L80.275,173.6L81.517,167.36L82.758,159.74L83.999,151.77L85.241,143.16L86.482,135.13L87.724,126.91L88.965,120.3L90.206,115.58L91.448,112.91L92.689,111.94L93.93,112.9L95.172,114.67L96.413,117.24L97.655,119.69L98.896,123.16L100.14,125.13L101.38,127.23L102.62,128.23L103.86,129.85L105.1,130.06L106.34,129.85L107.59,129.16L108.83,128.83L110.07,126.73L111.31,124.41L112.55,121.48L113.79,117.68L115.03,113.11L116.28,108.27L117.52,103.23L118.76,97.466L120,91.575L121.24,86.431L122.48,80.554L123.72,76.31L124.97,72.458L126.21,70.482L127.45,69.547L128.69,70.738L129.93,73.299L131.17,77.619L132.41,83.542L133.65,89.755L134.9,97.377L136.14,105.22L137.38,114.03L138.62,122.55L139.86,131.46L141.1,140.13L142.34,148.54L143.59,156.82L144.83,163.98L146.07,170.98L147.31,175.82L148.55,177.94L149.79,178.76L151.03,178.27L152.28,175.16L153.52,169.58L154.76,162.87L156,154.98L157.24,146.12L158.48,137.39L159.72,129.22L160.97,122.22L162.21,116.82L163.45,113.57L164.69,112.47L165.93,112.13L167.17,113.96L168.41,116.56L169.65,118.96L170.9,122.24L172.14,124.33L173.38,126.5L174.62,128.12L175.86,129.72L177.1,130.12L178.34,130.41L179.59,130.04L180.83,128.95L182.07,127.46L183.31,125.31L184.55,122.86L185.79,119.26L187.03,114.76L188.28,110.34L189.52,105.18L190.76,100.12L192,93.3L193.24,87.754L194.48,82.857L195.72,77.484L196.97,73.383L198.21,70.508L199.45,69.293L200.69,70.067L201.93,72.565L203.17,75.985L204.41,81.08L205.65,87.487L206.9,94.299L208.14,102.81L209.38,111.24L210.62,119.83L211.86,128.2L213.1,137.13L214.34,146.39L215.59,154.12L216.83,161.79L218.07,168.46L219.31,173.98L220.55,176.94L221.79,178.79L223.03,178.52L224.28,176.27L225.52,171.57L226.76,165.05L228,157.58L229.24,148.71L230.48,140.78L231.72,131.72L232.97,123.98L234.21,118.58L235.45,114.73L236.69,112.82L237.93,112.18L239.17,113.12L240.41,115.76L241.66,118.39L242.9,121.2L244.14,123.51L245.38,125.73L246.62,127.8L247.86,129.12L249.1,129.92L250.34,130.25L251.59,130.28L252.83,129.12L254.07,128.22L255.31,126.34L256.55,123.13L257.79,120.35L259.03,116.72L260.28,111.96L261.52,106.71L262.76,101.44L264,95.764L265.24,90.604L266.48,84.372L267.72,79.192L268.97,74.695L270.21,71.522L271.45,70.017L272.69,69.717L273.93,71.674L275.17,74.598L276.41,78.924L277.66,85.422L278.9,92.322L280.14,99.742L281.38,108.18L282.62,116.96L283.86,125.72L285.1,134.79L286.34,143.29L287.59,151.63L288.83,159.87L290.07,166.91L291.31,172.27L292.55,176.7L293.79,178.26L295.03,178.6L296.28,176.71L297.52,173.39L298.76,167.37L300,160.37" style="fill:none;stroke:#1AA06F;stroke-width:1.2" />
<path d="M52.965,174.89L54.206,171.23L55.448,166.75L56.689,162.99L57.93,158.66L59.172,155.17L60.413,152.13L61.655,149.28L62.896,147.47L64.137,145.65L65.379,145.31L66.62,143.25L67.861,141.49L69.103,139.26L70.344,136.78L71.586,135.05L72.827,132.1L74.068,129.67L75.31,128.61L76.551,128.43L77.792,129.03L79.034,129.93L80.275,131.31L81.517,133.47L82.758,134.58L83.999,136.56L85.241,136.16L86.482,135.73L87.724,133.76L88.965,131.16L90.206,127.49L91.448,124.28L92.689,121.13L93.93,118.68L95.172,116.89L96.413,116.49L97.655,116.78L98.896,117.78L100.14,118.48L101.38,119.65L102.62,120.52L103.86,120.64L105.1,121.47L106.34,122.36L107.59,123.84L108.83,125.84L110.07,128.58L111.31,133.35L112.55,138.69L113.79,144.95L115.03,152.08L116.28,159.07L117.52,165.77L118.76,171.83L120,176.34L121.24,178.34L122.48,179.25L123.72,178.13L124.97,175.97L126.21,172.36L127.45,168.46L128.69,163.94L129.93,160.09L131.17,156.08L132.41,153.31L133.65,149.89L134.9,148.71L136.14,146.36L137.38,145.58L138.62,143.68L139.86,142.2L141.1,140.28L142.34,138.54L143.59,135.53L144.83,133.05L146.07,130.81L147.31,129.54L148.55,128.14L149.79,128.29L151.03,129.24L152.28,130.7L153.52,132.52L154.76,134.48L156,136.02L157.24,137.04L158.48,135.94L159.72,134.28L160.97,131.42L162.21,128.73L163.45,125.46L164.69,121.79L165.93,119.33L167.17,117.44L168.41,116.82L169.65,116.55L170.9,117.81L172.14,118.19L173.38,119.32L174.62,119.99L175.86,120.46L177.1,121.41L178.34,121.88L179.59,123.51L180.83,125.39L182.07,127.72L183.31,131.86L184.55,136.44L185.79,142.52L187.03,149.85L188.28,156.96L189.52,163.7L190.76,169.29L192,174.79L193.24,178.16L194.48,178.97L195.72,178.43L196.97,176.78L198.21,173.3L199.45,169.66L200.69,165.71L201.93,161.53L203.17,157.75L204.41,154.04L205.65,150.61L206.9,148.9L208.14,147.5L209.38,145.55L210.62,144.67L211.86,142.78L213.1,140.77L214.34,139.04L215.59,136.45L216.83,134.02L218.07,131.63L219.31,129.68L220.55,128.94L221.79,128.59L223.03,129L224.28,130.37L225.52,131.96L226.76,133.69L228,135.47L229.24,136.71L230.48,135.97L231.72,135.34L232.97,132.85L234.21,129.62L235.45,126.78L236.69,122.9L237.93,119.87L239.17,118.03L240.41,116.65L241.66,116.75L242.9,117.25L244.14,117.87L245.38,118.94L246.62,120.05L247.86,120.39L249.1,120.73L250.34,122.08L251.59,122.51L252.83,124.41L254.07,127L255.31,130.18L256.55,135.77L257.79,140.63L259.03,147.75L260.28,154.61L261.52,161.29L262.76,167.63L264,172.86L265.24,177.06L266.48,178.8L267.72,178.45L268.97,177.39L270.21,174.51L271.45,171.42L272.69,167.1L273.93,162.51L275.17,158.32L276.41,155.08L277.66,151.91L278.9,149.29L280.14,147.7L281.38,146.67L282.62,144.95L283.86,143.13L285.1,141.58L286.34,139.1L287.59,137.14L288.83,134.21L290.07,132.12L291.31,130.03L292.55,128.76L293.79,128.29L295.03,128.61L296.28,129.81L297.52,130.71L298.76,133.48L300,135.11" style="fill:none;stroke:#DA29E2;stroke-width:1.2" />
<path d="M52.965,153.33L54.206,160.9L55.448,168.72L56.689,175.44L57.93,180.61L59.172,184.21L60.413,186.71L61.655,186.04L62.896,183.38L64.137,178.69L65.379,173.17L66.62,166.76L67.861,158.39L69.103,150.15L70.344,142.05L71.586,134.59L72.827,126.85L74.068,120.3L75.31,114.15L76.551,108.81L77.792,104.66L79.034,100.85L80.275,97.112L81.517,93.582L82.758,91.575L83.999,89.488L85.241,88.171L86.482,88.454L87.724,89.512L88.965,92.316L90.206,97.463L91.448,103.84L92.689,110.63L93.93,117.56L95.172,125.19L96.413,132.11L97.655,137.83L98.896,142.25L100.14,145.64L101.38,148.01L102.62,149.16L103.86,150.44L105.1,150.42L106.34,150.1L107.59,150.12L108.83,148.94L110.07,148.14L111.31,145.59L112.55,142.73L113.79,139.97L115.03,136.71L116.28,133.42L117.52,131.37L118.76,130.36L120,130.69L121.24,133.64L122.48,137.83L123.72,143.83L124.97,150.53L126.21,158.33L127.45,166.49L128.69,172.83L129.93,179.44L131.17,183.26L132.41,185.32L133.65,186.31L134.9,184.39L136.14,180.31L137.38,175.73L138.62,169.12L139.86,161.49L141.1,153.06L142.34,144.65L143.59,136.09L144.83,128.95L146.07,121.71L147.31,115.77L148.55,110.81L149.79,105.89L151.03,102.36L152.28,98.805L153.52,95.096L154.76,92.492L156,90.503L157.24,88.477L158.48,88.802L159.72,89.16L160.97,91.674L162.21,96.103L163.45,101.23L164.69,108.04L165.93,115.36L167.17,123.12L168.41,129.56L169.65,136L170.9,140.98L172.14,144.26L173.38,147.24L174.62,149.04L175.86,149.96L177.1,150.63L178.34,150.65L179.59,150.16L180.83,149.63L182.07,148.27L183.31,146.83L184.55,144.26L185.79,141.29L187.03,137.97L188.28,133.89L189.52,132.36L190.76,130.75L192,130.9L193.24,132.55L194.48,135.97L195.72,141.73L196.97,147.77L198.21,155.81L199.45,163.52L200.69,170.85L201.93,177.6L203.17,181.9L204.41,185.21L205.65,186.04L206.9,185.7L208.14,181.76L209.38,177.16L210.62,171.39L211.86,163.85L213.1,156.17L214.34,147.75L215.59,139.51L216.83,131.51L218.07,124.34L219.31,118.13L220.55,112.86L221.79,107.19L223.03,103.45L224.28,99.72L225.52,96.105L226.76,93.305L228,90.389L229.24,88.96L230.48,87.899L231.72,88.629L232.97,90.627L234.21,93.813L235.45,99.406L236.69,105.82L237.93,112.96L239.17,121L240.41,127.03L241.66,133.97L242.9,139.06L244.14,142.94L245.38,145.99L246.62,147.99L247.86,149.52L249.1,150.07L250.34,150.65L251.59,150.68L252.83,150.09L254.07,148.69L255.31,146.78L256.55,144.94L257.79,142.45L259.03,138.69L260.28,135.79L261.52,132.99L262.76,130.88L264,130.3L265.24,131.38L266.48,134.94L267.72,139.7L268.97,145.94L270.21,153.11L271.45,160.86L272.69,168.2L273.93,175.18L275.17,180.99L276.41,184.25L277.66,185.94L278.9,185.89L280.14,183.86L281.38,178.95L282.62,173.09L283.86,166.14L285.1,158.3L286.34,150.66L287.59,142.25L288.83,134.23L290.07,127.15L291.31,119.93L292.55,114.48L293.79,109.35L295.03,104.81L296.28,101.15L297.52,97.387L298.76,94.083L300,91.314" style="fill:none;stroke:#AAA342;stroke-width:1.2" />
<path d="M52.965,113.27L54.206,118.16L55.448,122.51L56.689,127.3L57.93,131.55L59.172,135.8L60.413,140.03L61.655,143.16L62.896,145.48L64.137,145.88L65.379,145.83L66.62,143.99L67.861,141.35L69.103,138.35L70.344,136.22L71.586,134.25L72.827,133.05L74.068,132.82L75.31,133.95L76.551,135.37L77.792,136.75L79.034,137.99L80.275,138.1L81.517,137.83L82.758,136L83.999,133.73L85.241,130.33L86.482,126.99L87.724,124.35L88.965,121.23L90.206,118.59L91.448,115.91L92.689,113.67L93.93,111.5L95.172,108.9L96.413,107.62L97.655,105.73L98.896,105.73L100.14,105.34L101.38,105.77L102.62,105.96L103.86,106.3L105.1,106.88L106.34,106.65L107.59,106.66L108.83,105.31L110.07,104.68L111.31,103.6L112.55,101.43L113.79,100.33L115.03,99.583L116.28,98.773L117.52,97.858L118.76,98.418L120,99.556L121.24,101.03L122.48,104.56L123.72,107.75L124.97,112.06L126.21,116.8L127.45,121.59L128.69,125.78L129.93,130.45L131.17,134.68L132.41,138.4L133.65,141.98L134.9,144.5L136.14,145.62L137.38,145.75L138.62,144.71L139.86,142.32L141.1,139.38L142.34,137.21L143.59,134.69L144.83,133.12L146.07,132.59L147.31,132.71L148.55,134.41L149.79,135.99L151.03,137.38L152.28,138.14L153.52,138.05L154.76,137.15L156,135.2L157.24,131.35L158.48,128.29L159.72,124.91L160.97,121.75L162.21,119.21L163.45,116.76L164.69,114.03L165.93,111.89L167.17,110.14L168.41,108.3L169.65,106.84L170.9,105.34L172.14,104.98L173.38,106.02L174.62,105.4L175.86,105.89L177.1,107.11L178.34,106.99L179.59,106.56L180.83,105.59L182.07,105.49L183.31,103.54L184.55,102.6L185.79,100.51L187.03,99.48L188.28,98.068L189.52,97.988L190.76,98.374L192,99.46L193.24,100.65L194.48,103.51L195.72,106.33L196.97,110.52L198.21,114.55L199.45,119.5L200.69,124.38L201.93,128.8L203.17,133.35L204.41,137.93L205.65,141.21L206.9,143.74L208.14,145.1L209.38,145.78L210.62,144.84L211.86,142.89L213.1,140.63L214.34,137.96L215.59,135.49L216.83,133.75L218.07,133.27L219.31,133.65L220.55,134.47L221.79,135.58L223.03,137.39L224.28,138.01L225.52,138.76L226.76,136.97L228,135.13L229.24,132.73L230.48,129.9L231.72,126.21L232.97,123.17L234.21,120.36L235.45,117.27L236.69,115.05L237.93,112.72L239.17,110.96L240.41,108.67L241.66,106.97L242.9,106.06L244.14,105.37L245.38,105.93L246.62,106.07L247.86,106.24L249.1,107.01L250.34,106.8L251.59,106.9L252.83,106.3L254.07,105.48L255.31,104.19L256.55,102.95L257.79,100.94L259.03,100.24L260.28,99.182L261.52,97.947L262.76,98.199L264,98.966L265.24,99.946L266.48,102.26L267.72,105.36L268.97,108.97L270.21,114.08L271.45,117.45L272.69,122.51L273.93,126.77L275.17,131.56L276.41,136.49L277.66,139.8L278.9,142.73L280.14,145.44L281.38,145.7L282.62,145.56L283.86,143.9L285.1,140.6L286.34,138.84L287.59,136.35L288.83,133.95L290.07,133.09L291.31,132.93L292.55,133.59L293.79,135.19L295.03,137.2L296.28,138.4L297.52,138.64L298.76,137.75L300,136.26" style="fill:none;stroke:#B4B68A;stroke-width:1.2" />
<path d="M52.965,75.733L54.206,73.494L55.448,70.851L56.689,69.569L57.93,68.802L59.172,68.317L60.413,69.537L61.655,72.239L62.896,75.38L64.137,80.618L65.379,86.687L66.62,93.058L67.861,100.24L69.103,106.93L70.344,113.72L71.586,120.39L72.827,126.01L74.068,132.21L75.31,137.25L76.551,142.9L77.792,147.21L79.034,151.05L80.275,154.45L81.517,157.43L82.758,159.06L83.999,160.46L85.241,160.27L86.482,159.1L87.724,156.68L88.965,153.94L90.206,149.61L91.448,144.3L92.689,138.43L93.93,132.58L95.172,126.56L96.413,121.03L97.655,116.24L98.896,113.45L100.14,112.34L101.38,112.16L102.62,112.79L103.86,114.8L105.1,117.25L106.34,119.53L107.59,120.92L108.83,121.04L110.07,120.39L111.31,117.83L112.55,114.58L113.79,110.54L115.03,105.78L116.28,100.67L117.52,95.936L118.76,91.736L120,87.747L121.24,84.522L122.48,81.185L123.72,78.841L124.97,76.477L126.21,74.113L127.45,71.749L128.69,69.853L129.93,68.502L131.17,68.304L132.41,69.378L133.65,70.359L134.9,74.386L136.14,78.852L137.38,84.12L138.62,90.814L139.86,97.447L141.1,104.9L142.34,111.44L143.59,118.3L144.83,124.22L146.07,130.24L147.31,135.3L148.55,141.24L149.79,145.48L151.03,150.08L152.28,153.61L153.52,156.8L154.76,158.38L156,160.03L157.24,160.23L158.48,159.94L159.72,158.88L160.97,155.24L162.21,151L163.45,145.74L164.69,140.42L165.93,133.92L167.17,127.91L168.41,122.42L169.65,117.45L170.9,114.02L172.14,112.21L173.38,111.67L174.62,112.27L175.86,114.24L177.1,116.39L178.34,118.82L179.59,120.73L180.83,121.14L182.07,120.85L183.31,119.01L184.55,116.35L185.79,111.96L187.03,107.43L188.28,102.2L189.52,97.599L190.76,92.864L192,89.292L193.24,85.263L194.48,82.078L195.72,79.45L196.97,76.978L198.21,74.326L199.45,72.636L200.69,70.188L201.93,68.953L203.17,67.998L204.41,68.327L205.65,69.831L206.9,72.785L208.14,76.586L209.38,81.923L210.62,88.394L211.86,94.983L213.1,102.06L214.34,108.95L215.59,115.65L216.83,122.38L218.07,128.24L219.31,134.55L220.55,139.04L221.79,144.61L223.03,148.44L224.28,152.37L225.52,155.7L226.76,157.97L228,159.78L229.24,159.92L230.48,159.81L231.72,159.08L232.97,156.11L234.21,152.28L235.45,147.43L236.69,142.45L237.93,136.54L239.17,130.08L240.41,124.31L241.66,119.47L242.9,115.22L244.14,112.84L245.38,111.77L246.62,112.36L247.86,113.02L249.1,115.9L250.34,117.82L251.59,119.48L252.83,121.29L254.07,120.88L255.31,119.85L256.55,117.32L257.79,113.51L259.03,109.12L260.28,104.37L261.52,99.293L262.76,94.403L264,90.073L265.24,87.046L266.48,83.38L267.72,80.261L268.97,77.829L270.21,75.744L271.45,72.984L272.69,71.201L273.93,69.557L275.17,68.463L276.41,68.289L277.66,69.027L278.9,71.837L280.14,75.528L281.38,80.744L282.62,86.458L283.86,92.707L285.1,100.15L286.34,106.69L287.59,113.62L288.83,119.98L290.07,126.59L291.31,132.23L292.55,137.75L293.79,142.2L295.03,147.08L296.28,151.18L297.52,154.26L298.76,157.3L300,159.31" style="fill:none;stroke:#AEBA9D;stroke-width:1.2" />
<path d="M52.965,155.33L54.206,153.59L55.448,150.91L56.689,147.33L57.93,142.65L59.172,138.3L60.413,132.85L61.655,126.47L62.896,119.61L64.137,113.08L65.379,105.36L66.62,97.505L67.861,89.485L69.103,81.68L70.344,72.796L71.586,65.426L72.827,58.226L74.068,52.702L75.31,48.254L76.551,45.589L77.792,45.569L79.034,46.577L80.275,49.574L81.517,54.539L82.758,60.11L83.999,66.963L85.241,73.531L86.482,80.091L87.724,85.468L88.965,90.479L90.206,95.428L91.448,98.855L92.689,101.29L93.93,103.33L95.172,104.76L96.413,105.02L97.655,106.95L98.896,108.71L100.14,110.2L101.38,112.25L102.62,115.57L103.86,119.06L105.1,122.63L106.34,126.63L107.59,130.14L108.83,133.25L110.07,136.55L111.31,139.88L112.55,142.52L113.79,145.38L115.03,148.13L116.28,151.09L117.52,153.35L118.76,154.69L120,156L121.24,157.1L122.48,157.36L123.72,157.13L124.97,156.11L126.21,154.1L127.45,151.71L128.69,149.25L129.93,144.78L131.17,139.65L132.41,134.06L133.65,128.78L134.9,121.8L136.14,115.18L137.38,107.48L138.62,100.07L139.86,92.056L141.1,83.454L142.34,75.868L143.59,67.827L144.83,60.661L146.07,54.335L147.31,49.398L148.55,46.304L149.79,45.054L151.03,45.598L152.28,48.388L153.52,52.52L154.76,58.529L156,64.683L157.24,71.48L158.48,77.536L159.72,83.821L160.97,89.188L162.21,94.153L163.45,97.784L164.69,100.35L165.93,102.86L167.17,103.88L168.41,105.11L169.65,106.58L170.9,107.82L172.14,109.76L173.38,112.01L174.62,114.7L175.86,117.91L177.1,121.4L178.34,125.18L179.59,128.95L180.83,132.32L182.07,135.44L183.31,138.87L184.55,141.64L185.79,144.76L187.03,146.91L188.28,149.86L189.52,152.27L190.76,154.24L192,155.84L193.24,156.41L194.48,156.7L195.72,157.09L196.97,155.9L198.21,154.81L199.45,152.93L200.69,150.11L201.93,146.1L203.17,141.6L204.41,136.35L205.65,130.94L206.9,124.34L208.14,117.64L209.38,110.37L210.62,102.39L211.86,95.005L213.1,86.938L214.34,78.662L215.59,70.752L216.83,62.689L218.07,56.358L219.31,50.884L220.55,46.565L221.79,45.39L223.03,45.426L224.28,47.09L225.52,51.375L226.76,56.156L228,61.93L229.24,68.808L230.48,75.297L231.72,82.13L232.97,87.965L234.21,92.658L235.45,96.83L236.69,99.437L237.93,101.78L239.17,103.74L240.41,105.23L241.66,105.65L242.9,107.62L244.14,108.32L245.38,111.34L246.62,113.87L247.86,116.89L249.1,120.55L250.34,123.37L251.59,127.6L252.83,131.25L254.07,134.36L255.31,137.72L256.55,140.72L257.79,144.05L259.03,146.64L260.28,148.84L261.52,151.53L262.76,153.71L264,155.18L265.24,156.78L266.48,157.62L267.72,157.85L268.97,156.62L270.21,155.35L271.45,153.44L272.69,151.41L273.93,147.73L275.17,143.49L276.41,138.3L277.66,132.67L278.9,127.03L280.14,120L281.38,113.29L282.62,105.28L283.86,97.455L285.1,89.375L286.34,81.573L287.59,73.288L288.83,65.116L290.07,58.247L291.31,52.521L292.55,48.472L293.79,45.229L295.03,44.88L296.28,46.127L297.52,49.539L298.76,54.657L300,60.276" style="fill:none;stroke:#44EE71;stroke-width:1.2" />
<path d="M52.965,136.4L54.206,136.28L55.448,136.04L56.689,135.91L57.93,135.16L59.172,134.08L60.413,132.52L61.655,130.42L62.896,127.6L64.137,124.62L65.379,121.49L66.62,118.15L67.861,115.12L69.103,113.33L70.344,112.67L71.586,112.08L72.827,112.32L74.068,112.59L75.31,112.73L76.551,112.66L77.792,112.22L79.034,112.14L80.275,110.72L81.517,110.11L82.758,109.25L83.999,110.48L85.241,111.41L86.482,113.89L87.724,117.04L88.965,121.1L90.206,126.39L91.448,130.67L92.689,134.35L93.93,138.12L95.172,140.6L96.413,140.51L97.655,139.98L98.896,137.26L100.14,133.52L101.38,129.29L102.62,123.84L103.86,117.98L105.1,112.47L106.34,107.97L107.59,104.04L108.83,101.66L110.07,101.23L111.31,101.71L112.55,104.05L113.79,107.51L115.03,111.15L116.28,116.22L117.52,120.6L118.76,125.35L120,128.39L121.24,131.45L122.48,133.5L123.72,134.74L124.97,135.94L126.21,136.05L127.45,136.09L128.69,136.14L129.93,135.32L131.17,134.65L132.41,133.22L133.65,131.01L134.9,128.51L136.14,125.52L137.38,122.04L138.62,118.85L139.86,116.38L141.1,114.23L142.34,112.75L143.59,112.52L144.83,111.99L146.07,112.51L147.31,112.86L148.55,113.02L149.79,112.68L151.03,112.54L152.28,111.3L153.52,110.83L154.76,109.81L156,109.36L157.24,110.26L158.48,112.94L159.72,116.3L160.97,119.41L162.21,124.72L163.45,129.27L164.69,133.45L165.93,137.26L167.17,140L168.41,141.13L169.65,140.62L170.9,138.22L172.14,135.69L173.38,130.66L174.62,125.53L175.86,119.61L177.1,114.71L178.34,109.43L179.59,104.97L180.83,102.57L182.07,101L183.31,101.33L184.55,103.46L185.79,106.45L187.03,109.85L188.28,114.67L189.52,118.75L190.76,123.44L192,127.21L193.24,130.57L194.48,132.8L195.72,134.8L196.97,135.93L198.21,135.48L199.45,136.65L200.69,136.16L201.93,135.85L203.17,135.23L204.41,134.59L205.65,132.4L206.9,129.91L208.14,126.31L209.38,122.77L210.62,120.08L211.86,116.91L213.1,114.37L214.34,113.04L215.59,111.79L216.83,112.52L218.07,112.65L219.31,112.33L220.55,113.17L221.79,112.41L223.03,112.14L224.28,111.4L225.52,111.05L226.76,110.08L228,110.11L229.24,110.64L230.48,112.74L231.72,114.6L232.97,118.55L234.21,122.84L235.45,127.93L236.69,132.69L237.93,135.93L239.17,139.57L240.41,140.34L241.66,140.79L242.9,139.69L244.14,136.66L245.38,132.3L246.62,127.3L247.86,121.26L249.1,116.46L250.34,110.92L251.59,106.47L252.83,103.02L254.07,101.47L255.31,101.66L256.55,102.36L257.79,105.32L259.03,108.64L260.28,112.99L261.52,117.9L262.76,122.6L264,126.52L265.24,129.66L266.48,132.17L267.72,133.98L268.97,135.24L270.21,136.04L271.45,136.31L272.69,136.25L273.93,135.95L275.17,135.54L276.41,133.93L277.66,132.27L278.9,130.19L280.14,127.38L281.38,124.06L282.62,121.14L283.86,117.98L285.1,115.55L286.34,113.55L287.59,112.76L288.83,111.58L290.07,111.86L291.31,112.4L292.55,112.88L293.79,112.7L295.03,112.9L296.28,111.9L297.52,110.42L298.76,109.93L300,109.8" style="fill:none;stroke:#C9A5AF;stroke-width:1.2" />
<path d="M52.965,77.5L54.206,80.219L55.448,82.945L56.689,86.811L57.93,90.259L59.172,94.085L60.413,97.439L61.655,100.76L62.896,104.63L64.137,108.31L65.379,111.6L66.62,115.23L67.861,119.53L69.103,124.01L70.344,128.54L71.586,133.1L72.827,136.61L74.068,139.33L75.31,141.71L76.551,143.38L77.792,142.26L79.034,140.91L80.275,137.57L81.517,133.48L82.758,127.53L83.999,121.41L85.241,114.15L86.482,106.11L87.724,98.807L88.965,90.988L90.206,83.696L91.448,76.157L92.689,70.113L93.93,64.215L95.172,58.101L96.413,54.052L97.655,50.809L98.896,48.429L100.14,46.431L101.38,45.152L102.62,45.195L103.86,46.457L105.1,46.521L106.34,47.133L107.59,49.05L108.83,50.477L110.07,51.793L111.31,53.622L112.55,55.881L113.79,57.512L115.03,60.25L116.28,62.264L117.52,64.12L118.76,66.189L120,68.907L121.24,71.214L122.48,72.239L123.72,74.366L124.97,76.825L126.21,79.114L127.45,81.627L128.69,85.528L129.93,89.098L131.17,93.366L132.41,96.6L133.65,99.637L134.9,103.38L136.14,106.88L137.38,110.43L138.62,113.87L139.86,118.02L141.1,122.04L142.34,127.31L143.59,131.71L144.83,135.63L146.07,138.77L147.31,141.3L148.55,142.89L149.79,143.05L151.03,141.98L152.28,138.92L153.52,135.29L154.76,129.45L156,123.51L157.24,116.04L158.48,109.05L159.72,101.22L160.97,94.341L162.21,85.595L163.45,78.783L164.69,72.038L165.93,65.623L167.17,60.756L168.41,55.095L169.65,51.581L170.9,48.8L172.14,46.748L173.38,45.984L174.62,45.736L175.86,45.708L177.1,45.906L178.34,47.2L179.59,48.447L180.83,49.647L182.07,50.852L183.31,52.659L184.55,55.068L185.79,56.796L187.03,59.105L188.28,61.377L189.52,63.924L190.76,65.396L192,68.147L193.24,69.781L194.48,71.735L195.72,73.394L196.97,75.812L198.21,78.428L199.45,81.724L200.69,84.514L201.93,87.636L203.17,91.499L204.41,95.021L205.65,98.814L206.9,102.21L208.14,105.72L209.38,109.36L210.62,112.67L211.86,116.57L213.1,121.62L214.34,125.42L215.59,130.14L216.83,134.6L218.07,138.01L219.31,140.49L220.55,142.45L221.79,142.97L223.03,142.29L224.28,139.66L225.52,136.33L226.76,131.38L228,125.4L229.24,118.94L230.48,111.7L231.72,103.88L232.97,95.977L234.21,88.532L235.45,81.467L236.69,73.936L237.93,67.732L239.17,62.015L240.41,57.272L241.66,53.228L242.9,49.825L244.14,47.185L245.38,46.248L246.62,45.569L247.86,45.351L249.1,45.451L250.34,46.884L251.59,48.188L252.83,49.188L254.07,50.833L255.31,52.633L256.55,54.232L257.79,56.136L259.03,58.462L260.28,60.694L261.52,63.214L262.76,64.792L264,67.485L265.24,69.416L266.48,71.412L267.72,73.231L268.97,74.981L270.21,77.542L271.45,80.646L272.69,83.229L273.93,86.735L275.17,90.407L276.41,94.046L277.66,97.923L278.9,101.23L280.14,104.52L281.38,108.24L282.62,111.79L283.86,114.92L285.1,119.91L286.34,124.37L287.59,128.42L288.83,132.6L290.07,136.31L291.31,139.9L292.55,141.61L293.79,142.33L295.03,142.2L296.28,140.83L297.52,137.84L298.76,133.21L300,128.01" style="fill:none;stroke:#399CF5;stroke-width:1.2" />
</g>
</svg>
