<?xml version="1.0"?>
<!-- Generated by SVGo and Plotinum VG -->
<svg width="300pt" height="200pt" viewBox="0 0 300 200"
	xmlns="http://www.w3.org/2000/svg"
	xmlns:xlink="http://www.w3.org/1999/xlink">
<g transform="scale(1, -1) translate(0, -200)">
<path d="M0,0L300,0L300,200L0,200Z" style="fill:#FFFFFF" />
<text x="57.346" y="-190.61" transform="scale(1, -1)"
	style="font-family:Times;font-weight:normal;font-style:normal;font-size:12px">Radial Basis Function Kernel Samples</text>
<text x="167.23" y="-3.9023" transform="scale(1, -1)"
	style="font-family:Times;font-weight:normal;font-style:normal;font-size:12px">x</text>
<text x="58.036" y="-16.541" transform="scale(1, -1)"
	style="font-family:Times;font-weight:normal;font-style:normal;font-size:10px">-5</text>
<text x="168.38" y="-16.541" transform="scale(1, -1)"
	style="font-family:Times;font-weight:normal;font-style:normal;font-size:10px">0</text>
<text x="277.07" y="-16.541" transform="scale(1, -1)"
	style="font-family:Times;font-weight:normal;font-style:normal;font-size:10px">5</text>
<path d="M62.201,24.363L62.201,32.363" style="fill:none;stroke:#000000;stroke-width:0.5" />
<path d="M170.88,24.363L170.88,32.363" style="fill:none;stroke:#000000;stroke-width:0.5" />
<path d="M279.57,24.363L279.57,32.363" style="fill:none;stroke:#000000;stroke-width:0.5" />
<path d="M83.938,28.363L83.938,32.363" style="fill:none;stroke:#000000;stroke-width:0.5" />
<path d="M105.67,28.363L105.67,32.363" style="fill:none;stroke:#000000;stroke-width:0.5" />
<path d="M127.41,28.363L127.41,32.363" style="fill:none;stroke:#000000;stroke-width:0.5" />
<path d="M149.15,28.363L149.15,32.363" style="fill:none;stroke:#000000;stroke-width:0.5" />
<path d="M192.62,28.363L192.62,32.363" style="fill:none;stroke:#000000;stroke-width:0.5" />
<path d="M214.36,28.363L214.36,32.363" style="fill:none;stroke:#000000;stroke-width:0.5" />
<path d="M236.09,28.363L236.09,32.363" style="fill:none;stroke:#000000;stroke-width:0.5" />
<path d="M257.83,28.363L257.83,32.363" style="fill:none;stroke:#000000;stroke-width:0.5" />
<path d="M40.465,32.363L300,32.363" style="fill:none;stroke:#000000;stroke-width:0.5" />
<g transform="rotate(90)">
<text x="110.46" y="9.3867" transform="scale(1, -1)"
	style="font-family:Times;font-weight:normal;font-style:normal;font-size:12px">y</text>
</g>
<text x="15.885" y="-72.643" transform="scale(1, -1)"
	style="font-family:Times;font-weight:normal;font-style:normal;font-size:10px">-3</text>
<text x="19.215" y="-125.27" transform="scale(1, -1)"
	style="font-family:Times;font-weight:normal;font-style:normal;font-size:10px">0</text>
<text x="19.215" y="-177.9" transform="scale(1, -1)"
	style="font-family:Times;font-weight:normal;font-style:normal;font-size:10px">3</text>
<path d="M26.715,74.928L34.715,74.928" style="fill:none;stroke:#000000;stroke-width:0.5" />
<path d="M26.715,127.55L34.715,127.55" style="fill:none;stroke:#000000;stroke-width:0.5" />
<path d="M26.715,180.18L34.715,180.18" style="fill:none;stroke:#000000;stroke-width:0.5" />
<path d="M30.715,57.386L34.715,57.386" style="fill:none;stroke:#000000;stroke-width:0.5" />
<path d="M30.715,92.47L34.715,92.47" style="fill:none;stroke:#000000;stroke-width:0.5" />
<path d="M30.715,110.01L34.715,110.01" style="fill:none;stroke:#000000;stroke-width:0.5" />
<path d="M30.715,145.1L34.715,145.1" style="fill:none;stroke:#000000;stroke-width:0.5" />
<path d="M30.715,162.64L34.715,162.64" style="fill:none;stroke:#000000;stroke-width:0.5" />
<path d="M34.715,40.209L34.715,186.71" style="fill:none;stroke:#000000;stroke-width:0.5" />
<path d="M40.465,109.31L41.769,107.45L43.073,105.6L44.377,103.46L45.682,101.61L46.986,99.966L48.29,97.921L49.594,96.193L50.898,94.786L52.203,93.057L53.507,91.81L54.811,90.811L56.115,89.675L57.419,88.998L58.724,88.611L60.028,88.023L61.332,88.197L62.636,87.826L63.94,88.032L65.245,88.633L66.549,89.203L67.853,90.192L69.157,90.775L70.461,91.959L71.766,93.454L73.07,94.194L74.374,95.778L75.678,97.309L76.982,98.663L78.287,99.907L79.591,101.17L80.895,102.34L82.199,103L83.503,103.39L84.808,103.38L86.112,103.22L87.416,102.96L88.72,102.28L90.024,101.28L91.329,100.47L92.633,99.193L93.937,98.257L95.241,97.551L96.545,97.014L97.85,96.05L99.154,96.2L100.46,96.658L101.76,97.423L103.07,98.883L104.37,99.939L105.67,102.24L106.98,103.83L108.28,106.44L109.59,108.8L110.89,111.53L112.2,113.83L113.5,116.58L114.8,118.88L116.11,121.01L117.41,123.06L118.72,125.05L120.02,126.76L121.33,128.41L122.63,130.05L123.93,132.03L125.24,133.61L126.54,135.31L127.85,137.18L129.15,139.13L130.45,140.69L131.76,142.92L133.06,144.99L134.37,146.28L135.67,148.46L136.98,150.41L138.28,151.87L139.58,153.1L140.89,153.74L142.19,154.19L143.5,154.44L144.8,154.56L146.1,153.76L147.41,152.61L148.71,151.26L150.02,149.84L151.32,147.84L152.63,146.15L153.93,143.64L155.23,141.95L156.54,139.48L157.84,137.3L159.15,135.05L160.45,132.95L161.76,131.3L163.06,129.57L164.36,128.29L165.67,126.92L166.97,125.76L168.28,124.88L169.58,124.42L170.88,123.87L172.19,123.29L173.49,123.43L174.8,123.19L176.1,123L177.41,122.71L178.71,122.8L180.01,122.51L181.32,121.8L182.62,121.41L183.93,121.09L185.23,120.22L186.53,119.4L187.84,118.43L189.14,117.69L190.45,116.51L191.75,115.69L193.06,114.08L194.36,112.37L195.66,111.2L196.97,109.6L198.27,107.73L199.58,105.6L200.88,102.7L202.19,101.08L203.49,98.34L204.79,95.948L206.1,92.786L207.4,90.121L208.71,86.958L210.01,84.251L211.31,81.848L212.62,78.82L213.92,76.744L215.23,74.934L216.53,72.612L217.84,70.72L219.14,69.343L220.44,68.251L221.75,67.098L223.05,66.44L224.36,66.599L225.66,66.421L226.96,67.172L228.27,68.363L229.57,69.807L230.88,72.1L232.18,74.505L233.49,77.969L234.79,81.866L236.09,86.551L237.4,91.075L238.7,95.786L240.01,101.6L241.31,106.86L242.62,112.08L243.92,117.73L245.22,123.45L246.53,128.68L247.83,133.75L249.14,138.07L250.44,142.9L251.74,146.87L253.05,150.92L254.35,154.52L255.66,157.73L256.96,160.2L258.27,162.63L259.57,164.52L260.87,166.14L262.18,167.65L263.48,168.43L264.79,168.6L266.09,168.31L267.4,167.49L268.7,166.91L270,165.04L271.31,162.97L272.61,160.76L273.92,157.97L275.22,155.72L276.52,152.75L277.83,150.31L279.13,148.13L280.44,145.47L281.74,143.18L283.05,141.01L284.35,139.5L285.65,137.91L286.96,136.2L288.26,134.47L289.57,133.36L290.87,132.13L292.17,130.7L293.48,129.37L294.78,127.72L296.09,126.69L297.39,125.79L298.7,123.99L300,122.95" style="fill:none;stroke:#EF70F1;stroke-width:1.2" />
<path d="M40.465,165.4L41.769,164.91L43.073,163.9L44.377,162.58L45.682,161L46.986,159.35L48.29,157.28L49.594,155.82L50.898,154.41L52.203,153.05L53.507,151.55L54.811,150.64L56.115,149.33L57.419,148.75L58.724,147.99L60.028,147.63L61.332,147.39L62.636,146.9L63.94,146.61L65.245,146.29L66.549,146.5L67.853,145.57L69.157,145.09L70.461,144.25L71.766,142.77L73.07,141.39L74.374,139.51L75.678,137.48L76.982,135.03L78.287,132.13L79.591,128.56L80.895,125.06L82.199,121.14L83.503,117.21L84.808,112.75L86.112,109.07L87.416,105.05L88.72,101.35L90.024,97.857L91.329,94.008L92.633,91.529L93.937,88.888L95.241,87.351L96.545,86.207L97.85,85.797L99.154,86.268L100.46,86.874L101.76,88.149L103.07,89.764L104.37,92.052L105.67,94.902L106.98,98.364L108.28,101.8L109.59,105.45L110.89,109.3L112.2,113.47L113.5,118.04L114.8,121.6L116.11,126.13L117.41,130.05L118.72,134.29L120.02,138.43L121.33,142.47L122.63,145.5L123.93,148.81L125.24,151.32L126.54,154.5L127.85,156.19L129.15,158.52L130.45,160.11L131.76,161.87L133.06,163.13L134.37,163.78L135.67,164.85L136.98,166.18L138.28,166.12L139.58,166.47L140.89,167.29L142.19,167.25L143.5,167.4L144.8,167.2L146.1,167.1L147.41,166.78L148.71,166.35L150.02,165.7L151.32,164.39L152.63,164.15L153.93,163.07L155.23,161.36L156.54,160.2L157.84,158.67L159.15,156.62L160.45,154.89L161.76,152.66L163.06,150.5L164.36,148.42L165.67,145.59L166.97,143.73L168.28,141.18L169.58,138.74L170.88,136.39L172.19,134.25L173.49,132.17L174.8,130.34L176.1,128.36L177.41,126.47L178.71,125.05L180.01,123.41L181.32,121.87L182.62,120.39L183.93,119.25L185.23,117.92L186.53,116.2L187.84,114.87L189.14,113.61L190.45,112.29L191.75,111.26L193.06,110.11L194.36,109.15L195.66,108.69L196.97,107.77L198.27,107.48L199.58,107.82L200.88,108.17L202.19,108.68L203.49,109.6L204.79,111.04L206.1,112.91L207.4,114.48L208.71,117.04L210.01,119.42L211.31,122.31L212.62,125.53L213.92,128.54L215.23,132.12L216.53,135.39L217.84,138.88L219.14,142.49L220.44,145.32L221.75,147.85L223.05,150.61L224.36,152.92L225.66,155.29L226.96,156.28L228.27,157.46L229.57,157.98L230.88,158.18L232.18,158.06L233.49,158.31L234.79,157.82L236.09,156.47L237.4,155.36L238.7,154.48L240.01,153.5L241.31,152.82L242.62,151.63L243.92,151.19L245.22,150.82L246.53,150.8L247.83,150.93L249.14,151.78L250.44,152.68L251.74,154.03L253.05,155.1L254.35,157.22L255.66,157.98L256.96,159.62L258.27,160.55L259.57,161.39L260.87,161.54L262.18,161.43L263.48,160.5L264.79,159L266.09,157.03L267.4,155.17L268.7,151.72L270,148.75L271.31,145.22L272.61,141.27L273.92,137.2L275.22,133.09L276.52,129.16L277.83,125.55L279.13,121.24L280.44,117.58L281.74,113.74L283.05,110.81L284.35,107.54L285.65,104.22L286.96,101.53L288.26,98.819L289.57,96.228L290.87,93.958L292.17,92.007L293.48,90.22L294.78,88.773L296.09,87.823L297.39,87.05L298.7,86.172L300,86.062" style="fill:none;stroke:#93FA5E;stroke-width:1.2" />
<path d="M40.465,124.66L41.769,123.11L43.073,121.46L44.377,119.49L45.682,117.94L46.986,115.96L48.29,114.01L49.594,112.04L50.898,110.6L52.203,108.85L53.507,107.83L54.811,107.09L56.115,106.42L57.419,106.46L58.724,107.05L60.028,108.24L61.332,109.79L62.636,112.48L63.94,114.94L65.245,118.61L66.549,122.29L67.853,126.26L69.157,130.13L70.461,134.44L71.766,138.75L73.07,142.53L74.374,146.4L75.678,149.59L76.982,152.79L78.287,154.81L79.591,156.69L80.895,157.86L82.199,158.56L83.503,158.41L84.808,157.75L86.112,156.49L87.416,155.84L88.72,153.99L90.024,152.17L91.329,150.12L92.633,148.62L93.937,147.32L95.241,145.13L96.545,143.81L97.85,142.64L99.154,141.94L100.46,141.64L101.76,141.67L103.07,141.92L104.37,142.48L105.67,143.26L106.98,144.03L108.28,145.88L109.59,146.92L110.89,148.68L112.2,150.4L113.5,152.66L114.8,154.24L116.11,156.06L117.41,158.09L118.72,159.38L120.02,161.04L121.33,162.21L122.63,163.21L123.93,164.13L125.24,165.03L126.54,165.46L127.85,165.72L129.15,166.02L130.45,166.17L131.76,166.16L133.06,166.01L134.37,165.86L135.67,165.8L136.98,165.53L138.28,165.55L139.58,165.45L140.89,164.86L142.19,164.61L143.5,163.72L144.8,163.37L146.1,162.81L147.41,161.65L148.71,160.63L150.02,159.27L151.32,158L152.63,156L153.93,154.62L155.23,152.77L156.54,150.95L157.84,149.03L159.15,147.37L160.45,145.44L161.76,143.69L163.06,142.36L164.36,141.07L165.67,139.73L166.97,139.13L168.28,138.54L169.58,137.61L170.88,137.21L172.19,136.68L173.49,136.49L174.8,135.78L176.1,135.58L177.41,134.73L178.71,133.82L180.01,132.17L181.32,130.58L182.62,128.82L183.93,126.38L185.23,123.22L186.53,120.17L187.84,117.22L189.14,113.6L190.45,110.28L191.75,106.67L193.06,103.7L194.36,100.24L195.66,97.708L196.97,95.225L198.27,93.498L199.58,92.522L200.88,91.451L202.19,91.252L203.49,91.035L204.79,91.536L206.1,92.783L207.4,93.554L208.71,95.293L210.01,96.698L211.31,98.622L212.62,100.72L213.92,102.34L215.23,104.69L216.53,106.11L217.84,108.33L219.14,110.56L220.44,112.82L221.75,114.85L223.05,116.99L224.36,119.26L225.66,122.23L226.96,124.65L228.27,127.27L229.57,129.68L230.88,132.02L232.18,133.99L233.49,136.25L234.79,137.36L236.09,138.75L237.4,139.94L238.7,140.72L240.01,140.84L241.31,140.62L242.62,140.1L243.92,138.97L245.22,137.72L246.53,136.07L247.83,134.43L249.14,132.54L250.44,130.27L251.74,128.11L253.05,125.33L254.35,122.4L255.66,119.89L256.96,116.84L258.27,113.83L259.57,110.91L260.87,107.44L262.18,104.69L263.48,101.8L264.79,98.706L266.09,96.207L267.4,94.065L268.7,92.039L270,90.505L271.31,89.764L272.61,89.229L273.92,89.801L275.22,90.987L276.52,92.577L277.83,95.554L279.13,98.505L280.44,102.21L281.74,106.24L283.05,110.97L284.35,115.9L285.65,120.45L286.96,125.48L288.26,130.61L289.57,135.08L290.87,139.1L292.17,143.46L293.48,146.9L294.78,150.45L296.09,153.09L297.39,155.68L298.7,157.75L300,159.32" style="fill:none;stroke:#1AA06F;stroke-width:1.2" />
<path d="M40.465,107.51L41.769,108.22L43.073,108.87L44.377,109.02L45.682,109.46L46.986,109.33L48.29,108.82L49.594,108.06L50.898,107.56L52.203,106.9L53.507,105.92L54.811,104.77L56.115,104.5L57.419,104.28L58.724,103.93L60.028,104.24L61.332,104.92L62.636,106.05L63.94,107.44L65.245,109.47L66.549,111.82L67.853,114.74L69.157,117.46L70.461,120.61L71.766,124.14L73.07,128.15L74.374,131.29L75.678,134.78L76.982,137.92L78.287,141.28L79.591,143.9L80.895,146.33L82.199,148.26L83.503,149.69L84.808,150.64L86.112,150.83L87.416,151.12L88.72,151.21L90.024,151L91.329,150L92.633,149.17L93.937,148.2L95.241,147.74L96.545,147.11L97.85,146.85L99.154,146.53L100.46,146.91L101.76,147.23L103.07,147.79L104.37,148.85L105.67,149.6L106.98,150.28L108.28,151.15L109.59,151.74L110.89,152.35L112.2,152.46L113.5,152.26L114.8,151.84L116.11,151.08L117.41,149.72L118.72,148.21L120.02,146L121.33,144.62L122.63,142.63L123.93,141L125.24,139.63L126.54,138.97L127.85,138.7L129.15,138.73L130.45,139.46L131.76,140.98L133.06,142.66L134.37,145.08L135.67,147.86L136.98,151.2L138.28,154.12L139.58,157.46L140.89,160.77L142.19,163.85L143.5,166.29L144.8,168.38L146.1,169.72L147.41,170.2L148.71,170.63L150.02,169.84L151.32,168.14L152.63,166.24L153.93,163.65L155.23,160.53L156.54,156.42L157.84,152.58L159.15,147.92L160.45,143.95L161.76,139.7L163.06,135.56L164.36,132.21L165.67,128.76L166.97,126.17L168.28,124.2L169.58,123.05L170.88,122.06L172.19,122.19L173.49,123L174.8,124.18L176.1,126.36L177.41,129.57L178.71,132.64L180.01,136.15L181.32,140.77L182.62,144.82L183.93,149.76L185.23,154.49L186.53,159.34L187.84,164.28L189.14,168.58L190.45,172.79L191.75,176.38L193.06,179.3L194.36,182.37L195.66,184.83L196.97,186.31L198.27,186.47L199.58,186.71L200.88,186.1L202.19,185.07L203.49,183.35L204.79,181.26L206.1,178.92L207.4,176.55L208.71,173.1L210.01,170.56L211.31,167.13L212.62,164L213.92,160.74L215.23,157.76L216.53,153.89L217.84,150.22L219.14,146.68L220.44,143.27L221.75,139.13L223.05,135.51L224.36,131.74L225.66,127.74L226.96,124.15L228.27,120.58L229.57,117.37L230.88,113.52L232.18,110.64L233.49,108.05L234.79,105.65L236.09,103.85L237.4,101.85L238.7,100.61L240.01,99.476L241.31,98.45L242.62,97.786L243.92,96.97L245.22,96.248L246.53,96.325L247.83,96.121L249.14,96.038L250.44,96.985L251.74,98.02L253.05,99.058L254.35,100.91L255.66,103.42L256.96,106.22L258.27,109.54L259.57,113.65L260.87,117.29L262.18,122.14L263.48,126.27L264.79,130.46L266.09,134.96L267.4,139.08L268.7,142.51L270,145.34L271.31,147.65L272.61,149.52L273.92,150.22L275.22,150.21L276.52,149.65L277.83,148.87L279.13,147.25L280.44,145.32L281.74,143.04L283.05,140.68L284.35,138.36L285.65,135.64L286.96,133.69L288.26,131.56L289.57,129.88L290.87,128.32L292.17,127.09L293.48,125.48L294.78,124.11L296.09,123.14L297.39,121.86L298.7,120.3L300,119.55" style="fill:none;stroke:#DA29E2;stroke-width:1.2" />
<path d="M40.465,131.76L41.769,129.53L43.073,127.29L44.377,125.05L45.682,122.91L46.986,121.02L48.29,118.91L49.594,116.84L50.898,114.51L52.203,112.35L53.507,110.15L54.811,107.83L56.115,105.46L57.419,102.67L58.724,100.09L60.028,98.012L61.332,96.006L62.636,94.137L63.94,92.277L65.245,91.309L66.549,90.171L67.853,89.793L69.157,90.218L70.461,90.551L71.766,91.272L73.07,92.553L74.374,94.48L75.678,96.055L76.982,98.961L78.287,101.29L79.591,104.07L80.895,106.26L82.199,109.38L83.503,111.89L84.808,114.5L86.112,117.02L87.416,119.27L88.72,121.48L90.024,123.78L91.329,125.68L92.633,127.13L93.937,127.8L95.241,128.99L96.545,128.91L97.85,129.24L99.154,128.86L100.46,128.28L101.76,126.72L103.07,125.08L104.37,123.27L105.67,120.91L106.98,118.1L108.28,115.42L109.59,112.5L110.89,109.45L112.2,106.81L113.5,104.14L114.8,101.57L116.11,99.649L117.41,98.251L118.72,96.482L120.02,95.632L121.33,95.573L122.63,96.116L123.93,97.369L125.24,98.678L126.54,101.17L127.85,104.08L129.15,107.29L130.45,110.1L131.76,113.92L133.06,117.67L134.37,121.21L135.67,124.45L136.98,127.52L138.28,129.97L139.58,132.13L140.89,133.35L142.19,133.99L143.5,134.67L144.8,134.48L146.1,133.53L147.41,132.79L148.71,131.84L150.02,130.32L151.32,129.51L152.63,127.88L153.93,127.16L155.23,126.31L156.54,125.84L157.84,125.78L159.15,126.29L160.45,126.84L161.76,127.52L163.06,128.72L164.36,129.72L165.67,130.78L166.97,131.18L168.28,132.3L169.58,132.33L170.88,132.19L172.19,131.33L173.49,129.7L174.8,127.99L176.1,125.61L177.41,122.76L178.71,119.37L180.01,115.32L181.32,111.18L182.62,107.64L183.93,103.71L185.23,100.09L186.53,96.287L187.84,93.198L189.14,91.239L190.45,88.918L191.75,88.376L193.06,87.165L194.36,87.332L195.66,88.323L196.97,89.737L198.27,91.707L199.58,94.195L200.88,97.638L202.19,100.5L203.49,104.11L204.79,108.3L206.1,112.56L207.4,116.45L208.71,120.82L210.01,125.24L211.31,129.11L212.62,133.06L213.92,136.62L215.23,139.75L216.53,142.68L217.84,144.49L219.14,145.72L220.44,146.61L221.75,147.26L223.05,146.63L224.36,145.3L225.66,144.12L226.96,141.81L228.27,138.93L229.57,135.89L230.88,132.92L232.18,129.47L233.49,126.83L234.79,124.02L236.09,121.89L237.4,119.89L238.7,118.68L240.01,118.11L241.31,118.53L242.62,119.41L243.92,120.62L245.22,123.1L246.53,125.47L247.83,128.16L249.14,130.48L250.44,133.61L251.74,136.15L253.05,138.4L254.35,140.46L255.66,141.54L256.96,141.74L258.27,141.54L259.57,140.75L260.87,139.19L262.18,137.01L263.48,133.91L264.79,130.51L266.09,126.71L267.4,122.73L268.7,118.22L270,113.57L271.31,108.89L272.61,104.3L273.92,100.69L275.22,96.614L276.52,92.967L277.83,89.744L279.13,86.783L280.44,84.3L281.74,82.559L283.05,80.806L284.35,80.415L285.65,79.568L286.96,79.952L288.26,80.136L289.57,81.784L290.87,83.015L292.17,85.035L293.48,87.227L294.78,89.952L296.09,93.147L297.39,96.419L298.7,99.502L300,102.76" style="fill:none;stroke:#AAA342;stroke-width:1.2" />
<path d="M40.465,153.45L41.769,155.87L43.073,157.41L44.377,159.27L45.682,160.45L46.986,161.48L48.29,161.99L49.594,162.05L50.898,161.66L52.203,160.96L53.507,159.29L54.811,157.35L56.115,154.42L57.419,151.21L58.724,147.17L60.028,143.06L61.332,138.14L62.636,133.25L63.94,128.08L65.245,122.7L66.549,117.37L67.853,111.7L69.157,106.73L70.461,101.46L71.766,97.275L73.07,93.467L74.374,90.153L75.678,88.291L76.982,86.564L78.287,85.713L79.591,85.604L80.895,86.66L82.199,88.477L83.503,90.914L84.808,93.49L86.112,96.176L87.416,99.441L88.72,102.62L90.024,105.49L91.329,108.17L92.633,110.38L93.937,111.96L95.241,113.36L96.545,113.6L97.85,113.13L99.154,112.45L100.46,111.07L101.76,110L103.07,107.84L104.37,106.11L105.67,104.19L106.98,102.28L108.28,100.51L109.59,99.265L110.89,98.102L112.2,97.373L113.5,97.19L114.8,97.156L116.11,97.674L117.41,98.37L118.72,99.067L120.02,100.05L121.33,100.69L122.63,100.96L123.93,101.44L125.24,101.52L126.54,100.77L127.85,100.21L129.15,98.769L130.45,96.885L131.76,95.009L133.06,91.99L134.37,89.589L135.67,86.59L136.98,83.444L138.28,80.565L139.58,77.743L140.89,74.795L142.19,72.334L143.5,70.251L144.8,68.208L146.1,67.144L147.41,66.323L148.71,66.76L150.02,67.1L151.32,67.87L152.63,69.874L153.93,71.801L155.23,74.988L156.54,78.013L157.84,81.782L159.15,85.713L160.45,90.256L161.76,94.776L163.06,99.4L164.36,103.9L165.67,108.04L166.97,112.57L168.28,116.54L169.58,119.88L170.88,123.25L172.19,125.85L173.49,128.45L174.8,131.05L176.1,132.81L177.41,134.48L178.71,136.01L180.01,137.55L181.32,139.21L182.62,141.46L183.93,143.75L185.23,146.09L186.53,148.6L187.84,151.35L189.14,154.46L190.45,158.01L191.75,161.83L193.06,165.55L194.36,169.21L195.66,172.54L196.97,175.58L198.27,178.51L199.58,180.59L200.88,182.79L202.19,183.83L203.49,183.97L204.79,183.4L206.1,182.64L207.4,180.28L208.71,177.81L210.01,173.72L211.31,169.52L212.62,164.47L213.92,159.02L215.23,153.42L216.53,147.45L217.84,141.43L219.14,135.12L220.44,129.38L221.75,123.52L223.05,117.86L224.36,112.47L225.66,107.87L226.96,103.05L228.27,98.399L229.57,94.665L230.88,91.266L232.18,87.942L233.49,84.651L234.79,82.476L236.09,79.904L237.4,77.647L238.7,76.248L240.01,75.196L241.31,74.875L242.62,74.582L243.92,74.849L245.22,75.647L246.53,77.203L247.83,79.141L249.14,81.629L250.44,84.496L251.74,87.515L253.05,91.357L254.35,95.406L255.66,99.33L256.96,103.72L258.27,107.66L259.57,112.43L260.87,116.62L262.18,120.82L263.48,125.13L264.79,129.43L266.09,133.22L267.4,137.24L268.7,140.99L270,144.64L271.31,148.17L272.61,151.18L273.92,154.17L275.22,157.16L276.52,158.93L277.83,160.79L279.13,161.97L280.44,162.7L281.74,163.28L283.05,163.03L284.35,162.63L285.65,162L286.96,160.42L288.26,158.35L289.57,156.71L290.87,154.47L292.17,151.86L293.48,149.15L294.78,146.47L296.09,143.47L297.39,140.1L298.7,137.42L300,134.48" style="fill:none;stroke:#B4B68A;stroke-width:1.2" />
<path d="M40.465,124.12L41.769,123.13L43.073,121.04L44.377,119.26L45.682,117.17L46.986,114.98L48.29,112.8L49.594,110.77L50.898,109.28L52.203,107.65L53.507,106.7L54.811,106.18L56.115,106.24L57.419,106.57L58.724,107L60.028,108.17L61.332,110.26L62.636,111.91L63.94,113.73L65.245,115.37L66.549,116.87L67.853,118.87L69.157,120.35L70.461,121.03L71.766,121.37L73.07,121.06L74.374,120.22L75.678,118.87L76.982,118.06L78.287,116.7L79.591,114.62L80.895,112.94L82.199,111.12L83.503,109.6L84.808,108.48L86.112,107.53L87.416,107.2L88.72,107.39L90.024,107.75L91.329,108.62L92.633,110L93.937,111.8L95.241,113.84L96.545,115.42L97.85,117.34L99.154,119.25L100.46,121.26L101.76,122.2L103.07,123.71L104.37,124.42L105.67,124.56L106.98,124.49L108.28,124.12L109.59,123.33L110.89,122.49L112.2,121.05L113.5,119.6L114.8,117.92L116.11,116.65L117.41,114.96L118.72,113.47L120.02,112.37L121.33,110.94L122.63,110.1L123.93,108.56L125.24,107.78L126.54,106.66L127.85,105.15L129.15,104.31L130.45,103.36L131.76,102.57L133.06,101.4L134.37,101.12L135.67,100.24L136.98,100.51L138.28,100.37L139.58,100.6L140.89,101.7L142.19,102.93L143.5,104.46L144.8,106.6L146.1,109.31L147.41,111.85L148.71,113.97L150.02,117.04L151.32,119.38L152.63,121.59L153.93,123.24L155.23,124.49L156.54,125.3L157.84,125.06L159.15,125.14L160.45,123.6L161.76,122.03L163.06,120.05L164.36,117.86L165.67,114.87L166.97,112.31L168.28,109.56L169.58,107.12L170.88,104.46L172.19,103.09L173.49,101.71L174.8,101.3L176.1,101.14L177.41,101.78L178.71,102.84L180.01,104.64L181.32,106.9L182.62,109.94L183.93,112.34L185.23,115.76L186.53,119.72L187.84,122.73L189.14,126.13L190.45,129.16L191.75,132.24L193.06,134.04L194.36,136.75L195.66,138L196.97,139L198.27,139.79L199.58,139.5L200.88,139.61L202.19,138.87L203.49,137.86L204.79,136.37L206.1,134.76L207.4,133.09L208.71,131.03L210.01,128.84L211.31,127L212.62,124.59L213.92,121.86L215.23,119.16L216.53,116.89L217.84,114.22L219.14,111.75L220.44,109.22L221.75,106.99L223.05,104.51L224.36,102.59L225.66,100.37L226.96,98.427L228.27,96.729L229.57,95.484L230.88,94.098L232.18,93.502L233.49,92.743L234.79,92.702L236.09,92.212L237.4,92.438L238.7,93.028L240.01,93.833L241.31,94.523L242.62,96.111L243.92,97.202L245.22,99.351L246.53,101.35L247.83,103.66L249.14,106.65L250.44,109.39L251.74,111.87L253.05,115.3L254.35,118.12L255.66,121.44L256.96,124.53L258.27,127.43L259.57,130.73L260.87,133.56L262.18,135.85L263.48,138.9L264.79,141.04L266.09,142.52L267.4,144.46L268.7,145.89L270,147.56L271.31,149.13L272.61,150.54L273.92,151.9L275.22,153.09L276.52,153.88L277.83,155.03L279.13,155.73L280.44,156.58L281.74,157.06L283.05,157.3L284.35,156.64L285.65,156.4L286.96,155.4L288.26,153.86L289.57,151.86L290.87,149.89L292.17,146.97L293.48,143.92L294.78,140.26L296.09,137.01L297.39,133.32L298.7,129.03L300,125.34" style="fill:none;stroke:#AEBA9D;stroke-width:1.2" />
<path d="M40.465,134.28L41.769,133.92L43.073,133.66L44.377,133.64L45.682,133.88L46.986,133.56L48.29,134.26L49.594,134.89L50.898,135.51L52.203,136.15L53.507,136.83L54.811,137.29L56.115,137.73L57.419,137.57L58.724,137.05L60.028,136.18L61.332,134.91L62.636,133.59L63.94,131.22L65.245,128.9L66.549,126.12L67.853,122.85L69.157,119.53L70.461,115.43L71.766,111.8L73.07,107.43L74.374,103.23L75.678,98.961L76.982,94.522L78.287,89.896L79.591,85.319L80.895,80.861L82.199,76.267L83.503,72.101L84.808,67.495L86.112,63.115L87.416,58.815L88.72,54.939L90.024,51.605L91.329,48.227L92.633,45.222L93.937,43.157L95.241,41.606L96.545,40.475L97.85,40.209L99.154,40.527L100.46,41.648L101.76,43.702L103.07,46.186L104.37,48.622L105.67,51.856L106.98,55.685L108.28,59.529L109.59,63.135L110.89,67.235L112.2,70.86L113.5,74.729L114.8,77.864L116.11,80.522L117.41,83.277L118.72,85.716L120.02,88.38L121.33,90.186L122.63,92.248L123.93,94.355L125.24,96.329L126.54,98.841L127.85,101.37L129.15,104.31L130.45,107.68L131.76,111.17L133.06,115.21L134.37,119.47L135.67,123.89L136.98,128.72L138.28,133.41L139.58,138.32L140.89,142.72L142.19,146.83L143.5,150.77L144.8,154.43L146.1,157.52L147.41,160.05L148.71,162.44L150.02,163.55L151.32,163.85L152.63,163.48L153.93,162.35L155.23,160.49L156.54,157.46L157.84,154.33L159.15,150.24L160.45,145.67L161.76,139.93L163.06,134.52L164.36,128.33L165.67,122.12L166.97,115.07L168.28,108.37L169.58,101.97L170.88,95.475L172.19,89.037L173.49,83.576L174.8,78.495L176.1,74.081L177.41,70.511L178.71,67.636L180.01,66.358L181.32,65.217L182.62,65.636L183.93,66.211L185.23,68.263L186.53,71.211L187.84,74.303L189.14,77.9L190.45,81.914L191.75,86.285L193.06,90.153L194.36,94.116L195.66,98.064L196.97,101.49L198.27,104.33L199.58,106.94L200.88,109.55L202.19,111.42L203.49,112.63L204.79,114.15L206.1,114.34L207.4,115.55L208.71,116.17L210.01,116.8L211.31,117.6L212.62,118.6L213.92,119.2L215.23,119.94L216.53,121.3L217.84,122.83L219.14,124.53L220.44,126.48L221.75,128.32L223.05,130.49L224.36,132.53L225.66,134.36L226.96,136.68L228.27,138.32L229.57,140.78L230.88,142.84L232.18,144.63L233.49,146.39L234.79,147.78L236.09,149.4L237.4,150L238.7,150.63L240.01,150.96L241.31,151.24L242.62,150.91L243.92,150.31L245.22,149.74L246.53,148.12L247.83,146.64L249.14,144.7L250.44,142.86L251.74,140.67L253.05,138.26L254.35,135.61L255.66,133.07L256.96,130.18L258.27,126.83L259.57,124.14L260.87,121.67L262.18,118.38L263.48,115.67L264.79,113.01L266.09,110.72L267.4,108.15L268.7,106.59L270,104.99L271.31,103.19L272.61,102.6L273.92,102.47L275.22,103.24L276.52,104.1L277.83,106.41L279.13,108.82L280.44,112.06L281.74,115.39L283.05,120.09L284.35,125.18L285.65,130.85L286.96,136.05L288.26,141.8L289.57,147.81L290.87,153.26L292.17,158.94L293.48,163.79L294.78,167.89L296.09,171.28L297.39,174.46L298.7,176.75L300,177.96" style="fill:none;stroke:#44EE71;stroke-width:1.2" />
<path d="M40.465,113.76L41.769,114.84L43.073,115.66L44.377,116.66L45.682,116.99L46.986,117.62L48.29,117.98L49.594,118.51L50.898,118.78L52.203,119.76L53.507,120.77L54.811,122.16L56.115,123.83L57.419,124.9L58.724,127.56L60.028,129.44L61.332,131.5L62.636,133.51L63.94,135.34L65.245,136.79L66.549,137.59L67.853,137.44L69.157,137.4L70.461,136.24L71.766,134.62L73.07,132.08L74.374,129.65L75.678,126.48L76.982,123.23L78.287,119.78L79.591,116.02L80.895,112.92L82.199,109.39L83.503,106.99L84.808,104.38L86.112,102.46L87.416,101.08L88.72,99.95L90.024,99.381L91.329,99.206L92.633,99.321L93.937,100.16L95.241,101L96.545,102.01L97.85,103.62L99.154,105.56L100.46,107.67L101.76,110.17L103.07,112.78L104.37,115.73L105.67,118.18L106.98,120.98L108.28,123.86L109.59,126.45L110.89,128.81L112.2,131.39L113.5,133.42L114.8,135.13L116.11,137.01L117.41,138.14L118.72,139.53L120.02,140.1L121.33,140.56L122.63,140.95L123.93,141.17L125.24,141.32L126.54,141.42L127.85,141.6L129.15,140.63L130.45,140.11L131.76,139.55L133.06,138.59L134.37,137.2L135.67,135.54L136.98,133.92L138.28,131.62L139.58,130.02L140.89,127.8L142.19,125.1L143.5,122.99L144.8,120.36L146.1,118.82L147.41,116.9L148.71,115.68L150.02,114.6L151.32,114.08L152.63,113.8L153.93,114.35L155.23,114.22L156.54,115.11L157.84,115.83L159.15,117.02L160.45,118.15L161.76,119.2L163.06,120.17L164.36,120.34L165.67,121.49L166.97,121.76L168.28,121.8L169.58,122.06L170.88,121.61L172.19,121.45L173.49,121.34L174.8,121.05L176.1,121.1L177.41,120.69L178.71,121.14L180.01,121.49L181.32,121.37L182.62,121.54L183.93,122.23L185.23,122.28L186.53,122.71L187.84,122.87L189.14,122.33L190.45,121.97L191.75,121.08L193.06,120.28L194.36,118.95L195.66,117.4L196.97,115.17L198.27,113.33L199.58,111.38L200.88,109.55L202.19,108.25L203.49,106.64L204.79,105.91L206.1,104.71L207.4,104.78L208.71,105.33L210.01,105.87L211.31,107.24L212.62,108.31L213.92,110.26L215.23,111.61L216.53,113.37L217.84,115.25L219.14,116.23L220.44,117.79L221.75,118.57L223.05,119.46L224.36,119.66L225.66,120.06L226.96,119.89L228.27,119.21L229.57,118.81L230.88,118.86L232.18,118.25L233.49,117.94L234.79,117.64L236.09,117.23L237.4,117.09L238.7,117.36L240.01,117.25L241.31,117.42L242.62,117.7L243.92,117.49L245.22,117.33L246.53,117.25L247.83,117.66L249.14,117.13L250.44,117.08L251.74,116.67L253.05,116.73L254.35,116.58L255.66,117.06L256.96,117.18L258.27,118.22L259.57,119.52L260.87,121.04L262.18,122.94L263.48,124.83L264.79,127.5L266.09,130.31L267.4,132.72L268.7,135.31L270,138.11L271.31,140.73L272.61,142.72L273.92,144.39L275.22,146.17L276.52,147.16L277.83,148.1L279.13,148.6L280.44,148.93L281.74,148.9L283.05,148.99L284.35,149.02L285.65,149.23L286.96,149.16L288.26,149.8L289.57,150.02L290.87,150.27L292.17,150.88L293.48,150.77L294.78,150.79L296.09,150.55L297.39,149.94L298.7,148.47L300,147.53" style="fill:none;stroke:#C9A5AF;stroke-width:1.2" />
<path d="M40.465,152.94L41.769,151.47L43.073,149.62L44.377,147.53L45.682,145.09L46.986,142.78L48.29,140.66L49.594,137.98L50.898,136.15L52.203,134.03L53.507,131.92L54.811,130.15L56.115,128.76L57.419,126.85L58.724,125.47L60.028,124.22L61.332,122.74L62.636,121.22L63.94,119.8L65.245,118.69L66.549,117.18L67.853,116.53L69.157,115.14L70.461,114.64L71.766,113.59L73.07,113.17L74.374,113.16L75.678,113.47L76.982,113.67L78.287,114.28L79.591,115.13L80.895,116.09L82.199,117.43L83.503,118.44L84.808,119.38L86.112,120.01L87.416,120.46L88.72,120.65L90.024,120.22L91.329,119.45L92.633,118.42L93.937,117.06L95.241,115.47L96.545,113.3L97.85,111.25L99.154,109.37L100.46,107.14L101.76,105.16L103.07,103.1L104.37,101.56L105.67,100.73L106.98,100.32L108.28,100.25L109.59,100.6L110.89,101.06L112.2,102.1L113.5,103.27L114.8,105.03L116.11,106.7L117.41,108.33L118.72,110.28L120.02,112.55L121.33,114.16L122.63,116.12L123.93,118.24L125.24,120.42L126.54,122.19L127.85,124.43L129.15,125.87L130.45,127.97L131.76,129.92L133.06,131.11L134.37,132.86L135.67,133.89L136.98,134.84L138.28,135.81L139.58,136.3L140.89,136.82L142.19,137.12L143.5,137.34L144.8,137.21L146.1,136.56L147.41,136.33L148.71,136.39L150.02,135.64L151.32,135.73L152.63,135.94L153.93,135.72L155.23,136.21L156.54,136.39L157.84,136.15L159.15,136.49L160.45,136.75L161.76,136.58L163.06,136.63L164.36,136.26L165.67,135.88L166.97,135.8L168.28,135.48L169.58,135.25L170.88,134.49L172.19,134.48L173.49,133.94L174.8,133.96L176.1,134.49L177.41,135.18L178.71,135.59L180.01,136.26L181.32,137.13L182.62,137.78L183.93,138.92L185.23,139.49L186.53,139.8L187.84,140.18L189.14,139.2L190.45,138.33L191.75,136.89L193.06,134.71L194.36,132.64L195.66,129.63L196.97,125.99L198.27,122.45L199.58,118.53L200.88,115.21L202.19,111.28L203.49,108.19L204.79,104.83L206.1,101.85L207.4,99.369L208.71,97.166L210.01,95.82L211.31,94.091L212.62,92.837L213.92,92.035L215.23,91.729L216.53,91.44L217.84,91.028L219.14,91.352L220.44,91.46L221.75,91.574L223.05,91.938L224.36,92.484L225.66,93.076L226.96,93.664L228.27,95.275L229.57,96.215L230.88,97.659L232.18,100.04L233.49,101.65L234.79,103.89L236.09,106.43L237.4,109.79L238.7,113L240.01,116.75L241.31,120.89L242.62,125.37L243.92,129.93L245.22,135.12L246.53,139.84L247.83,144.97L249.14,149.82L250.44,154.56L251.74,158.92L253.05,162.4L254.35,165.89L255.66,168.92L256.96,170.8L258.27,171.67L259.57,172.22L260.87,171.92L262.18,171.48L263.48,170.2L264.79,168.09L266.09,165.6L267.4,162.67L268.7,160.08L270,157.06L271.31,154.09L272.61,151.62L273.92,148.61L275.22,145.73L276.52,143.67L277.83,141.28L279.13,139.01L280.44,137.17L281.74,135.56L283.05,133.28L284.35,131.51L285.65,129.77L286.96,128.09L288.26,126.12L289.57,124.77L290.87,122.79L292.17,121.56L293.48,119.91L294.78,118.16L296.09,117.18L297.39,115.7L298.7,114.69L300,113.41" style="fill:none;stroke:#399CF5;stroke-width:1.2" />
</g>
</svg>
