<?xml version="1.0"?>
<!-- Generated by SVGo and Plotinum VG -->
<svg width="283.46pt" height="283.46pt" viewBox="0 0 283.46 283.46"
	xmlns="http://www.w3.org/2000/svg"
	xmlns:xlink="http://www.w3.org/1999/xlink">
<g transform="scale(1, -1) translate(0, -283.46)">
<path d="M0,0L283.46,0L283.46,283.46L0,283.46Z" style="fill:#FFFFFF" />
<text x="48.252" y="-274.5" transform="scale(1, -1)"
	style="font-family:Times;font-weight:normal;font-style:normal;font-size:12px">S</text>
<text x="54.926" y="-274.5" transform="scale(1, -1)"
	style="font-family:Times;font-weight:normal;font-style:normal;font-size:12px">c</text>
<text x="60.252" y="-274.5" transform="scale(1, -1)"
	style="font-family:Times;font-weight:normal;font-style:normal;font-size:12px">a</text>
<text x="65.578" y="-274.5" transform="scale(1, -1)"
	style="font-family:Times;font-weight:normal;font-style:normal;font-size:12px">t</text>
<text x="68.912" y="-274.5" transform="scale(1, -1)"
	style="font-family:Times;font-weight:normal;font-style:normal;font-size:12px">t</text>
<text x="72.246" y="-274.5" transform="scale(1, -1)"
	style="font-family:Times;font-weight:normal;font-style:normal;font-size:12px">e</text>
<text x="77.572" y="-274.5" transform="scale(1, -1)"
	style="font-family:Times;font-weight:normal;font-style:normal;font-size:12px">r</text>
<text x="81.568" y="-274.5" transform="scale(1, -1)"
	style="font-family:Times;font-weight:normal;font-style:normal;font-size:12px"> </text>
<text x="84.568" y="-274.5" transform="scale(1, -1)"
	style="font-family:Times;font-weight:normal;font-style:normal;font-size:12px">P</text>
<text x="91.242" y="-274.5" transform="scale(1, -1)"
	style="font-family:Times;font-weight:normal;font-style:normal;font-size:12px">l</text>
<text x="94.576" y="-274.5" transform="scale(1, -1)"
	style="font-family:Times;font-weight:normal;font-style:normal;font-size:12px">o</text>
<text x="100.58" y="-274.5" transform="scale(1, -1)"
	style="font-family:Times;font-weight:normal;font-style:normal;font-size:12px">t</text>
<text x="103.91" y="-274.5" transform="scale(1, -1)"
	style="font-family:Times;font-weight:normal;font-style:normal;font-size:12px"> </text>
<text x="106.91" y="-274.5" transform="scale(1, -1)"
	style="font-family:Times;font-weight:normal;font-style:normal;font-size:12px">o</text>
<text x="112.91" y="-274.5" transform="scale(1, -1)"
	style="font-family:Times;font-weight:normal;font-style:normal;font-size:12px">f</text>
<text x="116.91" y="-274.5" transform="scale(1, -1)"
	style="font-family:Times;font-weight:normal;font-style:normal;font-size:12px"> </text>
<text x="119.91" y="-274.5" transform="scale(1, -1)"
	style="font-family:Times;font-weight:normal;font-style:normal;font-size:12px">t</text>
<text x="123.24" y="-274.5" transform="scale(1, -1)"
	style="font-family:Times;font-weight:normal;font-style:normal;font-size:12px">h</text>
<text x="129.24" y="-274.5" transform="scale(1, -1)"
	style="font-family:Times;font-weight:normal;font-style:normal;font-size:12px">e</text>
<text x="134.57" y="-274.5" transform="scale(1, -1)"
	style="font-family:Times;font-weight:normal;font-style:normal;font-size:12px"> </text>
<text x="137.57" y="-274.5" transform="scale(1, -1)"
	style="font-family:Times;font-weight:normal;font-style:normal;font-size:12px">R</text>
<text x="145.57" y="-274.5" transform="scale(1, -1)"
	style="font-family:Times;font-weight:normal;font-style:normal;font-size:12px">e</text>
<text x="150.9" y="-274.5" transform="scale(1, -1)"
	style="font-family:Times;font-weight:normal;font-style:normal;font-size:12px">d</text>
<text x="156.9" y="-274.5" transform="scale(1, -1)"
	style="font-family:Times;font-weight:normal;font-style:normal;font-size:12px">u</text>
<text x="162.9" y="-274.5" transform="scale(1, -1)"
	style="font-family:Times;font-weight:normal;font-style:normal;font-size:12px">c</text>
<text x="168.22" y="-274.5" transform="scale(1, -1)"
	style="font-family:Times;font-weight:normal;font-style:normal;font-size:12px">e</text>
<text x="173.55" y="-274.5" transform="scale(1, -1)"
	style="font-family:Times;font-weight:normal;font-style:normal;font-size:12px">d</text>
<text x="179.55" y="-274.5" transform="scale(1, -1)"
	style="font-family:Times;font-weight:normal;font-style:normal;font-size:12px"> </text>
<text x="182.55" y="-274.5" transform="scale(1, -1)"
	style="font-family:Times;font-weight:normal;font-style:normal;font-size:12px">D</text>
<text x="191.21" y="-274.5" transform="scale(1, -1)"
	style="font-family:Times;font-weight:normal;font-style:normal;font-size:12px">i</text>
<text x="194.55" y="-274.5" transform="scale(1, -1)"
	style="font-family:Times;font-weight:normal;font-style:normal;font-size:12px">m</text>
<text x="203.88" y="-274.5" transform="scale(1, -1)"
	style="font-family:Times;font-weight:normal;font-style:normal;font-size:12px">e</text>
<text x="209.21" y="-274.5" transform="scale(1, -1)"
	style="font-family:Times;font-weight:normal;font-style:normal;font-size:12px">n</text>
<text x="215.21" y="-274.5" transform="scale(1, -1)"
	style="font-family:Times;font-weight:normal;font-style:normal;font-size:12px">s</text>
<text x="219.88" y="-274.5" transform="scale(1, -1)"
	style="font-family:Times;font-weight:normal;font-style:normal;font-size:12px">i</text>
<text x="223.21" y="-274.5" transform="scale(1, -1)"
	style="font-family:Times;font-weight:normal;font-style:normal;font-size:12px">o</text>
<text x="229.21" y="-274.5" transform="scale(1, -1)"
	style="font-family:Times;font-weight:normal;font-style:normal;font-size:12px">n</text>
<text x="156.63" y="0.50977" transform="scale(1, -1)"
	style="font-family:Times;font-weight:normal;font-style:normal;font-size:12px">x</text>
<text x="42.289" y="-5.6198" transform="scale(1, -1)"
	style="font-family:Times;font-weight:normal;font-style:normal;font-size:10px">-</text>
<text x="45.619" y="-5.6198" transform="scale(1, -1)"
	style="font-family:Times;font-weight:normal;font-style:normal;font-size:10px">8</text>
<text x="107.63" y="-5.6849" transform="scale(1, -1)"
	style="font-family:Times;font-weight:normal;font-style:normal;font-size:10px">-</text>
<text x="110.96" y="-5.6849" transform="scale(1, -1)"
	style="font-family:Times;font-weight:normal;font-style:normal;font-size:10px">4</text>
<text x="174.64" y="-5.6198" transform="scale(1, -1)"
	style="font-family:Times;font-weight:normal;font-style:normal;font-size:10px">0</text>
<text x="239.98" y="-5.6849" transform="scale(1, -1)"
	style="font-family:Times;font-weight:normal;font-style:normal;font-size:10px">4</text>
<path d="M46.454,12.698L46.454,20.698" style="fill:none;stroke:#000000;stroke-width:0.5" />
<path d="M111.8,12.698L111.8,20.698" style="fill:none;stroke:#000000;stroke-width:0.5" />
<path d="M177.14,12.698L177.14,20.698" style="fill:none;stroke:#000000;stroke-width:0.5" />
<path d="M242.48,12.698L242.48,20.698" style="fill:none;stroke:#000000;stroke-width:0.5" />
<path d="M62.789,16.698L62.789,20.698" style="fill:none;stroke:#000000;stroke-width:0.5" />
<path d="M79.125,16.698L79.125,20.698" style="fill:none;stroke:#000000;stroke-width:0.5" />
<path d="M95.46,16.698L95.46,20.698" style="fill:none;stroke:#000000;stroke-width:0.5" />
<path d="M128.13,16.698L128.13,20.698" style="fill:none;stroke:#000000;stroke-width:0.5" />
<path d="M144.47,16.698L144.47,20.698" style="fill:none;stroke:#000000;stroke-width:0.5" />
<path d="M160.8,16.698L160.8,20.698" style="fill:none;stroke:#000000;stroke-width:0.5" />
<path d="M193.47,16.698L193.47,20.698" style="fill:none;stroke:#000000;stroke-width:0.5" />
<path d="M209.81,16.698L209.81,20.698" style="fill:none;stroke:#000000;stroke-width:0.5" />
<path d="M226.15,16.698L226.15,20.698" style="fill:none;stroke:#000000;stroke-width:0.5" />
<path d="M258.82,16.698L258.82,20.698" style="fill:none;stroke:#000000;stroke-width:0.5" />
<path d="M275.15,16.698L275.15,20.698" style="fill:none;stroke:#000000;stroke-width:0.5" />
<path d="M38.795,20.698L280.46,20.698" style="fill:none;stroke:#000000;stroke-width:0.5" />
<g transform="rotate(90)">
<text x="148.46" y="6.5352" transform="scale(1, -1)"
	style="font-family:Times;font-weight:normal;font-style:normal;font-size:12px">y</text>
</g>
<text x="11.215" y="-79.882" transform="scale(1, -1)"
	style="font-family:Times;font-weight:normal;font-style:normal;font-size:10px">-</text>
<text x="14.545" y="-79.882" transform="scale(1, -1)"
	style="font-family:Times;font-weight:normal;font-style:normal;font-size:10px">3</text>
<text x="14.545" y="-167.39" transform="scale(1, -1)"
	style="font-family:Times;font-weight:normal;font-style:normal;font-size:10px">0</text>
<text x="14.545" y="-254.93" transform="scale(1, -1)"
	style="font-family:Times;font-weight:normal;font-style:normal;font-size:10px">3</text>
<path d="M22.045,83.569L30.045,83.569" style="fill:none;stroke:#000000;stroke-width:0.5" />
<path d="M22.045,171.09L30.045,171.09" style="fill:none;stroke:#000000;stroke-width:0.5" />
<path d="M22.045,258.61L30.045,258.61" style="fill:none;stroke:#000000;stroke-width:0.5" />
<path d="M26.045,54.395L30.045,54.395" style="fill:none;stroke:#000000;stroke-width:0.5" />
<path d="M26.045,112.74L30.045,112.74" style="fill:none;stroke:#000000;stroke-width:0.5" />
<path d="M26.045,141.92L30.045,141.92" style="fill:none;stroke:#000000;stroke-width:0.5" />
<path d="M26.045,200.26L30.045,200.26" style="fill:none;stroke:#000000;stroke-width:0.5" />
<path d="M26.045,229.44L30.045,229.44" style="fill:none;stroke:#000000;stroke-width:0.5" />
<path d="M30.045,31.544L30.045,271.38" style="fill:none;stroke:#000000;stroke-width:0.5" />
<path d="M46.454,31.544L46.454,271.38" style="fill:none;stroke:#808080;stroke-width:0.25" />
<path d="M111.8,31.544L111.8,271.38" style="fill:none;stroke:#808080;stroke-width:0.25" />
<path d="M177.14,31.544L177.14,271.38" style="fill:none;stroke:#808080;stroke-width:0.25" />
<path d="M242.48,31.544L242.48,271.38" style="fill:none;stroke:#808080;stroke-width:0.25" />
<path d="M38.795,83.569L280.46,83.569" style="fill:none;stroke:#808080;stroke-width:0.25" />
<path d="M38.795,171.09L280.46,171.09" style="fill:none;stroke:#808080;stroke-width:0.25" />
<path d="M38.795,258.61L280.46,258.61" style="fill:none;stroke:#808080;stroke-width:0.25" />
<path d="M176.25,193.03A3,3 0 1 1 170.25,193.03A3,3 0 1 1 176.25,193.03Z" style="fill:#FFFFFE" />
<path d="M189.94,181.92A3,3 0 1 1 183.94,181.92A3,3 0 1 1 189.94,181.92Z"  />
<path d="M185.64,190.4A3,3 0 1 1 179.64,190.4A3,3 0 1 1 185.64,190.4Z"  />
<path d="M191.54,186.63A3,3 0 1 1 185.54,186.63A3,3 0 1 1 191.54,186.63Z"  />
<path d="M181.88,187.55A3,3 0 1 1 175.88,187.55A3,3 0 1 1 181.88,187.55Z"  />
<path d="M189.5,196.7A3,3 0 1 1 183.5,196.7A3,3 0 1 1 189.5,196.7Z"  />
<path d="M184.72,185.52A3,3 0 1 1 178.72,185.52A3,3 0 1 1 184.72,185.52Z"  />
<path d="M196.74,179.64A3,3 0 1 1 190.74,179.64A3,3 0 1 1 196.74,179.64Z"  />
<path d="M201.88,176.71A3,3 0 1 1 195.88,176.71A3,3 0 1 1 201.88,176.71Z"  />
<path d="M201.59,186.59A3,3 0 1 1 195.59,186.59A3,3 0 1 1 201.59,186.59Z"  />
<path d="M190.38,153.51A3,3 0 1 1 184.38,153.51A3,3 0 1 1 190.38,153.51Z"  />
<path d="M181.85,169.27A3,3 0 1 1 175.85,169.27A3,3 0 1 1 181.85,169.27Z"  />
<path d="M182.72,182.67A3,3 0 1 1 176.72,182.67A3,3 0 1 1 182.72,182.67Z"  />
<path d="M180.19,179.04A3,3 0 1 1 174.19,179.04A3,3 0 1 1 180.19,179.04Z"  />
<path d="M186.71,165.99A3,3 0 1 1 180.71,165.99A3,3 0 1 1 186.71,165.99Z"  />
<path d="M185.5,160.95A3,3 0 1 1 179.5,160.95A3,3 0 1 1 185.5,160.95Z"  />
<path d="M178.96,175.8A3,3 0 1 1 172.96,175.8A3,3 0 1 1 178.96,175.8Z"  />
<path d="M183.16,163.49A3,3 0 1 1 177.16,163.49A3,3 0 1 1 183.16,163.49Z"  />
<path d="M168.76,158.77A3,3 0 1 1 162.76,158.77A3,3 0 1 1 168.76,158.77Z"  />
<path d="M177.99,161.17A3,3 0 1 1 171.99,161.17A3,3 0 1 1 177.99,161.17Z"  />
<path d="M175.19,157.67A3,3 0 1 1 169.19,157.67A3,3 0 1 1 175.19,157.67Z"  />
<path d="M171.45,152.76A3,3 0 1 1 165.45,152.76A3,3 0 1 1 171.45,152.76Z"  />
<path d="M172.11,167.35A3,3 0 1 1 166.11,167.35A3,3 0 1 1 172.11,167.35Z"  />
<path d="M160.18,177.82A3,3 0 1 1 154.18,177.82A3,3 0 1 1 160.18,177.82Z"  />
<path d="M155.94,165A3,3 0 1 1 149.94,165A3,3 0 1 1 155.94,165Z"  />
<path d="M142.77,173.81A3,3 0 1 1 136.77,173.81A3,3 0 1 1 142.77,173.81Z"  />
<path d="M157.25,186.1A3,3 0 1 1 151.25,186.1A3,3 0 1 1 157.25,186.1Z"  />
<path d="M149.18,156.06A3,3 0 1 1 143.18,156.06A3,3 0 1 1 149.18,156.06Z"  />
<path d="M150.6,179.97A3,3 0 1 1 144.6,179.97A3,3 0 1 1 150.6,179.97Z"  />
<path d="M143.43,186.71A3,3 0 1 1 137.43,186.71A3,3 0 1 1 143.43,186.71Z"  />
<path d="M149.25,184.54A3,3 0 1 1 143.25,184.54A3,3 0 1 1 149.25,184.54Z"  />
<path d="M137.7,190.35A3,3 0 1 1 131.7,190.35A3,3 0 1 1 137.7,190.35Z"  />
<path d="M130.99,182.35A3,3 0 1 1 124.99,182.35A3,3 0 1 1 130.99,182.35Z"  />
<path d="M136.3,188.13A3,3 0 1 1 130.3,188.13A3,3 0 1 1 136.3,188.13Z"  />
<path d="M131.22,200.71A3,3 0 1 1 125.22,200.71A3,3 0 1 1 131.22,200.71Z"  />
<path d="M132.13,212.59A3,3 0 1 1 126.13,212.59A3,3 0 1 1 132.13,212.59Z"  />
<path d="M145.31,208.7A3,3 0 1 1 139.31,208.7A3,3 0 1 1 145.31,208.7Z"  />
<path d="M143.93,227.71A3,3 0 1 1 137.93,227.71A3,3 0 1 1 143.93,227.71Z"  />
<path d="M135.42,213.44A3,3 0 1 1 129.42,213.44A3,3 0 1 1 135.42,213.44Z"  />
<path d="M136.2,244.07A3,3 0 1 1 130.2,244.07A3,3 0 1 1 136.2,244.07Z"  />
<path d="M136.13,236.18A3,3 0 1 1 130.13,236.18A3,3 0 1 1 136.13,236.18Z"  />
<path d="M147.77,249.22A3,3 0 1 1 141.77,249.22A3,3 0 1 1 147.77,249.22Z"  />
<path d="M140.04,261.23A3,3 0 1 1 134.04,261.23A3,3 0 1 1 140.04,261.23Z"  />
<path d="M161.86,250.86A3,3 0 1 1 155.86,250.86A3,3 0 1 1 161.86,250.86Z"  />
<path d="M157.95,250.12A3,3 0 1 1 151.95,250.12A3,3 0 1 1 157.95,250.12Z"  />
<path d="M165.17,264.78A3,3 0 1 1 159.17,264.78A3,3 0 1 1 165.17,264.78Z"  />
<path d="M162.11,266.09A3,3 0 1 1 156.11,266.09A3,3 0 1 1 162.11,266.09Z"  />
<path d="M164.72,257.47A3,3 0 1 1 158.72,257.47A3,3 0 1 1 164.72,257.47Z"  />
<path d="M189.19,255.73A3,3 0 1 1 183.19,255.73A3,3 0 1 1 189.19,255.73Z"  />
<path d="M194.6,271.38A3,3 0 1 1 188.6,271.38A3,3 0 1 1 194.6,271.38Z"  />
<path d="M196.87,261.83A3,3 0 1 1 190.87,261.83A3,3 0 1 1 196.87,261.83Z"  />
<path d="M191.53,258.95A3,3 0 1 1 185.53,258.95A3,3 0 1 1 191.53,258.95Z"  />
<path d="M208.67,258.3A3,3 0 1 1 202.67,258.3A3,3 0 1 1 208.67,258.3Z"  />
<path d="M217.15,266.65A3,3 0 1 1 211.15,266.65A3,3 0 1 1 217.15,266.65Z"  />
<path d="M225.26,247.73A3,3 0 1 1 219.26,247.73A3,3 0 1 1 225.26,247.73Z"  />
<path d="M225.1,264.19A3,3 0 1 1 219.1,264.19A3,3 0 1 1 225.1,264.19Z"  />
<path d="M240.86,259.07A3,3 0 1 1 234.86,259.07A3,3 0 1 1 240.86,259.07Z"  />
<path d="M238.41,261.97A3,3 0 1 1 232.41,261.97A3,3 0 1 1 238.41,261.97Z"  />
<path d="M248.97,223.59A3,3 0 1 1 242.97,223.59A3,3 0 1 1 248.97,223.59Z"  />
<path d="M261.05,239.11A3,3 0 1 1 255.05,239.11A3,3 0 1 1 261.05,239.11Z"  />
<path d="M262,226.15A3,3 0 1 1 256,226.15A3,3 0 1 1 262,226.15Z"  />
<path d="M254.9,210.31A3,3 0 1 1 248.9,210.31A3,3 0 1 1 254.9,210.31Z"  />
<path d="M273.52,213.43A3,3 0 1 1 267.52,213.43A3,3 0 1 1 273.52,213.43Z"  />
<path d="M273.16,186.94A3,3 0 1 1 267.16,186.94A3,3 0 1 1 273.16,186.94Z"  />
<path d="M277.24,193.77A3,3 0 1 1 271.24,193.77A3,3 0 1 1 277.24,193.77Z"  />
<path d="M272.02,175.42A3,3 0 1 1 266.02,175.42A3,3 0 1 1 272.02,175.42Z"  />
<path d="M275.03,170.47A3,3 0 1 1 269.03,170.47A3,3 0 1 1 275.03,170.47Z"  />
<path d="M283.46,157.75A3,3 0 1 1 277.46,157.75A3,3 0 1 1 283.46,157.75Z"  />
<path d="M274.82,138.06A3,3 0 1 1 268.82,138.06A3,3 0 1 1 274.82,138.06Z"  />
<path d="M278.04,145.01A3,3 0 1 1 272.04,145.01A3,3 0 1 1 278.04,145.01Z"  />
<path d="M270.34,115.4A3,3 0 1 1 264.34,115.4A3,3 0 1 1 270.34,115.4Z"  />
<path d="M265.11,104A3,3 0 1 1 259.11,104A3,3 0 1 1 265.11,104Z"  />
<path d="M264.43,104.78A3,3 0 1 1 258.43,104.78A3,3 0 1 1 264.43,104.78Z"  />
<path d="M263.95,89.139A3,3 0 1 1 257.95,89.139A3,3 0 1 1 263.95,89.139Z"  />
<path d="M248.17,93.025A3,3 0 1 1 242.17,93.025A3,3 0 1 1 248.17,93.025Z"  />
<path d="M245.44,81.549A3,3 0 1 1 239.44,81.549A3,3 0 1 1 245.44,81.549Z"  />
<path d="M250.05,74.773A3,3 0 1 1 244.05,74.773A3,3 0 1 1 250.05,74.773Z"  />
<path d="M244.7,76.476A3,3 0 1 1 238.7,76.476A3,3 0 1 1 244.7,76.476Z"  />
<path d="M233.67,61.904A3,3 0 1 1 227.67,61.904A3,3 0 1 1 233.67,61.904Z"  />
<path d="M222.47,57.184A3,3 0 1 1 216.47,57.184A3,3 0 1 1 222.47,57.184Z"  />
<path d="M205.95,47.095A3,3 0 1 1 199.95,47.095A3,3 0 1 1 205.95,47.095Z"  />
<path d="M196.59,42.314A3,3 0 1 1 190.59,42.314A3,3 0 1 1 196.59,42.314Z"  />
<path d="M197.57,31.544A3,3 0 1 1 191.57,31.544A3,3 0 1 1 197.57,31.544Z"  />
<path d="M178.26,50.16A3,3 0 1 1 172.26,50.16A3,3 0 1 1 178.26,50.16Z"  />
<path d="M155.53,53.606A3,3 0 1 1 149.53,53.606A3,3 0 1 1 155.53,53.606Z"  />
<path d="M157.34,57.85A3,3 0 1 1 151.34,57.85A3,3 0 1 1 157.34,57.85Z"  />
<path d="M141.17,66.03A3,3 0 1 1 135.17,66.03A3,3 0 1 1 141.17,66.03Z"  />
<path d="M124.11,64.578A3,3 0 1 1 118.11,64.578A3,3 0 1 1 124.11,64.578Z"  />
<path d="M126.49,73.649A3,3 0 1 1 120.49,73.649A3,3 0 1 1 126.49,73.649Z"  />
<path d="M105.57,93.542A3,3 0 1 1 99.57,93.542A3,3 0 1 1 105.57,93.542Z"  />
<path d="M97.044,114.58A3,3 0 1 1 91.044,114.58A3,3 0 1 1 97.044,114.58Z"  />
<path d="M94.831,97.488A3,3 0 1 1 88.831,97.488A3,3 0 1 1 94.831,97.488Z"  />
<path d="M79.041,104.06A3,3 0 1 1 73.041,104.06A3,3 0 1 1 79.041,104.06Z"  />
<path d="M63.009,124.37A3,3 0 1 1 57.009,124.37A3,3 0 1 1 63.009,124.37Z"  />
<path d="M62.838,118.93A3,3 0 1 1 56.838,118.93A3,3 0 1 1 62.838,118.93Z"  />
<path d="M64.32,145.77A3,3 0 1 1 58.32,145.77A3,3 0 1 1 64.32,145.77Z"  />
<path d="M53.529,155.9A3,3 0 1 1 47.529,155.9A3,3 0 1 1 53.529,155.9Z"  />
<path d="M46.268,188.92A3,3 0 1 1 40.268,188.92A3,3 0 1 1 46.268,188.92Z"  />
<path d="M41.795,210.87A3,3 0 1 1 35.795,210.87A3,3 0 1 1 41.795,210.87Z"  />
<path d="M44.169,196.59A3,3 0 1 1 38.169,196.59A3,3 0 1 1 44.169,196.59Z"  />
</g>
</svg>
