<?xml version="1.0"?>
<!-- Generated by SVGo and Plotinum VG -->
<svg width="300pt" height="300pt" viewBox="0 0 300 300"
	xmlns="http://www.w3.org/2000/svg"
	xmlns:xlink="http://www.w3.org/1999/xlink">
<g transform="scale(1, -1) translate(0, -300)">
<path d="M0,0L300,0L300,300L0,300Z" style="fill:#FFFFFF" />
<text x="57.023" y="-291.04" transform="scale(1, -1)"
	style="font-family:Times;font-weight:normal;font-style:normal;font-size:12px">S</text>
<text x="63.697" y="-291.04" transform="scale(1, -1)"
	style="font-family:Times;font-weight:normal;font-style:normal;font-size:12px">c</text>
<text x="69.023" y="-291.04" transform="scale(1, -1)"
	style="font-family:Times;font-weight:normal;font-style:normal;font-size:12px">a</text>
<text x="74.35" y="-291.04" transform="scale(1, -1)"
	style="font-family:Times;font-weight:normal;font-style:normal;font-size:12px">t</text>
<text x="77.684" y="-291.04" transform="scale(1, -1)"
	style="font-family:Times;font-weight:normal;font-style:normal;font-size:12px">t</text>
<text x="81.018" y="-291.04" transform="scale(1, -1)"
	style="font-family:Times;font-weight:normal;font-style:normal;font-size:12px">e</text>
<text x="86.344" y="-291.04" transform="scale(1, -1)"
	style="font-family:Times;font-weight:normal;font-style:normal;font-size:12px">r</text>
<text x="90.34" y="-291.04" transform="scale(1, -1)"
	style="font-family:Times;font-weight:normal;font-style:normal;font-size:12px"> </text>
<text x="93.34" y="-291.04" transform="scale(1, -1)"
	style="font-family:Times;font-weight:normal;font-style:normal;font-size:12px">P</text>
<text x="100.01" y="-291.04" transform="scale(1, -1)"
	style="font-family:Times;font-weight:normal;font-style:normal;font-size:12px">l</text>
<text x="103.35" y="-291.04" transform="scale(1, -1)"
	style="font-family:Times;font-weight:normal;font-style:normal;font-size:12px">o</text>
<text x="109.35" y="-291.04" transform="scale(1, -1)"
	style="font-family:Times;font-weight:normal;font-style:normal;font-size:12px">t</text>
<text x="112.68" y="-291.04" transform="scale(1, -1)"
	style="font-family:Times;font-weight:normal;font-style:normal;font-size:12px"> </text>
<text x="115.68" y="-291.04" transform="scale(1, -1)"
	style="font-family:Times;font-weight:normal;font-style:normal;font-size:12px">o</text>
<text x="121.68" y="-291.04" transform="scale(1, -1)"
	style="font-family:Times;font-weight:normal;font-style:normal;font-size:12px">f</text>
<text x="125.68" y="-291.04" transform="scale(1, -1)"
	style="font-family:Times;font-weight:normal;font-style:normal;font-size:12px"> </text>
<text x="128.68" y="-291.04" transform="scale(1, -1)"
	style="font-family:Times;font-weight:normal;font-style:normal;font-size:12px">t</text>
<text x="132.01" y="-291.04" transform="scale(1, -1)"
	style="font-family:Times;font-weight:normal;font-style:normal;font-size:12px">h</text>
<text x="138.01" y="-291.04" transform="scale(1, -1)"
	style="font-family:Times;font-weight:normal;font-style:normal;font-size:12px">e</text>
<text x="143.34" y="-291.04" transform="scale(1, -1)"
	style="font-family:Times;font-weight:normal;font-style:normal;font-size:12px"> </text>
<text x="146.34" y="-291.04" transform="scale(1, -1)"
	style="font-family:Times;font-weight:normal;font-style:normal;font-size:12px">L</text>
<text x="153.67" y="-291.04" transform="scale(1, -1)"
	style="font-family:Times;font-weight:normal;font-style:normal;font-size:12px">a</text>
<text x="158.99" y="-291.04" transform="scale(1, -1)"
	style="font-family:Times;font-weight:normal;font-style:normal;font-size:12px">t</text>
<text x="162.33" y="-291.04" transform="scale(1, -1)"
	style="font-family:Times;font-weight:normal;font-style:normal;font-size:12px">e</text>
<text x="167.65" y="-291.04" transform="scale(1, -1)"
	style="font-family:Times;font-weight:normal;font-style:normal;font-size:12px">n</text>
<text x="173.65" y="-291.04" transform="scale(1, -1)"
	style="font-family:Times;font-weight:normal;font-style:normal;font-size:12px">t</text>
<text x="176.99" y="-291.04" transform="scale(1, -1)"
	style="font-family:Times;font-weight:normal;font-style:normal;font-size:12px"> </text>
<text x="179.99" y="-291.04" transform="scale(1, -1)"
	style="font-family:Times;font-weight:normal;font-style:normal;font-size:12px">S</text>
<text x="186.66" y="-291.04" transform="scale(1, -1)"
	style="font-family:Times;font-weight:normal;font-style:normal;font-size:12px">p</text>
<text x="192.66" y="-291.04" transform="scale(1, -1)"
	style="font-family:Times;font-weight:normal;font-style:normal;font-size:12px">a</text>
<text x="197.99" y="-291.04" transform="scale(1, -1)"
	style="font-family:Times;font-weight:normal;font-style:normal;font-size:12px">c</text>
<text x="203.31" y="-291.04" transform="scale(1, -1)"
	style="font-family:Times;font-weight:normal;font-style:normal;font-size:12px">e</text>
<text x="208.64" y="-291.04" transform="scale(1, -1)"
	style="font-family:Times;font-weight:normal;font-style:normal;font-size:12px"> </text>
<text x="211.64" y="-291.04" transform="scale(1, -1)"
	style="font-family:Times;font-weight:normal;font-style:normal;font-size:12px">(</text>
<text x="215.64" y="-291.04" transform="scale(1, -1)"
	style="font-family:Times;font-weight:normal;font-style:normal;font-size:12px">P</text>
<text x="222.31" y="-291.04" transform="scale(1, -1)"
	style="font-family:Times;font-weight:normal;font-style:normal;font-size:12px">C</text>
<text x="230.31" y="-291.04" transform="scale(1, -1)"
	style="font-family:Times;font-weight:normal;font-style:normal;font-size:12px">A</text>
<text x="238.98" y="-291.04" transform="scale(1, -1)"
	style="font-family:Times;font-weight:normal;font-style:normal;font-size:12px">)</text>
<text x="165.23" y="0.50977" transform="scale(1, -1)"
	style="font-family:Times;font-weight:normal;font-style:normal;font-size:12px">x</text>
<text x="42.813" y="-5.6198" transform="scale(1, -1)"
	style="font-family:Times;font-weight:normal;font-style:normal;font-size:10px">-</text>
<text x="46.143" y="-5.6198" transform="scale(1, -1)"
	style="font-family:Times;font-weight:normal;font-style:normal;font-size:10px">8</text>
<text x="112.63" y="-5.6849" transform="scale(1, -1)"
	style="font-family:Times;font-weight:normal;font-style:normal;font-size:10px">-</text>
<text x="115.96" y="-5.6849" transform="scale(1, -1)"
	style="font-family:Times;font-weight:normal;font-style:normal;font-size:10px">4</text>
<text x="184.1" y="-5.6198" transform="scale(1, -1)"
	style="font-family:Times;font-weight:normal;font-style:normal;font-size:10px">0</text>
<text x="253.92" y="-5.6849" transform="scale(1, -1)"
	style="font-family:Times;font-weight:normal;font-style:normal;font-size:10px">4</text>
<path d="M46.978,12.698L46.978,20.698" style="fill:none;stroke:#000000;stroke-width:0.5" />
<path d="M116.79,12.698L116.79,20.698" style="fill:none;stroke:#000000;stroke-width:0.5" />
<path d="M186.6,12.698L186.6,20.698" style="fill:none;stroke:#000000;stroke-width:0.5" />
<path d="M256.42,12.698L256.42,20.698" style="fill:none;stroke:#000000;stroke-width:0.5" />
<path d="M64.431,16.698L64.431,20.698" style="fill:none;stroke:#000000;stroke-width:0.5" />
<path d="M81.884,16.698L81.884,20.698" style="fill:none;stroke:#000000;stroke-width:0.5" />
<path d="M99.338,16.698L99.338,20.698" style="fill:none;stroke:#000000;stroke-width:0.5" />
<path d="M134.24,16.698L134.24,20.698" style="fill:none;stroke:#000000;stroke-width:0.5" />
<path d="M151.7,16.698L151.7,20.698" style="fill:none;stroke:#000000;stroke-width:0.5" />
<path d="M169.15,16.698L169.15,20.698" style="fill:none;stroke:#000000;stroke-width:0.5" />
<path d="M204.06,16.698L204.06,20.698" style="fill:none;stroke:#000000;stroke-width:0.5" />
<path d="M221.51,16.698L221.51,20.698" style="fill:none;stroke:#000000;stroke-width:0.5" />
<path d="M238.96,16.698L238.96,20.698" style="fill:none;stroke:#000000;stroke-width:0.5" />
<path d="M273.87,16.698L273.87,20.698" style="fill:none;stroke:#000000;stroke-width:0.5" />
<path d="M291.32,16.698L291.32,20.698" style="fill:none;stroke:#000000;stroke-width:0.5" />
<path d="M38.795,20.698L297,20.698" style="fill:none;stroke:#000000;stroke-width:0.5" />
<g transform="rotate(90)">
<text x="155.85" y="6.5352" transform="scale(1, -1)"
	style="font-family:Times;font-weight:normal;font-style:normal;font-size:12px">y</text>
</g>
<text x="11.215" y="-82.94" transform="scale(1, -1)"
	style="font-family:Times;font-weight:normal;font-style:normal;font-size:10px">-</text>
<text x="14.545" y="-82.94" transform="scale(1, -1)"
	style="font-family:Times;font-weight:normal;font-style:normal;font-size:10px">3</text>
<text x="14.545" y="-175.59" transform="scale(1, -1)"
	style="font-family:Times;font-weight:normal;font-style:normal;font-size:10px">0</text>
<text x="14.545" y="-268.27" transform="scale(1, -1)"
	style="font-family:Times;font-weight:normal;font-style:normal;font-size:10px">3</text>
<path d="M22.045,86.627L30.045,86.627" style="fill:none;stroke:#000000;stroke-width:0.5" />
<path d="M22.045,179.29L30.045,179.29" style="fill:none;stroke:#000000;stroke-width:0.5" />
<path d="M22.045,271.96L30.045,271.96" style="fill:none;stroke:#000000;stroke-width:0.5" />
<path d="M26.045,55.738L30.045,55.738" style="fill:none;stroke:#000000;stroke-width:0.5" />
<path d="M26.045,117.52L30.045,117.52" style="fill:none;stroke:#000000;stroke-width:0.5" />
<path d="M26.045,148.4L30.045,148.4" style="fill:none;stroke:#000000;stroke-width:0.5" />
<path d="M26.045,210.18L30.045,210.18" style="fill:none;stroke:#000000;stroke-width:0.5" />
<path d="M26.045,241.07L30.045,241.07" style="fill:none;stroke:#000000;stroke-width:0.5" />
<path d="M30.045,31.544L30.045,285.47" style="fill:none;stroke:#000000;stroke-width:0.5" />
<path d="M185.45,202.53A3,3 0 1 1 179.45,202.53A3,3 0 1 1 185.45,202.53Z"  />
<path d="M200.07,190.76A3,3 0 1 1 194.07,190.76A3,3 0 1 1 200.07,190.76Z" style="fill:#08010B" />
<path d="M195.49,199.74A3,3 0 1 1 189.49,199.74A3,3 0 1 1 195.49,199.74Z" style="fill:#0F0214" />
<path d="M201.78,195.74A3,3 0 1 1 195.78,195.74A3,3 0 1 1 201.78,195.74Z" style="fill:#15041A" />
<path d="M191.46,196.72A3,3 0 1 1 185.46,196.72A3,3 0 1 1 191.46,196.72Z" style="fill:#190520" />
<path d="M199.61,206.41A3,3 0 1 1 193.61,206.41A3,3 0 1 1 199.61,206.41Z" style="fill:#1C0726" />
<path d="M194.5,194.57A3,3 0 1 1 188.5,194.57A3,3 0 1 1 194.5,194.57Z" style="fill:#1E082D" />
<path d="M207.34,188.34A3,3 0 1 1 201.34,188.34A3,3 0 1 1 207.34,188.34Z" style="fill:#220833" />
<path d="M212.83,185.24A3,3 0 1 1 206.83,185.24A3,3 0 1 1 212.83,185.24Z" style="fill:#25073A" />
<path d="M212.53,195.7A3,3 0 1 1 206.53,195.7A3,3 0 1 1 212.53,195.7Z" style="fill:#280641" />
<path d="M200.55,160.68A3,3 0 1 1 194.55,160.68A3,3 0 1 1 200.55,160.68Z" style="fill:#2C0448" />
<path d="M191.43,177.37A3,3 0 1 1 185.43,177.37A3,3 0 1 1 191.43,177.37Z" style="fill:#2E044F" />
<path d="M192.37,191.56A3,3 0 1 1 186.37,191.56A3,3 0 1 1 192.37,191.56Z" style="fill:#300455" />
<path d="M189.66,187.71A3,3 0 1 1 183.66,187.71A3,3 0 1 1 189.66,187.71Z" style="fill:#32045B" />
<path d="M196.62,173.9A3,3 0 1 1 190.62,173.9A3,3 0 1 1 196.62,173.9Z" style="fill:#340462" />
<path d="M195.33,168.56A3,3 0 1 1 189.33,168.56A3,3 0 1 1 195.33,168.56Z" style="fill:#360568" />
<path d="M188.34,184.28A3,3 0 1 1 182.34,184.28A3,3 0 1 1 188.34,184.28Z" style="fill:#37056F" />
<path d="M192.84,171.25A3,3 0 1 1 186.84,171.25A3,3 0 1 1 192.84,171.25Z" style="fill:#390575" />
<path d="M177.44,166.25A3,3 0 1 1 171.44,166.25A3,3 0 1 1 177.44,166.25Z" style="fill:#3A057C" />
<path d="M187.31,168.79A3,3 0 1 1 181.31,168.79A3,3 0 1 1 187.31,168.79Z" style="fill:#3C0683" />
<path d="M184.32,165.09A3,3 0 1 1 178.32,165.09A3,3 0 1 1 184.32,165.09Z" style="fill:#3D0689" />
<path d="M180.32,159.89A3,3 0 1 1 174.32,159.89A3,3 0 1 1 180.32,159.89Z" style="fill:#3E0690" />
<path d="M181.02,175.33A3,3 0 1 1 175.02,175.33A3,3 0 1 1 181.02,175.33Z" style="fill:#3C1192" />
<path d="M168.28,186.42A3,3 0 1 1 162.28,186.42A3,3 0 1 1 168.28,186.42Z" style="fill:#3A1994" />
<path d="M163.75,172.84A3,3 0 1 1 157.75,172.84A3,3 0 1 1 163.75,172.84Z" style="fill:#372096" />
<path d="M149.68,182.17A3,3 0 1 1 143.68,182.17A3,3 0 1 1 149.68,182.17Z" style="fill:#332698" />
<path d="M165.15,195.19A3,3 0 1 1 159.15,195.19A3,3 0 1 1 165.15,195.19Z" style="fill:#302B9A" />
<path d="M156.53,163.38A3,3 0 1 1 150.53,163.38A3,3 0 1 1 156.53,163.38Z" style="fill:#2B309C" />
<path d="M158.05,188.7A3,3 0 1 1 152.05,188.7A3,3 0 1 1 158.05,188.7Z" style="fill:#26349E" />
<path d="M150.38,195.83A3,3 0 1 1 144.38,195.83A3,3 0 1 1 150.38,195.83Z" style="fill:#1F39A0" />
<path d="M156.6,193.53A3,3 0 1 1 150.6,193.53A3,3 0 1 1 156.6,193.53Z" style="fill:#173DA2" />
<path d="M144.26,199.69A3,3 0 1 1 138.26,199.69A3,3 0 1 1 144.26,199.69Z" style="fill:#0841A4" />
<path d="M137.09,191.21A3,3 0 1 1 131.09,191.21A3,3 0 1 1 137.09,191.21Z" style="fill:#12469E" />
<path d="M142.77,197.34A3,3 0 1 1 136.77,197.34A3,3 0 1 1 142.77,197.34Z" style="fill:#184B98" />
<path d="M137.34,210.65A3,3 0 1 1 131.34,210.65A3,3 0 1 1 137.34,210.65Z" style="fill:#1B4F92" />
<path d="M138.32,223.23A3,3 0 1 1 132.32,223.23A3,3 0 1 1 138.32,223.23Z" style="fill:#1C548B" />
<path d="M152.4,219.11A3,3 0 1 1 146.4,219.11A3,3 0 1 1 152.4,219.11Z" style="fill:#1C5885" />
<path d="M150.92,239.24A3,3 0 1 1 144.92,239.24A3,3 0 1 1 150.92,239.24Z" style="fill:#1B5C7E" />
<path d="M141.82,224.13A3,3 0 1 1 135.82,224.13A3,3 0 1 1 141.82,224.13Z" style="fill:#186078" />
<path d="M142.66,256.56A3,3 0 1 1 136.66,256.56A3,3 0 1 1 142.66,256.56Z" style="fill:#126571" />
<path d="M142.59,248.21A3,3 0 1 1 136.59,248.21A3,3 0 1 1 142.59,248.21Z" style="fill:#08696B" />
<path d="M155.02,262.01A3,3 0 1 1 149.02,262.01A3,3 0 1 1 155.02,262.01Z" style="fill:#056B6D" />
<path d="M146.76,274.73A3,3 0 1 1 140.76,274.73A3,3 0 1 1 146.76,274.73Z" style="fill:#066E72" />
<path d="M170.07,263.76A3,3 0 1 1 164.07,263.76A3,3 0 1 1 170.07,263.76Z" style="fill:#077077" />
<path d="M165.9,262.97A3,3 0 1 1 159.9,262.97A3,3 0 1 1 165.9,262.97Z" style="fill:#08737C" />
<path d="M173.61,278.49A3,3 0 1 1 167.61,278.49A3,3 0 1 1 173.61,278.49Z" style="fill:#087581" />
<path d="M170.35,279.88A3,3 0 1 1 164.35,279.88A3,3 0 1 1 170.35,279.88Z" style="fill:#097886" />
<path d="M173.13,270.75A3,3 0 1 1 167.13,270.75A3,3 0 1 1 173.13,270.75Z" style="fill:#097A8B" />
<path d="M199.28,268.91A3,3 0 1 1 193.28,268.91A3,3 0 1 1 199.28,268.91Z" style="fill:#097D90" />
<path d="M205.05,285.47A3,3 0 1 1 199.05,285.47A3,3 0 1 1 205.05,285.47Z" style="fill:#097F95" />
<path d="M207.48,275.37A3,3 0 1 1 201.48,275.37A3,3 0 1 1 207.48,275.37Z" style="fill:#08829A" />
<path d="M201.78,272.32A3,3 0 1 1 195.78,272.32A3,3 0 1 1 201.78,272.32Z" style="fill:#0884A0" />
<path d="M220.08,271.63A3,3 0 1 1 214.08,271.63A3,3 0 1 1 220.08,271.63Z" style="fill:#0787A5" />
<path d="M229.15,280.47A3,3 0 1 1 223.15,280.47A3,3 0 1 1 229.15,280.47Z" style="fill:#138AA4" />
<path d="M237.81,260.44A3,3 0 1 1 231.81,260.44A3,3 0 1 1 237.81,260.44Z" style="fill:#268E93" />
<path d="M237.64,277.87A3,3 0 1 1 231.64,277.87A3,3 0 1 1 237.64,277.87Z" style="fill:#2E9282" />
<path d="M254.48,272.45A3,3 0 1 1 248.48,272.45A3,3 0 1 1 254.48,272.45Z" style="fill:#319671" />
<path d="M251.87,275.51A3,3 0 1 1 245.87,275.51A3,3 0 1 1 251.87,275.51Z" style="fill:#309B5F" />
<path d="M263.14,234.88A3,3 0 1 1 257.14,234.88A3,3 0 1 1 263.14,234.88Z" style="fill:#2B9F4C" />
<path d="M276.06,251.31A3,3 0 1 1 270.06,251.31A3,3 0 1 1 276.06,251.31Z" style="fill:#21A337" />
<path d="M277.07,237.59A3,3 0 1 1 271.07,237.59A3,3 0 1 1 277.07,237.59Z" style="fill:#08A71A" />
<path d="M269.48,220.82A3,3 0 1 1 263.48,220.82A3,3 0 1 1 269.48,220.82Z" style="fill:#18AA18" />
<path d="M289.37,224.12A3,3 0 1 1 283.37,224.12A3,3 0 1 1 289.37,224.12Z" style="fill:#22AD17" />
<path d="M288.99,196.07A3,3 0 1 1 282.99,196.07A3,3 0 1 1 288.99,196.07Z" style="fill:#2BAF16" />
<path d="M293.35,203.31A3,3 0 1 1 287.35,203.31A3,3 0 1 1 293.35,203.31Z" style="fill:#32B215" />
<path d="M287.77,183.87A3,3 0 1 1 281.77,183.87A3,3 0 1 1 287.77,183.87Z" style="fill:#39B513" />
<path d="M290.98,178.63A3,3 0 1 1 284.98,178.63A3,3 0 1 1 290.98,178.63Z" style="fill:#3FB711" />
<path d="M300,165.17A3,3 0 1 1 294,165.17A3,3 0 1 1 300,165.17Z" style="fill:#44BA10" />
<path d="M290.77,144.32A3,3 0 1 1 284.77,144.32A3,3 0 1 1 290.77,144.32Z" style="fill:#4ABD0D" />
<path d="M294.21,151.68A3,3 0 1 1 288.21,151.68A3,3 0 1 1 294.21,151.68Z" style="fill:#4FBF0B" />
<path d="M285.98,120.33A3,3 0 1 1 279.98,120.33A3,3 0 1 1 285.98,120.33Z" style="fill:#56C208" />
<path d="M280.39,108.26A3,3 0 1 1 274.39,108.26A3,3 0 1 1 280.39,108.26Z" style="fill:#65C308" />
<path d="M279.66,109.09A3,3 0 1 1 273.66,109.09A3,3 0 1 1 279.66,109.09Z" style="fill:#72C508" />
<path d="M279.15,92.525A3,3 0 1 1 273.15,92.525A3,3 0 1 1 279.15,92.525Z" style="fill:#7EC608" />
<path d="M262.29,96.639A3,3 0 1 1 256.29,96.639A3,3 0 1 1 262.29,96.639Z" style="fill:#8AC708" />
<path d="M259.38,84.489A3,3 0 1 1 253.38,84.489A3,3 0 1 1 259.38,84.489Z" style="fill:#95C908" />
<path d="M264.3,77.315A3,3 0 1 1 258.3,77.315A3,3 0 1 1 264.3,77.315Z" style="fill:#A0CA08" />
<path d="M258.59,79.117A3,3 0 1 1 252.59,79.117A3,3 0 1 1 258.59,79.117Z" style="fill:#AACB09" />
<path d="M246.8,63.689A3,3 0 1 1 240.8,63.689A3,3 0 1 1 246.8,63.689Z" style="fill:#B4CC09" />
<path d="M234.83,58.692A3,3 0 1 1 228.83,58.692A3,3 0 1 1 234.83,58.692Z" style="fill:#BECD09" />
<path d="M217.19,48.009A3,3 0 1 1 211.19,48.009A3,3 0 1 1 217.19,48.009Z" style="fill:#C6CE1F" />
<path d="M207.18,42.947A3,3 0 1 1 201.18,42.947A3,3 0 1 1 207.18,42.947Z" style="fill:#CDD039" />
<path d="M208.22,31.544A3,3 0 1 1 202.22,31.544A3,3 0 1 1 208.22,31.544Z" style="fill:#D3D14C" />
<path d="M187.6,51.255A3,3 0 1 1 181.6,51.255A3,3 0 1 1 187.6,51.255Z" style="fill:#D9D25E" />
<path d="M163.31,54.903A3,3 0 1 1 157.31,54.903A3,3 0 1 1 163.31,54.903Z" style="fill:#DFD46E" />
<path d="M165.25,59.396A3,3 0 1 1 159.25,59.396A3,3 0 1 1 165.25,59.396Z" style="fill:#E4D57D" />
<path d="M147.97,68.057A3,3 0 1 1 141.97,68.057A3,3 0 1 1 147.97,68.057Z" style="fill:#EAD68C" />
<path d="M129.74,66.52A3,3 0 1 1 123.74,66.52A3,3 0 1 1 129.74,66.52Z" style="fill:#EFD89B" />
<path d="M132.28,76.124A3,3 0 1 1 126.28,76.124A3,3 0 1 1 132.28,76.124Z" style="fill:#F3D9AA" />
<path d="M109.93,97.186A3,3 0 1 1 103.93,97.186A3,3 0 1 1 109.93,97.186Z" style="fill:#F8DAB9" />
<path d="M100.82,119.46A3,3 0 1 1 94.824,119.46A3,3 0 1 1 100.82,119.46Z" style="fill:#FCDCC5" />
<path d="M98.46,101.36A3,3 0 1 1 92.46,101.36A3,3 0 1 1 98.46,101.36Z" style="fill:#FCE0CB" />
<path d="M81.59,108.32A3,3 0 1 1 75.59,108.32A3,3 0 1 1 81.59,108.32Z" style="fill:#FDE3D1" />
<path d="M64.461,129.83A3,3 0 1 1 58.461,129.83A3,3 0 1 1 64.461,129.83Z" style="fill:#FDE6D6" />
<path d="M64.278,124.06A3,3 0 1 1 58.278,124.06A3,3 0 1 1 64.278,124.06Z" style="fill:#FDEADC" />
<path d="M65.861,152.49A3,3 0 1 1 59.861,152.49A3,3 0 1 1 65.861,152.49Z" style="fill:#FEEDE2" />
<path d="M54.332,163.21A3,3 0 1 1 48.332,163.21A3,3 0 1 1 54.332,163.21Z" style="fill:#FEF1E7" />
<path d="M46.575,198.18A3,3 0 1 1 40.575,198.18A3,3 0 1 1 46.575,198.18Z" style="fill:#FEF4ED" />
<path d="M41.795,221.41A3,3 0 1 1 35.795,221.41A3,3 0 1 1 41.795,221.41Z" style="fill:#FEF8F3" />
<path d="M44.331,206.29A3,3 0 1 1 38.331,206.29A3,3 0 1 1 44.331,206.29Z" style="fill:#FEFBF9" />
</g>
</svg>
